<svg xmlns="http://www.w3.org/2000/svg" xmlns:xlink="http://www.w3.org/1999/xlink" width="1920" height="1080" viewBox="0 0 1920 1080">
  <defs>
    <style>
      .cls-1 {
        isolation: isolate;
      }

      .cls-2 {
        fill: url(#linear-gradient);
      }

      .cls-3 {
        opacity: 0.9;
        mix-blend-mode: screen;
      }

      .cls-4 {
        fill: url(#linear-gradient-2);
      }

      .cls-5 {
        mix-blend-mode: overlay;
      }

      .cls-6 {
        fill: #fff;
      }

      .cls-7 {
        fill: #054c12;
      }

      .cls-8 {
        fill: #191818;
      }

      .cls-9 {
        fill: #0b440b;
      }

      .cls-10 {
        fill: #065110;
      }

      .cls-11 {
        fill: #211f2d;
      }

      .cls-12 {
        fill: #282530;
      }

      .cls-13 {
        fill: #042117;
      }

      .cls-14 {
        fill: #66310e;
      }

      .cls-15 {
        fill: #0d0006;
      }

      .cls-16 {
        fill: #062638;
      }

      .cls-17 {
        fill: #3f190c;
      }

      .cls-18 {
        fill: #a06135;
      }

      .cls-19 {
        fill: #9b4e1b;
      }

      .cls-20 {
        fill: #2b1900;
      }

      .cls-21 {
        fill: #ffcc4d;
      }

      .cls-22 {
        fill: #2d1a12;
      }

      .cls-23 {
        fill: #e28734;
      }

      .cls-24 {
        fill: #472712;
      }

      .cls-25 {
        fill: #1e0c0c;
      }
    </style>
    <linearGradient id="linear-gradient" x1="961.66" y1="-2.46" x2="958.41" y2="749.93" gradientUnits="userSpaceOnUse">
      <stop offset="0" stop-color="#001235"/>
      <stop offset="1" stop-color="#8523db"/>
    </linearGradient>
    <linearGradient id="linear-gradient-2" x1="451.98" y1="212.73" x2="452.96" y2="387.81" gradientUnits="userSpaceOnUse">
      <stop offset="0" stop-color="#fff"/>
      <stop offset="0.12" stop-color="#fff" stop-opacity="0.98"/>
      <stop offset="0.25" stop-color="#fff" stop-opacity="0.94"/>
      <stop offset="0.37" stop-color="#fff" stop-opacity="0.86"/>
      <stop offset="0.5" stop-color="#fff" stop-opacity="0.74"/>
      <stop offset="0.63" stop-color="#fff" stop-opacity="0.6"/>
      <stop offset="0.76" stop-color="#fff" stop-opacity="0.42"/>
      <stop offset="0.88" stop-color="#fff" stop-opacity="0.22"/>
      <stop offset="1" stop-color="#fff" stop-opacity="0"/>
    </linearGradient>
  </defs>
  <g class="cls-1">
    <g id="gradient">
      <rect class="cls-2" width="1920" height="763"/>
    </g>
    <g id="moon">
      <g>
        <image class="cls-3" width="603" height="603" transform="translate(151 4)" xlink:href="background1.png"/>
        <circle class="cls-4" cx="452.5" cy="305.5" r="91.5"/>
      </g>
    </g>
    <g id="stars">
      <g class="cls-5">
        <circle class="cls-6" cx="802.14" cy="71.27" r="2.04"/>
      </g>
      <g class="cls-5">
        <circle class="cls-6" cx="624.93" cy="493.44" r="1.9"/>
      </g>
      <g class="cls-5">
        <circle class="cls-6" cx="503.64" cy="429.77" r="3.11"/>
      </g>
      <g class="cls-5">
        <circle class="cls-6" cx="700.17" cy="252.3" r="3.4"/>
      </g>
      <g class="cls-5">
        <circle class="cls-6" cx="1256.88" cy="133.13" r="2.11"/>
      </g>
      <g class="cls-5">
        <circle class="cls-6" cx="1455.88" cy="134.13" r="2.11"/>
      </g>
      <g class="cls-5">
        <circle class="cls-6" cx="1268.01" cy="277.32" r="1.55"/>
      </g>
      <g class="cls-5">
        <circle class="cls-6" cx="1602.31" cy="220.86" r="2.53"/>
      </g>
      <g class="cls-5">
        <circle class="cls-6" cx="121.23" cy="187.03" r="2.02"/>
      </g>
      <g class="cls-5">
        <circle class="cls-6" cx="626.84" cy="16.68" r="1.52"/>
      </g>
      <g class="cls-5">
        <circle class="cls-6" cx="1891.84" cy="501.68" r="1.52"/>
      </g>
      <g class="cls-5">
        <circle class="cls-6" cx="257.62" cy="133.83" r="2.98"/>
      </g>
      <g class="cls-5">
        <circle class="cls-6" cx="1753.92" cy="441.81" r="2.24"/>
      </g>
      <g class="cls-5">
        <circle class="cls-6" cx="1577.12" cy="286.72" r="3.23"/>
      </g>
      <g class="cls-5">
        <circle class="cls-6" cx="1636.18" cy="393.45" r="1.78"/>
      </g>
      <g class="cls-5">
        <circle class="cls-6" cx="1199.45" cy="20.1" r="2.7"/>
      </g>
      <g class="cls-5">
        <circle class="cls-6" cx="40.58" cy="421.45" r="2.57"/>
      </g>
      <g class="cls-5">
        <circle class="cls-6" cx="350.92" cy="518.79" r="2.24"/>
      </g>
      <g class="cls-5">
        <circle class="cls-6" cx="522.6" cy="137.04" r="3.23"/>
      </g>
      <g class="cls-5">
        <circle class="cls-6" cx="237.04" cy="345.9" r="2.57"/>
      </g>
      <g class="cls-5">
        <circle class="cls-6" cx="1756.04" cy="175.9" r="2.57"/>
      </g>
      <g class="cls-5">
        <circle class="cls-6" cx="1436.99" cy="305.31" r="3.11"/>
      </g>
      <g class="cls-5">
        <circle class="cls-6" cx="1330.09" cy="398.67" r="2.93"/>
      </g>
      <g class="cls-5">
        <circle class="cls-6" cx="1836.19" cy="316.58" r="1.55"/>
      </g>
      <g class="cls-5">
        <circle class="cls-6" cx="123.08" cy="315.33" r="1.56"/>
      </g>
      <g class="cls-5">
        <circle class="cls-6" cx="1157.47" cy="162.75" r="2.66"/>
      </g>
      <g class="cls-5">
        <circle class="cls-6" cx="1016.33" cy="100.67" r="2.58"/>
      </g>
      <g class="cls-5">
        <circle class="cls-6" cx="459.44" cy="50.55" r="3.22"/>
      </g>
    </g>
    <g id="back_trees" data-name="back trees">
      <path class="cls-7" d="M150.39,628.12c-7.72,11.71-38.73,23.67-49,19.64-28.57-11.2-1-43.78-1-43.78-22.39,8.16-12.81-33.11-9.74-40.71a50.66,50.66,0,0,1,15.57-20.91c-15.68,6.35-12.32-14.41-6.05-23.93s12.43-17.79,23.73-18.17,10.3,6.93,10.3,6.93c2.91-21.63,14.57-25.91,19.93-23.65,14.33,6.06,8.06,27.39,8.06,27.39,17.24-16.14,29.89-6.67,32.46,2,4.71,15.86-8.73,30.86-8.73,30.86,28-6.35,28.25,15.29,29.44,22.92,4,25.66-17.24,28.26-17.24,28.26,30-4,19.71,32,13.66,37.48C189.05,653,150.39,628.12,150.39,628.12Z"/>
      <path class="cls-8" d="M161.61,716.61c4.19,7.27,11.59,12,16.4,14.55.46.24.27,1.12-.22,1-14.71-2.74-23.62.55-24.79,1a.48.48,0,0,0-.21.19c-1.85,3.14-2.95,9-3.44,12.17-.08.54-.67.58-.81.06-2.46-9.59-6.72-12.87-7.47-13.39a.36.36,0,0,0-.24-.06c-5.19.57-10.89,6.28-13.45,9.14-.34.38-.84-.1-.66-.62a74,74,0,0,1,13.14-23.92.62.62,0,0,0,.12-.58C135.23,698.41,145.47,605,146,599.88a.61.61,0,0,0-.08-.4c-7.82-13.45-3.64-11.35-15.22-30.28-.19-.3,0-.77.28-.58a59.11,59.11,0,0,1,11.21,11.48c.23.33.66.17.72-.26,2.46-16.88,7.92-24.56,9.68-26.66.24-.29.59-.06.62.42.56,8.39.86,14,1,16.59,0,.52.56.69.77.25,6.09-12.43,14.27-12.42,16.24-12.22.17,0,.24.34.11.52-11.43,16.36-14.22,39.69-14.33,40.67v.06c-1.51,91.89,4.13,115.42,4.53,117A.44.44,0,0,0,161.61,716.61Z"/>
      <path class="cls-9" d="M1620.79,581.15c-11.82,14.37-59.31,29.06-75.08,24.1-43.76-13.75-1.54-53.74-1.54-53.74-34.29,10-19.62-40.65-14.92-50,8.58-17,23.83-25.67,23.83-25.67-24,7.79-18.85-17.69-9.26-29.38s19-21.84,36.35-22.3,15.77,8.5,15.77,8.5c4.45-26.55,22.31-31.81,30.51-29,21.94,7.44,12.34,33.63,12.34,33.63,26.4-19.82,45.77-8.2,49.72,2.48,7.2,19.47-13.37,37.87-13.37,37.87,42.85-7.78,43.25,18.78,45.08,28.15,6.17,31.5-26.4,34.69-26.4,34.69,45.94-5,30.17,39.29,20.91,46C1680,611.73,1620.79,581.15,1620.79,581.15Z"/>
      <path class="cls-8" d="M1638,688.32c6.42,8.93,17.75,14.79,25.12,17.86a.66.66,0,0,1-.34,1.27c-22.54-3.36-36.18.68-38,1.26a.62.62,0,0,0-.32.23c-2.83,3.85-4.51,11-5.26,14.93a.64.64,0,0,1-1.24.08c-3.78-11.77-10.29-15.8-11.45-16.44a.57.57,0,0,0-.36-.07c-8,.69-16.68,7.7-20.6,11.22a.65.65,0,0,1-1-.77,88.55,88.55,0,0,1,20.13-29.36.66.66,0,0,0,.18-.71c-7.28-21.83,8.4-136.5,9.27-142.79a.73.73,0,0,0-.13-.5c-12-16.5-5.58-13.93-23.31-37.16-.28-.37.07-.95.43-.71,10,6.44,15.24,11.89,17.17,14.09a.63.63,0,0,0,1.1-.33c3.77-20.71,12.12-30.15,14.82-32.73.37-.35.91-.06,1,.52.85,10.31,1.31,17.15,1.51,20.37a.64.64,0,0,0,1.18.31c9.32-15.26,21.85-15.25,24.86-15,.26,0,.37.42.18.64-17.51,20.08-21.78,48.73-22,49.93,0,0,0,0,0,.08-2.3,112.8,6.33,141.69,6.94,143.6A1.14,1.14,0,0,0,1638,688.32Z"/>
      <path class="cls-10" d="M564.44,653.14c-5.73,6.54-28.77,13.23-36.42,11-21.22-6.26-.75-24.47-.75-24.47-16.63,4.56-9.51-18.52-7.23-22.76a31.53,31.53,0,0,1,11.56-11.69c-11.64,3.55-9.15-8.06-4.49-13.38s9.23-9.95,17.63-10.16,7.65,3.87,7.65,3.87c2.16-12.09,10.82-14.48,14.8-13.22,10.64,3.39,6,15.32,6,15.32,12.81-9,22.2-3.74,24.12,1.13,3.49,8.86-6.49,17.25-6.49,17.25,20.79-3.55,21,8.55,21.87,12.81,3,14.35-12.8,15.8-12.8,15.8,22.28-2.26,14.63,17.9,10.14,21C593.16,667.06,564.44,653.14,564.44,653.14Z"/>
      <path class="cls-8" d="M572.77,704.49c3.12,4.07,8.61,6.74,12.19,8.13a.3.3,0,0,1-.17.58c-10.93-1.53-17.54.31-18.41.57a.36.36,0,0,0-.16.11c-1.37,1.76-2.19,5-2.55,6.8a.31.31,0,0,1-.6,0c-1.84-5.37-5-7.2-5.56-7.49a.25.25,0,0,0-.17,0c-3.86.31-8.09,3.51-10,5.11a.31.31,0,0,1-.49-.35,40.4,40.4,0,0,1,9.76-13.37.31.31,0,0,0,.09-.33c-3.53-9.94,4.07-62.17,4.49-65a.28.28,0,0,0-.06-.23c-5.81-7.51-2.71-6.34-11.3-16.92-.14-.17,0-.43.21-.33a39.63,39.63,0,0,1,8.32,6.42.32.32,0,0,0,.54-.15c1.82-9.43,5.88-13.73,7.18-14.9a.29.29,0,0,1,.47.23c.41,4.7.63,7.81.73,9.28a.32.32,0,0,0,.58.14c4.52-6.95,10.59-6.95,12-6.84.13,0,.18.2.09.3-8.49,9.14-10.56,22.19-10.65,22.73v0c-1.12,51.38,3.07,64.53,3.37,65.4A.25.25,0,0,0,572.77,704.49Z"/>
    </g>
    <g id="ground">
      <path class="cls-11" d="M0,747.42c669-130.42,1920-38,1920-38V1080H0Z"/>
      <path class="cls-12" d="M1294.38,1080c.18-2.93,1.22-3.71,3.66-5.21,2.16-1.33,3.9-2.11,1.65-4-3.54-3-12-5.26-12.38-10.74-.22-3,3.49-4.11,4.84-6.23,2.64-4.15-4.89-4.31-7.29-5-8-2.44-16.25-4.08-24.21-6.63-.21-.07-4.12-1.14-4.38-1.64-1-1.93,2.36-3,3.49-3.71,2.08-1.33,3.3-2.7,1-4.5a19.75,19.75,0,0,0-4-2.47c-3.92-1.74-8.47-2.19-12.62-3.09a107.55,107.55,0,0,0-13-2.36c-3.9-.36-7.79-.61-11.69-.91-4.07-.31-9-.28-12.71-2.3-4.33-2.37-1-5.11,2-6.75a49.56,49.56,0,0,1,8.93-3.91c1.86-.58,4.81-1.26,6.12-2.93,1.16-1.47.8-1.78-.87-2.3-1.86-.58-4.16-.74-6.09-1.16-2.76-.6-5.55-.37-8.33-.68a29,29,0,0,1-12-3.95c-5.1-3.33,1.85-5.8,5-6.74,7-2.11,13.31-5.87,20.6-6.8a87.79,87.79,0,0,0,11.1-2.52c2.06-.53,5.93-.31,7.29-2.29-.75-1.28-4.27-2.25-5.58-3s-7.07-3.27-6.41-5.55c2.23-1.4,5-1.48,7.53-1.46,5.73,0,11.46,0,17.2,0,5.49,0,19.14,2.49,21-5.4,1.2-5-8.21-6.85-11.41-8.44s-6.09-3.89-9.66-5.11c-1.7-.58-5.73-1.55-4.85-4.26,1.09-3.39,11.16-3.2,10.61-6.94-.23-1.6-5.37-2.63-6.77-3.06-3.26-1-6.64-2.43-10-3-4.88-.78-9.84-.83-14.75-1.7-4.71-.84-9.43-.67-14.07-1.88-1.85-.48-8-1.53-8.39-4.09-.31-2,3.33-3.27,3.45-5.33-.88-.73-3.5-.32-4.51-.3-2.15.06-4.18.73-6.33.86-6.09.38-15.23-.89-20.51-4.07-3.69-2.22-2.46-5.42.78-7.19,4.91-2.7,10.79-2.3,16.14-2.87,6.76-.72,13.41-1.49,20.14-2.53,2.53-.4,10.87-.68,11.37-4.24.43-3-4.11-6-6.37-7-2.9-1.29-6.15-1.38-9.21-2s-6.1-1.5-9.15-2.26c-3.46-.86-6.7-1.88-10.05-3-1.69-.57-3.28-.45-2.91-2.76.49-3,4.43-4.11,6.79-5,4.31-1.53,8.72-1,13.15-1.63s9.24-.39,13.86-.39c3.18,0,8.9,1,11.64-1.51s-4.21-3.33-5.66-3.7c-4.08-1.06-8.22-1.32-12.39-1.93a62.2,62.2,0,0,0-7.35-.56c-2.75-.09-5.39-.8-8.15-.82-3.48,0-22.77-.37-18.17-7.92,1.9-3.11,6.44-3.88,9.67-4.5,2.35-.46,7.17-.92,8.66-2.83-1.44-1.67-6.26-1.18-8.2-1.51a73.34,73.34,0,0,0-13.07-1c-10.41,0-20.72.08-31.06-1.15-5.49-.64-13.33-1.18-16.52-6.72-.93-1.62-.78-2.4,0-4,.44-.86,1.72-1.5,1.47-2.54-.38-1.57-3.24-1.11-4.43-1.1a87.65,87.65,0,0,1-18.23-1.31c-1.72-.34-7.61-.83-6-3.64.63-1.06,3.23-2.78,4.34-3.38s2.55-.75,3.71-1.29,2.52-1.42,3.83-2a38.26,38.26,0,0,1,7.49-2.11c2.34-.48,4.69-.92,7-1.34,2-.36,5.61.31,6.74-1.75-3.84-2.82-9.59-1.31-13.3-4.81.78-2.13,6.31-3.4,8.15-4.24,4.61-2.09,9.73-3.34,14.59-4.64,6.09-1.64,12.05-3.24,18.22-4.42,2-.38,3.63-1.34,5.52-2a11.3,11.3,0,0,0,3-1.07c-.45-2.11-4.46-2.73-6.1-3.13a104.8,104.8,0,0,0-11.35-2.34c-4.93-.66-9.82-1.5-14.73-2.3-2.29-.37-8.2-.7-9.6-3.09-1.77-3,8.45-4.38,10.11-4.48,2.12-.13,4.26.17,6.38.08s3.86-.59,5.82-.75c2.19-.18,5.91.76,7.43-1.48a42.78,42.78,0,0,0-10.52-1.67c-6.8-.27-13.6-1.45-20.43-1.58s-13.36.13-20.08-.92c-1.66-.25-4.77-.81-5.84-2.29-1.34-1.87.53-2.06,1.11-3.59-2-.64-5.21-.12-7.28-.12a86.17,86.17,0,0,1-13.15-.56c-5.52-.85-11.11-1.29-16.55-2.53-2.21-.51-10.84-.93-11.27-4.44-.35-2.8,3.93-3.42,5.74-3.87,2.61-.64,5.18-1.72,7.87-1.75s5.25-.82,8-.78c4.13.07,8.08-.7,12.18-.77a48.29,48.29,0,0,0,11.13-1.53c1.85-.45,6-1.91,2.28-3.51-5.49-2.33-11.26-3-16.93-4.79-1.45-.46-6.34-1.49-3.86-3.92a13.88,13.88,0,0,1,5.22-2.47c2.32-.58,4.6-1,6.89-1.74,3.39-1.07,6.75-.57,10.17.21L904.91,735a143.25,143.25,0,0,0-22.3,3.07c-3.69.81-11.14.91-13.57,4.54.77,2.48,6,3.14,8.11,3.66,3.06.76,6.25,1.33,9.36,1.88,2.85.51,5.71,1,8.51,1.72,1.45.36,4.7,1,5.89,1.85,1.19,4.23-26,7.1-28,7.47-4.9.94-9.91,1.91-14.76,3-1.44.34-9.52,2.28-8.36,4.87.85,1.91,8.2,2.35,9.72,2.26,5.62-.34,11.58-1,17.17-1.77a94.05,94.05,0,0,1,12.9-.57c1.35,0,9.86-1.09,10.52.7-.83,2.38-6.59,3.09-6.66,5.43-.06,2.08,6.81,2.29,8.42,2.27,5.12-.06,10-.79,15.17-.77,3.88,0,7.76,0,11.63,0,1.57,0,6.35-.75,7.44,1.11,1.21,2.06-5.1,4.46-6.46,5-3.76,1.49-7.54,2.76-11.39,4-1.7.54-2.67,1.76-4.11,2.69s-3.09,1.23-3.68,3.28c1.3,2,4.59,2.61,6.74,3.21,1.58.45,5.35,0,5.34,2,0,.91-2.66,2.72-3.26,3.16a12,12,0,0,1-3.63,1.68c-2.48.82-5,1.51-7.53,2.08-7.13,1.58-14.39,2.55-21.56,3.81-3,.52-6.11.93-9,1.7-2.18.57-4.63,2.12-1.74,3.69,1.59.86,3.84.95,5.56,1.66,1.43.6,3.62.9,4.84,1.75,2.56,1.78.54,3.79-1.32,5-3,1.9-6.52,2-10,2.43-4.85.65-9.61,1.9-14.44,2.68-4.61.75-9.19,1.29-13.8,1.89a90,90,0,0,0-10.73,2.33c-1.71.43-5.7.46-6.08,2.72,1.83.6,4.56.12,6.47.12h10.6c3,0,6,0,9,0,2,0,4.15-.12,5.88,1.06-1.1,2.83-5.57,4-8.07,5a85.26,85.26,0,0,1-8.94,3.49c-3.51,1-6.6,2.71-10.16,3.54a46,46,0,0,0-10.17,3.64c-2.08,1.09-5.42,1.44-7,3.4-2.27,2.88,1.72,3.43,3.86,3.12,3.81-.56,7.65-.74,11.49-1.37,5.11-.84,10.26-1.41,15.37-2.3a65.05,65.05,0,0,1,11.42-.56c1.24,0,5.57-.72,6.69.23,4,3.35-10.86,9.26-5.21,12.41,4.36,2.43,10.7.83,15.47,1.07,2.85.14,5.51.82,8.44.78,1.17,0,5.54-.35,5.66,1.53-1,.87-2.44,1.44-3.57,2.27a38.79,38.79,0,0,0-4.48,3.68c-1.08,1-2.06,2.28-3.19,3.23-2.14,1.8-4.84,1.83-7.5,2.23-7.17,1.08-14.25,2.77-21.42,3.85a59.85,59.85,0,0,0-7.63,1.51c-1.66.49-4.41.8-5.45,2.31.28,2,8.43,2.24,10,2.29,2.74.1,6.84-.71,9.18,1,.21,2.44-4.53,3-6.12,3.51-3.36,1.09-6.72,2.11-10.12,3-7.79,2.16-15.71,2.94-23.59,4.58-8.11,1.68-16,2-23.68,5.16-2.07.86-10.91,3.21-6.72,6.16,1.18.83,4.58,1.26,6,1.49,3,.49,6.1.34,9.13.75,2.5.33,8.59-.42,10,2.43s-8,4.79-9.88,5.36c-7.13,2.17-14.46,4.09-21.23,7.24a58,58,0,0,0-7.38,3.62c-1.33.88-4.43,2.25-5.24,3.62-2.33,3.94,7.67,3.81,9.23,3.85,8.43.25,16.8-.81,25.23-.79h9.94c1.84,0,3.92-.34,5.68.34,2.86,1.11,2,3.42,1,5.76-.54,1.2-1.39,1.73-.76,3.08.83,1.79,5.07,2.22,6.64,2.46a80,80,0,0,0,9.74,1.34,73.44,73.44,0,0,1,9,.54c3.85.57,7.54,1.5,10.66,4,.62,3.65-11,4.87-13.31,5.22-5.37.81-10.68,1.82-16.08,2.46-6.77.81-13.16,1.38-19.63,3.65-2.94,1-6.93,1.65-8.94,4.31,1.77,3.37,20.16,2.38,16.11,8.84-1,1.6-3.35,2.55-5,3.06a58.41,58.41,0,0,1-9.61,2.1c-8.17,1.08-16.47,1.11-24.62,2.41s-16.22,2.94-24.24,4.61c-2,.41-11.56,1.46-11,4.59.5,2.63,9.11,2.31,10.7,2.3,2.82,0,5.63,0,8.44,0,1.37,0,4.15-.67,5.23.27-1.43,2.83-6.42,5.54-9.13,6.65-4.86,2-10.23,3-15.35,4.11-7.18,1.56-22.09,3.42-24.32,12.45-1.87,7.55,18.1,5.5,22,5.5,6,0,12.36-.45,18.38.15,3.34.33,8.11.24,11.17,1.62.93,2.86-8,6.8-10.24,8-1.77.94-3.56,1.85-5.34,2.78-1.12.59-3.57,1.23-4.22,2.35-1.42,2.46,3.34,3,5,3.61,1,.36,2,1,3,1.35s2.27,0,2.38,1.5c-5.66,5.21-16,2.89-22.76,3.64-3.73.41-7.64-.33-11.27.6-1.73.45-6.21,1.68-7.16,3.4-1.76,3.19,6.24,4.46,1,8-1.88,1.27-4.54,1.39-6.69,2a37.44,37.44,0,0,0-8.13,3.54c-4.44,2.58-8.61,5.62-13.26,7.83Z"/>
      <path class="cls-13" d="M1351.36,780.64c25,17.41,24.16,35.86,24.16,35.86,9.36-11.69,44.6,0,44.6,0,3.55-21.57,19.88-38.2,19.88-38.2-17.35-2.6-24.4,19.1-24.4,19.1-2.14-10.26.24-29,.24-29-4.08,16.63-7.14,18.19-7.14,18.19-3.07-36.38-23.82-42.62-23.82-42.62,8.85,10.91,6.12,32.22,6.12,32.22-4.08-8.83-15.65-8.83-15.65-8.83,5.11,6.23,6.81,20.27,6.81,20.27C1365.82,771,1351.36,780.64,1351.36,780.64Z"/>
      <path class="cls-13" d="M647,863c-22.94,11.49-22.16,23.66-22.16,23.66-8.58-7.71-40.91,0-40.91,0-3.26-14.23-18.24-25.21-18.24-25.21,15.92-1.71,22.38,12.61,22.38,12.61,2-6.78-.22-19.12-.22-19.12,3.75,11,6.56,12,6.56,12,2.81-24,21.85-28.12,21.85-28.12-8.12,7.2-5.62,21.26-5.62,21.26,3.74-5.83,14.35-5.83,14.35-5.83-4.68,4.12-6.24,13.38-6.24,13.38C633.73,856.66,647,863,647,863Z"/>
    </g>
    <g id="House">
      <polygon class="cls-14" points="934.49 293.5 776.18 293.5 802.92 221.02 911.65 221.02 934.49 293.5"/>
      <path class="cls-15" d="M857.06,182.08l-89.42,43.8a.83.83,0,0,0,.37,1.58H919.63a.84.84,0,0,0,.48-1.52l-62.21-43.8A.82.82,0,0,0,857.06,182.08Z"/>
      <polygon class="cls-16" points="857.14 185.13 775.05 224.64 916.77 225.75 857.14 185.13"/>
      <polygon class="cls-14" points="1194.78 293.94 1036.47 293.94 1063.21 220.76 1171.94 220.76 1194.78 293.94"/>
      <path class="cls-15" d="M1109.27,179.09l-63.72,45.62a.44.44,0,0,0,.26.81h158.12a.45.45,0,0,0,.19-.85l-94.4-45.62A.45.45,0,0,0,1109.27,179.09Z"/>
      <polygon class="cls-16" points="1110.08 182.11 1050.87 223.33 1196.56 223.33 1110.08 182.11"/>
      <rect class="cls-14" x="769.05" y="537.56" width="443.73" height="142.48"/>
      <rect class="cls-17" x="920.08" y="556.25" width="141.68" height="123.43"/>
      <rect class="cls-18" x="934.44" y="570.22" width="115.77" height="109.6"/>
      <polygon class="cls-19" points="1094.17 273.13 879.23 273.13 915.53 174.74 1063.16 174.74 1094.17 273.13"/>
      <rect class="cls-14" x="769.17" y="328.14" width="439.4" height="134.01"/>
      <path class="cls-15" d="M1241.36,336.38H733.52a.85.85,0,0,1-.66-1.39l34.19-42.73a.84.84,0,0,1,.66-.32h441.17a.87.87,0,0,1,.68.34L1242,335A.85.85,0,0,1,1241.36,336.38Z"/>
      <polygon class="cls-16" points="1238.88 334.26 735.95 334.26 768.78 294.06 1207.79 294.06 1238.88 334.26"/>
      <rect class="cls-19" x="867.1" y="311.57" width="239.2" height="150.59"/>
      <path class="cls-20" d="M1154.52,246.44c-.24-7.29-10.84-13.16-23.89-13.16s-23.64,5.87-23.89,13.16h0v35.72a.5.5,0,0,0,.51.49H1154a.5.5,0,0,0,.5-.49V246.44Z"/>
      <path class="cls-21" d="M1153.24,246.73c-.23-7.11-10.26-12.84-22.61-12.84s-22.38,5.73-22.61,12.84h0v34.81a.49.49,0,0,0,.5.49h44.24a.49.49,0,0,0,.5-.49V246.73Z"/>
      <rect class="cls-22" x="1129.99" y="233.89" width="1.28" height="48.14" rx="0.48"/>
      <rect class="cls-20" x="1108.01" y="257.47" width="45.24" height="0.99" rx="0.43"/>
      <path class="cls-20" d="M978.24,214.2c-.28-8.68-12.53-15.66-27.61-15.66s-27.34,7-27.62,15.66h0v42.47a.58.58,0,0,0,.58.59h54.09a.58.58,0,0,0,.58-.59V214.2Z"/>
      <path class="cls-21" d="M976.76,214.54c-.26-8.46-11.86-15.27-26.13-15.27s-25.88,6.81-26.14,15.27h0v41.4a.58.58,0,0,0,.58.58h51.13a.58.58,0,0,0,.58-.58v-41.4Z"/>
      <rect class="cls-22" x="949.88" y="199.27" width="1.48" height="57.25" rx="0.56"/>
      <rect class="cls-20" x="924.48" y="227.31" width="52.3" height="1.17" rx="0.51"/>
      <path class="cls-20" d="M866.78,245.74c-.24-7.3-10.83-13.17-23.88-13.17s-23.65,5.87-23.89,13.17h0v35.71a.51.51,0,0,0,.5.5h46.79a.51.51,0,0,0,.51-.5V245.74Z"/>
      <path class="cls-21" d="M865.51,246c-.23-7.12-10.26-12.84-22.61-12.84s-22.38,5.72-22.61,12.84h0v34.8a.5.5,0,0,0,.5.5H865a.5.5,0,0,0,.5-.5V246Z"/>
      <rect class="cls-22" x="842.26" y="233.19" width="1.28" height="48.14" rx="0.48"/>
      <rect class="cls-20" x="820.28" y="256.77" width="45.24" height="0.99" rx="0.43"/>
      <path class="cls-20" d="M1055.11,213.93c-.28-8.67-12.53-15.65-27.61-15.65s-27.34,7-27.61,15.65h0v42.48a.58.58,0,0,0,.58.58h54.09a.58.58,0,0,0,.58-.58V213.93Z"/>
      <path class="cls-21" d="M1053.64,214.28c-.27-8.46-11.87-15.27-26.14-15.27s-25.88,6.81-26.14,15.27h0v41.39a.58.58,0,0,0,.58.59h51.14a.58.58,0,0,0,.58-.59V214.28Z"/>
      <rect class="cls-22" x="1026.76" y="199.01" width="1.48" height="57.25" rx="0.56"/>
      <rect class="cls-20" x="1001.35" y="227.05" width="52.3" height="1.17" rx="0.51"/>
      <rect class="cls-20" x="897.87" y="350.36" width="73.67" height="77.59"/>
      <rect class="cls-21" x="900.32" y="352.35" width="68.76" height="73.61"/>
      <rect class="cls-20" x="933.88" y="352.35" width="1.64" height="73.61"/>
      <rect class="cls-20" x="900.32" y="376.89" width="68.76" height="1.33"/>
      <rect class="cls-20" x="900.32" y="401.42" width="68.76" height="1.33"/>
      <rect class="cls-20" x="1007.5" y="350.26" width="73.67" height="77.59"/>
      <rect class="cls-21" x="1009.96" y="352.25" width="68.76" height="73.61"/>
      <rect class="cls-20" x="1043.51" y="352.25" width="1.64" height="73.61"/>
      <rect class="cls-20" x="1009.96" y="376.78" width="68.76" height="1.33"/>
      <rect class="cls-20" x="1009.96" y="401.32" width="68.76" height="1.33"/>
      <rect class="cls-20" x="1132.73" y="369.29" width="46.8" height="63.6"/>
      <rect class="cls-21" x="1134.29" y="370.92" width="43.68" height="60.34"/>
      <rect class="cls-20" x="1155.61" y="370.92" width="1.04" height="60.34"/>
      <rect class="cls-20" x="1134.29" y="391.03" width="43.68" height="1.09"/>
      <rect class="cls-20" x="1134.29" y="411.14" width="43.68" height="1.09"/>
      <rect class="cls-20" x="795.6" y="370.05" width="46.8" height="63.6"/>
      <rect class="cls-21" x="797.16" y="371.68" width="43.68" height="60.34"/>
      <rect class="cls-20" x="818.48" y="371.68" width="1.04" height="60.34"/>
      <rect class="cls-20" x="797.16" y="391.8" width="43.68" height="1.09"/>
      <rect class="cls-20" x="797.16" y="411.91" width="43.68" height="1.09"/>
      <rect class="cls-20" x="1098.16" y="566.48" width="67.6" height="83.98"/>
      <rect class="cls-21" x="1100.41" y="568.63" width="63.09" height="79.67"/>
      <rect class="cls-20" x="1131.19" y="568.72" width="1.5" height="79.67"/>
      <rect class="cls-20" x="1100.39" y="595.28" width="63.09" height="1.44"/>
      <rect class="cls-20" x="1100.39" y="621.84" width="63.09" height="1.44"/>
      <polyline class="cls-23" points="1137.16 639.13 1127.63 647.59 1115.49 637.72 1101.63 642.65 1119.83 620.08 1104.23 617.97 1109.43 607.39 1101.63 600.34 1107.69 597.51 1104.23 582.7 1122.43 579.17 1113.76 569.3 1132.83 578.47 1142.36 570.01 1135.43 584.11 1159.69 579.17 1153.63 591.87 1162.29 603.16 1151.03 599.63 1162.29 616.56 1152.76 621.5 1160.56 622.9 1151.03 637.72 1161.43 642.65"/>
      <rect class="cls-20" x="811.48" y="566.54" width="67.6" height="83.98"/>
      <rect class="cls-21" x="813.74" y="568.69" width="63.09" height="79.67"/>
      <g>
        <rect class="cls-20" x="844.51" y="568.78" width="1.5" height="79.67"/>
        <rect class="cls-20" x="813.72" y="595.34" width="63.09" height="1.44"/>
        <rect class="cls-20" x="813.72" y="621.9" width="63.09" height="1.44"/>
      </g>
      <polyline class="cls-23" points="850.48 577.82 840.95 569.36 828.82 579.24 814.95 574.3 833.15 596.87 817.55 598.98 822.75 609.56 814.95 616.62 821.02 619.44 817.55 634.25 835.75 637.78 827.08 647.65 846.15 638.48 855.68 646.95 848.75 632.84 873.02 637.78 866.95 625.08 875.62 613.8 864.35 617.32 875.62 600.39 866.08 595.46 873.88 594.05 864.35 579.24 874.75 574.3"/>
      <polygon class="cls-24" points="1023.24 570.22 1022.56 659.89 1049.89 679.68 1049.89 570.22 1023.24 570.22"/>
      <polygon class="cls-24" points="951.34 570.22 950.85 656.57 934.75 679.68 934.75 570.22 951.34 570.22"/>
      <rect class="cls-25" x="902.2" y="681.8" width="176.78" height="14.81"/>
      <rect class="cls-25" x="894.61" y="698.73" width="191.96" height="14.81"/>
      <rect class="cls-25" x="887.78" y="715.66" width="205.61" height="14.81"/>
      <path class="cls-15" d="M1132.65,316.33H842.48a1.07,1.07,0,0,1-.93-1.59l23.59-42.3a1.06,1.06,0,0,1,.93-.55h243a1,1,0,0,1,.93.55l23.59,42.3A1.07,1.07,0,0,1,1132.65,316.33Z"/>
      <polygon class="cls-16" points="1131.38 314.21 844.08 314.21 866.3 274.01 1109.14 274.01 1131.38 314.21"/>
      <path class="cls-15" d="M988.73,119.09l-104.88,62a.54.54,0,0,0,.27,1h209.77a.54.54,0,0,0,.27-1l-104.88-62A.54.54,0,0,0,988.73,119.09Z"/>
      <polygon class="cls-16" points="989.01 122.05 893.52 179.02 1084.49 179.02 989.01 122.05"/>
      <path class="cls-15" d="M1260.52,541.86l-545,.77a.26.26,0,0,1-.21-.41l23.48-34.62,30.66-45.21a.27.27,0,0,1,.22-.11l439.18-.77a.27.27,0,0,1,.22.12l20.16,31.13,31.54,48.7A.26.26,0,0,1,1260.52,541.86Z"/>
      <polygon class="cls-16" points="1254.26 538.75 721.74 539.45 743.83 507.17 772.7 465.39 1205.7 464.69 1230 502 1254.26 538.75"/>
    </g>
  </g>
</svg>
