<svg xmlns="http://www.w3.org/2000/svg" width="150" height="130" viewBox="0 0 150 130">
  <defs>
    <style>
      .cls-1 {
        fill: #f0f8ff;
      }
    </style>
  </defs>
  <g id="cross">
    <path class="cls-1" d="M95.92,65l38.51-36.87a8.13,8.13,0,0,0,.25-11.5l-8.76-9.15a8.14,8.14,0,0,0-11.51-.25L75,45,35.59,7.23a8.14,8.14,0,0,0-11.51.25l-8.76,9.15a8.13,8.13,0,0,0,.25,11.5L54.08,65,15.57,101.87a8.13,8.13,0,0,0-.25,11.5l8.76,9.15a8.14,8.14,0,0,0,11.51.25L75,85l39.41,37.73a8.14,8.14,0,0,0,11.51-.25l8.76-9.15a8.13,8.13,0,0,0-.25-11.5Z"/>
  </g>
</svg>
