<svg xmlns="http://www.w3.org/2000/svg" width="285" height="712" viewBox="0 0 285 712">
  <defs>
    <style>
      .cls-1 {
        fill: #d13819;
      }

      .cls-2 {
        fill: #e2a305;
      }

      .cls-3 {
        fill: #f9f446;
      }
    </style>
  </defs>
  <g id="Layer_4" data-name="Layer 4">
    <g>
      <path class="cls-1" d="M59.5,404.45c-24.33,0-11.13-30.55-14-52.35-3-22.82-26-28.19-26-28.19s9,13.42,9,25.51c0,21.47-31,37.58-21,114.1,4.58,35,14,58.46,37,80.55,28,26.85,81,29.53,81,29.53,41,4,87-22.82,109-60.41,22.28-38.06,28-85.91,27-115.45-2.14-63.15,18-61.75,18-61.75-3-20.14-20.55-19.92-27-13.42-16,16.11-6,58.58-24,56.38-11-1.34-18.93-9.15-11-75.18,5-41.61-30-36.24-30-36.24,13,13.42,6,30.87,1,34.9-9.78,7.88-24-2.68-26-24.16s3-34.91,13-43c11.5-9.27,22-12.08,27-26.18,12.51-35.26-8-49-8-49-1,30.88-20.33,39.19-30,16.11-15.25-36.39,20.46-55.44,31.73-60.41.36-.16.23-.89-.15-.83-64.33,10.27-85.75,49.46-95.58,66.61-11.21,19.56-21,41.62-22,76.52-1.23,42.93,6.91,67.11,5,96.66C81.5,385.66,70.5,404.45,59.5,404.45Z"/>
      <path class="cls-1" d="M70.5,166.85c4,16.1,11,34.9-6,49.67-24.81,21.54-19,36.24-19,36.24-22-12.08-15-39,0-51C72.5,180.27,70.5,166.85,70.5,166.85Z"/>
      <path class="cls-2" d="M128.5,201.75c-36,102,17,76.52,17,76.52-40,100.68,28,114.1,28,114.1-2-37.58,8-41.61,8-41.61,0,37.59,32.08,59.18,36,110.08,6,77.86-67,99.06-98,95.31-111-13.43-90-143.64-90-143.64,19,57.72,53,16.11,61.65-1.1,23.94-47.61,1.35-99.58,3.35-139.86C96.77,225.84,128.5,201.75,128.5,201.75Z"/>
      <path class="cls-3" d="M122.88,364.51c7.62,73.51,31.62,84.24,31.62,84.24-2-18.79,9-28.19,9-28.19,2,29.54,13,30.88,11,69.81-1.27,24.69-11,59.49-51.62,58.77-58.38-1-60.26-43.94-52.38-69.51,12-38.93,38-33.79,45-47,5-9.4-2-25.81-2-38.93C113.5,379,122.88,364.51,122.88,364.51Z"/>
      <path class="cls-3" d="M112.5,325.25c7,9.4,12,18.8,6,22.82C108,355.1,112.5,325.25,112.5,325.25Z"/>
    </g>
  </g>
</svg>
