<svg xmlns="http://www.w3.org/2000/svg" width="1920" height="1080" viewBox="0 0 1920 1080">
  <defs>
    <style>
      .cls-1 {
        fill: #011612;
      }
    </style>
  </defs>
  <g id="grass">
    <path class="cls-1" d="M138.44,1080.5,0,1080.07V841.76c17.51,14.43,27.28,35.76,27.28,35.76-2.44-22.18-27.28-58-27.28-58V805.83c13.44,7.72,36.24,46.95,36.24,46.95a176.47,176.47,0,0,0-9.77-29c17.1,4.27,33.38,44.35,33.38,44.35C40.31,794.79,0,760.1,0,760.1v-6.53c85.1,50.6,84.28,129.92,84.28,129.92-1.62-26.44,9.78-56.29,9.78-56.29,0-22.18-20.36-63.12-20.36-63.12C94.06,779.43,100.57,817,100.57,817c23.62-51.17,58.63-54.58,58.63-54.58-66.77,64.82-44.79,139.87-44.79,139.87,26.88-145.84,87.14-122,87.14-122-72.48,21.32-66.78,168.87-66.78,168.87,4.08-22.18,18.73-48.62,18.73-48.62.82-8.53-10.58-20.47-10.58-20.47,5.7.86,13.84,13.65,13.84,13.65,7.33-17.91,40.72-62.26,40.72-62.26-14.66,22.17-32.58,77.61-32.58,77.61,12.22-25.58,38.28-49.47,38.28-49.47-22.8,33.27-36.65,100.64-36.65,100.64,30.95-98.93,79-145,79-145-29.31,46-52.93,139-52.93,139,58.63-107.46,102.61-139,102.61-139-35.83,44.34-68.41,104-68.41,104,25.25-34.12,60.27-35.82,60.27-35.82-54.57,25.58-89.58,104-89.58,104C253.67,914.19,318,924.42,318,924.42c-87.13,18.77-123.78,120.26-123.78,120.26,44.79-76.76,82.25-75.91,82.25-75.91-62.71,46.06-71.76,111.3-71.76,111.3Z"/>
    <path class="cls-1" d="M1781.13,1080.5l138.87-.44V837c-17.56,14.73-27.37,36.48-27.37,36.48,2.45-22.62,27.37-59.13,27.37-59.13v-14c-13.48,7.88-36.35,47.9-36.35,47.9a182.05,182.05,0,0,1,9.8-29.58C1876.3,823,1860,863.87,1860,863.87c19.6-74.82,60-110.21,60-110.21V747c-85.37,51.62-84.55,132.53-84.55,132.53,1.63-27-9.8-57.42-9.8-57.42,0-22.62,20.42-64.38,20.42-64.38-20.42,15.66-27,53.94-27,53.94-23.69-52.2-58.81-55.68-58.81-55.68,67,66.12,44.93,142.68,44.93,142.68-27-148.77-87.41-124.41-87.41-124.41,72.7,21.75,67,172.26,67,172.26-4.08-22.62-18.79-49.59-18.79-49.59-.81-8.7,10.62-20.88,10.62-20.88-5.71.87-13.88,13.92-13.88,13.92-7.36-18.27-40.85-63.51-40.85-63.51,14.71,22.62,32.68,79.17,32.68,79.17-12.26-26.1-38.4-50.46-38.4-50.46,22.88,33.93,36.76,102.66,36.76,102.66-31-100.92-79.24-147.9-79.24-147.9,29.41,47,53.1,141.81,53.1,141.81C1668,842.12,1623.87,809.93,1623.87,809.93c36,45.24,68.62,106.14,68.62,106.14-25.32-34.8-60.45-36.54-60.45-36.54,54.73,26.1,89.86,106.14,89.86,106.14-56.36-74.82-120.9-64.38-120.9-64.38,87.41,19.14,124.17,122.67,124.17,122.67-44.93-78.3-82.51-77.43-82.51-77.43,62.9,47,72,113.53,72,113.53Z"/>
  </g>
</svg>
