<svg id="Layer_1" data-name="Layer 1" xmlns="http://www.w3.org/2000/svg" xmlns:xlink="http://www.w3.org/1999/xlink" width="1920" height="1080" viewBox="0 0 1920 1080">
  <defs>
    <style>
      .cls-1 {
        fill: url(#linear-gradient);
      }

      .cls-2 {
        fill: #fcd42d;
      }

      .cls-3 {
        fill: #990e0e;
      }

      .cls-4 {
        fill: #020247;
      }

      .cls-5 {
        fill: #e8e9ea;
      }
    </style>
    <linearGradient id="linear-gradient" x1="960.78" y1="-14.68" x2="959.25" y2="1071.44" gradientUnits="userSpaceOnUse">
      <stop offset="0" stop-color="#001235"/>
      <stop offset="0.24" stop-color="#1d1659"/>
      <stop offset="0.78" stop-color="#661fb4"/>
      <stop offset="1" stop-color="#8523db"/>
    </linearGradient>
  </defs>
  <rect class="cls-1" width="1920" height="1080"/>
  <g>
    <path class="cls-2" d="M587.17,677.16c.13.34.28.74.44,1.18s.35.95.57,1.53a2.61,2.61,0,0,1,.23.49,1.51,1.51,0,0,1,.06.41,39.76,39.76,0,0,1-4.09,2c-1.43.6-2.94,1.17-4.52,1.69-.41.13-.9.27-1.48.41s-1.22.33-2,.57c-.59.26-1.31.57-2.16.92s-1.85.71-3,1.08c-.72.23-1.44.46-2.16.67s-1.45.4-2.17.58a20,20,0,0,1-2.45.59,11.48,11.48,0,0,1-1.9.2,4.39,4.39,0,0,1-3.07-.94,3.67,3.67,0,0,1-1-2.83,12,12,0,0,1,.56-3.66,11.5,11.5,0,0,1,1.74-3.32,15.37,15.37,0,0,1,.86-1.41q.54-.78,1.26-1.77a14.8,14.8,0,0,0,1.26-1.47,32.73,32.73,0,0,0,1.89-2.76c.49-.73,1-1.5,1.54-2.32s1-1.6,1.54-2.39c.24-.36.54-.85.9-1.45l1.22-2.08c.28-.31.6-.7,1-1.17s.76-1,1.19-1.69c.61-.94,1.25-2,1.93-3.24s1.41-2.55,2.16-4c1.22-2.25,2.12-4.08,2.72-5.51a9.52,9.52,0,0,0,.89-3,1.5,1.5,0,0,0-.52-1,6.57,6.57,0,0,0-1.59-1.08,14.6,14.6,0,0,0-1.61-.72,4.91,4.91,0,0,0-1.19-.3l-2.47-.11-.87-.34c-.31-.11-.64-.23-1-.33l-1.59.63a8.9,8.9,0,0,0-1.12-.36,4.92,4.92,0,0,0-1-.11c-1.3.1-2.51.23-3.61.39l-.88-.39a1.13,1.13,0,0,1-.24-.61l-.24-1.2c.15-.34.34-.78.58-1.31s.5-1.15.78-1.83a6.61,6.61,0,0,0,.16-.82,3.93,3.93,0,0,1,1.32-2.1,4,4,0,0,1,2.52-.72,12.08,12.08,0,0,1,1.41.07l1.15.16.46.43a10.71,10.71,0,0,0,1.07-.37,1.83,1.83,0,0,1,.65-.18l3.87.91a13.15,13.15,0,0,1,1.36.17c.54.09,1.16.22,1.85.38a10.33,10.33,0,0,0,1.16.74l1.64.9a7,7,0,0,1,2.17,1.51,7.82,7.82,0,0,1,1.5,2.14,10.11,10.11,0,0,1,.75,1.94,7.42,7.42,0,0,1,.22,1.75,10,10,0,0,1-.26,2.39,7.18,7.18,0,0,1-.78,2l-.42,1.53a3.82,3.82,0,0,1-.31.86,7,7,0,0,1-.6,1.1c-.37.6-.77,1.22-1.2,1.84a4.21,4.21,0,0,1-.59,1.08,9.54,9.54,0,0,1-1.07,1.28,1.26,1.26,0,0,0-.31.35,4.16,4.16,0,0,0-.34.67,14.08,14.08,0,0,1-1.1,2.12c-.5.81-1.12,1.75-1.85,2.82-1,1.36-1.74,2.45-2.29,3.27s-.94,1.41-1.16,1.75-.52.54-.78.82-.54.63-.84,1l-.42,1.18a11.79,11.79,0,0,1-1.14,2q-1,1.51-2.73,4.06a38.5,38.5,0,0,0-2.54,3.84,5.66,5.66,0,0,0-.81,2,.41.41,0,0,0,.26.4l1.27-.28c.3.08.59.15.88.2a11.2,11.2,0,0,1,1.62-.2l1.14.39a10.87,10.87,0,0,1,1.61-.49,6.3,6.3,0,0,1,1.18-.13,15.78,15.78,0,0,0,3.09-.28,10.41,10.41,0,0,0,2.63-.86,11.92,11.92,0,0,0,1.62-.33c.65-.17,1.4-.39,2.25-.65a5.6,5.6,0,0,1,.74-.35,8.72,8.72,0,0,0,.82-.4l1-.23A3.79,3.79,0,0,0,587.17,677.16Z"/>
    <path class="cls-2" d="M591,663a4,4,0,0,1,.25-1.21,10.25,10.25,0,0,1,.73-1.61c.45-.78.8-1.4,1-1.84a5,5,0,0,0,.38-.87c.1-.28.25-.66.44-1.13s.39-1,.63-1.61a7,7,0,0,0,.75-1.86c.28-1,.6-2.22,1-3.79.17-.42.36-.92.55-1.51l.72-2.1a14.45,14.45,0,0,1,.49-2.12c.23-.81.54-1.71.9-2.7s.94-1.87,1.43-2.79a4.77,4.77,0,0,1,2.15-2,3.77,3.77,0,0,1,.84.87,1.43,1.43,0,0,1,.3.82,7,7,0,0,1-.73,2.61,6.93,6.93,0,0,0-.74,2.21.79.79,0,0,0,.3.59,5.91,5.91,0,0,0,.94-.94c.45-.52,1-1.23,1.79-2.12a18.52,18.52,0,0,1,1.64-1.66,3.25,3.25,0,0,1,1.38-.81,5.59,5.59,0,0,1,1.07-.35,10.32,10.32,0,0,0,1.46-.51,3.68,3.68,0,0,0,.68-.55,2.63,2.63,0,0,1,.72-.47l.49.12a3.7,3.7,0,0,0,1.62.72,8.66,8.66,0,0,0,1.69.37,4.09,4.09,0,0,1,.68.63,9.63,9.63,0,0,0,1,.94A9.46,9.46,0,0,1,620,641a22,22,0,0,1,2,4.53,36.33,36.33,0,0,1,1.28,4.71,21.75,21.75,0,0,1,.44,4.31A42.1,42.1,0,0,1,622.36,666a19.88,19.88,0,0,1-4.13,7.92l-.63.76-.93,1.08v.43a2.14,2.14,0,0,1-.37.85,10.1,10.1,0,0,1-.86,1c-.8.89-1.62,1.78-2.44,2.68s-1.67,1.79-2.53,2.65a20,20,0,0,1-3.09,2.67,10.18,10.18,0,0,1-2.83,1.37,3.8,3.8,0,0,1-1.44,1,5.93,5.93,0,0,1-2.1.33,11.9,11.9,0,0,1-3-.29,3.32,3.32,0,0,1-1.63-.84,6.37,6.37,0,0,0-.68-.71c-.26-.23-.56-.53-.91-.9a4.71,4.71,0,0,1-1-1.86,22.27,22.27,0,0,1-.88-3.51c-.17-1.08-.31-2.12-.4-3.12s-.15-1.94-.15-2.81a8,8,0,0,1,.16-1.29,6,6,0,0,0,.13-1.37c0-.61,0-1.13-.06-1.57a11.62,11.62,0,0,1,.35-2.24,11.26,11.26,0,0,0,.36-2.43,1.48,1.48,0,0,0-.19-.59,5.42,5.42,0,0,0-.75,1.3,1.54,1.54,0,0,1-.46.58.82.82,0,0,1-.48.2.65.65,0,0,1-.57-.35,2.13,2.13,0,0,1-.21-1.06,8.1,8.1,0,0,1,.18-1.41A9.3,9.3,0,0,0,591,663Zm19.5-19.18a5.58,5.58,0,0,0-1.59.24,9.46,9.46,0,0,0-1.66.67l-3.15,1.68a3.48,3.48,0,0,0-.73.63,9.14,9.14,0,0,0-.9,1.18L601,650.41a10.72,10.72,0,0,0-1.27,3.73,70,70,0,0,0-1,7.06q-.33,3.33-.46,6.22c-.08,1.92-.13,3.69-.13,5.31,0,3.32.43,5.8,1.27,7.43a4.08,4.08,0,0,0,3.83,2.46,6,6,0,0,0,2.7-.77,16,16,0,0,0,3.25-2.33,26.42,26.42,0,0,0,2.63-2.69,15.47,15.47,0,0,0,1.89-2.77,21.31,21.31,0,0,0,1-2.31q.71-1.77,1.93-4.82a30.89,30.89,0,0,0,1.27-4.53,24.55,24.55,0,0,0,.46-4.73c-.14-.79-.28-1.56-.43-2.32l.23-1.68c-.22-.32-.4-.6-.55-.87l-.17-.51a16.31,16.31,0,0,0-2.72-6.37A5.29,5.29,0,0,0,610.5,643.78Z"/>
    <path class="cls-2" d="M631.19,650c-.06-.52-.14-1.07-.22-1.65,0,.24,0,.06.09-.55s.15-1.63.26-3.09a4.16,4.16,0,0,0,.38-.77c.07-.22.14-.42.21-.61a6.11,6.11,0,0,1-.44-.72,1.16,1.16,0,0,1-.15-.49c.18-1.6.34-3.11.49-4.55a2.63,2.63,0,0,1,.57-1.34,11,11,0,0,1,1.48-1.6,11.47,11.47,0,0,1,1.46-1.26,9.82,9.82,0,0,1,1.36-.82,2.7,2.7,0,0,0,1-.59.45.45,0,0,1,.36-.24.88.88,0,0,1,.8.63,5,5,0,0,1,.27,1.88,8.87,8.87,0,0,1-.27,1.85,8.15,8.15,0,0,0-.28,1.72c0,.16,0,.76,0,1.81s.08,2.55.15,4.51a25.69,25.69,0,0,0,.5,4.51q.47,2.39,1.22,5a17.93,17.93,0,0,0,2.18,5,3.24,3.24,0,0,0,2.57,1.67c.73,0,1.71-.58,2.92-1.73a35.68,35.68,0,0,0,4.29-5.18q1.89-2.65,3.37-5a38.65,38.65,0,0,0,2.39-4.23,15.2,15.2,0,0,1,2-3.1,16.73,16.73,0,0,1,2.6-2.51l.75-.51a1,1,0,0,1,.46-.2c.38,0,.67.35.88,1.06a12.32,12.32,0,0,1,.3,3.14c-.13,1.28-.24,2.55-.32,3.8-.2,2-.48,4-.86,6.12s-.87,4.32-1.48,6.59c-.3,1.15-.56,2.16-.78,3a22.15,22.15,0,0,0-.45,2.2c-.05.34-.1.76-.18,1.27s-.16,1.11-.24,1.79-.46,1.31-.72,2a10.2,10.2,0,0,0-.53,1.88c-.14.73-.27,1.58-.38,2.55,0,.18,0,.42,0,.71s0,.59-.06.9c-.5,2.67-1,5.25-1.53,7.77a4.75,4.75,0,0,1-.29.9,3,3,0,0,0-1,.66,8.36,8.36,0,0,0-1.12,1.42,9.9,9.9,0,0,1-1,1.15c-.26.25-.45.38-.58.38a.54.54,0,0,1-.43-.2,1.11,1.11,0,0,1-.16-.67,2.55,2.55,0,0,1,.1-.51,21.35,21.35,0,0,0,.79-3.84q.35-2.5.64-6.2c0-.52.19-1.93.52-4.23s.8-5.5,1.43-9.57c.08-.66.2-1.46.34-2.42s.32-2,.54-3.27c.15-.63.27-1.17.37-1.63a5.32,5.32,0,0,0,.15-1,1.05,1.05,0,0,0-.12-.57.37.37,0,0,0-.34-.18c-.13,0-.37.21-.72.61a19.39,19.39,0,0,0-1.3,1.83c-.3.44-.61.91-.92,1.41s-.65,1-1,1.45c-.59.73-1.13,1.43-1.63,2.08l-2.41,2.9-.79.59-1.13.82a5.24,5.24,0,0,1-2,2,4.73,4.73,0,0,1-2.49.85,4.09,4.09,0,0,1-2.62-1,11,11,0,0,1-2.42-3.2c-.35-.71-.69-1.41-1-2.12s-.7-1.41-1.09-2.12l-.17,0a21,21,0,0,0-.6,3.18q-.43,2.94-1.12,8.63c-.5,3.9-.87,7-1.13,9.18s-.39,3.66-.39,4.31a5.68,5.68,0,0,1-.41,2.06,1.38,1.38,0,0,1-1.06.85,6,6,0,0,0-1,.21l-1.56.45a.69.69,0,0,1-.3-.14.35.35,0,0,1-.13-.29l.2-1.45-.33-1.49c.13-.81.26-1.6.39-2.35.09-1.57.17-3.05.23-4.44a11.47,11.47,0,0,1,.25-1.45,8.36,8.36,0,0,0,.21-1.53,5.49,5.49,0,0,0-.1-.8,4.36,4.36,0,0,1-.1-.81,52.37,52.37,0,0,1,.57-6.39,52.4,52.4,0,0,0,.57-6.43c-.07-.6-.14-1.2-.23-1.81.11-.94.28-2.12.52-3.53S630.89,651.86,631.19,650Z"/>
    <path class="cls-2" d="M667.78,688.5c.19-.21.47-.49.82-.84s.82-.78,1.38-1.28a4.09,4.09,0,0,0,.95-1,1.86,1.86,0,0,0,.29-1c0-1.23,0-2,0-2.36s0-.6,0-.78q0-3.78.16-5.89a9.44,9.44,0,0,1,.42-2.63l-.06-1.18-.2-.27c0-.29,0-.55,0-.77s0-.41,0-.57a2.59,2.59,0,0,0-1.57-2.75,2.32,2.32,0,0,1-1.58-2.39c0-.37.31-.82.91-1.35a22.43,22.43,0,0,1,2.67-1.94c.15-1.29.31-2.68.48-4.2s.38-3.19.62-5c-.09-.34-.15-.62-.19-.85a2.7,2.7,0,0,1-.07-.6,11.45,11.45,0,0,1,.26-2.51,7.86,7.86,0,0,1,1.46-3.35c.31-.44.68-.91,1.11-1.43a8.21,8.21,0,0,0,.78-1,1.65,1.65,0,0,0,.26-.73.66.66,0,0,0-.21-.51.85.85,0,0,0-.6-.19,10.61,10.61,0,0,0-3.55.92,10.83,10.83,0,0,1-3.5.92,1.05,1.05,0,0,1-.57-.12.43.43,0,0,1-.18-.39,13.67,13.67,0,0,1,.06-1.37,3.51,3.51,0,0,1,.17-.83,5.69,5.69,0,0,0,.86-1,1.73,1.73,0,0,0,.31-.94c0-.13.11-.3.34-.51a2.89,2.89,0,0,1,1.09-.55l4.56-1.57,1.8-.62a25.06,25.06,0,0,1,3.48-.81,20.26,20.26,0,0,1,3.09-.25,3.91,3.91,0,0,1,.65.1,1.16,1.16,0,0,0,.65,0c.43-.07.88-.17,1.36-.27a7.6,7.6,0,0,1,1.14.22l2.63.6c.24,0,.5-.11.78-.19a3.18,3.18,0,0,1,1.58.35,2.59,2.59,0,0,1,1,1,3.37,3.37,0,0,0,.87.12,2.4,2.4,0,0,1,1.55.57,4.92,4.92,0,0,1,1.22,1.62,13.19,13.19,0,0,1,.71,2,8.31,8.31,0,0,1,.26,2.06,10.64,10.64,0,0,1-.73,3.94,11.39,11.39,0,0,1-2.19,3.47c-.11.08-.64.54-1.58,1.39s-2.31,2-4.11,3.55a6.65,6.65,0,0,0-.68.66,10.3,10.3,0,0,1-.94.9c-1.78,1.29-3.49,2.51-5.14,3.69a29.33,29.33,0,0,0-3.15,2.31c-.71.63-1.07,1.07-1.07,1.33a2,2,0,0,0,.55,1.4,4.83,4.83,0,0,0,1.69,1.08c1.1.47,2.35,1,3.74,1.61s2.87,1.32,4.45,2.16a2.37,2.37,0,0,1,.57.31c.22.16.48.33.76.51a10.21,10.21,0,0,1,4.14,3.08,6.91,6.91,0,0,1,1.35,4.22q0,3.49-5.21,6.63t-15.62,6c-.1.37-.23.73-.37,1.1s-.27.72-.37,1.06a1.77,1.77,0,0,1-.65.68,1.86,1.86,0,0,1-1,.26,1.12,1.12,0,0,1-1-.53,3.85,3.85,0,0,1-.49-1.67c-.17-.18-.31-.26-.42-.23l-1.85.59-.67-.42c-.21-.11-.42-.24-.63-.37a1.88,1.88,0,0,1-.52-.57,1.39,1.39,0,0,1-.2-.72.77.77,0,0,1,.21-.57A4.57,4.57,0,0,1,667.78,688.5Zm10-18.61c-.35,0-.64.36-.89,1.08a15.35,15.35,0,0,0-.6,3.2c-.09,1.31-.18,2.63-.26,4s-.18,2.63-.26,3.94c-.13.66-.24,1.35-.33,2.08l.07.4.26.15c.86-.28,1.83-.59,2.89-.9.73,0,1.17-.08,1.31-.25s1.89-1.16,5.25-3a15.68,15.68,0,0,0,3.22-2.06,2.59,2.59,0,0,0,1.07-1.67,1.37,1.37,0,0,0-.29-.82,4.2,4.2,0,0,0-.88-.83,22.64,22.64,0,0,0-3.38-2.14,31.76,31.76,0,0,0-4.06-1.74l-.67-.26-.82-.29c-.48-.27-.84-.47-1.09-.63A1.24,1.24,0,0,0,677.75,669.89Zm6.3-29.4a7.19,7.19,0,0,0-2,.22,1.86,1.86,0,0,0-1.09.68,3.54,3.54,0,0,0-.54,1.22q-.27.9-.6,2.46a17.45,17.45,0,0,0-.18,1.92c0,.71,0,1.48,0,2.32a10.54,10.54,0,0,1-.74,1.72l.16,1c-.26,1.31-.44,2.35-.55,3.14a13.62,13.62,0,0,0-.16,1.56,1.35,1.35,0,0,0,.19.83.69.69,0,0,0,.55.23,4.52,4.52,0,0,0,1.55-.86c.81-.58,1.93-1.44,3.36-2.59l3.62-2.88c.84-.66,1.32-1,1.45-1.12l.83-1.23.79-1.19a8,8,0,0,0,.81-1.47,3,3,0,0,0-.22-2.85,4.27,4.27,0,0,0-1.47-1.29c-.21-.1-.6-.26-1.15-.47a17.94,17.94,0,0,0-2.13-.63l-1.69-.54A3.23,3.23,0,0,0,684.05,640.49Z"/>
    <path class="cls-2" d="M701.82,680.14c0-1.46,0-2.7.15-3.7a20.94,20.94,0,0,1,.34-2.38c0-.44-.1-.9-.16-1.37s.05-1.46.16-2.74.27-3,.49-5,.36-3.52.5-4.6.25-1.75.31-2c0-.45-.09-.93-.15-1.46a16.27,16.27,0,0,0-.27-1.72l-.72-.63-.16-.47c0-.73.08-1.47.11-2.22s.11-1.49.22-2.25a13.9,13.9,0,0,1,.3-2.47c.17-.71.33-1.32.51-1.85q.09-.19.21-.54A4.59,4.59,0,0,1,704,644c.19-.94.39-1.88.58-2.82s.4-1.86.62-2.75a5.23,5.23,0,0,1,1.4-2.16,4.36,4.36,0,0,1,2.21-1.06,12.21,12.21,0,0,1,1.56-.88,2.79,2.79,0,0,1,1-.29.79.79,0,0,1,.71.43,2.39,2.39,0,0,1,.26,1.21c0,.21-.09.94-.26,2.18s-.44,3-.81,5.16q-.1,1.1-.33,2.61c-.15,1-.35,2.2-.61,3.59s-.65,3.23-1,5.08-.6,3.87-.86,6.1c-.11.94-.23,1.87-.36,2.78s-.25,1.84-.36,2.79-.24,2.08-.34,3a25.14,25.14,0,0,0-.15,2.57,7.26,7.26,0,0,0,.05.83,4.84,4.84,0,0,1,0,.74,4.36,4.36,0,0,1,0,1.14c-.06.47-.12,1-.18,1.69s-.17,1.19-.23,1.7a9.12,9.12,0,0,0-.1,1.16c0,1.33,0,2.41.08,3.24a13.39,13.39,0,0,0,.18,1.62c.15.71.31,1.47.46,2.28q0,.66-1.47,2c-1,.88-1.67,1.31-2.11,1.31a1,1,0,0,1-.7-.33,4.35,4.35,0,0,1-.63-1q-.23-.63-.36-1.14a4.15,4.15,0,0,1-.13-.94,3.81,3.81,0,0,1,.13-.74,3.23,3.23,0,0,0,.13-.75,12.35,12.35,0,0,0-.58-2c0,.26-.07.21-.07-.16Z"/>
    <path class="cls-2" d="M741.13,677.16l1.24,3.61c-.24.26-.53.54-.86.85s-.73.62-1.19,1a17.32,17.32,0,0,0-1.64.78l-2.19,1.18c-.63.47-1.14.82-1.54,1.06a2.28,2.28,0,0,1-.83.35,5.22,5.22,0,0,0-1.55.43q-1.11.43-2.94,1.29c-.65.29-1.33.59-2.06.89a23.19,23.19,0,0,1-2.26.8l-2-.51-1.24.67-1.25,0a11.81,11.81,0,0,1-1.22-.1,3.2,3.2,0,0,1-1.41-.31.88.88,0,0,1-.47-.79l.19-1.49-.19-.27a2.19,2.19,0,0,1-1.48-.36,2.39,2.39,0,0,1-.37-1.64c0-.4,0-1,0-2s.08-2.11.14-3.57a3.51,3.51,0,0,1,.21-.83,3.34,3.34,0,0,0,.21-.9,3,3,0,0,1-.19-.63,3.34,3.34,0,0,1,0-.43c0-1,.13-2.27.27-3.76s.32-3.26.54-5.3c.26-1.23.48-2.61.65-4.16,0-1.15-.09-2.32-.13-3.53q1.2-6.51,2.47-13.1a7.58,7.58,0,0,1,.73-2.23,12.88,12.88,0,0,1,1.28-2,2.23,2.23,0,0,0,.42-.43c.11-.24.25-.53.43-.89s.38-.75.61-1.19c.13-.11.35-.26.64-.47l1.18-.87c.22-.21.47-.45.75-.74l1-1a25.37,25.37,0,0,0,2.29-1.9,4.73,4.73,0,0,1,2.64-1.24l1.5-.1,1.43-.13a7.23,7.23,0,0,1,1.14-.2l.56-.16a1.58,1.58,0,0,1,.44-.08,3.36,3.36,0,0,1,.54.06l.93.18c.3,0,.56,0,.78,0a4,4,0,0,0,.61,0,3.49,3.49,0,0,1,2.54,3.53,13.74,13.74,0,0,1-.44,4c-.29.88-.75,1.31-1.38,1.31a2.53,2.53,0,0,1-1.63-.88c-.6-.59-2.24-.88-4.9-.88l-3.29.78a1.21,1.21,0,0,1-.37.47,1.89,1.89,0,0,1-.37.24L729,641a3.27,3.27,0,0,0-1.17,1.29,18.49,18.49,0,0,0-1.36,2.91,4.09,4.09,0,0,0-.25,1,10.88,10.88,0,0,0-.08,1.37q-.58,2.82-1.17,5.45c-.37,1.88-.66,3.31-.89,4.28s-.36,1.55-.41,1.76-.12.51-.16.75a4.15,4.15,0,0,0-.07.7,1.57,1.57,0,0,0,.17.79.53.53,0,0,0,.48.27c.2,0,.67-.43,1.42-1.29a4.62,4.62,0,0,1,1.67-1.45q.69-.24,1.38-.51c.47-.19,1-.41,1.45-.67a9.68,9.68,0,0,1,1.54-.31c.83-.13,2-.29,3.49-.48l.91.32,1.73-.39.91.51a5.3,5.3,0,0,1,.6,1,11.66,11.66,0,0,1,.5,1.23,11.55,11.55,0,0,1-.42,3.57c-.28.81-.71,1.22-1.27,1.22l-1.79-.86-4.37.52c-1.44.18-2.9.34-4.4.5a8.54,8.54,0,0,0-4.19,2.15,6,6,0,0,0-1.62,3.93c0,.33-.1.86-.23,1.56s-.28,1.59-.46,2.63l.23,1.18c-.19,1.12-.35,2.18-.45,3.18a24.5,24.5,0,0,0-.17,2.66,1.32,1.32,0,0,0,.1.57c.07.12.14.15.23.1l2.5-.24a7.89,7.89,0,0,1,1.33,0l1.72.15,2-.19a10.48,10.48,0,0,0,1.41-.63,4.44,4.44,0,0,1,2-.55,7.79,7.79,0,0,0,1.9-.24,10.48,10.48,0,0,0,1.84-.62c.58-.26,1.16-.53,1.73-.81l1.74-.8a5.21,5.21,0,0,0,.86-.43C740.24,677.78,740.66,677.5,741.13,677.16Z"/>
    <path class="cls-2" d="M765.24,677.12l1.3,3.61a4.42,4.42,0,0,1-2,.75c-1,.2-2.36.39-4,.54a40.29,40.29,0,0,1-5.7,5.6,21.53,21.53,0,0,1-5.64,3.29c-.43.16-.93.33-1.49.51a3,3,0,0,1-1.14-.25,9.86,9.86,0,0,1-1.37-.73,6,6,0,0,1-1.2-1.14,1.82,1.82,0,0,1-.42-1.13,3.45,3.45,0,0,1,.94-2.28,9.64,9.64,0,0,1,2.76-2.08q3.65-2,7.18-4.12a1,1,0,0,1,.75.26.93.93,0,0,1,.23.64,2.09,2.09,0,0,1-1.25,1.79c-.84.48-1.25.83-1.25,1q.23.39.39.39.42,0,1.86-1.53c1-1,1.44-1.66,1.42-1.92l-.16-.9.06-.16a9.2,9.2,0,0,0,1.25-1.61,2.51,2.51,0,0,0,.41-1.14,6.45,6.45,0,0,0-.81-2.62,32.4,32.4,0,0,0-2.44-4,36.94,36.94,0,0,0-2.47-3.24c-.82-1-1.61-1.8-2.37-2.53a7,7,0,0,1-.78-.92,5.41,5.41,0,0,1-.52-.85q-.36-.78-.57-1.29a2.46,2.46,0,0,0-.37-.67l-.44-.57-.67-.76a6.32,6.32,0,0,1-1.06-2.39,16.91,16.91,0,0,1-.37-3.81,12,12,0,0,1,.34-2.88,9.25,9.25,0,0,1,1-2.49c.07-.16.13-.34.2-.55s.14-.44.23-.71a15.31,15.31,0,0,1,2.53-4,36.56,36.56,0,0,1,4.68-4.53,11,11,0,0,0,.94-.63,14.26,14.26,0,0,0,1.24-1,4.92,4.92,0,0,1,.86-.71,6.13,6.13,0,0,1,1.12-.59c.58-.29,1.24-.6,2-.94a20.86,20.86,0,0,1,2.7-1.49,4.56,4.56,0,0,1,1.62-.47,1.82,1.82,0,0,1,1.61.78,4,4,0,0,1,.54,2.28,13.79,13.79,0,0,1-.22,2.68,2.92,2.92,0,0,1-.56,1.4c-2.56,2.45-4.62,4.31-6.18,5.55s-2.65,1.86-3.28,1.86a.86.86,0,0,1-.71-.31,1.44,1.44,0,0,1-.26-1,3.4,3.4,0,0,1,1.46-2.33c1-.85,1.45-1.5,1.43-1.94l-.3-.24a.79.79,0,0,0-.37.12,2.31,2.31,0,0,0-.44.32,30.52,30.52,0,0,0-4.3,5,7.32,7.32,0,0,0-1.45,3.86,9.72,9.72,0,0,0,.38,2.63,14.8,14.8,0,0,0,1.08,2.74c.35.66.85,1.49,1.51,2.49s1.5,2.22,2.52,3.63q2.12,2.94,3.25,4.55a14.55,14.55,0,0,0,1.27,1.69,15.66,15.66,0,0,1,1.1,2,8,8,0,0,1,.62,2,12.93,12.93,0,0,1,.23,1.84q.06,1.11.06,2.67c0,.62.08,1,.23,1.06a1.53,1.53,0,0,0,.75.14.5.5,0,0,0,.31-.1A3.33,3.33,0,0,0,765.24,677.12Z"/>
    <path class="cls-2" d="M784.6,673.55a4.89,4.89,0,0,1-.11-.7c0-.18,0-.34,0-.47a8.4,8.4,0,0,1,.26-2.22,4.12,4.12,0,0,1,.78-1.55,3.22,3.22,0,0,1,.67-.47c.36-.21.83-.46,1.41-.74a3.32,3.32,0,0,0,1-.85,2,2,0,0,0,.41-1.19,6.8,6.8,0,0,1,.39-1.26c.2-.47.42-1,.68-1.53a25.3,25.3,0,0,0,.78-2.7c.44-1.65,1-4.07,1.82-7.26.22-1,.44-1.81.65-2.51s.41-1.31.56-1.81a21.51,21.51,0,0,1,1.7-4.37,16.66,16.66,0,0,0,1-1.71V642l-1-1.92,1.27-1.77,1.62-.39c.33-.05.63-.42.9-1.1a8.62,8.62,0,0,1,1.41-2.23,3.32,3.32,0,0,0,.73-.49c.34-.28.77-.66,1.29-1.16a7.18,7.18,0,0,1,1.17-1,1.58,1.58,0,0,1,.74-.32,1.66,1.66,0,0,1,1.27.43,1.64,1.64,0,0,1,.39,1.14,6.76,6.76,0,0,1-.75,2.51,6.9,6.9,0,0,0-.74,2.51,1.39,1.39,0,0,0,.14.65.71.71,0,0,0,.34.33l3.89,2.55c.22.1.41.51.59,1.23a21.91,21.91,0,0,1,.42,3c.13,1,.23,1.92.31,2.61s.11,1.25.11,1.66l-.45,3.42c.21,1.46.45,3,.71,4.62q-.2,2.31-.42,4.71a.91.91,0,0,0,.08.41.34.34,0,0,0,.24.21,1.23,1.23,0,0,1,.83.35,1.29,1.29,0,0,1,.27.87,3.1,3.1,0,0,1-.17,1.12,1.49,1.49,0,0,1-.51.64,7.91,7.91,0,0,0-.66.55,2.06,2.06,0,0,0-.34.4l.42,2.43-.58,5.57c0,.47,0,1.08-.1,1.81s-.16,1.58-.29,2.55c-.22.71-.38,1.3-.49,1.77a5,5,0,0,0-.16.94c.11.44.21.92.29,1.41-.13.71-.26,1.42-.4,2.12s-.28,1.4-.41,2.08a4.81,4.81,0,0,1-.94,2,1.79,1.79,0,0,1-1.36.65.67.67,0,0,1-.63-.45,3.33,3.33,0,0,1-.21-1.35,7.43,7.43,0,0,1,.11-1.14,7.54,7.54,0,0,0,.11-1.14,6.45,6.45,0,0,0-.06-.75,6.64,6.64,0,0,1-.07-.82q0-1.1.18-3.51t.18-3.63c-.11-.45-.22-.9-.32-1.38.06-.49.1-1,.13-1.51a9.49,9.49,0,0,0,0-1.43l.49-1.06-.42-3.65-.23-.12a1.48,1.48,0,0,0-.57.18,6.32,6.32,0,0,0-.92.57,7.85,7.85,0,0,1-1.22.33,13,13,0,0,1-2.2.22l-1.1.63a14.64,14.64,0,0,0-1.89.68c-.76.33-1.64.73-2.63,1.2a12.57,12.57,0,0,1-1.61.8,3.4,3.4,0,0,1-1.22.3.79.79,0,0,0-.65.35,2.87,2.87,0,0,0-.43,1,10.29,10.29,0,0,1-.47,1.73c-.25.73-.58,1.65-1,2.75-.09.28-.21.73-.36,1.33s-.32,1.35-.52,2.24c-.13.34-.28.76-.45,1.27s-.37,1.11-.59,1.79a11.29,11.29,0,0,1-.08,1.16c0,.45-.13,1-.24,1.58-.11.37-.26.84-.44,1.4s-.42,1.18-.7,1.86a1.79,1.79,0,0,1-.75.92,2.39,2.39,0,0,1-1.27.3,1,1,0,0,1-.86-.45,2.57,2.57,0,0,1-.31-1.4,16.16,16.16,0,0,1,.2-2.33,25.57,25.57,0,0,1,.62-2.88c.3-1.39.56-2.51.78-3.37a11.93,11.93,0,0,0,.36-1.93c.06-.18.16-.51.29-1s.28-1,.45-1.72.38-1.4.56-2.24l-.17-.31-1,.19a.61.61,0,0,1-.52-.35,1.76,1.76,0,0,1-.16-.82,2.72,2.72,0,0,1,.07-.61C784.45,674.14,784.51,673.87,784.6,673.55Zm11.81-7.22a8.72,8.72,0,0,0,2.21-.44,8.45,8.45,0,0,1,2.21-.43c.3.08.6.14.91.2.54-.14,1.07-.29,1.59-.46s1-.32,1.59-.45a.8.8,0,0,0,.49-.3.9.9,0,0,0,.16-.57c0-.78-.06-1.31-.06-1.6,0-.5,0-1.06.08-1.67s.13-1.25.24-1.9l-.39-1.77.13-1.61q-.14-.86-.21-1.62a6.21,6.21,0,0,1,0-1.28c0-.1-.11-.27-.22-.51l-.36-.74c-.22-.45-.44-.87-.67-1.28s-.45-.82-.66-1.23a3.47,3.47,0,0,0-1-1.1,1.86,1.86,0,0,0-1.07-.36c-.44,0-.88.42-1.33,1.26a15.61,15.61,0,0,0-1.27,3.81c-.07.2-.24.64-.54,1.29s-.71,1.5-1.25,2.55a16.79,16.79,0,0,1-.88,3.71c-.49,1.47-1.19,3.21-2.08,5.19a1.32,1.32,0,0,0-.17.48c0,.13,0,.27,0,.43a.7.7,0,0,0,.11.42.42.42,0,0,0,.34.13,9.19,9.19,0,0,0,1.06-.08C795.84,666.35,796.19,666.33,796.41,666.33Z"/>
    <path class="cls-2" d="M827.42,666.83a4,4,0,0,0,.93,2.1,28.26,28.26,0,0,0,2.77,3.24q1.2,1.22,2.49,2.37l2.55,2.34,1.43,1.43,2,2.06c.56.53,1.15,1,1.77,1.57s1.28,1,2,1.57c.47.45,1,.93,1.59,1.45s1.25,1.09,2,1.69a3.12,3.12,0,0,1,1,1.71,13.15,13.15,0,0,1,.42,3.2l-.29,1-.33.19a1.84,1.84,0,0,1-.86-.33q-.53-.33-1.35-1c-.1-.08-.6-.37-1.47-.86s-2.14-1.21-3.79-2.12a17.77,17.77,0,0,1-2.5-1.59,19.85,19.85,0,0,1-2.08-1.87,17.56,17.56,0,0,0-1.41-1.3c-.58-.47-1.25-1-2-1.53a22.88,22.88,0,0,1-2.08-1.57c-.59-.49-1-.91-1.4-1.25-1.17-1.15-2.12-2-2.86-2.63a3.44,3.44,0,0,0-1.53-.9,2.49,2.49,0,0,0-.35,1.13c-.26,1.23-.54,2.78-.83,4.66s-.61,4.05-1,6.53a2,2,0,0,1-.2,1,.62.62,0,0,1-.58.34,2.41,2.41,0,0,1-1.92-.75,3.33,3.33,0,0,1-.65-2.24q0-2,.21-4.2c.14-1.46.38-3,.7-4.63.11-.71.19-1.34.25-1.9s.08-1.08.08-1.55a4.26,4.26,0,0,0-1.29-3.11c-.85-.86-1.28-1.47-1.28-1.84a4.87,4.87,0,0,1,.21-1.51,2.41,2.41,0,0,1,.63-1c.72-.55,1.38-1.07,2-1.57a.84.84,0,0,0,.31-.53,5.39,5.39,0,0,0,.08-1v-1.68c.06-2.33.12-4.74.16-7.25v-.87c0-.39,0-.9-.07-1.52a10,10,0,0,1,0-1.32c0-.4,0-.78,0-1.12-.13-.52-.24-1-.34-1.35a4.71,4.71,0,0,1-.14-1.08q0-.46.06-1.47c.05-.66.07-1.14.07-1.43s0-.87-.08-1.53-.09-1.15-.09-1.49a6.92,6.92,0,0,1,.54-2.7,9.32,9.32,0,0,1,1.64-2.55,8.45,8.45,0,0,1,2.19-1.66,5,5,0,0,1,2.3-.57c.36,0,.91,0,1.64.1s1.29.09,1.7.09a9.14,9.14,0,0,1,2.31.87,10.64,10.64,0,0,1,1.33.21,5.94,5.94,0,0,1,.94.29l1.27.73a2.38,2.38,0,0,0,.65.29l1,.4a1.92,1.92,0,0,1,.66.39l1,.55,1.28.7a13.37,13.37,0,0,1,2.19,1.65,22.1,22.1,0,0,1,1.94,2,11.72,11.72,0,0,1,1.55,2.76,7.42,7.42,0,0,1,.52,2.69c0,.26,0,.63,0,1.12s-.1,1-.18,1.62a5.3,5.3,0,0,1-1,2.45,17.51,17.51,0,0,1-2.53,2.89,30.16,30.16,0,0,1-2.73,2.29,10.09,10.09,0,0,1-2.34,1.31,4,4,0,0,0-.65.67,7.39,7.39,0,0,1-1.36,1.1c-.7.47-1.64,1.06-2.83,1.76q-3.25,1.92-4.62,2.53C827.88,665.92,827.42,666.36,827.42,666.83ZM824,647.94l1.17-1.08a2,2,0,0,1,1.43-.53c.26,0,.58.35,1,1a3.83,3.83,0,0,1,.56,1.55,9.84,9.84,0,0,1-.16,1.25c-.11.66-.28,1.54-.52,2.67-.5,2.53-.78,4.12-.84,4.76s-.21,1.64-.42,3a12.07,12.07,0,0,0-.26,1.33.86.86,0,0,0,.11.51.37.37,0,0,0,.31.16c4.31-2.62,6.54-4,6.69-4.08a3,3,0,0,0,.55-.22,4.92,4.92,0,0,0,.56-.29l.48-.74q1.89-1.46,3.9-3.1a9.47,9.47,0,0,0,1.89-2.31,4.76,4.76,0,0,0,.61-2.28,4.12,4.12,0,0,0-1.39-2.86,14.44,14.44,0,0,0-4.19-2.7,26.63,26.63,0,0,0-4.33-1.67,13.76,13.76,0,0,0-3.54-.53,4.83,4.83,0,0,0-3.13.88,3.2,3.2,0,0,0-1.06,2.61,9.33,9.33,0,0,0,.16,2C823.66,647.79,823.81,648,824,647.94Z"/>
    <path class="cls-2" d="M875.37,677.16l1.24,3.61c-.24.26-.53.54-.86.85s-.73.62-1.19,1a17.32,17.32,0,0,0-1.64.78l-2.19,1.18c-.63.47-1.15.82-1.55,1.06a2.19,2.19,0,0,1-.82.35,5.22,5.22,0,0,0-1.55.43c-.74.29-1.73.72-2.94,1.29-.65.29-1.34.59-2.06.89a23.19,23.19,0,0,1-2.26.8l-2-.51-1.24.67-1.25,0a11.81,11.81,0,0,1-1.22-.1,3.2,3.2,0,0,1-1.41-.31.87.87,0,0,1-.47-.79l.19-1.49-.19-.27a2.19,2.19,0,0,1-1.48-.36,2.39,2.39,0,0,1-.37-1.64c0-.4,0-1,0-2s.09-2.11.15-3.57a3.51,3.51,0,0,1,.21-.83,3.34,3.34,0,0,0,.21-.9,2.48,2.48,0,0,1-.19-.63,3.34,3.34,0,0,1,0-.43c0-1,.13-2.27.27-3.76s.32-3.26.54-5.3c.26-1.23.47-2.61.65-4.16-.05-1.15-.09-2.32-.13-3.53q1.2-6.51,2.47-13.1a7.58,7.58,0,0,1,.73-2.23,12.88,12.88,0,0,1,1.28-2,2.23,2.23,0,0,0,.42-.43c.11-.24.25-.53.43-.89s.38-.75.61-1.19c.13-.11.34-.26.64-.47l1.18-.87c.22-.21.47-.45.75-.74l1-1a25.37,25.37,0,0,0,2.29-1.9,4.73,4.73,0,0,1,2.64-1.24l1.5-.1,1.43-.13a7.23,7.23,0,0,1,1.14-.2l.56-.16a1.58,1.58,0,0,1,.44-.08,3.36,3.36,0,0,1,.54.06l.92.18c.31,0,.57,0,.78,0a4,4,0,0,0,.62,0,3.49,3.49,0,0,1,2.54,3.53,13.74,13.74,0,0,1-.44,4c-.29.88-.76,1.31-1.38,1.31a2.53,2.53,0,0,1-1.63-.88c-.6-.59-2.24-.88-4.9-.88l-3.29.78a1.21,1.21,0,0,1-.37.47,1.89,1.89,0,0,1-.37.24l-1.14-.51a3.27,3.27,0,0,0-1.17,1.29,18.49,18.49,0,0,0-1.36,2.91,4.09,4.09,0,0,0-.25,1,10.88,10.88,0,0,0-.08,1.37q-.58,2.82-1.17,5.45c-.37,1.88-.66,3.31-.89,4.28s-.37,1.55-.41,1.76-.12.51-.16.75a4.15,4.15,0,0,0-.07.7,1.57,1.57,0,0,0,.17.79.52.52,0,0,0,.48.27c.2,0,.67-.43,1.42-1.29a4.54,4.54,0,0,1,1.67-1.45q.69-.24,1.38-.51c.47-.19,1-.41,1.45-.67a9.68,9.68,0,0,1,1.54-.31c.83-.13,2-.29,3.49-.48l.91.32,1.73-.39.9.51a4.81,4.81,0,0,1,.61,1,11.66,11.66,0,0,1,.5,1.23,11.55,11.55,0,0,1-.42,3.57c-.28.81-.71,1.22-1.27,1.22l-1.79-.86-4.37.52c-1.44.18-2.9.34-4.4.5a8.54,8.54,0,0,0-4.19,2.15,6,6,0,0,0-1.63,3.93,14,14,0,0,1-.22,1.56c-.13.71-.28,1.59-.46,2.63l.23,1.18c-.2,1.12-.35,2.18-.46,3.18s-.16,1.88-.16,2.66a1.19,1.19,0,0,0,.1.57c.06.12.14.15.23.1l2.5-.24a7.89,7.89,0,0,1,1.33,0l1.72.15,2-.19a10.48,10.48,0,0,0,1.41-.63,4.4,4.4,0,0,1,2-.55,7.79,7.79,0,0,0,1.9-.24,10.48,10.48,0,0,0,1.84-.62c.58-.26,1.16-.53,1.73-.81l1.74-.8a5.21,5.21,0,0,0,.86-.43C874.48,677.78,874.9,677.5,875.37,677.16Z"/>
    <path class="cls-2" d="M922.74,677.16l1.24,3.61c-.24.26-.53.54-.87.85s-.73.62-1.18,1a16.23,16.23,0,0,0-1.64.78l-2.2,1.18a17.73,17.73,0,0,1-1.54,1.06,2.21,2.21,0,0,1-.83.35,5.26,5.26,0,0,0-1.54.43q-1.12.43-2.94,1.29c-.65.29-1.34.59-2.06.89a23.19,23.19,0,0,1-2.26.8l-2-.51-1.23.67-1.25,0a11.58,11.58,0,0,1-1.22-.1,3.2,3.2,0,0,1-1.41-.31.88.88,0,0,1-.48-.79l.2-1.49-.2-.27a2.16,2.16,0,0,1-1.47-.36,2.38,2.38,0,0,1-.38-1.64c0-.4,0-1,0-2s.08-2.11.15-3.57a3.51,3.51,0,0,1,.21-.83,3.34,3.34,0,0,0,.21-.9,3.12,3.12,0,0,1-.2-.63,3.34,3.34,0,0,1,0-.43c0-1,.14-2.27.28-3.76s.32-3.26.53-5.3c.26-1.23.48-2.61.65-4.16,0-1.15-.08-2.32-.13-3.53q1.22-6.51,2.47-13.1a7.89,7.89,0,0,1,.73-2.23,12.94,12.94,0,0,1,1.29-2,2.6,2.6,0,0,0,.42-.43l.42-.89c.18-.35.38-.75.62-1.19.13-.11.34-.26.63-.47l1.19-.87c.22-.21.47-.45.75-.74l1-1a24.05,24.05,0,0,0,2.29-1.9,4.79,4.79,0,0,1,2.65-1.24l1.49-.1,1.43-.13a7.65,7.65,0,0,1,1.14-.2c.22,0,.41-.11.57-.16a1.52,1.52,0,0,1,.44-.08,3.15,3.15,0,0,1,.53.06l.93.18c.3,0,.56,0,.78,0a4.12,4.12,0,0,0,.62,0,3.85,3.85,0,0,1,1.92,1.37,3.73,3.73,0,0,1,.61,2.16,13.4,13.4,0,0,1-.44,4c-.29.88-.75,1.31-1.38,1.31a2.51,2.51,0,0,1-1.62-.88c-.61-.59-2.24-.88-4.91-.88l-3.28.78a1.31,1.31,0,0,1-.37.47,1.93,1.93,0,0,1-.38.24l-1.13-.51a3.27,3.27,0,0,0-1.17,1.29A18.4,18.4,0,0,0,908,645.2a3.69,3.69,0,0,0-.24,1,9.27,9.27,0,0,0-.08,1.37q-.59,2.82-1.17,5.45c-.37,1.88-.67,3.31-.9,4.28s-.36,1.55-.4,1.76-.12.51-.17.75a4.14,4.14,0,0,0-.06.7,1.58,1.58,0,0,0,.16.79.53.53,0,0,0,.49.27c.19,0,.67-.43,1.41-1.29a4.63,4.63,0,0,1,1.68-1.45l1.38-.51c.46-.19.94-.41,1.44-.67a9.91,9.91,0,0,1,1.55-.31c.83-.13,2-.29,3.49-.48l.91.32,1.72-.39.91.51a4.39,4.39,0,0,1,.6,1,11.66,11.66,0,0,1,.51,1.23,11.49,11.49,0,0,1-.43,3.57c-.28.81-.7,1.22-1.26,1.22l-1.79-.86-4.37.52c-1.44.18-2.91.34-4.4.5a8.54,8.54,0,0,0-4.19,2.15,6,6,0,0,0-1.63,3.93,14.62,14.62,0,0,1-.23,1.56c-.13.71-.28,1.59-.45,2.63l.23,1.18c-.2,1.12-.35,2.18-.46,3.18a24.28,24.28,0,0,0-.16,2.66,1.19,1.19,0,0,0,.1.57c.06.12.14.15.22.1l2.51-.24a7.88,7.88,0,0,1,1.33,0l1.72.15,2-.19a11.8,11.8,0,0,0,1.41-.63,4.4,4.4,0,0,1,2-.55,7.85,7.85,0,0,0,1.9-.24,10.37,10.37,0,0,0,1.83-.62q.89-.39,1.74-.81c.57-.27,1.15-.54,1.74-.8a6.13,6.13,0,0,0,.86-.43C921.85,677.78,922.26,677.5,922.74,677.16Z"/>
    <path class="cls-2" d="M947.4,650.65c-.09-.45-.18-.84-.26-1.18q.17-1.14.36-2.22c.13-.71.23-1.45.32-2.21a12,12,0,0,1,.8-2.71,2.53,2.53,0,0,1,1-1.29l2.08-1.06c.24-.1.57-.24,1-.39a.55.55,0,0,1,.52.39,3.29,3.29,0,0,1,.16,1.14c0,.18-.06.7-.16,1.57s-.26,2.07-.46,3.64c0,.37-.08.75-.11,1.14s-.08.78-.15,1.18a2.39,2.39,0,0,1-.22.92c-.16.35-.35.76-.59,1.23a11.12,11.12,0,0,1-.7,3.81q-.85,3-2.67,8.16-1.53,4.28-2.7,7.49c-.78,2.14-1.46,3.91-2,5.29-.31.74-.65,1.53-1,2.38s-.79,1.73-1.2,2.65c.19.55.37,1,.55,1.49a2.8,2.8,0,0,1-.13.78c-.31.42-.68,1-1.14,1.61s-1,1.38-1.59,2.2c-.41.23-.85.49-1.33.78-.33.52-.6,1-.81,1.37a5.75,5.75,0,0,1-1.15.65,2.75,2.75,0,0,1-1,.21,1.93,1.93,0,0,1-1.52-.94,3.14,3.14,0,0,1-.7-1.92,2.94,2.94,0,0,1,.75-1.64,6.48,6.48,0,0,0,.85-1.3l-.1-.39-.33-.51a12.08,12.08,0,0,0-.35-1.79,13.6,13.6,0,0,0-.56-1.55,15.06,15.06,0,0,1-1-2.88c-.3-1.14-.59-2.44-.85-3.9-.11-.68-.19-1.22-.24-1.63a6.14,6.14,0,0,1-.08-.8,6.78,6.78,0,0,1-.3-.79l-.35-1.17c-.11-.87-.25-2-.41-3.26s-.33-2.84-.51-4.59a3.53,3.53,0,0,0-.08-.74c-.05-.29-.13-.65-.24-1.06a6.36,6.36,0,0,1-.26-1,5.91,5.91,0,0,1-.07-.79c0-.76,0-1.5,0-2.23a2.62,2.62,0,0,1-.13-1l.26-1.53a5.2,5.2,0,0,1-.54-1.34,7.11,7.11,0,0,1-.21-1.84,3.08,3.08,0,0,1,.09-.75c.07-.23.15-.45.23-.66-.11-.42-.19-.85-.26-1.28a10,10,0,0,1-.1-1.39,5.33,5.33,0,0,1-.47-1.16,2.31,2.31,0,0,1,0-1l.2-1.57c-.09-.39-.16-.71-.23-1,.24-1.57.45-2.82.62-3.76a16.83,16.83,0,0,1,.39-1.81,5.42,5.42,0,0,1,1.38-2.21,4.83,4.83,0,0,1,2.22-1.16c.31-.26.57-.47.8-.63a1.19,1.19,0,0,1,.63-.23.85.85,0,0,1,.67.41,3.23,3.23,0,0,1,.5,1.2,7.65,7.65,0,0,1,.23,2.43c-.08,1-.17,2.08-.26,3.33s-.15,2.66-.19,4.2a8.37,8.37,0,0,1-.3.88,3,3,0,0,0-.22,1,5.66,5.66,0,0,0,.22,1.26,5.13,5.13,0,0,1,.23,1.25q0,.24-.06.87c-.05.41-.11,1.21-.2,2.39.09.6.2,1.23.33,1.88,0,.29,0,.76-.1,1.41s-.1,1.14-.1,1.45a.94.94,0,0,0,.07.42,9.3,9.3,0,0,1,.26,1.07c0,.58.07,1.24.14,2s.17,1.62.28,2.64.24,2,.41,3.34.32,2.87.47,4.63l0,1.29a2,2,0,0,0,.14.65,2.89,2.89,0,0,0,.39.76l.42,2.28c.15.81.31,1.64.46,2.51a1.45,1.45,0,0,0,.23.66.45.45,0,0,0,.36.24,8.36,8.36,0,0,0,1.13-1.77,8.67,8.67,0,0,0,.76-1.58c.32-.78.69-1.81,1.12-3.12a10.66,10.66,0,0,1,.49-1.22l.75-1.61a22.9,22.9,0,0,0,1.16-2.86q.75-2.09,1.82-5.49c.58-1.88,1.08-3.48,1.48-4.79s.68-2.31.86-3Z"/>
    <path class="cls-2" d="M981.45,677.16l1.23,3.61c-.24.26-.52.54-.86.85s-.73.62-1.19,1a17.32,17.32,0,0,0-1.64.78l-2.19,1.18c-.63.47-1.14.82-1.54,1.06a2.21,2.21,0,0,1-.83.35,5.3,5.3,0,0,0-1.55.43q-1.11.43-2.94,1.29c-.65.29-1.33.59-2.06.89a22.29,22.29,0,0,1-2.26.8l-2-.51-1.24.67-1.25,0a11.81,11.81,0,0,1-1.22-.1,3.24,3.24,0,0,1-1.41-.31.88.88,0,0,1-.47-.79l.19-1.49-.19-.27a2.19,2.19,0,0,1-1.48-.36,2.39,2.39,0,0,1-.37-1.64c0-.4,0-1,.05-2s.08-2.11.14-3.57a3.51,3.51,0,0,1,.21-.83,3.47,3.47,0,0,0,.22-.9,2.58,2.58,0,0,1-.2-.63,3.34,3.34,0,0,1,0-.43c0-1,.13-2.27.27-3.76s.32-3.26.54-5.3c.26-1.23.48-2.61.65-4.16,0-1.15-.09-2.32-.13-3.53q1.2-6.51,2.47-13.1a7.58,7.58,0,0,1,.73-2.23,13.64,13.64,0,0,1,1.28-2,2.79,2.79,0,0,0,.43-.43c.1-.24.24-.53.42-.89s.38-.75.62-1.19c.13-.11.34-.26.63-.47l1.19-.87.74-.74,1-1a25.37,25.37,0,0,0,2.29-1.9,4.72,4.72,0,0,1,2.65-1.24l1.49-.1,1.43-.13a7.23,7.23,0,0,1,1.14-.2l.57-.16a1.46,1.46,0,0,1,.43-.08,3.36,3.36,0,0,1,.54.06l.93.18c.3,0,.56,0,.78,0a4,4,0,0,0,.61,0,3.49,3.49,0,0,1,2.54,3.53,13.74,13.74,0,0,1-.44,4c-.29.88-.75,1.31-1.38,1.31a2.53,2.53,0,0,1-1.63-.88c-.6-.59-2.24-.88-4.9-.88l-3.28.78a1.33,1.33,0,0,1-.38.47,1.89,1.89,0,0,1-.37.24l-1.14-.51a3.42,3.42,0,0,0-1.17,1.29,18.49,18.49,0,0,0-1.36,2.91,4.09,4.09,0,0,0-.25,1,10.88,10.88,0,0,0-.08,1.37q-.58,2.82-1.17,5.45c-.37,1.88-.66,3.31-.89,4.28s-.36,1.55-.41,1.76-.12.51-.16.75a4.14,4.14,0,0,0-.06.7,1.58,1.58,0,0,0,.16.79.53.53,0,0,0,.49.27q.28,0,1.41-1.29a4.62,4.62,0,0,1,1.67-1.45q.69-.24,1.38-.51c.47-.19.95-.41,1.45-.67a9.68,9.68,0,0,1,1.54-.31c.84-.13,2-.29,3.5-.48l.9.32,1.73-.39.91.51a5.3,5.3,0,0,1,.6,1,11.66,11.66,0,0,1,.5,1.23,11.55,11.55,0,0,1-.42,3.57c-.28.81-.7,1.22-1.27,1.22l-1.78-.86-4.37.52c-1.45.18-2.91.34-4.41.5a8.58,8.58,0,0,0-4.19,2.15,6,6,0,0,0-1.62,3.93,14.62,14.62,0,0,1-.23,1.56c-.13.71-.28,1.59-.46,2.63l.23,1.18c-.19,1.12-.35,2.18-.45,3.18a24.5,24.5,0,0,0-.17,2.66,1.32,1.32,0,0,0,.1.57c.07.12.14.15.23.1l2.5-.24a7.89,7.89,0,0,1,1.33,0l1.73.15,2-.19a11,11,0,0,0,1.42-.63,4.37,4.37,0,0,1,2-.55,7.79,7.79,0,0,0,1.9-.24,10.48,10.48,0,0,0,1.84-.62l1.74-.81,1.73-.8a5.65,5.65,0,0,0,.87-.43C980.55,677.78,981,677.5,981.45,677.16Z"/>
    <path class="cls-2" d="M995,666.83a4,4,0,0,0,.93,2.1,28.26,28.26,0,0,0,2.77,3.24q1.2,1.22,2.49,2.37l2.55,2.34,1.43,1.43,2,2.06c.56.53,1.15,1,1.77,1.57s1.28,1,2,1.57c.47.45,1,.93,1.59,1.45s1.25,1.09,2,1.69a3.12,3.12,0,0,1,1,1.71,13.15,13.15,0,0,1,.42,3.2l-.29,1-.33.19a1.84,1.84,0,0,1-.86-.33c-.35-.22-.8-.54-1.34-1-.11-.08-.61-.37-1.48-.86s-2.14-1.21-3.79-2.12a17.77,17.77,0,0,1-2.5-1.59,19.85,19.85,0,0,1-2.08-1.87,17.56,17.56,0,0,0-1.41-1.3c-.58-.47-1.25-1-2-1.53a22.88,22.88,0,0,1-2.08-1.57c-.59-.49-1-.91-1.4-1.25-1.17-1.15-2.12-2-2.86-2.63a3.44,3.44,0,0,0-1.53-.9,2.49,2.49,0,0,0-.35,1.13c-.26,1.23-.54,2.78-.83,4.66s-.61,4.05-1,6.53a2,2,0,0,1-.2,1,.62.62,0,0,1-.58.34,2.39,2.39,0,0,1-1.92-.75,3.33,3.33,0,0,1-.65-2.24q0-2,.21-4.2c.14-1.46.38-3,.7-4.63.11-.71.19-1.34.25-1.9s.08-1.08.08-1.55a4.26,4.26,0,0,0-1.29-3.11c-.85-.86-1.28-1.47-1.28-1.84a4.87,4.87,0,0,1,.21-1.51,2.33,2.33,0,0,1,.64-1c.71-.55,1.37-1.07,2-1.57a.84.84,0,0,0,.31-.53,5.39,5.39,0,0,0,.08-1v-1.68c.06-2.33.12-4.74.16-7.25v-.87c0-.39,0-.9-.07-1.52a10,10,0,0,1,0-1.32c0-.4,0-.78,0-1.12-.13-.52-.24-1-.34-1.35a4.71,4.71,0,0,1-.14-1.08q0-.46.06-1.47c0-.66.07-1.14.07-1.43s0-.87-.08-1.53-.09-1.15-.09-1.49a6.92,6.92,0,0,1,.54-2.7,9.56,9.56,0,0,1,1.64-2.55,8.45,8.45,0,0,1,2.19-1.66,5,5,0,0,1,2.29-.57c.37,0,.92,0,1.65.1s1.29.09,1.7.09a9.14,9.14,0,0,1,2.31.87,10.64,10.64,0,0,1,1.33.21,5.94,5.94,0,0,1,.94.29l1.27.73a2.38,2.38,0,0,0,.65.29l1,.4a1.92,1.92,0,0,1,.66.39l1,.55,1.28.7a13.37,13.37,0,0,1,2.19,1.65,20.75,20.75,0,0,1,1.93,2,11.43,11.43,0,0,1,1.56,2.76,7.42,7.42,0,0,1,.52,2.69c0,.26,0,.63,0,1.12s-.1,1-.18,1.62a5.3,5.3,0,0,1-1,2.45,17.51,17.51,0,0,1-2.53,2.89,30.16,30.16,0,0,1-2.73,2.29,10.09,10.09,0,0,1-2.34,1.31,4,4,0,0,0-.65.67,7.2,7.2,0,0,1-1.37,1.1c-.69.47-1.63,1.06-2.82,1.76q-3.26,1.92-4.62,2.53C995.42,665.92,995,666.36,995,666.83Zm-3.41-18.89,1.17-1.08a2,2,0,0,1,1.43-.53c.26,0,.58.35,1,1a3.68,3.68,0,0,1,.56,1.55,9.84,9.84,0,0,1-.16,1.25c-.11.66-.28,1.54-.52,2.67-.5,2.53-.78,4.12-.84,4.76s-.21,1.64-.42,3a12.07,12.07,0,0,0-.26,1.33.86.86,0,0,0,.11.51.37.37,0,0,0,.31.16c4.31-2.62,6.54-4,6.69-4.08a3,3,0,0,0,.55-.22,4.92,4.92,0,0,0,.56-.29l.48-.74q1.89-1.46,3.9-3.1a9.47,9.47,0,0,0,1.89-2.31,4.76,4.76,0,0,0,.61-2.28,4.12,4.12,0,0,0-1.39-2.86A14.44,14.44,0,0,0,1003,644a26.63,26.63,0,0,0-4.33-1.67,13.76,13.76,0,0,0-3.54-.53,4.83,4.83,0,0,0-3.13.88,3.2,3.2,0,0,0-1.06,2.61,10,10,0,0,0,.16,2C991.2,647.79,991.35,648,991.55,647.94Z"/>
    <path class="cls-2" d="M1042,633.39a1.11,1.11,0,0,1,1,.55,3.15,3.15,0,0,1,.33,1.61q0,2-.15,3.72a18.8,18.8,0,0,1-.5,3.06c-.33,1.13-.64,2.23-.93,3.32l-.89,3.31a7,7,0,0,0-.65,1c0,.55-.1,1.09-.17,1.61a1.13,1.13,0,0,1-.24.59c-.14.18-.32.39-.53.62s-.16.57-.26.93l-.39,1.23c-.57,1.34-1.32,2.92-2.26,4.77s-2.09,4-3.43,6.37c0,.42,0,.81,0,1.18l-1.82,4.71c-.63,1.7-1.18,3.32-1.64,4.88a36.46,36.46,0,0,0-1.06,4.45c-.13.79-.23,1.43-.31,1.94a9.57,9.57,0,0,0-.11,1.08,3.19,3.19,0,0,0,.39,1.2,3.56,3.56,0,0,1,.39,1c0,.57-.64,1.32-1.9,2.23a6.39,6.39,0,0,1-2.36,1.34c-.32-.08-.66-.15-1-.22s-.69-.14-1-.22a2.53,2.53,0,0,1-1-.52,1.13,1.13,0,0,1-.36-.85,10.12,10.12,0,0,1,.23-1.53,24.43,24.43,0,0,1,.73-3.15,14,14,0,0,1,1.09-2.65l.09-.16a1.18,1.18,0,0,1-.14-.39,2.88,2.88,0,0,0-.15-.51c.11-.47.26-1,.46-1.73s.45-1.46.78-2.35a11.48,11.48,0,0,0,.65-1.67,22.91,22.91,0,0,0,.58-2.37,12.1,12.1,0,0,1-1.88-2.39,8.55,8.55,0,0,1-1-2.63c-.18-.45-.4-1-.69-1.71s-.58-1.52-.91-2.49l-2.4-10c-.06-.78-.16-1.72-.28-2.8s-.3-2.32-.56-3.71l.29-.9-.55-.87c0-.21,0-.5,0-.88s-.08-.84-.15-1.39-.1-1-.11-1.35,0-.7,0-1a5.5,5.5,0,0,1,.36-2.23,1.64,1.64,0,0,1,1.07-1l.5,0,.61,0a8.54,8.54,0,0,0,2.37-1.26,2,2,0,0,1,1.46.57,3.06,3.06,0,0,1,.75,1.63,12.18,12.18,0,0,1,.13,1.55q0,1,0,2.37c0,.5,0,1.22-.11,2.16s-.12,1.63-.12,2.08a3.61,3.61,0,0,0,.05.53c0,.19.07.46.11.8,0,.87.11,1.92.25,3.16s.32,2.66.54,4.26c.13.94.32,2.11.58,3.51s.57,3,.92,4.88c.17.26.35.57.54.92s.36.75.54,1.2l.22.15c.13,0,.45-.59,1-1.78s1.21-3,2.1-5.35c.13-.32.28-.73.45-1.24s.38-1.1.62-1.78c.1-.16.22-.37.35-.63l.46-.94q.17-.68.48-1.71c.22-.69.49-1.51.82-2.45.28-.6.6-1.34,1-2.22s.76-1.91,1.19-3.12a23.77,23.77,0,0,1,1.22-2.56q1.18-2.34,3.42-6.69a3.35,3.35,0,0,1,.55-.81A.85.85,0,0,1,1042,633.39Z"/>
    <path class="cls-2" d="M1048.17,630.92a2.65,2.65,0,0,1,1.22.25,2.58,2.58,0,0,1,.83.65,4.3,4.3,0,0,1,.57.92c.18.38.42.85.7,1.39.34.76.59,1.35.75,1.75a3,3,0,0,1,.22.8c-.15,1.52-.29,3-.42,4.36s-.23,3-.42,4.51c-.09.37-.16.77-.23,1.21.09.66.16,1.35.21,2.08s.09,1.47.12,2.2.06,1.22.06,1.94,0,1.54-.06,2.45c0,1.15,0,2.09-.07,2.81s0,1.21,0,1.47,0,.39,0,.63a7,7,0,0,0,.13.78c0,.37.12.82.23,1.37V665q0,1.5.79,6.91a42.1,42.1,0,0,0,1,5.8,3.85,3.85,0,0,1,.38-.23l2.54-5.49c.13-.45.29-1,.5-1.71s.45-1.5.73-2.41a57.72,57.72,0,0,0,2.77-9q1.32-5.55,2.46-13.16a13.08,13.08,0,0,1,1-3.49,2.81,2.81,0,0,1,1.41-1.57l2.89-1.26a2.3,2.3,0,0,1,1.07,1,3.36,3.36,0,0,1,.32,1.59,33.38,33.38,0,0,1-.35,3.94q-.36,2.73-1.11,6.85c0,.6-.07,1.34-.17,2.23s-.2,1.94-.33,3.14c-.17.94-.31,1.69-.41,2.24a10,10,0,0,0-.14,1c0,.68,0,1.45,0,2.33s0,1.86.06,3c0,1.34.07,2.45.07,3.34v1.88c0,1.75.07,3.08.15,4s.17,1.35.3,1.35.56-.56,1-1.68,1-2.83,1.7-5.1c.54-1.73,1-3.36,1.48-4.91s.83-3,1.18-4.35a3.31,3.31,0,0,0,.52-1.22,10.62,10.62,0,0,0,.26-2c.35-1.12.68-2.3,1-3.55s.67-2.53,1-3.86c.22-.78.45-1.76.7-2.94s.55-2.58.89-4.2l-.42-1.64c.07-.32.16-.71.29-1.18a16.73,16.73,0,0,0,.36-1.69,17.07,17.07,0,0,1,1.57-2.55c.47-.57.84-.86,1.12-.86s.37.14.46.41a4.68,4.68,0,0,1,.13,1.32c0,1.59,0,2.83-.08,3.7a9.65,9.65,0,0,1-.21,1.71c-.15.36-.28.71-.39,1s-.2.59-.26.8l.42,1.92a16,16,0,0,0-.46,2c-.17,1-.36,2.21-.58,3.75s-.41,2.63-.58,3.49a8.09,8.09,0,0,1-.49,1.73,12.75,12.75,0,0,1-.42,1.8l-.78,2.51a9.83,9.83,0,0,0-.43,1.59c-.15.72-.33,1.58-.55,2.57-.15.6-.35,1.31-.58,2.14s-.51,1.82-.82,3a7.82,7.82,0,0,0-.63,1.37,14.66,14.66,0,0,0-.57,2.16c-.11.42-.31,1-.6,1.82s-.66,1.83-1.09,3.08-.84,2.31-1.17,3a3.65,3.65,0,0,1-.68,1.18l-.78.55a1.33,1.33,0,0,1-.65.53,2.58,2.58,0,0,1-1,.09,9.16,9.16,0,0,1-1,.67,1.6,1.6,0,0,1-.7.24,2.28,2.28,0,0,1-2-1.18,9.11,9.11,0,0,1-1.07-3.61q-.11-1.68-.21-3.39c-.08-1.14-.16-2.3-.25-3.47,0-.58-.12-1.34-.24-2.3s-.31-2.1-.57-3.43c-.45,1-.93,2.12-1.41,3.24s-1,2.28-1.51,3.51a5.9,5.9,0,0,1-.46,1.72c-.32.92-.78,2.19-1.36,3.81s-1.26,3.41-2,5.13a7.38,7.38,0,0,1-1.61,2.3,2.85,2.85,0,0,1-1.94.76c-.34,0-.68-.32-1-1a14.27,14.27,0,0,1-1-3c-.2-.81-.39-1.62-.57-2.45s-.38-1.67-.57-2.53c.11-.36.18-.67.23-.9a11.48,11.48,0,0,1-.48-1.49c-.16-.63-.34-1.39-.53-2.28-.07-.54-.15-1.25-.26-2.11s-.23-1.89-.36-3.06c0-.37,0-.74-.07-1.12l-.06-1.12a4.42,4.42,0,0,0-.18-.94,11.45,11.45,0,0,0-.44-1.18,7.56,7.56,0,0,1-.11-1.15c0-.62-.07-1.48-.12-2.57a15.58,15.58,0,0,0-.19-2.22,2,2,0,0,0-.49-1.16l-.88-.78a8.14,8.14,0,0,1-.31-1.71c-.08-.77-.11-1.72-.11-2.84,0-3,.14-6,.43-9.26s.74-6.6,1.32-10.16a4.36,4.36,0,0,1,.81-2.08A1.82,1.82,0,0,1,1048.17,630.92Z"/>
    <path class="cls-2" d="M1115.14,634q.54,0,.78.72a7.58,7.58,0,0,1,.22,2.1c0,.6-.08,1.68-.26,3.24s-.42,3.59-.75,6.1l.39,2.55c-.17.6-.34,1.3-.52,2.11s-.32,1.7-.45,2.67-.33,2-.47,2.79-.28,1.37-.41,1.84c-.17.81-.33,1.56-.47,2.25a19,19,0,0,0-.31,2.06c-.15,1.65-.35,3.21-.6,4.69a33.11,33.11,0,0,1-1,4.26c-.28,1-.71,2.89-1.28,5.68s-1.31,6.48-2.2,11a20.41,20.41,0,0,1-1.3,4.59c-.48,1-1,1.53-1.56,1.53a.76.76,0,0,1-.62-.24,1.67,1.67,0,0,1-.26-.82,1.59,1.59,0,0,1,0-.44c0-.15,0-.61,0-1.37a3,3,0,0,0-.19-.86l.65-3.06a8,8,0,0,0-.17-1.1,52.17,52.17,0,0,1,.57-5.55q.57-4.17,1.64-11.2c.26-1.54.51-3.23.75-5.06a2.52,2.52,0,0,0-.06-.66.26.26,0,0,0-.26-.2l-.75.39-.81-.47a3.33,3.33,0,0,0-.8.73c-.4.43-.7.64-.89.64a9.33,9.33,0,0,1-1.81-.25,9.41,9.41,0,0,0-1.77-.26,3.16,3.16,0,0,0-1.52.45,7.23,7.23,0,0,0-1.69,1.35,9.76,9.76,0,0,0-2.72.88,7.84,7.84,0,0,0-2.09,1.55c-.31.28-.63.6-1,.94a4.44,4.44,0,0,0-.37,1.94c-.08,1.11-.11,2.64-.11,4.57a24.77,24.77,0,0,0,.22,3.93c.15.84.38,1.25.69,1.25a.9.9,0,0,0,.52-.17,4.38,4.38,0,0,0,.55-.57q.19-.27.45-.57a2.56,2.56,0,0,0,.42-.61l.26,0a.32.32,0,0,1,.35.16,1.29,1.29,0,0,1,.11.59c-.22.57-.43,1.1-.63,1.57s-.39.86-.54,1.18c-.67,1.23-1.33,2.44-2,3.65a4.53,4.53,0,0,1-1.4,1.45,3.46,3.46,0,0,1-1.88.51c-.59,0-1-1-1.31-2.87a61.65,61.65,0,0,1-.44-8.55,28.22,28.22,0,0,0-.23-3.83,10.44,10.44,0,0,0-.74-2.81,9.92,9.92,0,0,1-.68-1.81,5.57,5.57,0,0,1-.19-1.33,3.15,3.15,0,0,1,.18-1,4.26,4.26,0,0,1,.53-1.1c.28-.42.51-.76.67-1a1.82,1.82,0,0,0,.27-.68,13.87,13.87,0,0,0,.38-1.65c.12-.68.25-1.46.4-2.35a24.16,24.16,0,0,0,.36-2.55c.11-1.1.18-2.42.23-4a38.14,38.14,0,0,1,.68-6.66,9.76,9.76,0,0,0,.42-2.71l-.19-1c0-.55.11-1.25.19-2.11s.21-1.86.36-3a4.44,4.44,0,0,0,.65-.69,9,9,0,0,0,.75-1.12,18.74,18.74,0,0,1,2.43-1,2.1,2.1,0,0,1,1.76.75,3.36,3.36,0,0,1,.58,2.12,4.73,4.73,0,0,1-.18,1.09c-.11.48-.26,1.06-.43,1.77a22.37,22.37,0,0,0-.64,3.33c-.22,1.62-.48,3.7-.76,6.24q-.3,2.74-.63,5.16c-.23,1.6-.5,3.1-.8,4.49a4.65,4.65,0,0,0-.1.66,1.77,1.77,0,0,0,.16.85.55.55,0,0,0,.49.25l2.18-.23a11.12,11.12,0,0,0,2.24-.86h2.5a12.27,12.27,0,0,0,1.51-.14,12.41,12.41,0,0,1,1.48-.14,5.91,5.91,0,0,1,1.38.26,5.82,5.82,0,0,0,1.45.25,4.12,4.12,0,0,0,1-.16,9,9,0,0,0,1.49-.54,1.94,1.94,0,0,0,.72-.12c.19-.08.29-.2.29-.35.11-.34.23-.76.37-1.26s.29-1.07.44-1.72.1-1.33.18-2.16.18-1.82.31-2.94c.3-2.1.52-3.81.66-5.14s.21-2.28.21-2.83a2.81,2.81,0,0,0-.06-.59.85.85,0,0,0-.23-.43c-.17-.23-.37-.52-.58-.86a5.51,5.51,0,0,1,.48-1.22l1.27-2.29a9.69,9.69,0,0,1,.85-1.31,9,9,0,0,1,1.25-1.32A12.27,12.27,0,0,1,1115.14,634Z"/>
    <path class="cls-2" d="M1144.89,677.16l1.24,3.61c-.24.26-.53.54-.86.85s-.73.62-1.19,1a17.32,17.32,0,0,0-1.64.78l-2.19,1.18c-.63.47-1.14.82-1.54,1.06a2.28,2.28,0,0,1-.83.35,5.22,5.22,0,0,0-1.55.43q-1.11.43-2.94,1.29c-.65.29-1.34.59-2.06.89a23.19,23.19,0,0,1-2.26.8l-2-.51-1.24.67-1.25,0a11.81,11.81,0,0,1-1.22-.1,3.2,3.2,0,0,1-1.41-.31.88.88,0,0,1-.47-.79l.19-1.49-.19-.27a2.19,2.19,0,0,1-1.48-.36,2.39,2.39,0,0,1-.37-1.64c0-.4,0-1,.05-2s.08-2.11.14-3.57a3.51,3.51,0,0,1,.21-.83,3.34,3.34,0,0,0,.21-.9,3,3,0,0,1-.19-.63,3.34,3.34,0,0,1,0-.43c0-1,.13-2.27.27-3.76s.32-3.26.54-5.3c.26-1.23.47-2.61.65-4.16,0-1.15-.09-2.32-.13-3.53q1.2-6.51,2.47-13.1a7.58,7.58,0,0,1,.73-2.23,12.88,12.88,0,0,1,1.28-2,2.79,2.79,0,0,0,.43-.43c.1-.24.24-.53.42-.89s.38-.75.61-1.19c.13-.11.35-.26.64-.47l1.18-.87c.22-.21.47-.45.75-.74l1-1a25.37,25.37,0,0,0,2.29-1.9,4.73,4.73,0,0,1,2.64-1.24l1.5-.1,1.43-.13a7.23,7.23,0,0,1,1.14-.2l.56-.16a1.58,1.58,0,0,1,.44-.08,3.36,3.36,0,0,1,.54.06l.92.18c.31,0,.57,0,.79,0a4,4,0,0,0,.61,0,3.49,3.49,0,0,1,2.54,3.53,13.74,13.74,0,0,1-.44,4c-.29.88-.75,1.31-1.38,1.31a2.53,2.53,0,0,1-1.63-.88c-.6-.59-2.24-.88-4.9-.88l-3.29.78a1.21,1.21,0,0,1-.37.47,1.89,1.89,0,0,1-.37.24l-1.14-.51a3.27,3.27,0,0,0-1.17,1.29,18.49,18.49,0,0,0-1.36,2.91,4.09,4.09,0,0,0-.25,1,10.88,10.88,0,0,0-.08,1.37q-.58,2.82-1.17,5.45c-.37,1.88-.66,3.31-.89,4.28s-.37,1.55-.41,1.76-.12.51-.16.75a4.15,4.15,0,0,0-.07.7,1.57,1.57,0,0,0,.17.79.52.52,0,0,0,.48.27c.2,0,.67-.43,1.42-1.29a4.54,4.54,0,0,1,1.67-1.45l1.38-.51c.47-.19,1-.41,1.45-.67a9.68,9.68,0,0,1,1.54-.31c.83-.13,2-.29,3.49-.48l.91.32,1.73-.39.9.51a4.81,4.81,0,0,1,.61,1,11.66,11.66,0,0,1,.5,1.23A11.55,11.55,0,0,1,1143,663c-.28.81-.71,1.22-1.27,1.22l-1.79-.86-4.37.52c-1.44.18-2.9.34-4.4.5a8.54,8.54,0,0,0-4.19,2.15,6,6,0,0,0-1.63,3.93,14,14,0,0,1-.22,1.56c-.13.71-.28,1.59-.46,2.63l.23,1.18c-.19,1.12-.35,2.18-.46,3.18s-.16,1.88-.16,2.66a1.19,1.19,0,0,0,.1.57c.06.12.14.15.23.1l2.5-.24a7.89,7.89,0,0,1,1.33,0l1.72.15,2-.19a10.48,10.48,0,0,0,1.41-.63,4.4,4.4,0,0,1,2-.55,7.79,7.79,0,0,0,1.9-.24,10.48,10.48,0,0,0,1.84-.62c.58-.26,1.16-.53,1.73-.81l1.74-.8a5.21,5.21,0,0,0,.86-.43C1144,677.78,1144.42,677.5,1144.89,677.16Z"/>
    <path class="cls-2" d="M1158.41,666.83a4.1,4.1,0,0,0,.92,2.1,29.59,29.59,0,0,0,2.78,3.24q1.2,1.22,2.49,2.37l2.55,2.34,1.43,1.43c.58.59,1.26,1.28,2.05,2.06.56.53,1.15,1,1.77,1.57s1.28,1,2,1.57c.48.45,1,.93,1.6,1.45s1.25,1.09,2,1.69a3.18,3.18,0,0,1,1,1.71,13.15,13.15,0,0,1,.42,3.2l-.29,1-.33.19a1.84,1.84,0,0,1-.86-.33,15.38,15.38,0,0,1-1.35-1c-.11-.08-.6-.37-1.47-.86s-2.14-1.21-3.79-2.12a17.77,17.77,0,0,1-2.5-1.59,19.85,19.85,0,0,1-2.08-1.87,16.28,16.28,0,0,0-1.42-1.3c-.57-.47-1.25-1-2-1.53a24.1,24.1,0,0,1-2.07-1.57c-.59-.49-1.06-.91-1.4-1.25-1.17-1.15-2.13-2-2.86-2.63a3.44,3.44,0,0,0-1.53-.9,2.5,2.5,0,0,0-.36,1.13c-.26,1.23-.53,2.78-.82,4.66s-.62,4.05-1,6.53a2,2,0,0,1-.2,1,.62.62,0,0,1-.58.34,2.39,2.39,0,0,1-1.92-.75,3.33,3.33,0,0,1-.65-2.24q0-2,.21-4.2a44.57,44.57,0,0,1,.7-4.63c.11-.71.19-1.34.24-1.9a14.83,14.83,0,0,0,.09-1.55,4.26,4.26,0,0,0-1.29-3.11c-.85-.86-1.28-1.47-1.28-1.84a4.87,4.87,0,0,1,.21-1.51,2.41,2.41,0,0,1,.63-1c.72-.55,1.38-1.07,2-1.57a.79.79,0,0,0,.3-.53,4.69,4.69,0,0,0,.08-1v-1.68c.07-2.33.12-4.74.17-7.25v-.87c0-.39,0-.9-.07-1.52a10,10,0,0,1,0-1.32c0-.4,0-.78,0-1.12-.13-.52-.24-1-.34-1.35a4.22,4.22,0,0,1-.14-1.08q0-.46.06-1.47c0-.66.06-1.14.06-1.43s0-.87-.08-1.53-.08-1.15-.08-1.49a6.92,6.92,0,0,1,.54-2.7,9.32,9.32,0,0,1,1.64-2.55,8.13,8.13,0,0,1,2.19-1.66,5,5,0,0,1,2.29-.57c.37,0,.92,0,1.64.1s1.3.09,1.71.09a9.14,9.14,0,0,1,2.31.87,11,11,0,0,1,1.33.21,5.94,5.94,0,0,1,.94.29l1.27.73a2.38,2.38,0,0,0,.65.29l1,.4a1.92,1.92,0,0,1,.66.39l1,.55,1.29.7a13.37,13.37,0,0,1,2.19,1.65,20.75,20.75,0,0,1,1.93,2,11.43,11.43,0,0,1,1.56,2.76,7.42,7.42,0,0,1,.52,2.69c0,.26,0,.63,0,1.12s-.09,1-.17,1.62a5.3,5.3,0,0,1-1,2.45,17.51,17.51,0,0,1-2.53,2.89,30.16,30.16,0,0,1-2.73,2.29,10.09,10.09,0,0,1-2.34,1.31,4,4,0,0,0-.65.67,7.2,7.2,0,0,1-1.37,1.1c-.69.47-1.63,1.06-2.82,1.76q-3.26,1.92-4.62,2.53C1158.86,665.92,1158.41,666.36,1158.41,666.83ZM1155,647.94l1.17-1.08a2,2,0,0,1,1.43-.53c.26,0,.57.35,1,1a3.73,3.73,0,0,1,.57,1.55,9.84,9.84,0,0,1-.16,1.25c-.11.66-.28,1.54-.52,2.67-.5,2.53-.78,4.12-.84,4.76s-.21,1.64-.43,3c-.08.34-.17.78-.26,1.33a.85.85,0,0,0,.12.51.37.37,0,0,0,.31.16c4.31-2.62,6.54-4,6.69-4.08a3,3,0,0,0,.55-.22,4.07,4.07,0,0,0,.55-.29l.49-.74q1.89-1.46,3.9-3.1a9.18,9.18,0,0,0,1.88-2.31,4.66,4.66,0,0,0,.62-2.28,4.12,4.12,0,0,0-1.39-2.86,14.5,14.5,0,0,0-4.2-2.7,26.21,26.21,0,0,0-4.32-1.67,13.76,13.76,0,0,0-3.54-.53,4.81,4.81,0,0,0-3.13.88,3.2,3.2,0,0,0-1.06,2.61,9.33,9.33,0,0,0,.16,2C1154.65,647.79,1154.8,648,1155,647.94Z"/>
    <path class="cls-2" d="M1206.36,677.16l1.24,3.61c-.24.26-.53.54-.86.85s-.74.62-1.19,1a16.23,16.23,0,0,0-1.64.78l-2.19,1.18c-.63.47-1.15.82-1.55,1.06a2.15,2.15,0,0,1-.83.35,5.26,5.26,0,0,0-1.54.43q-1.12.43-2.94,1.29c-.65.29-1.34.59-2.06.89a23.19,23.19,0,0,1-2.26.8l-2-.51-1.23.67-1.25,0a11.81,11.81,0,0,1-1.22-.1,3.2,3.2,0,0,1-1.41-.31.87.87,0,0,1-.47-.79l.19-1.49-.19-.27a2.19,2.19,0,0,1-1.48-.36,2.38,2.38,0,0,1-.38-1.64c0-.4,0-1,.05-2s.08-2.11.15-3.57a3.51,3.51,0,0,1,.21-.83,3.34,3.34,0,0,0,.21-.9,2.48,2.48,0,0,1-.19-.63,2.22,2.22,0,0,1,0-.43c0-1,.14-2.27.28-3.76s.32-3.26.54-5.3c.26-1.23.47-2.61.65-4.16,0-1.15-.09-2.32-.13-3.53q1.2-6.51,2.47-13.1a7.58,7.58,0,0,1,.73-2.23,12.19,12.19,0,0,1,1.28-2,2.23,2.23,0,0,0,.42-.43l.42-.89c.18-.35.38-.75.62-1.19.13-.11.34-.26.64-.47l1.18-.87c.22-.21.47-.45.75-.74l1-1a22.86,22.86,0,0,0,2.29-1.9,4.79,4.79,0,0,1,2.65-1.24l1.5-.1,1.43-.13a7.33,7.33,0,0,1,1.13-.2c.22,0,.41-.11.57-.16a1.52,1.52,0,0,1,.44-.08,3.36,3.36,0,0,1,.54.06l.92.18c.31,0,.57,0,.78,0a4.12,4.12,0,0,0,.62,0,3.47,3.47,0,0,1,2.53,3.53,13.8,13.8,0,0,1-.43,4c-.3.88-.76,1.31-1.38,1.31a2.53,2.53,0,0,1-1.63-.88c-.61-.59-2.24-.88-4.91-.88l-3.28.78a1.31,1.31,0,0,1-.37.47,2.25,2.25,0,0,1-.37.24l-1.14-.51a3.27,3.27,0,0,0-1.17,1.29,19.34,19.34,0,0,0-1.37,2.91,4.13,4.13,0,0,0-.24,1,10.88,10.88,0,0,0-.08,1.37q-.58,2.82-1.17,5.45c-.37,1.88-.67,3.31-.89,4.28s-.37,1.55-.41,1.76-.12.51-.16.75a3.33,3.33,0,0,0-.07.7,1.7,1.7,0,0,0,.16.79.55.55,0,0,0,.49.27c.2,0,.67-.43,1.42-1.29a4.54,4.54,0,0,1,1.67-1.45l1.38-.51c.47-.19,1-.41,1.45-.67a9.41,9.41,0,0,1,1.54-.31c.83-.13,2-.29,3.49-.48l.91.32,1.72-.39.91.51a4.39,4.39,0,0,1,.6,1,9.87,9.87,0,0,1,.51,1.23,11.55,11.55,0,0,1-.42,3.57c-.29.81-.71,1.22-1.27,1.22l-1.79-.86-4.37.52c-1.44.18-2.91.34-4.4.5a8.54,8.54,0,0,0-4.19,2.15,6,6,0,0,0-1.63,3.93,14,14,0,0,1-.22,1.56c-.13.71-.29,1.59-.46,2.63l.23,1.18c-.2,1.12-.35,2.18-.46,3.18a24.28,24.28,0,0,0-.16,2.66,1.19,1.19,0,0,0,.1.57c.06.12.14.15.23.1l2.5-.24a7.89,7.89,0,0,1,1.33,0l1.72.15,2.05-.19a10.48,10.48,0,0,0,1.41-.63,4.4,4.4,0,0,1,2-.55,7.79,7.79,0,0,0,1.9-.24,10.1,10.1,0,0,0,1.83-.62q.88-.39,1.74-.81l1.74-.8a5.64,5.64,0,0,0,.86-.43C1205.47,677.78,1205.89,677.5,1206.36,677.16Z"/>
    <path class="cls-2" d="M1233,645.43l-.52-2.55q.19-.78.39-1.59t.36-1.59a1.6,1.6,0,0,1,.67-.84,2.38,2.38,0,0,1,1.25-.29,4.2,4.2,0,0,0,.89-.16,4.41,4.41,0,0,1,.87-.16c.19,0,.45.19.78.55a2.51,2.51,0,0,0,.68.63,4,4,0,0,0,.57-.67c.23-.31.5-.73.83-1.25a6.72,6.72,0,0,1,.81-1,2.14,2.14,0,0,1,.85-.55c.35.21.66.38.92.51a.78.78,0,0,1,.31.35,1.39,1.39,0,0,1,.08.55,4.35,4.35,0,0,1-.16.84c-.11.44-.27,1-.49,1.75s-.42,1.44-.55,2-.22.93-.26,1.22a13.56,13.56,0,0,0-.77,1.63,3.86,3.86,0,0,0-.27,1.35,10.51,10.51,0,0,0,.39,2.33c.26,1,.63,2.32,1.13,3.86.69,2.1,1.4,4.28,2.11,6.56q1,3.76,2.05,7.27t2.24,6.73q1.2,3.38,2,5t1.17,1.65c.21,0,.37-.15.46-.45a5,5,0,0,0,.15-1.44,9.22,9.22,0,0,1,.08-1,10.78,10.78,0,0,1,.28-1.37c.19-.7.37-1.5.55-2.39.21-1.36.41-2.55.59-3.57s.34-1.9.47-2.63c.09-.47.19-1.46.29-3s.22-3.57.33-6.16a6.8,6.8,0,0,1,.11-1.1c.08-.47.15-1,.21-1.6s.15-1.12.2-1.55.06-.82.06-1.16c0-.6,0-1.5-.16-2.69s-.16-2.08-.16-2.68c.32-1.65.62-3.26.91-4.83.23-1.36.46-2.49.68-3.39s.4-1.59.55-2.06a10.26,10.26,0,0,1,1.27-2.45,7.7,7.7,0,0,1,1.65-1.71h.26c.22,0,.37.05.44.16a.83.83,0,0,1,.12.51c-.11.55-.21,1-.29,1.25.06.47.12,1,.19,1.49s-.14,1.21-.23,1.65c0,.29-.08.73-.13,1.32s-.06,1.3-.06,2.13c0,.32,0,1-.1,2s-.18,2.42-.36,4.14c-.13,2.46-.28,4.9-.47,7.34s-.37,4.86-.56,7.29q-.27,4.39-.75,8a65.67,65.67,0,0,1-1.17,6.49,36.64,36.64,0,0,1-.6,3.85c-.29,1.41-.66,2.94-1.12,4.59l-1,2a11.27,11.27,0,0,1-2,1,14,14,0,0,1-2.17.84c-.33,0-.81-.51-1.46-1.55a34.73,34.73,0,0,1-2.31-4.72q-1.27-2.87-2-4.73a18.69,18.69,0,0,1-1-2.8c0-.24-.1-.54-.19-.91s-.19-.78-.29-1.25c-.44-1.15-1-2.58-1.64-4.28s-1.43-3.71-2.29-6a15.63,15.63,0,0,0-.57-1.67c-.23-.53-.51-1.1-.83-1.7l-.23.12c-.15.52-.3,1.17-.45,2s-.33,1.72-.53,2.82a16.09,16.09,0,0,1-.68,1.88c-.33,1.52-.69,3.17-1.11,4.95s-.86,3.68-1.33,5.72c-.13.68-.26,1.39-.39,2.12s-.29,1.49-.46,2.28l-.59,1.29c-.08.79-.18,1.56-.29,2.31s-.34,1.33-.57,2.18-.5,1.86-.83,3a2.47,2.47,0,0,1-.47,1.35,1.4,1.4,0,0,1-1,.5,1.16,1.16,0,0,1-.26.33,1.85,1.85,0,0,1-.65.33c-.22,0-.38-.08-.49-.41a4.76,4.76,0,0,1-.16-1.43,13.73,13.73,0,0,1,.16-1.73c.11-.78.27-1.78.49-3,.23-1.36.42-2.42.57-3.19s.23-1.27.27-1.48c.09-.62.19-1.45.3-2.47s.22-2.19.35-3.53c.05-.34.12-.76.21-1.27s.23-1.11.38-1.79c.11-.52.32-1.94.65-4.25s.75-5.54,1.27-9.67S1232.45,649.54,1233,645.43Z"/>
    <path class="cls-2" d="M1264,663a3.67,3.67,0,0,1,.25-1.21,10.25,10.25,0,0,1,.73-1.61c.45-.78.79-1.4,1-1.84a5,5,0,0,0,.38-.87c.1-.28.25-.66.43-1.13l.64-1.61a7.07,7.07,0,0,0,.74-1.86c.29-1,.61-2.22,1-3.79.17-.42.36-.92.55-1.51s.43-1.29.72-2.1a14.28,14.28,0,0,1,.48-2.12c.24-.81.55-1.71.91-2.7s.93-1.87,1.43-2.79a4.77,4.77,0,0,1,2.15-2,3.77,3.77,0,0,1,.84.87,1.43,1.43,0,0,1,.3.82,6.88,6.88,0,0,1-.74,2.61,7.09,7.09,0,0,0-.73,2.21.79.79,0,0,0,.3.59,5.91,5.91,0,0,0,.94-.94c.45-.52,1-1.23,1.78-2.12a19.91,19.91,0,0,1,1.65-1.66,3.25,3.25,0,0,1,1.38-.81,5.36,5.36,0,0,1,1.07-.35,10.32,10.32,0,0,0,1.46-.51,3.68,3.68,0,0,0,.68-.55,2.48,2.48,0,0,1,.72-.47l.49.12a3.7,3.7,0,0,0,1.62.72,8.66,8.66,0,0,0,1.69.37,4.53,4.53,0,0,1,.68.63,9.63,9.63,0,0,0,1,.94A9.61,9.61,0,0,1,1293,641a22,22,0,0,1,2,4.53,36.33,36.33,0,0,1,1.28,4.71,21.75,21.75,0,0,1,.44,4.31,42.1,42.1,0,0,1-1.36,11.38,19.88,19.88,0,0,1-4.13,7.92l-.63.76-.93,1.08v.43a2.14,2.14,0,0,1-.37.85,11.61,11.61,0,0,1-.86,1c-.8.89-1.62,1.78-2.44,2.68s-1.67,1.79-2.53,2.65a20,20,0,0,1-3.09,2.67,10.31,10.31,0,0,1-2.83,1.37,3.8,3.8,0,0,1-1.44,1,5.93,5.93,0,0,1-2.1.33,12,12,0,0,1-3-.29,3.28,3.28,0,0,1-1.62-.84,7.44,7.44,0,0,0-.68-.71,12.52,12.52,0,0,1-.91-.9,4.71,4.71,0,0,1-1-1.86,22.27,22.27,0,0,1-.88-3.51c-.17-1.08-.31-2.12-.41-3.12s-.14-1.94-.14-2.81a8,8,0,0,1,.16-1.29,6,6,0,0,0,.13-1.37,14.23,14.23,0,0,0-.07-1.57,11.07,11.07,0,0,1,.36-2.24,11.26,11.26,0,0,0,.36-2.43,1.48,1.48,0,0,0-.19-.59,5.42,5.42,0,0,0-.75,1.3,1.54,1.54,0,0,1-.46.58.82.82,0,0,1-.48.2.65.65,0,0,1-.57-.35,2.13,2.13,0,0,1-.21-1.06,8.94,8.94,0,0,1,.17-1.41A8.44,8.44,0,0,0,1264,663Zm19.5-19.18a5.58,5.58,0,0,0-1.59.24,9.16,9.16,0,0,0-1.66.67l-3.15,1.68a3.48,3.48,0,0,0-.73.63,8.31,8.31,0,0,0-.9,1.18l-1.49,2.23a10.72,10.72,0,0,0-1.27,3.73,70,70,0,0,0-1,7.06q-.33,3.33-.46,6.22c-.09,1.92-.13,3.69-.13,5.31q0,5,1.27,7.43a4.08,4.08,0,0,0,3.83,2.46,6.07,6.07,0,0,0,2.7-.77,16,16,0,0,0,3.25-2.33,27.52,27.52,0,0,0,2.63-2.69,14.89,14.89,0,0,0,1.88-2.77,18.93,18.93,0,0,0,1-2.31c.46-1.18,1.11-2.79,1.93-4.82a30.89,30.89,0,0,0,1.27-4.53,24.55,24.55,0,0,0,.45-4.73c-.13-.79-.27-1.56-.42-2.32l.23-1.68c-.22-.32-.4-.6-.55-.87s-.12-.37-.17-.51a16.16,16.16,0,0,0-2.73-6.37A5.26,5.26,0,0,0,1283.49,643.78Z"/>
    <path class="cls-2" d="M1305.81,630.92a2.64,2.64,0,0,1,1.21.25,2.48,2.48,0,0,1,.83.65,4.3,4.3,0,0,1,.57.92c.19.38.42.85.7,1.39.35.76.6,1.35.75,1.75a3.2,3.2,0,0,1,.23.8c-.16,1.52-.3,3-.43,4.36s-.22,3-.42,4.51c-.09.37-.16.77-.23,1.21.09.66.16,1.35.21,2.08s.1,1.47.12,2.2.06,1.22.06,1.94,0,1.54-.06,2.45c0,1.15,0,2.09-.07,2.81s0,1.21,0,1.47,0,.39,0,.63a7,7,0,0,0,.13.78c0,.37.12.82.23,1.37V665c0,1,.29,3.3.79,6.91a42.1,42.1,0,0,0,1,5.8,3,3,0,0,1,.39-.23l2.53-5.49.5-1.71c.21-.69.45-1.5.73-2.41a57.6,57.6,0,0,0,2.78-9q1.31-5.55,2.45-13.16a13.47,13.47,0,0,1,1-3.49,2.81,2.81,0,0,1,1.41-1.57l2.89-1.26a2.25,2.25,0,0,1,1.07,1,3.35,3.35,0,0,1,.33,1.59,34,34,0,0,1-.36,3.94q-.36,2.73-1.1,6.85c0,.6-.08,1.34-.18,2.23s-.2,1.94-.33,3.14c-.17.94-.31,1.69-.4,2.24a8.46,8.46,0,0,0-.15,1c0,.68,0,1.45,0,2.33s0,1.86.07,3c0,1.34.06,2.45.06,3.34v1.88c0,1.75.07,3.08.15,4s.18,1.35.31,1.35.55-.56,1-1.68,1-2.83,1.7-5.1c.54-1.73,1-3.36,1.48-4.91s.84-3,1.18-4.35a3.31,3.31,0,0,0,.52-1.22,10.62,10.62,0,0,0,.26-2c.35-1.12.68-2.3,1-3.55s.67-2.53,1-3.86c.21-.78.45-1.76.69-2.94s.55-2.58.9-4.2l-.43-1.64c.07-.32.17-.71.3-1.18a17,17,0,0,0,.35-1.69,16.2,16.2,0,0,1,1.58-2.55c.46-.57.84-.86,1.12-.86s.36.14.45.41a4.68,4.68,0,0,1,.13,1.32c0,1.59,0,2.83-.08,3.7a8.75,8.75,0,0,1-.21,1.71c-.15.36-.28.71-.39,1s-.2.59-.26.8l.42,1.92a14.68,14.68,0,0,0-.45,2c-.18,1-.37,2.21-.59,3.75s-.41,2.63-.58,3.49a8.09,8.09,0,0,1-.49,1.73,12.75,12.75,0,0,1-.42,1.8l-.78,2.51a12.51,12.51,0,0,0-.43,1.59c-.15.72-.33,1.58-.55,2.57-.15.6-.34,1.31-.58,2.14s-.51,1.82-.81,3a7.11,7.11,0,0,0-.64,1.37,17.69,17.69,0,0,0-.57,2.16c-.1.42-.31,1-.6,1.82s-.65,1.83-1.09,3.08-.84,2.31-1.17,3a3.65,3.65,0,0,1-.68,1.18l-.78.55a1.33,1.33,0,0,1-.65.53,2.56,2.56,0,0,1-1,.09,8.32,8.32,0,0,1-1,.67,1.56,1.56,0,0,1-.7.24,2.28,2.28,0,0,1-2-1.18,9.28,9.28,0,0,1-1.07-3.61l-.21-3.39c-.08-1.14-.16-2.3-.25-3.47,0-.58-.12-1.34-.24-2.3s-.31-2.1-.57-3.43c-.45,1-.92,2.12-1.41,3.24s-1,2.28-1.51,3.51a5.9,5.9,0,0,1-.46,1.72c-.32.92-.78,2.19-1.36,3.81s-1.26,3.41-2,5.13a7.38,7.38,0,0,1-1.61,2.3,2.82,2.82,0,0,1-1.93.76c-.35,0-.69-.32-1-1a14.89,14.89,0,0,1-1-3c-.2-.81-.39-1.62-.57-2.45s-.37-1.67-.57-2.53a8,8,0,0,0,.23-.9,11.69,11.69,0,0,1-.47-1.49q-.26-.95-.54-2.28c-.07-.54-.15-1.25-.26-2.11s-.23-1.89-.36-3.06l-.06-1.12c0-.38,0-.75-.07-1.12a4.42,4.42,0,0,0-.18-.94,9.51,9.51,0,0,0-.44-1.18,7.56,7.56,0,0,1-.11-1.15c0-.62-.07-1.48-.12-2.57a14.24,14.24,0,0,0-.19-2.22,2,2,0,0,0-.49-1.16l-.88-.78a8.14,8.14,0,0,1-.31-1.71c-.07-.77-.11-1.72-.11-2.84,0-3,.14-6,.44-9.26s.73-6.6,1.31-10.16a4.36,4.36,0,0,1,.81-2.08A1.83,1.83,0,0,1,1305.81,630.92Z"/>
    <path class="cls-2" d="M1349.31,681.48a3.67,3.67,0,0,1,1.59.29,1.29,1.29,0,0,1,.72.81l-.33,3a9.91,9.91,0,0,0-.13,1.11,8.16,8.16,0,0,1-.13,1.12,1.31,1.31,0,0,1-.55.75,2.15,2.15,0,0,1-1.07.23,5.08,5.08,0,0,0-1.45.3,5.36,5.36,0,0,1-1.41.29,1.19,1.19,0,0,1-1.12-.8,6.22,6.22,0,0,1-.38-2.49,4.52,4.52,0,0,1,1.45-3.1A4,4,0,0,1,1349.31,681.48Zm-.65-24.48c.24-.86.42-1.62.55-2.27a8.9,8.9,0,0,0,.2-1.65,7.45,7.45,0,0,0-.08-.92,26.37,26.37,0,0,1-.12-2.73,1.16,1.16,0,0,1-.42.08l-.55-.43-.1-.55a11.14,11.14,0,0,1,.47-2.63,8.62,8.62,0,0,0,.41-2.55l0-2.08a4.77,4.77,0,0,1,0-1.23,7.39,7.39,0,0,1,.38-1.39,5.85,5.85,0,0,1,.58-1.4,1.58,1.58,0,0,1,.72-.68,2.13,2.13,0,0,1,.37-.22l.41-.18,1.17-1.11c.36-.36.7-.72,1-1.08a11.42,11.42,0,0,1,1.48-1.06,2.4,2.4,0,0,1,1.19-.39.62.62,0,0,1,.6.49,4.47,4.47,0,0,1,.18,1.47A13.13,13.13,0,0,1,1357,636c-.07.64-.2,1.38-.37,2.21s-.32,1.61-.42,2.24a13.46,13.46,0,0,0-.2,1.53c0,.57-.12,1.61-.29,3.12s-.43,3.43-.78,5.78c-.24,1.57-.53,3.57-.88,6s-.75,5.23-1.2,8.42a8.26,8.26,0,0,1-.08,1c-.06.39-.11.87-.18,1.45,0,.16-.1.33-.16.53a5.06,5.06,0,0,1-.26.61c-.05.18-.12.75-.23,1.7s-.23,2.31-.36,4.06a5.92,5.92,0,0,1-1.7,2.45q-1.62,1.71-2.16,1.71c-.24,0-.39-.1-.46-.24s0-.37,0-.74,0-.64,0-.83l.32-1.6c-.09-.94-.17-1.86-.26-2.75,0-.6,0-1.18,0-1.72s.07-1.09.11-1.61a11.91,11.91,0,0,1,.39-1.45c.07-.26.12-.54.17-.83a5.33,5.33,0,0,0,.06-.7c0-.68,0-1.32,0-1.93,0,.14,0,.06,0-.23s0-.75,0-1.37a3.37,3.37,0,0,0,.07-.69v-.73a15.53,15.53,0,0,0,.5-2.31A7.94,7.94,0,0,0,1348.66,657Z"/>
  </g>
  <rect class="cls-3" x="657.13" y="168.09" width="602.39" height="335.34"/>
  <path class="cls-4" d="M1279.11,232.5c0-5.92-.15-11.7-.43-17.28-2-39.06-10.41-68.44-20.54-68.44l-415.38.78-1.07,10.11-10-10.13-20.09,0-6.73,18.18-1.74-19H662c-11.58,0-21,38.38-21,85.72V373.38L645,390.29l-4.06,7.11v13.19l7.11,5.07-6.94,12.52v8.3c0,47.34,9.39,85.72,21,85.72h21.61l-3.59-14.31,10.48,13.55,6.1.41,4.34-8,.69,8.31h452.11l4.93-8.42,3.07,8.42h11.44L1171,506.28l12.52,15.92h74.63c11.58,0,21-38.38,21-85.72V269.09l-5.32-29.24Zm-22.78,154.91c0,48.53-8.91,109.17-19.91,109.17H682.07c-11,0-19.91-60.64-19.91-109.17V281.57c0-48.53,8.92-109.17,19.91-109.17h554.35c11,0,19.91,60.64,19.91,109.17Z"/>
  <g>
    <path class="cls-5" d="M852.19,308.53c.09,1.33-.59,2-2.07,2a54.63,54.63,0,0,1-8.06-1.62c-4.45-1.08-7.18-1.82-8.21-2.21a80.75,80.75,0,0,1-29.54,6q-22.75,0-37.34-15.17-14.43-15-14.43-37.79,0-23.34,14-38.74Q781,205.13,804,205.13a52.41,52.41,0,0,1,21.06,4.27,40,40,0,0,1,16.8,13.25,5.69,5.69,0,0,1,1.25,2.51q0,2.35-6.59,10.57T828,243.94q-.45,0-3.39-3a31.3,31.3,0,0,0-7.36-5.6,25.72,25.72,0,0,0-12.38-3q-11,0-17.53,8.25-6,7.59-6,18.93,0,12,6.26,19,6.48,7.22,18.33,7.22a45.24,45.24,0,0,0,16.8-3.76q-.22-2.43-1.33-12.37a104.19,104.19,0,0,1-1-12.37c0-.94.32-1.5,1-1.7a3.4,3.4,0,0,1,1.18-.15q2.13,0,6.44.41t6.52.41c1.57,0,3.93-.12,7.07-.34s5.5-.33,7.07-.33c1.23,0,1.84.81,1.84,2.43q0,3.54-.4,10.68c-.27,4.77-.41,8.32-.41,10.68q0,9.51,1.4,28.43Z"/>
    <path class="cls-5" d="M960.24,309.05c0,.88-.61,1.49-1.84,1.84q-2.21.58-13.7.59-10.53,0-13.55-.59a4,4,0,0,1-3.17-3.32q-2.51-10.6-3.9-11.34-1.17-.51-19.74-.52-12.51,0-13.33.67-1.25,1.17-2.8,7.88-1.4,6.11-3.38,6.63-2.51.58-16.8.59-11.26,0-11.26-2.14,0-1.92,16.64-47.06,18-48.82,19.59-53.69c.59-1.87,1.28-2.8,2.06-2.8q2,0,6.15.37c2.78.24,4.85.37,6.23.37s3.27-.09,5.85-.26,4.51-.26,5.78-.26q1.41,0,2.58,2.43,3.61,7.74,21.06,53Q960.24,307.06,960.24,309.05ZM908,242q-1.54,3.24-5.23,14.07-4,11.49-4,13.48c0,.88,1.47,1.37,4.42,1.47q2.28.15,7.51.15c3.24,0,5-.4,5.38-1.18a2.87,2.87,0,0,0,.14-1q0-2.43-3.38-13.41Q909.58,244.9,908,242Z"/>
    <path class="cls-5" d="M1078.17,308.6c0,1.53-.71,2.29-2.14,2.29H1050q-2.13,0-2.13-2.58,0-7.44.55-22.32t.55-22.31c0-1.43-.22-2.19-.66-2.29q-.81.45-9.87,22.76-5.31,13.11-10.61,26.15a3.1,3.1,0,0,1-1.84,2c-.24,0-1.23.07-2.94.07q-3.84,0-4.57-1.47-4-8.1-10.46-23.57-6.91-16.35-10.38-23.64a2.2,2.2,0,0,0-.67-.81,3.51,3.51,0,0,0-.51,2.13q0,7.23.37,21.66t.37,21.65q0,2.58-2.07,2.58h-24.6q-1.47,0-1.8-.48a3.06,3.06,0,0,1-.33-1.66q0-8,.77-24.12t.78-24.12q0-8.53-.74-32-.07-6.1-.66-18.19l-.08-1.25c0-1,1-1.47,3.1-1.47q4.05,0,12.15-.26t12.15-.26q.81,0,2.28,3.09l21.51,47.21c1.52,3.2,2.8,4.79,3.83,4.79q.81,0,3.46-5.52,7.44-15.47,22-46.62c.84-1.92,1.74-2.88,2.73-2.88q2.13,0,6.44.23c2.87.14,5.05.22,6.52.22,1.22,0,3.1-.12,5.63-.37s4.41-.37,5.64-.37c1.47,0,2.21.59,2.21,1.77q0,8.68-.63,26t-.63,26q0,8,.67,24.08T1078.17,308.6Z"/>
    <path class="cls-5" d="M1167.89,288a96.77,96.77,0,0,1-1.25,11.64q-1.34,9.21-2.36,11a2.75,2.75,0,0,1-2.43,1.4,17.37,17.37,0,0,1-2.21-.22q-5.37-.74-31.37-.74-5.68,0-16.87-.07t-16.79-.07c-1.62,0-2.43-.71-2.43-2.14q0-8.25.92-24.78t.92-24.78q0-8.4-.89-31.31-.21-5.88-.8-17.6l-.08-1c-.1-1.13.52-1.69,1.84-1.69q5.46,0,16.39.29t16.39.3q5.37,0,16.2-.3t16.2-.29c2.55,0,4,.95,4.42,2.87q.38,1.69,1.14,10.27c.52,5.72.78,9.2.78,10.42,0,1-.5,1.55-1.48,1.55-.29,0-.81,0-1.54-.07Q1143,231,1127.38,231q-3.9,0-4.79,1.84a23.62,23.62,0,0,0-.36,5.67q0,5,1.47,6.63,1.24,1.4,4.79,1.4c.49,0,1.44,0,2.87-.11s2.6-.11,3.53-.11q9.28,0,18.78-.52l4.06-.37a37.12,37.12,0,0,1,4-.29c1.18,0,1.77.56,1.77,1.69q0-1.55-1.33,11.27-.59,5.9-.59,11.78c0,1-.71,1.48-2.13,1.48l-6.63-.74q-4.2-.44-19.15-.44h-7.81c-2,0-3.19.49-3.53,1.47,0,.25-.07,1.77-.07,4.57q0,5.6.73,7.22,1.26,2.79,9.43,3.31h10.75q3.9,0,11.6-.7t11.53-.7C1167.35,285.33,1167.89,286.21,1167.89,288Z"/>
  </g>
  <g>
    <path class="cls-5" d="M871.33,410.79q0,23-14.65,38.52-15,15.76-37.86,15.76T781,449.16q-14.73-15.54-14.73-38.37T781,372.27q15-16,37.78-16t37.71,16Q871.34,388,871.33,410.79Zm-27.91-.14a27.7,27.7,0,0,0-6.7-18.79,22.6,22.6,0,0,0-17.9-8.1q-10.38,0-17.6,8.4a27.69,27.69,0,0,0-7,18.63q0,11.26,6.56,18.78,6.91,7.89,18,7.88,10.39,0,17.68-8.32A27.3,27.3,0,0,0,843.42,410.65Z"/>
    <path class="cls-5" d="M924.52,462.64a109.91,109.91,0,0,1-11.34-.29,3.64,3.64,0,0,1-2.35-2.14Q902.43,443.64,894,427q-13.34-26.75-13.33-30.27,0-5.82.4-17.5t.41-17.49c0-1.81.49-2.72,1.47-2.72q4.43,0,13.41.37t13.47.36c1.23,0,1.85.52,1.85,1.55q0,6-.85,17.93t-.85,17.94q0,4.56,14.95,32.62,4.05-7.29,9.21-17.89Q941,397.61,941,394.37q0-5.37-.15-16.17T940.73,362c0-1.33.22-2.07.66-2.21h2.36q4.05,0,12.26-.41t12.26-.4c1.48,0,2.21.59,2.21,1.76,0,3.79-.06,9.49-.18,17.13s-.19,13.37-.19,17.19q0,4.57-14.51,33.59-5.75,10.46-16.57,31.52a7.1,7.1,0,0,1-1,1.81,6.06,6.06,0,0,1-1.88.33Q932.41,462.64,924.52,462.64Z"/>
    <path class="cls-5" d="M1057.4,439.44a96.77,96.77,0,0,1-1.25,11.64q-1.34,9.21-2.36,11a2.75,2.75,0,0,1-2.43,1.4,17.37,17.37,0,0,1-2.21-.22q-5.37-.74-31.37-.74-5.67,0-16.87-.07t-16.79-.07c-1.62,0-2.43-.71-2.43-2.14q0-8.25.92-24.78t.92-24.78q0-8.4-.88-31.31-.23-5.88-.81-17.6l-.08-1c-.1-1.13.52-1.69,1.84-1.69q5.46,0,16.39.29t16.39.3q5.37,0,16.2-.3t16.2-.29c2.56,0,4,1,4.42,2.87q.38,1.69,1.14,10.27c.52,5.72.78,9.2.78,10.42,0,1-.49,1.55-1.48,1.55-.29,0-.81,0-1.54-.07q-19.59-1.62-35.21-1.62-3.9,0-4.78,1.84-.37.89-.37,5.67,0,5,1.47,6.63,1.24,1.4,4.79,1.4c.49,0,1.45,0,2.87-.11s2.6-.11,3.54-.11q9.27,0,18.78-.52l4-.37a37.3,37.3,0,0,1,4-.29c1.18,0,1.77.56,1.77,1.69q0-1.54-1.32,11.27a116.3,116.3,0,0,0-.59,11.78c0,1-.72,1.48-2.14,1.48l-6.63-.74q-4.2-.44-19.15-.44h-7.8q-3,0-3.54,1.47c0,.25-.07,1.77-.07,4.57q0,5.59.73,7.22,1.26,2.79,9.43,3.31h10.75q3.91,0,11.6-.7t11.53-.7C1056.86,436.79,1057.4,437.67,1057.4,439.44Z"/>
    <path class="cls-5" d="M1155.59,461.61c0,.34-.49.59-1.47.74a129.06,129.06,0,0,1-14.07.44,126.69,126.69,0,0,1-13.11-.44,7.59,7.59,0,0,1-1.84-.37,3.24,3.24,0,0,1-1-1.47q-1.11-2.88-3.24-8.55-2.88-7.36-9-21.72c-.88-1.92-2.92-3-6.11-3.17q2.2.15-7.59.15c-.73,0-1.1,1.25-1.1,3.75q0,5,.92,14.95t.92,14.95c0,.84-.22,1.33-.66,1.48l-2.07.14q-4.34.3-13.55.3-10.53,0-12.67-.44c-1.42-.3-2.13-1.06-2.13-2.29q0-8.1.77-24.45t.78-24.52q0-31.15-1.4-48.61l-.08-1c0-.84.73-1.4,2.32-1.7s9.1-.59,22.5-.88q13.63-.3,21.73-.3,16.78,0,27.4,7.59,12,8.55,12,24.67,0,10.76-3.09,17.16t-11.42,12.45c-1.13.79-1.69,1.52-1.69,2.21q0-.07,9,18.49T1155.59,461.61Zm-30.93-66.06q0-9-5.9-12.45-4.56-2.66-14.28-2.65-7,0-7.44,2.13-.45,2.51-.44,14.44c0,1.13,0,2.8.07,5s.07,3.85.07,4.93c0,.25.79.49,2.36.74a64.83,64.83,0,0,0,9.43.66Q1124.66,408.36,1124.66,395.55Z"/>
  </g>
</svg>
