<svg xmlns="http://www.w3.org/2000/svg" width="180" height="210" viewBox="0 0 180 210">
  <defs>
    <style>
      .cls-1 {
        fill: #e3e8e7;
      }

      .cls-2 {
        fill: #2d2c2c;
      }

      .cls-3 {
        fill: #e2dfd3;
      }

      .cls-4 {
        fill: #991a1a;
      }

      .cls-5 {
        fill: #161616;
      }

      .cls-6 {
        fill: #141414;
      }

      .cls-7 {
        fill: #302d2c;
      }

      .cls-8 {
        fill: #3f0707;
      }
    </style>
  </defs>
  <g id="points">
    <g>
      <path class="cls-1" d="M176.37,87.77c0,41.73-41.93,119.44-89.22,119.44S3.49,149.54,3.69,79.86C3.76,52.52,39.86,8.63,87.15,8.63S176.37,32.93,176.37,87.77Z"/>
      <path class="cls-2" d="M53.86,108.73c-10.29,4.16-20.9,4.38-29.16,1.33a23.14,23.14,0,0,0,9.37,10.36c12.62,7.28,29.87,1,38.54-14a34.86,34.86,0,0,0,4.68-21C74.41,94.86,65.85,103.87,53.86,108.73Z"/>
      <path class="cls-3" d="M53.86,108.73c12-4.86,20.55-13.87,23.43-23.31-.87-8.16-5-15.37-11.84-19.35-12.62-7.28-29.87-1-38.54,14-5.78,10-6.27,21.38-2.21,30C33,113.11,43.57,112.89,53.86,108.73Z"/>
      <path class="cls-4" d="M45.66,77.82c10.29-4.17,20.9-4.38,29.16-1.34a23.08,23.08,0,0,0-9.38-10.35c-12.61-7.29-29.87-1-38.53,14a34.89,34.89,0,0,0-4.69,21C25.1,91.68,33.67,82.67,45.66,77.82Z"/>
      <path class="cls-3" d="M125.88,108.73c-12-4.86-20.56-13.87-23.44-23.31.88-8.16,5-15.37,11.85-19.35,12.62-7.28,29.87-1,38.53,14,5.78,10,6.27,21.38,2.22,30C146.78,113.11,136.17,112.89,125.88,108.73Z"/>
      <circle class="cls-5" cx="58.83" cy="82.56" r="3.83"/>
      <circle class="cls-5" cx="118.63" cy="97.24" r="3.83"/>
      <path class="cls-6" d="M81.39,39.57c-1.73-5.2,17.27,1.43,20.15,2.87s5.22,3.88,8.37,5.18,12.5.58,12.5,3.46-11.52,0-13.67-.72-7.2-5-8.64-5.76S82.11,41.72,81.39,39.57Z"/>
      <path class="cls-6" d="M98.62,52.44c1.9.53,2.66-6.23,4-8.93s4.17-8.13,3.16-8.8-4,2.76-4.2,4.63S96.72,51.91,98.62,52.44Z"/>
      <path class="cls-6" d="M113.52,36.7c1.83,2.21.63,3.85,0,8.31s-3.12,13.23-4.73,12.1.83-9.26,1.65-10.89.22-6.88.93-8.31A2.1,2.1,0,0,1,113.52,36.7Z"/>
      <path class="cls-6" d="M88.25,52.51c-.85-2.73.14-4.56,1.15-9.75s3.8-15.26,4.67-13.82-1.81,10.79-2.55,12.64-1.09,8-1.74,9.67S88.25,52.51,88.25,52.51Z"/>
      <path class="cls-7" d="M3.69,87.77C3,69.71,14.57,55.06,21.72,49.1s21.94-6,30.37-11.71S62.69,21,74.2,20.15s18.4,5.05,27.91,7,22.33-6.43,29.59-1.4a75.23,75.23,0,0,1,19.49,20.63c5.05,8.3,15.11,10.81,19.42,19.71a66.1,66.1,0,0,1,5.76,18.76c.13-82.1-60.9-82.1-84.32-82.1C-1.66,2.79,3.69,87.77,3.69,87.77Z"/>
      <path class="cls-8" d="M59.18,160.91c.18-14.43,22.68-4.62,29.62-4.62,7.36,0,27-12.26,27.44,3,.54,17.18-16.15,9.81-26.46,9.81C82.91,169.05,59,176.81,59.18,160.91Z"/>
      <path class="cls-3" d="M73.1,155.8a21.08,21.08,0,0,0,0,6.12l1.47,1.34c3-2.06,3.44-6,3.44-6A9.35,9.35,0,0,0,73.1,155.8Z"/>
      <path class="cls-3" d="M81.93,157.77a19.14,19.14,0,0,0,0,5.49c2.95.89,3.84,0,3.84,0-.89-3.53.67-5.49.67-5.49A6.34,6.34,0,0,0,81.93,157.77Z"/>
      <path class="cls-3" d="M90,157.33c-.72,2.89,0,3.92,0,3.92,1.74-.54,3.7.93,3.7.93a17.89,17.89,0,0,0,1.14-4.85A13,13,0,0,0,90,157.33Z"/>
      <path class="cls-3" d="M98.62,155.8c-.49,2.46.34,5.2,1.6,4.69a7,7,0,0,0,4.29-6.16C102.05,153.84,98.62,155.8,98.62,155.8Z"/>
      <path class="cls-3" d="M96.47,168.94a7.77,7.77,0,0,1-.14-4.34,6.71,6.71,0,0,1,3.89-2.42c.85,2,0,6.76,0,6.76C97.64,169.54,96.47,168.94,96.47,168.94Z"/>
      <path class="cls-3" d="M73.94,169.21c.63-6,2.68-5.56,2.68-5.56,1.88,1.48,3,5.56,3,5.56A11.63,11.63,0,0,1,73.94,169.21Z"/>
      <path class="cls-3" d="M106,169.21c-.49-4.08-.63-7-.63-7a8.42,8.42,0,0,0,3.84-2.65c1.7,2.16.67,7.08.67,7.08C109.41,168.56,106,169.21,106,169.21Z"/>
      <path class="cls-3" d="M64.25,164.5c1-2.12,3.35-1.08,3.35-1.08,2.55,1.82,2.5,5.79,2.5,5.79C66.72,168.1,64.25,164.5,64.25,164.5Z"/>
      <path class="cls-3" d="M84.8,167.94c.08-1.83,2.48-3.57,2.48-3.57,2,.27,3.44,3.57,3.44,3.57A17.23,17.23,0,0,1,84.8,167.94Z"/>
      <path class="cls-2" d="M126,108.73c10.29,4.16,20.89,4.38,29.16,1.33a23.22,23.22,0,0,1-9.38,10.36c-12.62,7.28-29.87,1-38.53-14a34.94,34.94,0,0,1-4.69-21C105.42,94.86,114,103.87,126,108.73Z"/>
      <path class="cls-4" d="M134,77.82c-10.29-4.17-20.9-4.38-29.16-1.34a23.12,23.12,0,0,1,9.37-10.35c12.62-7.29,29.87-1,38.54,14a34.81,34.81,0,0,1,4.68,21C154.53,91.68,146,82.67,134,77.82Z"/>
    </g>
  </g>
</svg>
