<svg xmlns="http://www.w3.org/2000/svg" xmlns:xlink="http://www.w3.org/1999/xlink" width="650" height="216" viewBox="0 0 650 216">
  <defs>
    <style>
      .cls-1 {
        fill: url(#linear-gradient);
      }

      .cls-2 {
        fill: url(#linear-gradient-2);
      }

      .cls-3 {
        fill: #fff;
      }
    </style>
    <linearGradient id="linear-gradient" x1="324.56" y1="-12.4" x2="325.47" y2="233.59" gradientUnits="userSpaceOnUse">
      <stop offset="0" stop-color="#ef7b1b"/>
      <stop offset="1" stop-color="#bc4206"/>
    </linearGradient>
    <linearGradient id="linear-gradient-2" x1="325.95" y1="209.46" x2="324.12" y2="12.01" xlink:href="#linear-gradient"/>
  </defs>
  <g id="home">
    <g>
      <polygon class="cls-1" points="579.82 213.5 476.98 194.48 403.08 213.5 376.42 206.37 246.15 213.5 145.6 196.26 73.23 213.5 23.71 192.7 35.14 137.42 0.86 95.22 12.28 48.86 67.89 8.44 128.08 7.85 185.21 18.55 275.1 6.07 321.57 20.93 425.94 2.5 515.07 17.95 583.63 8.44 630.1 38.16 612.58 89.28 649.14 117.81 639.24 179.62 579.82 213.5"/>
      <polygon class="cls-2" points="558.26 195.37 464.12 179.62 396.48 195.37 372.07 189.47 252.82 195.37 160.78 181.1 94.53 195.37 49.2 178.14 59.66 132.37 28.28 97.42 38.74 59.02 89.65 25.55 144.74 25.06 197.04 33.92 279.32 23.58 321.86 35.89 417.4 20.63 498.99 33.43 561.75 25.55 604.28 50.16 588.25 92.5 621.72 116.12 612.65 167.31 558.26 195.37"/>
    </g>
    <g>
      <path class="cls-3" d="M308.54,115.37c0,7.93-.28,13.8-.64,17.1a18.52,18.52,0,0,1-11,15.07c-3.23,1.47-7.1.71-11.4.71-4.07,0-7.61.8-10.85-.58a18.14,18.14,0,0,1-7.82-6.22c-2-2.76-1.53-5.73-1.9-9s-2.19-9-2.19-17.1v-6.66l1.29-13.36c0-7.93-1.11-7-.75-10.32a19.36,19.36,0,0,1,3.38-9c1.9-2.73,5.78-4.23,9-5.7s5.67-2.78,10-2.78c4.08,0,7.38,1.4,10.62,2.78s6.21,2.75,8.18,5.51a19,19,0,0,1,3.52,9c.38,3.25,1.72,8.91,1.72,17ZM288.75,89.44c0-3.68-.19-6-.58-7a2.33,2.33,0,0,0-2.42-1.53,2.67,2.67,0,0,0-2.38,1.24c-.54.83-1.41,1.76-1.41,5.82l.59,6.18-1.49,14.24,1.4,10.9a28.11,28.11,0,0,1,.18,5.27,48.65,48.65,0,0,0,.45,10.26,2.35,2.35,0,0,0,2.52,1.61,2.45,2.45,0,0,0,2.58-1.85A22,22,0,0,0,290,126l-1.26-16.43,1-9.45a15.66,15.66,0,0,0-.06-3.93Z"/>
      <path class="cls-3" d="M405.25,69.62l13.49-.26H419l10.41,1.79c.09,0,8.09-.9,8.19-.9l7.34-.51c1.29,0,2.26.88,1.93,1.84l-1,2.89a1.22,1.22,0,0,0-.05.57l1.44,8.44c.15.85-.67,1.61-1.78,1.66l-8.85.4a3,3,0,0,1-.42,0l-4.93-.63a1.91,1.91,0,0,0-2.19,1.21l-.81,3.73a1,1,0,0,0,0,.43l1.35,8a1.85,1.85,0,0,0,2,1.28l8.08-.48h.37l4.51.42a1.65,1.65,0,0,1,1.68,1.54l-.52,6.93v.19l.48,4.75c.08.78-.66,1.47-1.67,1.57l-7.88.76a2.94,2.94,0,0,1-.59,0l-3.88-.57c-1.22-.17-2.33.57-2.26,1.52l.58,8.89a.74.74,0,0,1,0,.21l-.49,4.13c-.11.94.94,1.71,2.15,1.59l4-.41a2.38,2.38,0,0,1,.38,0l10.59.55c1.13.06,1.94.85,1.76,1.7l-.81,3.86a1.14,1.14,0,0,0,0,.37l.94,7.83c.11.91-.88,1.68-2.06,1.6l-9.27-.61a1.82,1.82,0,0,0-.33,0l-10.94.75h-.3L417.69,145c-.13,0-5.91.91-6,.92l-5.84.64a1.81,1.81,0,0,1-2.18-1.43l1.2-9.13s-1.48-10.22-1.47-10.25l.3-10.45c0-.07,1.16-12.63,1.15-12.71l-1.44-10a.61.61,0,0,1,0-.19l.3-10.37-.27-10.84A1.71,1.71,0,0,1,405.25,69.62Z"/>
      <path class="cls-3" d="M249.61,70.4a2.86,2.86,0,0,1,3,2.72v5.41L251,89.37l1.58,14.11L252,122l1,12.1-.47,11.73a2.86,2.86,0,0,1-3,2.72h-5.33l-6.56-1.42-4.45,1.42a2.86,2.86,0,0,1-3-2.72l-1.61-18.35a10.41,10.41,0,0,1,.26-3.47l1.35-5.55a2.86,2.86,0,0,0-3-2.71h-.71a2.86,2.86,0,0,0-3,2.71l.82,16.57-.82,10.8a2.86,2.86,0,0,1-3,2.72l-6.42-1.42-6,1.42h-4a2.87,2.87,0,0,1-3-2.72l-.38-14.52,1-12.1-.64-12.11,1.66-14-1.66-11v-9a2.87,2.87,0,0,1,3-2.72l5.83,1.29,5.71-1.29h4.8a2.86,2.86,0,0,1,3,2.72l.82,8.81-.82,13.68a2.86,2.86,0,0,0,3,2.72h.71a2.87,2.87,0,0,0,3-2.72l-.75-9,.75-13.46a2.86,2.86,0,0,1,3-2.72h4.49l6.1,1.29Z"/>
      <path class="cls-3" d="M389,69.36a1.9,1.9,0,0,1,2,1.79v8.43L388.21,91,391,107.31l1.62,20.1-1.62,18a1.9,1.9,0,0,1-2,1.79h-5.49l-3-2-7.3,2a1.9,1.9,0,0,1-2-1.79l-1.7-10.1,1.68-16.85V97.59l-1.9,9.72-3.07,9.28-3.3,14.75.63,14.27a1.94,1.94,0,0,1-2,1.55l-6.35-2-4.19,2a1.94,1.94,0,0,1-2-1.54l-.43-14.28-2.2-9.83L343,108.26l-2-9.47-.06,22.72,3.29,11.8L341,145.37a1.91,1.91,0,0,1-2,1.79H333.7l-3.78-1.07-6.73,1.07a1.91,1.91,0,0,1-2-1.79v-15.9L320,116.59,321.12,95l2.2-8.85-2.14-14.95a1.91,1.91,0,0,1,2-1.79h5.64l7.69,2,7.66-2h4.57a2,2,0,0,1,2,1.51q.56,3,1.11,6.54c.43,2.64,1.83,4.69,2.27,7.71l.13,7.59c.34,2.06,2.07,9.13,4.27.27l.18-3.62-.18-10.14,2.82-8.29a1.93,1.93,0,0,1,2-1.57h5.2l8.7,2,4.41-2Z"/>
    </g>
  </g>
</svg>
