<svg xmlns="http://www.w3.org/2000/svg" width="260" height="700" viewBox="0 0 260 700">
  <defs>
    <style>
      .cls-1 {
        fill: #e2bda3;
      }

      .cls-2 {
        fill: #e2e0e0;
      }

      .cls-3 {
        fill: #211f1e;
      }

      .cls-4 {
        fill: #9e2323;
      }

      .cls-5 {
        fill: #e2e2e2;
      }

      .cls-6 {
        fill: #d8b4a0;
      }

      .cls-7 {
        fill: #e6e6e6;
      }

      .cls-8 {
        fill: #897263;
      }

      .cls-9 {
        fill: #3d5270;
      }

      .cls-10 {
        fill: #aaa19b;
      }

      .cls-11 {
        fill: #d89595;
      }
    </style>
  </defs>
  <g id="happy">
    <path class="cls-1" d="M184.84,331.45C190,339,194.75,353,195.32,367.5c1,24.24-4.92,50-4.92,50-.32,6.83-4.28,15.64-3.61,18.59s5.62-9.73,5.62-9.73c-4.29,16.79-4.62,23.62-2,24.36s4-15.51,4-15.51-2.3,20.12.69,19.57c3.46-.64,4.17-18.43,4.17-18.43s-.84,16.71,1.4,17.28c3.07.77,3.38-17.13,3.38-17.13s.35,15.32,3.34,14.76,1-31.55,1-31.55c-.53-3.74,3.25-30.66,4.43-55.66a430.33,430.33,0,0,0-.43-44.66Z"/>
    <path class="cls-1" d="M76.85,326.21c-6.28,9.16-17.31,29.06-18.68,49.22C56.24,403.86,59.61,422,59.61,422c2.32,7.13,13.57,17,13.71,20.34s-9.26-4.76-9.26-4.76c9.4,16.44,9,18,6.44,19.62S61.82,442,61.82,442s8.24,20.58,4.91,20.93c-3.84.4-9.73-18.2-9.73-18.2s5.71,17.43,3.51,18.73c-3,1.78-8.53-17.08-8.53-17.08s4.05,16.33.72,16.68-7.45-33.13-7.45-33.13c-.46-3.63-7.07-28.2-7.2-54.06-.16-30.67,8.5-62.9,8.5-62.9Z"/>
    <path class="cls-1" d="M81.87,533.7c5.17,15-3.15,93.63-3.15,93.63,13.6,6.22,24.58,4.33,24.58,4.33,1.52-36.76,17.1-102.83,17.1-102.83Z"/>
    <path class="cls-1" d="M144.61,528.13c9.38,35.29,7.9,103.21,7.9,103.21,14-12.33,25.32-9.14,25.32-9.14C176.36,563.41,180,518.41,180,518.41Z"/>
    <path class="cls-2" d="M152.6,622.37l0,10.24L178,626l-.33-11.17C166.62,621.56,152.6,622.37,152.6,622.37Z"/>
    <path class="cls-2" d="M79.59,618.73l-.87,8.6,24.6,7.93.31-9.31A76.27,76.27,0,0,1,79.59,618.73Z"/>
    <path class="cls-3" d="M64.11,651.79,50.7,662.41a28.44,28.44,0,0,0-6.19,8.27c-2.42,5-3.29,10.8.3,15.06,4.22,5,12.25,8,17.24,7.37,8.81-1.18,20.6-13,37.77-29.63,2.59-2.49,3.53-2.88,4.53-8.15.4-2.09.05-5,0-7.09-.17-8.69-.18-13.29-1.43-15.26-.42-.68-.63-1.27-2.69-2.45-3.81-2.17-5.82-1.51-15.48-4.72-2.63-.87-7,1.25-7.22,3.54-.39,3.22-.84,6.89-1,8.27C75.88,642,64.11,651.79,64.11,651.79Z"/>
    <path class="cls-3" d="M150.19,630.5c.05,7.45-1.77,20.51-2.73,26.84a6.53,6.53,0,0,0,2.73,6.5,16.81,16.81,0,0,0,5,2.07,9.38,9.38,0,0,0,4.28,0c20.34-4.65,35.5-3.49,41.91-3.49,4.12,0,6.3-3.14,7.22-4.72,2.06-3.54,2.29-11.33,1.65-14.22a5.83,5.83,0,0,0-3.46-4.36A96.32,96.32,0,0,0,184,634.26a2.38,2.38,0,0,1-2-1.56,23.76,23.76,0,0,1-1.17-9.22,2.38,2.38,0,0,0-3-2.6c-9.36,3.56-20.67,5.83-25.45,6.69A2.85,2.85,0,0,0,150.19,630.5Z"/>
    <path class="cls-4" d="M90.27,413.15c-16.6,28.05-24.14,100-25.75,117.39a4.59,4.59,0,0,0,3,4.94c16.31,4.6,46,1,56.61-.55a6.21,6.21,0,0,0,5-5.15,59.51,59.51,0,0,0,.64-16.54c1.55,10.15,4.68,15.72,6.7,18.4a5.66,5.66,0,0,0,3.9,2.3c21.49,2.11,47.68-4.93,58.23-8.15,2.76-.84,4.52-3.91,4.11-7.14-5.73-44.33-31.32-114.82-31.32-114.82Z"/>
    <path class="cls-5" d="M161.1,249.15c16.17-.42,35.23,11.56,43.36,17.12a14.53,14.53,0,0,1,5.59,8c7.83,26.92,10,35.77,10.4,42,.19,2.91-1.69,5.45-4.22,5.77-12.23,1.57-23.45,10.3-28.92,15.22-2.35,2.11-5.81,1.27-7.15-1.78a87.2,87.2,0,0,1-3.64-9.5c-5.12,25.6,1.24,78.45,3.47,95.14.35,2.58-1.54,4.83-3.8,4.53-36.84-4.79-75.66-1.54-89.91,0-2.83.3-5.13-2.53-4.69-5.75,6.5-47.61-2-95.78-2-95.78a66,66,0,0,1-3.44,11.34c-1.23,3-4.35,4.33-7,2.78-7.65-4.55-18.62-6.9-25.21-8-3.23-.52-5.41-4-4.8-7.69C42.26,304,50.89,283.68,54.37,276a14,14,0,0,1,4.14-5.38c17.56-13.51,42.75-16.72,42.75-16.72l59.84-4.72"/>
    <path class="cls-6" d="M100.22,223.17c3.55,9.45,4.43,30.7,4.43,30.7,24,14.17,51.74-4.17,51.74-4.17-8.27-12.36-2.73-30.55-2.73-30.55C127.72,232.62,100.22,223.17,100.22,223.17Z"/>
    <path class="cls-1" d="M208.55,132.78c0,33.41-33.44,94.66-81.1,96.44-47.2,1.76-78.05-49.11-83.38-89-6.9-51.64,13.35-88.16,78-89C189.82,50.32,208.55,67.13,208.55,132.78Z"/>
    <path class="cls-7" d="M92.22,102.21a23,23,0,0,0-6.46-.94c-13,0-23.52,11-23.52,24.48a24.91,24.91,0,0,0,6.35,16.72c0-.38,0-.75.06-1.15C69.64,127.74,78.73,110.44,92.22,102.21Z"/>
    <path class="cls-7" d="M85.76,150.22c13,0,23.51-10.95,23.51-24.47a24.37,24.37,0,0,0-17-23.54c-13.49,8.23-22.58,25.53-23.57,39.11,0,.4,0,.77-.06,1.15A23,23,0,0,0,85.76,150.22Z"/>
    <path class="cls-7" d="M182.81,141.32c0,.4,0,.77.07,1.15a25,25,0,0,0,6.35-16.72c0-13.52-10.53-24.48-23.52-24.48a23,23,0,0,0-6.46.94C172.73,110.44,181.83,127.74,182.81,141.32Z"/>
    <path class="cls-7" d="M142.19,125.75c0,13.52,10.53,24.47,23.52,24.47a23.06,23.06,0,0,0,17.17-7.75c0-.38,0-.75-.07-1.15-1-13.58-10.08-30.88-23.56-39.11A24.37,24.37,0,0,0,142.19,125.75Z"/>
    <path class="cls-8" d="M119.83,160.57c-1.07,1.11-5.35,6.67-4.28,7.79s13.9,0,13.9-1.12-12.83,1.12-12.83,0,4.28-5.56,4.16-6.67S119.83,160.57,119.83,160.57Z"/>
    <ellipse class="cls-9" cx="91.64" cy="126.3" rx="7.48" ry="13.35"/>
    <ellipse class="cls-9" cx="158.98" cy="126.3" rx="7.48" ry="13.35"/>
    <ellipse class="cls-7" cx="91.64" cy="125.75" rx="1.07" ry="1.67"/>
    <ellipse class="cls-7" cx="156.85" cy="125.75" rx="1.07" ry="1.67"/>
    <path class="cls-10" d="M128.09,64.84c-37.83,3-90.15,42.58-103.37,53a1.29,1.29,0,0,1-2-1.49c6.35-19.89,17.1-24.93,17.1-24.93C24.21,96.89,10.24,104.4,9,103.58s.69-3.52,1.35-4.77C18,84.28,76,11.6,120.23,7.13,177,1.39,239.45,71.51,251.29,92.5c.67,1.19-4.89,1-8.7-.29-8.07-2.81-24.24-10-24.24-10,4,5.29,6.66,12.56,8,17a1.59,1.59,0,0,1-2.25,1.94C162.34,66,128.09,64.84,128.09,64.84Z"/>
    <path class="cls-11" d="M104,192.91c20.35,8.3,39-2.76,47.31-7.62.39-.23.73.23.48.61-9.31,13.82-17.39,19.06-25.43,19.79-10.38.94-19.81-7.4-22.84-12.21A.39.39,0,0,1,104,192.91Z"/>
  </g>
</svg>
