<svg xmlns="http://www.w3.org/2000/svg" width="260" height="700" viewBox="0 0 260 700">
  <defs>
    <style>
      .cls-1 {
        fill: #e2bda3;
      }

      .cls-2 {
        fill: #e2e0e0;
      }

      .cls-3 {
        fill: #2f3535;
      }

      .cls-4 {
        fill: #9e2323;
      }

      .cls-5 {
        fill: #e2e2e2;
      }

      .cls-6 {
        fill: #d8b4a0;
      }

      .cls-7 {
        fill: #e6e6e6;
      }

      .cls-8 {
        fill: #d89595;
      }

      .cls-9 {
        fill: #897263;
      }

      .cls-10 {
        fill: #3d5270;
      }

      .cls-11 {
        fill: #aaa19b;
      }
    </style>
  </defs>
  <g id="body">
    <path class="cls-1" d="M185.13,331.41c5.19,7.56,10,21.62,10.54,36.24,1,24.37-4.94,50.3-4.94,50.3-.32,6.86-4.31,15.72-3.63,18.69s5.65-9.79,5.65-9.79c-4.32,16.89-4.65,23.75-2,24.5s4-15.59,4-15.59-2.31,20.22.69,19.66c3.48-.64,4.19-18.52,4.19-18.52s-.84,16.8,1.41,17.37c3.09.78,3.4-17.22,3.4-17.22s.35,15.4,3.36,14.84,1-31.73,1-31.73c-.53-3.75,3.27-30.81,4.45-56a433.41,433.41,0,0,0-.42-44.9Z"/>
    <path class="cls-1" d="M76.56,326.14c-6.31,9.21-17.4,29.21-18.78,49.48-1.93,28.58,1.45,46.8,1.45,46.8,2.33,7.17,13.64,17.1,13.78,20.45s-9.31-4.79-9.31-4.79c9.46,16.53,9.09,18.11,6.48,19.73s-8.73-15.26-8.73-15.26,8.29,20.69,4.94,21c-3.86.41-9.78-18.3-9.78-18.3s5.74,17.53,3.52,18.83c-3.05,1.8-8.57-17.17-8.57-17.17s4.07,16.42.73,16.77-7.49-33.3-7.49-33.3c-.47-3.65-7.11-28.36-7.25-54.36-.16-30.83,8.55-63.24,8.55-63.24Z"/>
    <path class="cls-1" d="M81.61,534.75c5.2,15.12-3.17,94.13-3.17,94.13,13.67,6.25,24.72,4.35,24.72,4.35,1.52-37,17.19-103.38,17.19-103.38Z"/>
    <path class="cls-1" d="M144.69,529.15c9.43,35.48,7.94,103.75,7.94,103.75,14.07-12.39,25.46-9.19,25.46-9.19-1.48-59.09,2.14-104.33,2.14-104.33Z"/>
    <path class="cls-2" d="M152.72,623.89l0,10.3,25.57-6.63-.33-11.23C166.82,623.08,152.72,623.89,152.72,623.89Z"/>
    <path class="cls-2" d="M79.32,620.23l-.88,8.65,24.74,8,.31-9.36A76.74,76.74,0,0,1,79.32,620.23Z"/>
    <path class="cls-3" d="M63.76,653.47,50.27,664.15a28.82,28.82,0,0,0-6.22,8.31c-2.43,5.07-3.3,10.85.3,15.14,4.25,5,12.32,8.09,17.33,7.41,8.86-1.19,20.72-13.11,38-29.79,2.6-2.51,3.55-2.9,4.56-8.19.4-2.1,0-5,0-7.13-.18-8.73-.19-13.36-1.44-15.34-.43-.69-.64-1.28-2.71-2.46-3.83-2.19-5.85-1.53-15.56-4.75-2.65-.88-7,1.26-7.27,3.56-.38,3.24-.84,6.93-1,8.31C75.58,643.6,63.76,653.47,63.76,653.47Z"/>
    <path class="cls-3" d="M150.3,632.06c0,7.49-1.79,20.63-2.75,27a6.59,6.59,0,0,0,2.75,6.54,16.94,16.94,0,0,0,5,2.07,9.46,9.46,0,0,0,4.3,0c20.45-4.67,35.69-3.5,42.13-3.5,4.15,0,6.34-3.16,7.26-4.75,2.08-3.56,2.31-11.39,1.66-14.29a5.87,5.87,0,0,0-3.47-4.39,98,98,0,0,0-22.85-4.88,2.4,2.4,0,0,1-2-1.56,23.65,23.65,0,0,1-1.17-9.27,2.4,2.4,0,0,0-3.06-2.61c-9.42,3.57-20.78,5.85-25.59,6.72A2.87,2.87,0,0,0,150.3,632.06Z"/>
  </g>
  <g id="shorts">
    <path class="cls-4" d="M90.06,413.54c-16.69,28.21-24.27,100.58-25.89,118a4.61,4.61,0,0,0,3,5c16.4,4.63,46.26,1,56.92-.55a6.23,6.23,0,0,0,5-5.18,59.94,59.94,0,0,0,.65-16.63c1.56,10.2,4.7,15.81,6.74,18.5a5.66,5.66,0,0,0,3.92,2.31c21.6,2.12,47.94-5,58.54-8.19,2.77-.85,4.55-3.93,4.13-7.18-5.76-44.56-31.48-115.44-31.48-115.44Z"/>
  </g>
  <g id="t-shirt">
    <path class="cls-5" d="M161.27,248.66c16.26-.42,35.42,11.62,43.59,17.21a14.56,14.56,0,0,1,5.62,8c7.87,27.06,10,36,10.46,42.22a5.3,5.3,0,0,1-4.25,5.8c-12.29,1.58-23.58,10.35-29.08,15.3-2.35,2.12-5.83,1.27-7.18-1.79a89.2,89.2,0,0,1-3.66-9.56c-5.15,25.74,1.25,78.88,3.49,95.65.35,2.6-1.55,4.86-3.83,4.56-37-4.81-76.06-1.55-90.38,0-2.85.31-5.16-2.54-4.72-5.78,6.54-47.86-2-96.3-2-96.3a66.11,66.11,0,0,1-3.46,11.4c-1.24,3.06-4.37,4.35-7,2.8-7.69-4.58-18.71-6.94-25.35-8-3.24-.53-5.43-4-4.82-7.73,3.08-18.61,11.76-39.05,15.27-46.81a14,14,0,0,1,4.16-5.41c17.65-13.58,43-16.8,43-16.8l60.17-4.75"/>
  </g>
  <g id="neck">
    <path class="cls-6" d="M100.06,222.54c3.57,9.5,4.46,30.87,4.46,30.87,24.08,14.25,52-4.19,52-4.19-8.31-12.43-2.74-30.72-2.74-30.72C127.71,232,100.06,222.54,100.06,222.54Z"/>
  </g>
  <g id="head">
    <path class="cls-1" d="M209,131.67c0,33.59-33.61,95.16-81.53,97C80,230.39,49,179.25,43.6,139.14,36.67,87.22,57,50.5,122.06,49.65,190.14,48.76,209,65.66,209,131.67Z"/>
    <path class="cls-7" d="M92,100.94a22.61,22.61,0,0,0-6.5-1c-13.06,0-23.65,11-23.65,24.6a25.07,25.07,0,0,0,6.39,16.82c0-.39,0-.76.06-1.16C69.31,126.6,78.46,109.2,92,100.94Z"/>
    <path class="cls-7" d="M85.52,149.2c13.06,0,23.64-11,23.64-24.61A24.48,24.48,0,0,0,92,100.94c-13.56,8.26-22.71,25.66-23.7,39.31,0,.4,0,.77-.06,1.16A23.18,23.18,0,0,0,85.52,149.2Z"/>
    <path class="cls-7" d="M183.1,140.25c0,.4,0,.77.06,1.16a25.07,25.07,0,0,0,6.39-16.82C189.55,111,179,100,165.9,100a22.49,22.49,0,0,0-6.49,1C173,109.2,182.11,126.6,183.1,140.25Z"/>
    <path class="cls-7" d="M142.26,124.59c0,13.6,10.58,24.61,23.64,24.61a23.17,23.17,0,0,0,17.26-7.79c0-.39,0-.76-.06-1.16-1-13.65-10.14-31-23.69-39.31A24.47,24.47,0,0,0,142.26,124.59Z"/>
    <path class="cls-8" d="M103.94,197.2c15.06-1.12,34.54-10.87,40.33-13.93a.81.81,0,0,1,1.14,1,27.47,27.47,0,0,0-.08,14.87,1.5,1.5,0,0,1-1.23,2c-12.74,1.46-31.51-1.39-40.2-2.92A.47.47,0,0,1,103.94,197.2Z"/>
    <path class="cls-9" d="M119.76,159.59c-1.07,1.12-5.37,6.71-4.3,7.83s14,0,14-1.12-12.9,1.12-12.9,0,4.3-5.59,4.18-6.71S119.76,159.59,119.76,159.59Z"/>
    <ellipse class="cls-10" cx="91.43" cy="125.15" rx="7.52" ry="13.42"/>
    <ellipse class="cls-10" cx="159.14" cy="125.15" rx="7.52" ry="13.42"/>
    <ellipse class="cls-7" cx="91.43" cy="124.59" rx="1.07" ry="1.68"/>
    <ellipse class="cls-7" cx="156.99" cy="124.59" rx="1.07" ry="1.68"/>
  </g>
  <g id="hair">
    <path class="cls-11" d="M128.08,63.35c-38,3-90.63,42.82-103.92,53.33a1.29,1.29,0,0,1-2-1.49c6.37-20,17.18-25.07,17.18-25.07-15.72,5.46-29.77,13-31,12.19s.69-3.54,1.35-4.8c7.66-14.6,66-87.68,110.43-92.18C177.2-.43,240,70.06,251.94,91.17c.68,1.19-4.92,1-8.74-.3-8.12-2.82-24.37-10.06-24.37-10.06,4,5.32,6.69,12.63,8.07,17.06a1.61,1.61,0,0,1-2.27,1.95C162.52,64.48,128.08,63.35,128.08,63.35Z"/>
  </g>
</svg>
