<svg xmlns="http://www.w3.org/2000/svg" width="320" height="700" viewBox="0 0 320 700">
  <defs>
    <style>
      .cls-1 {
        fill: #e2bda3;
      }

      .cls-2 {
        fill: #3f4949;
      }

      .cls-3 {
        fill: #bc50a0;
      }

      .cls-4 {
        fill: #d8b4a0;
      }

      .cls-5 {
        fill: #347569;
      }

      .cls-6 {
        fill: #897263;
      }

      .cls-7 {
        fill: #db6b81;
      }

      .cls-8 {
        fill: #66524c;
      }

      .cls-9 {
        fill: #161616;
      }

      .cls-10 {
        fill: #d6d8d7;
      }

      .cls-11 {
        fill: #2a352e;
      }

      .cls-12 {
        fill: #26221d;
      }
    </style>
  </defs>
  <g id="legs">
    <path class="cls-1" d="M126,585c7.55,13.22,17,56.63,17,56.63s12.26,5.75,12.26.94c0-30.2-8.49-68-8.49-68C140.15,572.74,126,585,126,585Z"/>
    <path class="cls-1" d="M69.48,599.62c-1.91,16.88,4.65,54.66,4.65,54.66l17.48-6.58C86.5,631.93,89.23,599,89.23,599Z"/>
    <path class="cls-2" d="M90.53,644.55c-5.76,1-14.54,5.85-16.82,7.14a1,1,0,0,0-.48.95c1.51,13.15-7.61,30.63-6.68,38.06.37,3,.94,4.25,3.77,5.9s5.94,1.85,8.38-.48c7.66-7.31,13.33-24.3,19.93-38.45,2.46-5.26-5.08-11.37-7.07-12.87A1.32,1.32,0,0,0,90.53,644.55Z"/>
    <path class="cls-2" d="M141.79,638a1.77,1.77,0,0,0-1.29,1.17C138.06,646.59,138,655,139,656.88c1.5,2.79,24.46,18.1,31.53,17.89,5-.15,5.74-2,6.38-4.15s1.12-5.27-.38-8.06-15.57-13.73-17.8-17.82a9.13,9.13,0,0,1-1.36-5.28,1.39,1.39,0,0,0-1.07-1.47A32.84,32.84,0,0,0,141.79,638Z"/>
  </g>
  <g id="shorts">
    <path class="cls-3" d="M81.06,455.82a.38.38,0,0,0-.47.25c-3.18,9.6-21.7,30.41-25.37,50.61-3.64,20,11.6,94.57,12.68,99.8a.4.4,0,0,0,.36.31,65.57,65.57,0,0,0,20.7-1.9.4.4,0,0,0,.28-.32c7.25-45,8.34-68.2,8.46-76.41a.39.39,0,0,1,.77-.1c5.35,19.47,30.37,67.51,32.15,70.91a.38.38,0,0,0,.32.21c10.25.76,18.91-4.61,20.33-5.55a.38.38,0,0,0,.17-.38c-11.31-76.21-20.72-85.64-20.72-96,0-7.83,1.6-24.5,1.85-27a.38.38,0,0,0-.29-.41Z"/>
  </g>
  <g id="neck">
    <path class="cls-4" d="M108.13,303.77c10.62,38.36-7.61,70.79-7.61,70.79l37.75-4.72c-3.61-40.93,4-63.63,4-63.63Z"/>
  </g>
  <g id="hands">
    <path class="cls-1" d="M169.41,519c0-3,.94-17,.94-19.82,0-3,15.1-81.16,12.27-85.88S160,420.8,160,420.8c4.72,18.88,0,73.89,0,83.05,0,9.9-7.94,15.65-6.6,17,1.88,1.89,5.66-3.77,5.66-3.77-.95,4.72-2.83,12.27-.95,12.27s2.84-8.5,2.84-8.5-1.89,10.38,0,10.38,2.83-8.49,2.83-8.49-.95,7.55.94,7.55,1.55-8.63,1.55-8.63-1,7.2,1.28,6.74S169.41,519,169.41,519Z"/>
    <path class="cls-1" d="M47.67,394.38c-13.21,11.32-30.49,40.93-28.31,46.24,6.61,16,34.92,32.08,38.69,35.86s16,16,17,15.1-6.61-8.49-6.61-8.49,7.55,8.49,8.5,7.54-4.72-6.6-4.72-6.6,5.66,6.6,6.6,4.72-6.6-9.44-6.6-9.44,6.6,8.49,7.55,6.61-8.5-12.27-8.5-12.27c0-1.89,3.78-5.66,1.89-6.61-.84-.42-6.6,3.78-8.49.95C63,465.5,42.71,446.81,42.83,441.36s18.05-28.11,21.83-30S47.67,394.38,47.67,394.38Z"/>
  </g>
  <g id="t-shirt">
    <path class="cls-5" d="M110.66,342.35c.24,11.45,11.58,27.95,11.58,27.95,11.31-7.06,15.08-27.95,15.08-27.95,28.31,16.17,38.87,25,42.47,32.21,3.77,7.55,3.77,44.35,3.77,44.35-9.43.95-22.64,8.5-22.64,8.5C159,417,153.37,405.7,153.37,405.7c-18.36,29.94-21.71,72.67-21.71,72.67C108.73,468,75,466.1,75,466.1,86.36,437.79,76.19,404,76.19,404a86.15,86.15,0,0,0-17.67,14C55.22,405.7,42,400,42,400c12.27-24.54,18.87-34,26.42-39.64S110.66,342.35,110.66,342.35Z"/>
  </g>
  <g id="head">
    <path class="cls-1" d="M201.21,227.89c-.84,28.23-33.39,86.38-74.57,86.38s-72-48-74.58-86.38c-3.14-47.6,33.39-86.37,74.58-86.37S202.64,180.21,201.21,227.89Z"/>
    <path class="cls-6" d="M120.19,261a10.48,10.48,0,0,0-.7,3.33.84.84,0,0,0,.39.79c2.35,1.46,9.85,1.12,10.19-.32s-7.23.14-8.07-.7c-.58-.59,0-2,.49-2.78a.65.65,0,0,0-.47-1,3.43,3.43,0,0,0-1.41.24A.72.72,0,0,0,120.19,261Z"/>
    <path class="cls-7" d="M113.84,285a.16.16,0,0,0-.16.23,12.32,12.32,0,0,0,11.69,7.34c9.09,0,15.46-11.59,16.65-13.92a.17.17,0,0,0-.22-.23C126,285.08,115.61,285,113.84,285Z"/>
    <path class="cls-8" d="M144.45,204.54a.89.89,0,0,0,1.23.6c28.57-12.22,37,3.78,38.68,2.11,2.53-2.53-16-18.54-39.61-5.06C144.13,202.55,144.25,203.68,144.45,204.54Z"/>
    <path class="cls-8" d="M106.06,205.38a.88.88,0,0,1-1.22.6c-28.57-12.22-37,3.78-38.69,2.11-2.52-2.53,16-18.54,39.61-5.06C106.38,203.39,106.26,204.52,106.06,205.38Z"/>
    <path class="cls-9" d="M94.17,218.27a23.61,23.61,0,0,1-9.64-10.44.16.16,0,0,0-.28,0c-2.21,6.35-1.61,9.29-1.61,9.29a14.55,14.55,0,0,1-6.69-8,.1.1,0,0,0-.17,0c-2.94,4.42.64,10,.64,10-5.22-2.56-7.37-5.22-8-6.15-.06-.08-.2,0-.19,0a23.75,23.75,0,0,0,2.94,9.17c-5.37-1.78-7.65-3.66-8.33-4.32-.08-.07-.23,0-.21.08a32.86,32.86,0,0,0,6.31,14.48Z"/>
    <path class="cls-10" d="M80.33,234c3.14-7.39,8.1-13.12,13.5-16.34a21.27,21.27,0,0,0-5.33-.67c-11.4,0-20.65,8.86-20.65,19.8a19.64,19.64,0,0,0,9.77,16.83A35.45,35.45,0,0,1,80.33,234Z"/>
    <path class="cls-10" d="M109.15,236.74a20,20,0,0,0-15.32-19.13c-5.4,3.22-10.36,8.95-13.5,16.34a35.45,35.45,0,0,0-2.71,19.62,21.21,21.21,0,0,0,10.88,3C99.9,256.54,109.15,247.68,109.15,236.74Z"/>
    <ellipse class="cls-11" cx="93.77" cy="237.08" rx="9.69" ry="12.98"/>
    <path class="cls-9" d="M151.75,218.27a23.59,23.59,0,0,0,9.65-10.44.16.16,0,0,1,.28,0c2.21,6.35,1.61,9.29,1.61,9.29a14.46,14.46,0,0,0,6.68-8,.1.1,0,0,1,.17,0c3,4.42-.63,10-.63,10,5.22-2.56,7.36-5.22,8-6.15.05-.08.2,0,.19,0a23.68,23.68,0,0,1-2.95,9.17c5.38-1.78,7.66-3.66,8.34-4.32.08-.07.23,0,.21.08A32.86,32.86,0,0,1,177,232.39Z"/>
    <path class="cls-10" d="M165.6,234c-3.14-7.39-8.11-13.12-13.51-16.34a21.35,21.35,0,0,1,5.34-.67c11.4,0,20.64,8.86,20.64,19.8a19.63,19.63,0,0,1-9.76,16.83A35.54,35.54,0,0,0,165.6,234Z"/>
    <path class="cls-10" d="M136.78,236.74a20,20,0,0,1,15.31-19.13c5.4,3.22,10.37,8.95,13.51,16.34a35.54,35.54,0,0,1,2.71,19.62,21.24,21.24,0,0,1-10.88,3C146,256.54,136.78,247.68,136.78,236.74Z"/>
    <ellipse class="cls-11" cx="151.92" cy="237.08" rx="9.69" ry="12.98"/>
    <ellipse class="cls-10" cx="96.3" cy="233.79" rx="1.26" ry="2.11"/>
    <ellipse class="cls-10" cx="149.39" cy="233.79" rx="1.26" ry="2.11"/>
  </g>
  <g id="hair">
    <g>
      <path class="cls-8" d="M195.64,328.38a.72.72,0,0,0,1.21.74c4.22-4.57,12.45-15,11.88-26.37-.69-13.73-5-25-2.78-35.61,4.76-22.41,17.45-47.21,16.66-81.62s-27.76-58.41-52.36-66.41c0,0,15.51-1.26,26.58,6,15.86,10.4,30.14,29.61,34.11,79.22,2.26,28.32-8.33,73.21-2.78,98.82s38.51,47.92,49.58,62.81c6.88,9.24,9.34,21.45,1.72,55.91a.59.59,0,0,0,1.1.41c4.56-8.67,15.37-31.16,16.62-51.92,1.58-26.41-21.42-37.61-25.39-64.81s3.18-59.21,9.52-80.82,27.77-73.61,27.77-101.62-8.73-64-29.35-86.42-61.88-39.2-90.44-32S125,48.7,131.38,99.91l-6.34,8.8s-21.82-2.8-40.85,9.2c-18.1,11.41-18.66,30.8-32.53,45.61-13.48,14.4-34.5,26.8-40.85,50.81s23.4,44.41,27,56.81c3.3,11.46-4.22,22.34-3.22,32.41.79,8,3.19,16,23.29,28.67a.72.72,0,0,0,1-.91,75.89,75.89,0,0,1-6.13-24.48c-1-12.28,10-17.69,9.6-37.29-.31-15.28-17.85-38-5.55-52.81,18.73-22.56,84.48-24.41,109.47-56,0,0,2,9.54,9.91,23.6,9.52,16.81,23.83,16.93,24.2,37.21.4,22-10.71,30.81-9.92,48.41s7.94,19.2,9.52,32.81C201,311.52,197.55,322.93,195.64,328.38Z"/>
      <path class="cls-12" d="M121.51,108.46a2.88,2.88,0,0,1-1.37-3c1.93-9,11.51-8.91,11.51-8.91,29.51.85,44.49,13.25,48.09,16.68a2.89,2.89,0,0,1,.91,2c.06,6.69-3.79,9.67-5.54,10.69a3.67,3.67,0,0,1-1.63.47C152.8,127.56,128,112.66,121.51,108.46Z"/>
    </g>
  </g>
</svg>
