<svg xmlns="http://www.w3.org/2000/svg" width="320" height="700" viewBox="0 0 320 700">
  <defs>
    <style>
      .cls-1 {
        fill: #e2bda3;
      }

      .cls-2 {
        fill: #211f1e;
      }

      .cls-3 {
        fill: #bc50a0;
      }

      .cls-4 {
        fill: #d8b4a0;
      }

      .cls-5 {
        fill: #347569;
      }

      .cls-6 {
        fill: #897263;
      }

      .cls-7 {
        fill: #db6b81;
      }

      .cls-8 {
        fill: #66524c;
      }

      .cls-9 {
        fill: #161616;
      }

      .cls-10 {
        fill: #d6d8d7;
      }

      .cls-11 {
        fill: #2a352e;
      }

      .cls-12 {
        fill: #26221d;
      }
    </style>
  </defs>
  <g id="hands">
    <path class="cls-1" d="M126.07,582.24c7.64,13.08,17.2,56.06,17.2,56.06s12.43,5.7,12.43.94c0-29.9-8.6-67.27-8.6-67.27C140.41,570.1,126.07,582.24,126.07,582.24Z"/>
    <path class="cls-1" d="M68.82,596.71c-1.93,16.71,4.71,54.12,4.71,54.12l17.7-6.51c-5.17-15.62-2.4-48.22-2.4-48.22Z"/>
    <path class="cls-2" d="M90.14,641.19c-5.83,1-14.72,5.8-17,7.07a1,1,0,0,0-.49,1c1.53,13-7.71,30.32-6.77,37.68.38,2.93,1,4.21,3.82,5.84s6,1.83,8.49-.48c7.76-7.23,13.5-24,20.19-38.06,2.49-5.21-5.15-11.26-7.17-12.74A1.38,1.38,0,0,0,90.14,641.19Z"/>
    <path class="cls-2" d="M142.07,634.76a1.78,1.78,0,0,0-1.32,1.15c-2.47,7.3-2.58,15.63-1.55,17.5,1.52,2.76,24.77,17.92,31.93,17.71,5.06-.15,5.82-2,6.47-4.11s1.13-5.22-.39-8-15.77-13.6-18-17.64a8.88,8.88,0,0,1-1.38-5.23,1.38,1.38,0,0,0-1.08-1.46A33.78,33.78,0,0,0,142.07,634.76Z"/>
    <path class="cls-3" d="M80.55,454.34a.38.38,0,0,0-.47.25c-3.22,9.5-22,30.11-25.7,50.11-3.69,19.83,11.75,93.63,12.84,98.81a.4.4,0,0,0,.37.3,67.76,67.76,0,0,0,21-1.88.37.37,0,0,0,.28-.31C96.18,557,97.28,534.1,97.41,526a.4.4,0,0,1,.78-.1c5.41,19.29,30.76,66.85,32.56,70.21a.38.38,0,0,0,.32.21c10.39.76,19.16-4.56,20.6-5.49a.38.38,0,0,0,.17-.38c-11.46-75.46-21-84.79-21-95.06,0-7.75,1.62-24.25,1.88-26.77a.4.4,0,0,0-.3-.41Z"/>
    <path class="cls-4" d="M108,303.81c10.75,38-7.71,70.08-7.71,70.08l38.23-4.67c-3.65-40.53,4.07-63,4.07-63Z"/>
    <path class="cls-1" d="M170,516.84c0-3,1-16.81,1-19.62s15.3-80.35,12.43-85-22.94,7.47-22.94,7.47c4.78,18.69,0,73.16,0,82.22,0,9.8-8,15.5-6.69,16.82,1.91,1.87,5.73-3.74,5.73-3.74-1,4.68-2.87,12.15-1,12.15s2.86-8.41,2.86-8.41-1.91,10.28,0,10.28,2.87-8.41,2.87-8.41-1,7.47,1,7.47,1.56-8.54,1.56-8.54-.95,7.13,1.3,6.68S170,516.84,170,516.84Z"/>
    <path class="cls-1" d="M46.73,393.51C33.35,404.73,15.84,434,18.06,439.3c6.69,15.88,35.36,31.76,39.19,35.5s16.25,15.88,17.2,14.95-6.69-8.41-6.69-8.41,7.65,8.41,8.6,7.47-4.77-6.54-4.77-6.54,5.73,6.54,6.69,4.67-6.69-9.34-6.69-9.34,6.69,8.41,7.64,6.54S70.63,472,70.63,472c0-1.87,3.82-5.61,1.91-6.54-.85-.42-6.69,3.73-8.6.93-1.68-2.46-22.23-21-22.11-26.36s18.29-27.83,22.11-29.7S46.73,393.51,46.73,393.51Z"/>
    <path class="cls-5" d="M110.53,342c.24,11.33,11.73,27.67,11.73,27.67,11.45-7,15.28-27.67,15.28-27.67,28.67,16,39.37,24.76,43,31.88,3.82,7.48,3.82,43.92,3.82,43.92-9.55.93-22.94,8.4-22.94,8.4-1.91-10.27-7.64-21.48-7.64-21.48-18.6,29.64-22,71.94-22,71.94-23.23-10.32-57.35-12.15-57.35-12.15,11.47-28,1.17-61.44,1.17-61.44a86.33,86.33,0,0,0-17.89,13.83C54.38,404.73,41,399.12,41,399.12c12.42-24.29,19.12-33.64,26.76-39.24S110.53,342,110.53,342Z"/>
    <path class="cls-1" d="M202.25,228.69c-.85,27.94-33.82,85.51-75.54,85.51s-73-47.55-75.53-85.51C48,181.56,85,143.17,126.71,143.17S203.69,181.48,202.25,228.69Z"/>
    <path class="cls-6" d="M120.18,262.41a10.61,10.61,0,0,0-.71,3.3.89.89,0,0,0,.4.79c2.38,1.44,10,1.1,10.32-.33s-7.32.14-8.17-.69c-.59-.58,0-2,.5-2.75a.64.64,0,0,0-.49-1,3.48,3.48,0,0,0-1.42.24A.75.75,0,0,0,120.18,262.41Z"/>
    <path class="cls-7" d="M111.29,281.8a.27.27,0,0,0-.39.34c2.11,4.29,7.93,11,14.53,10.93,8.44,0,15.66-10.83,17.94-14.64a.27.27,0,0,0-.41-.35C127.88,290.16,114.57,283.72,111.29,281.8Z"/>
    <path class="cls-8" d="M144.76,205.56a.91.91,0,0,0,1.24.6c28.94-12.1,37.49,3.74,39.18,2.09,2.56-2.51-16.22-18.36-40.12-5C144.44,203.59,144.56,204.71,144.76,205.56Z"/>
    <path class="cls-8" d="M105.87,206.4a.9.9,0,0,1-1.24.59c-28.94-12.09-37.49,3.74-39.18,2.09-2.56-2.5,16.22-18.35,40.12-5C106.2,204.42,106.07,205.55,105.87,206.4Z"/>
    <path class="cls-9" d="M93.83,219.16a23.67,23.67,0,0,1-9.77-10.33.16.16,0,0,0-.28,0c-2.23,6.27-1.63,9.19-1.63,9.19a14.41,14.41,0,0,1-6.77-7.9.1.1,0,0,0-.17,0c-3,4.37.64,9.85.64,9.85-5.28-2.53-7.46-5.16-8.1-6.09a.11.11,0,0,0-.2.06,23.19,23.19,0,0,0,3,9.07c-5.44-1.77-7.76-3.63-8.45-4.27-.08-.08-.22,0-.21.07a32.26,32.26,0,0,0,6.39,14.34Z"/>
    <path class="cls-10" d="M79.81,234.68c3.18-7.31,8.21-13,13.68-16.18a22.37,22.37,0,0,0-5.4-.66c-11.55,0-20.91,8.78-20.91,19.61a19.34,19.34,0,0,0,9.88,16.65A34.47,34.47,0,0,1,79.81,234.68Z"/>
    <path class="cls-10" d="M109,237.45c0-9.08-6.58-16.71-15.51-18.95C88,221.69,83,227.37,79.81,234.68a34.47,34.47,0,0,0-2.75,19.42,21.82,21.82,0,0,0,11,3C99.64,257.05,109,248.27,109,237.45Z"/>
    <ellipse class="cls-11" cx="93.43" cy="237.78" rx="9.82" ry="12.85"/>
    <path class="cls-9" d="M152.16,219.16a23.67,23.67,0,0,0,9.77-10.33.15.15,0,0,1,.27,0c2.24,6.27,1.63,9.19,1.63,9.19a14.4,14.4,0,0,0,6.78-7.9.1.1,0,0,1,.17,0c3,4.37-.65,9.85-.65,9.85,5.29-2.53,7.47-5.16,8.11-6.09a.1.1,0,0,1,.19.06,23.08,23.08,0,0,1-3,9.07c5.44-1.77,7.76-3.63,8.44-4.27.08-.08.23,0,.22.07a32.26,32.26,0,0,1-6.39,14.34Z"/>
    <path class="cls-10" d="M166.18,234.68c-3.18-7.31-8.21-13-13.68-16.18a22.25,22.25,0,0,1,5.4-.66c11.55,0,20.91,8.78,20.91,19.61a19.34,19.34,0,0,1-9.88,16.65A34.47,34.47,0,0,0,166.18,234.68Z"/>
    <path class="cls-10" d="M137,237.45c0-9.08,6.58-16.71,15.51-18.95,5.47,3.19,10.5,8.87,13.68,16.18a34.47,34.47,0,0,1,2.75,19.42,21.84,21.84,0,0,1-11,3C146.35,257.05,137,248.27,137,237.45Z"/>
    <ellipse class="cls-11" cx="152.32" cy="237.78" rx="9.82" ry="12.85"/>
    <ellipse class="cls-10" cx="95.99" cy="234.53" rx="1.28" ry="2.09"/>
    <ellipse class="cls-10" cx="149.76" cy="234.53" rx="1.28" ry="2.09"/>
    <g>
      <path class="cls-8" d="M196.6,328.18a.73.73,0,0,0,1.23.73c4.27-4.53,12.61-14.88,12-26.12-.7-13.58-5.1-24.73-2.81-35.25,4.82-22.18,17.68-46.74,16.87-80.8s-28.12-57.83-53-65.75c0,0,15.71-1.25,26.92,5.94,16.07,10.3,30.53,29.31,34.55,78.42,2.29,28-8.44,72.49-2.81,97.84s39,47.45,50.21,62.19c7,9.15,9.46,21.24,1.75,55.35a.59.59,0,0,0,1.1.41c4.63-8.58,15.57-30.85,16.84-51.41,1.6-26.14-21.7-37.23-25.71-64.16s3.21-58.63,9.64-80S311.5,152.67,311.5,125s-8.84-63.38-29.73-85.56S219.1.57,190.18,7.7,125.1,51.27,131.52,102l-6.42,8.72s-22.1-2.78-41.38,9.11C65.38,131.09,64.82,150.29,50.77,165,37.12,179.21,15.82,191.49,9.4,215.26s23.7,44,27.31,56.24c3.35,11.35-4.27,22.12-3.26,32.09.8,7.92,3.24,15.84,23.59,28.38a.73.73,0,0,0,1.07-.9,73.91,73.91,0,0,1-6.22-24.23c-1-12.16,10.13-17.51,9.73-36.92-.31-15.13-18.08-37.63-5.62-52.29,19-22.33,85.57-24.16,110.88-55.45,0,0,2,9.44,10,23.37,9.64,16.64,24.13,16.76,24.5,36.84.41,21.78-10.84,30.5-10,47.92s8,19,9.64,32.48C202.06,311.48,198.54,322.78,196.6,328.18Z"/>
      <path class="cls-12" d="M121.52,110.44a2.83,2.83,0,0,1-1.38-3c2-8.9,11.65-8.82,11.65-8.82,29.89.84,45.06,13.11,48.71,16.51a2.8,2.8,0,0,1,.92,2c.06,6.61-3.84,9.57-5.61,10.57a3.86,3.86,0,0,1-1.65.48C153.22,129.35,128.13,114.6,121.52,110.44Z"/>
    </g>
  </g>
</svg>
