<svg xmlns="http://www.w3.org/2000/svg" xmlns:xlink="http://www.w3.org/1999/xlink" width="650" height="216" viewBox="0 0 650 216">
  <defs>
    <style>
      .cls-1 {
        fill: url(#linear-gradient);
      }

      .cls-2 {
        fill: url(#linear-gradient-2);
      }

      .cls-3 {
        fill: #fff;
      }
    </style>
    <linearGradient id="linear-gradient" x1="324.56" y1="-12.4" x2="325.47" y2="233.59" gradientUnits="userSpaceOnUse">
      <stop offset="0" stop-color="#ef7b1b"/>
      <stop offset="1" stop-color="#bc4206"/>
    </linearGradient>
    <linearGradient id="linear-gradient-2" x1="325.95" y1="209.46" x2="324.12" y2="12.01" xlink:href="#linear-gradient"/>
  </defs>
  <g id="instructions">
    <polygon class="cls-1" points="579.82 213.5 476.98 194.48 403.08 213.5 376.42 206.37 246.15 213.5 145.6 196.26 73.23 213.5 23.71 192.7 35.14 137.42 0.86 95.22 12.28 48.86 67.89 8.44 128.08 7.85 185.21 18.55 275.1 6.07 321.57 20.93 425.94 2.5 515.07 17.95 583.63 8.44 630.1 38.16 612.58 89.28 649.14 117.81 639.24 179.62 579.82 213.5"/>
    <polygon class="cls-2" points="558.26 195.37 464.12 179.62 396.48 195.37 372.07 189.47 252.82 195.37 160.78 181.1 94.53 195.37 49.2 178.14 59.66 132.37 28.28 97.42 38.74 59.02 89.65 25.55 144.74 25.06 197.04 33.92 279.32 23.58 321.86 35.89 417.4 20.63 498.99 33.43 561.75 25.55 604.28 50.16 588.25 92.5 621.72 116.12 612.65 167.31 558.26 195.37"/>
    <g>
      <path class="cls-3" d="M182.55,94.23l-8.05-.87a1.76,1.76,0,0,1-1.78-2L174,86.7c0-2.57-1.56-3-1.95-3.74a2.11,2.11,0,0,0-2-1.06,2.49,2.49,0,0,0-2.29,1.42c-.52,1-.05,2.58-.78,4.32a9.12,9.12,0,0,0,.47,7.06c.55,1.26,4.35,5.3,7,7.07,9.42,5.65,10.82,5,12.31,8.55,4.07,9.81,3.25,9.6,3.25,16.88a24.44,24.44,0,0,1-2,10.63c-1.08,2.51-.5,5.38-6.24,6.3-3.38.55-6.67,2.55-10.76,2.55-4.49,0-6.53-1.05-9.71-3s-7.05-4.38-8-7.41.25-3.89-1.38-10.49l.82-2.82c0-1.21,1.4-2.83,2.45-2.83l7.37-1.41c1.05,0,3.28,1.62,3.28,2.82l1.57,6c1.3,3.4.22,4.57.66,5.36a2.43,2.43,0,0,0,2.33,1.2,2.65,2.65,0,0,0,2.49-1.52,9.6,9.6,0,0,0,.82-4.49q0-6.56-1.55-8.57c-1.07-1.35-4.27-3.65-6.73-7.41-3-4.61-8.06-4.82-9.42-6.25a16.75,16.75,0,0,1-3.37-6c-.89-2.54.5-6.46.5-10.4,0-5.68.38-8.2,1.64-10.83A10.81,10.81,0,0,1,160,73c2.81-1.48,5.43-3.7,9.41-3.7,4.36,0,5.94-.27,9,1.34a14.24,14.24,0,0,1,6.15,7.07c1,2.46,3.68,3,3.68,9l-1.23,5.18C187.05,93.09,183.6,94.23,182.55,94.23Z"/>
      <path class="cls-3" d="M557.06,94.23l-8-.87a1.76,1.76,0,0,1-1.78-2l1.23-4.71c0-2.57-1.55-3-2-3.74a2.1,2.1,0,0,0-2-1.06,2.5,2.5,0,0,0-2.3,1.42c-.51,1-.05,2.58-.77,4.32-1.18,2.82-.12,5.81.46,7.06s4.36,5.3,7,7.07c9.42,5.65,10.83,5,12.31,8.55,4.07,9.81,3.25,9.6,3.25,16.88a24.44,24.44,0,0,1-2,10.63c-1.07,2.51-.49,5.38-6.23,6.3-3.39.55-6.67,2.55-10.77,2.55-4.49,0-6.53-1.05-9.7-3s-7-4.38-8-7.41.26-3.89-1.38-10.49l.82-2.82c0-1.21,1.4-2.83,2.46-2.83l7.37-1.41c1,0,3.27,1.62,3.27,2.82l1.58,6c1.29,3.4.21,4.57.65,5.36a2.44,2.44,0,0,0,2.34,1.2,2.67,2.67,0,0,0,2.49-1.52,9.75,9.75,0,0,0,.81-4.49c0-4.37-.51-7.23-1.55-8.57s-4.27-3.65-6.73-7.41c-3-4.61-8.06-4.82-9.42-6.25a16.74,16.74,0,0,1-3.36-6c-.89-2.54.5-6.46.5-10.4,0-5.68.37-8.2,1.64-10.83A10.79,10.79,0,0,1,534.54,73c2.82-1.48,5.43-3.7,9.42-3.7,4.36,0,5.94-.27,9,1.34a14.22,14.22,0,0,1,6.14,7.07c1,2.46,3.68,3,3.68,9l-1.22,5.18C561.57,93.09,558.11,94.23,557.06,94.23Z"/>
      <path class="cls-3" d="M229.42,75.49l1.05,8.17c0,1.21-2,6-3.09,6l-4.92-1.88c-.69-.65-3.4,1.14-4.09,13.65-.31,5.55,1.22,11.78.82,23.55l.81,9.89c0,1.21,1.64,7.06-2,9.42l-12.33,1c-1.06,0-3.23-4.74-2-9.92l.82-16.48,2.46-13.66c1.64-6.12-1.23-17-4.5-16.48l-5.74,1.88c-1.23-.47-2.86-5.69-2.86-6.9V75.49c0-1.21,2.22-4.71,3.27-4.71l16,1.42,12.29-1.42C226.38,70.78,228.6,71.72,229.42,75.49Z"/>
      <path class="cls-3" d="M237,87.27c0-2.26-.2-6.79.82-9.89.88-2.67,1.48-5.47,4.5-6.13l8.19,1c7.92,0,11.31-1.32,14.11-.62s4.19,4.32,6,7.21a19.51,19.51,0,0,1,3.55,12c0,5.77-.63,9.66-1.87,11.64a5.91,5.91,0,0,1-1.53,1.63c-1.44,1.07-7.15,2.67-2.2,4.87a20.14,20.14,0,0,1,3.28,1.88c1.14,1.59,1.36,4.79,1.64,6.12s0,4.85,0,10.84l1.63,11.77c0,1.58,0,5.18-3.43,5.21l-9.26-1c-1.37,0-3.85-.31-3.85-1.89l1.39-6.59c0-4,0-17-2.2-22.6-.12-.3-1.89-2.36-3.12-1.42-1.7,1.31-3.28,9-2.87,11.3l1.64,12.25c0,1.58,0,9.89-2.42,9.92l-10.68-1c-2.87.47-3.69-6-3.69-7.54l1.64-17.42-.54-13.37.54-6.88Zm16.44-.71-2.11,8.24c0,2,1.64,8,5.39,4.43.22-.21.49-.24.69-.4.75-.59,3.09-.85,1.7-4.5l-1.63-4.71c-.41-3.3,1.22-3.3,0-5.3a1.12,1.12,0,0,0-.2-.17C255.66,82.86,253.45,84.31,253.45,86.56Z"/>
      <path class="cls-3" d="M405.64,74.08l1.23,9c0,1.21-1.82,6.59-2.87,6.59l-5.32-1.88a2.71,2.71,0,0,0-2.46,2.35l-.82,4.24.72,15.9-.72,11.88.72,10.24.92,8.13c0,1.21-1.77,4.74-2.83,4.74l-9,0c-1.05,0-5.73-2.56-5.73-3.77l.82-9.89-.82-17.42,1.64-10.83-1.64-13.19c0-1.21-1.82-2.82-2.87-2.82l-5.32,2.82c-1.05,0-1.83-5.22-1.83-6.43l1-8.64c0-1.21,2.23-3.3,3.28-3.3l6.78-.72,10,1.2L395,71l7.35-.22C403.41,70.78,405.64,72.87,405.64,74.08Z"/>
      <path class="cls-3" d="M101.81,73.55v8.82l-.87,12.22.87,24.63-.87,8.68.87,14.55a2.46,2.46,0,0,1-2.22,2.63l-8.28-.53-3.59.53a2.45,2.45,0,0,1-2.22-2.63l.62-20.69-.62-12.23.62-18.45L85.5,73.55a2.45,2.45,0,0,1,2.22-2.63l3.59,1.76,8.28-1.76A2.46,2.46,0,0,1,101.81,73.55Z"/>
      <path class="cls-3" d="M430.61,73.55v8.82l-.86,12.22.86,24.63-.86,8.68.86,14.55a2.46,2.46,0,0,1-2.22,2.63l-8.28-.53-3.59.53a2.46,2.46,0,0,1-2.22-2.63l.62-20.69-.62-12.23.62-18.45-.62-17.53a2.46,2.46,0,0,1,2.22-2.63l3.59,1.76,8.28-1.76A2.46,2.46,0,0,1,430.61,73.55Z"/>
      <path class="cls-3" d="M143.6,71.35a1.79,1.79,0,0,1,1.61,1.93L144,89.93a9.86,9.86,0,0,0,.06,1.88l1,7.31a9.31,9.31,0,0,1,.06,1.83L144,118.62a11.1,11.1,0,0,0,0,1.29l1.18,15.42c0,.23,0,.46,0,.7v6.69a1.79,1.79,0,0,1-1.61,1.93l-4.32-.48a5.91,5.91,0,0,0-1,0l-5.79.49a1.67,1.67,0,0,1-1.54-1.38l-.94-7.18a8.31,8.31,0,0,0-.38-1.64l-3-9a7.63,7.63,0,0,0-1.57-2.75c-2.46-2.73-2-.09-2,1.88l.2,4.16c0,.2,0,.4,0,.6L123,142.72a1.79,1.79,0,0,1-1.61,1.93l-5.73-.48a5.28,5.28,0,0,0-1.19,0l-3.17.45a1.79,1.79,0,0,1-1.61-1.93l.91-20.37q0-.42,0-.84L109.7,103a9.32,9.32,0,0,1,0-1.4l.79-7.38a9.09,9.09,0,0,0,0-1.38l-.9-19.56a1.79,1.79,0,0,1,1.61-1.93l3.61.71a5.19,5.19,0,0,0,1.8,0l5.12-.75a1.68,1.68,0,0,1,1.53,1.33l.5,6.28a9,9,0,0,0,.54,2.42l3.27,8.6,1.11,2.75c3.16,7.5,3.15,2.21,3.14-.22,0-.25,0-.49,0-.74l.83-10.58a9.47,9.47,0,0,0,0-1.92l-.81-6a1.79,1.79,0,0,1,1.61-1.93l6.28.74a5.28,5.28,0,0,0,2.36-.25Z"/>
      <path class="cls-3" d="M517.87,71.35a1.79,1.79,0,0,1,1.61,1.93l-1.19,16.65a8.45,8.45,0,0,0,.06,1.88l1,7.31a8.6,8.6,0,0,1,.07,1.83l-1.16,17.67a11.1,11.1,0,0,0,0,1.29l1.18,15.42c0,.23,0,.46,0,.7v6.69a1.79,1.79,0,0,1-1.61,1.93l-4.32-.48a5.91,5.91,0,0,0-1,0l-5.79.49a1.68,1.68,0,0,1-1.55-1.38l-.93-7.18a8.31,8.31,0,0,0-.38-1.64l-3-9a7.78,7.78,0,0,0-1.57-2.75c-2.46-2.73-2.05-.09-2.05,1.88l.2,4.16c0,.2,0,.4,0,.6l-.21,13.39a1.8,1.8,0,0,1-1.61,1.93l-5.73-.48a5.28,5.28,0,0,0-1.19,0l-3.17.45a1.8,1.8,0,0,1-1.62-1.93l.92-20.37q0-.42,0-.84L484,103a9.32,9.32,0,0,1,0-1.4l.79-7.38a10.6,10.6,0,0,0,0-1.38l-.91-19.56a1.8,1.8,0,0,1,1.62-1.93l3.61.71a5.18,5.18,0,0,0,1.8,0l5.11-.75a1.68,1.68,0,0,1,1.54,1.33l.5,6.28a9,9,0,0,0,.54,2.42l3.27,8.6L503,92.73c3.16,7.5,3.15,2.21,3.14-.22,0-.25,0-.49,0-.74L507,81.19a9.47,9.47,0,0,0,0-1.92l-.81-6a1.79,1.79,0,0,1,1.61-1.93l6.28.74a5.28,5.28,0,0,0,2.36-.25Z"/>
      <path class="cls-3" d="M364.33,100.51a2.62,2.62,0,0,1-2.36,2.82l-4.09-2.4-6.91,2.4a2.62,2.62,0,0,1-2.36-2.82l1.45-7.24a33.37,33.37,0,0,0-1.95-9.37,2.12,2.12,0,0,0-2.22-1.36,2.3,2.3,0,0,0-2.47,1.66,19.49,19.49,0,0,0-1.89,7.15,1.61,1.61,0,0,0,0,.22l1.37,13.13.75,9.6a4.34,4.34,0,0,1,0,.51l-.74,10a2.44,2.44,0,0,0,0,.27,27.94,27.94,0,0,0,.52,6.75,2.24,2.24,0,0,0,2.36,1.61,2.2,2.2,0,0,0,2.29-1.61c.36-1.08.54-3.6.54-7.58V118a2.63,2.63,0,0,1,2.36-2.83l3.36,1.94,7.64-1.94a2.63,2.63,0,0,1,2.36,2.83h0c0,7.49-.59,13-1.47,16.13s-4.09,3.6-7.11,6-5.36,5.62-9.79,5.62q-6.9,0-11.38-3c-3-2-3.45-6.75-4.42-10.28s-3-6.85-3-14V102.61a2.36,2.36,0,0,1,0-.38l.8-7c0-.14,0-.28,0-.41,0-5-.69-6.59-.4-9.17a18.31,18.31,0,0,1,2.67-7.53c1.48-2.41,3.63-3,6.26-4.37s5.55-3.41,8.95-3.41c4.63,0,7.23,2.12,10.24,4.26s6.21,3.77,7.16,7,1.42,8.18,1.42,14.93Z"/>
      <path class="cls-3" d="M475.88,114.91c0,7.43-.23,12.94-.52,16a18.48,18.48,0,0,1-2.73,8.23,15.76,15.76,0,0,1-6.36,5.89c-2.67,1.37-5.89.67-9.44.67-3.38,0-6.31.74-9-.55a15.54,15.54,0,0,1-6.48-5.82c-1.64-2.59-1.27-5.37-1.58-8.42s-1.81-8.4-1.81-16v-6.23L439,96.16c0-7.43-.92-6.58-.62-9.67a19.54,19.54,0,0,1,2.8-8.47c1.57-2.56,4.78-4,7.45-5.34s4.7-2.61,8.26-2.61c3.37,0,6.11,1.32,8.79,2.61s5.14,2.57,6.78,5.15a19.49,19.49,0,0,1,2.92,8.45,114.83,114.83,0,0,1,1.42,16ZM459.49,90.62A27.1,27.1,0,0,0,459,84a2,2,0,0,0-2-1.44,2.15,2.15,0,0,0-2,1.17c-.46.77-1.18,1.64-1.18,5.45l.5,5.79-1.24,13.34,1.16,10.21a30,30,0,0,1,.15,4.93,51.41,51.41,0,0,0,.37,9.62,2,2,0,0,0,2.09,1.51,2.07,2.07,0,0,0,2.14-1.74,23,23,0,0,0,1.5-8l-1-15.39.86-8.85a16.77,16.77,0,0,0-.05-3.68Z"/>
      <path class="cls-3" d="M312.31,71.78a3.76,3.76,0,0,1,2.3.11,5.26,5.26,0,0,1,3,5L317,94a6.33,6.33,0,0,0,0,.87l2,20a6.62,6.62,0,0,1,0,.77c-.08,5.37-1.64,12.88-1.94,15a16.85,16.85,0,0,1-2.64,6.74c-1.47,2.3-3.63,3.57-6,4.76a18,18,0,0,1-8.26,2.26,26.55,26.55,0,0,1-10.83-2.26c-2.75-1.41-3.53-3.1-4.89-5.36s-1.22-5.58-1.47-8.09a95.09,95.09,0,0,1-1.33-14.46,7.7,7.7,0,0,1,.05-.83l2.24-18.12a5.93,5.93,0,0,0,0-1.63l-2.28-16.76a5.45,5.45,0,0,1,2.12-4.43,4,4,0,0,1,3.38-.57l1.19.31a4.06,4.06,0,0,0,2,0l1.63-.39a3.83,3.83,0,0,1,2.32.11,5.27,5.27,0,0,1,3,5v7.28a5.12,5.12,0,0,0,0,.56l1.47,16.6a6,6,0,0,1,0,1l-1,10.52c0,.12-1.06,8.44-1.07,8.56a57.17,57.17,0,0,0,1,9.68,1.7,1.7,0,0,0,1.73,1.3,1.83,1.83,0,0,0,1.92-1.43,58.25,58.25,0,0,0,1.7-10.37,5.7,5.7,0,0,0,0-.82L302,108.55a6.42,6.42,0,0,1,0-1.16l1.18-14.9a5.91,5.91,0,0,0,0-1L302,76.84a5.57,5.57,0,0,1,1.71-4.09,4,4,0,0,1,3.84-.89l1.08.29a4.31,4.31,0,0,0,2,0Z"/>
    </g>
  </g>
</svg>
