<svg id="logo" xmlns="http://www.w3.org/2000/svg" width="1023" height="403" viewBox="0 0 1023 403">
  <defs>
    <style>
      .cls-1 {
        fill: #020202;
      }

      .cls-2 {
        fill: #fafcfa;
      }

      .cls-3 {
        fill: #d30202;
      }
    </style>
  </defs>
  <g>
    <rect class="cls-1" x="14" y="15" width="994" height="119" rx="3.63"/>
    <g>
      <path class="cls-2" d="M105.57,57.41c0,.64-.52,1-1.55,1q-2.67,0-21.16-.72-.42,12.17-.42,17,0,5.69.67,17.08t.67,17.08c0,.62-.21,1-.63,1.16a13.4,13.4,0,0,1-2,.24q-4.23.39-12.38.39-9.06,0-12.72-.39c-1.31-.16-2-.66-2-1.49q0-5.69.71-17t.7-17q0-3.75-.56-16.74-14.07,1-22.43,1c-.75,0-1.12-.16-1.12-.48a19.8,19.8,0,0,1,1-3.71c.75-2.24,1.17-3.61,1.27-4.09.14-1.5.3-3,.49-4.52.33-2.41.89-3.61,1.69-3.61l1,.05q11.38,1,33.67,1,6.33,0,23.34-.91l9.21-.48a5.52,5.52,0,0,1,1.62.12c.14.08.23.39.28.93,0,.87,0,2.07-.14,3.61-.1,1.7-.14,2.91-.14,3.61a20.5,20.5,0,0,0,.45,3.54A19.54,19.54,0,0,1,105.57,57.41Z"/>
      <path class="cls-2" d="M208,108.7c0,.67-.21,1.09-.63,1.25a7.54,7.54,0,0,1-2,.24c-2.86.19-6.88.29-12.09.29q-11,0-13-.29c-1.29-.19-1.93-.62-1.93-1.3q0-3.8.53-11.43T179.46,86c0-1.25-.51-2-1.54-2.17q-2.4-.39-17-.38t-17.16.38c-1,.16-1.54.88-1.54,2.17,0,2.5.11,6.24.35,11.23s.35,8.73.35,11.24c0,1-.63,1.52-1.9,1.68q-2.25.28-13.21.29-9.49,0-12.09-.29c-1.36-.16-2-.66-2-1.49,0-3.47.24-8.69.74-15.69s.73-12.23.73-15.73q0-5.58-.7-16.77t-.7-16.77c0-.7.49-1.06,1.47-1.06q2.19,0,6.58.15c2.92.09,5.12.14,6.57.14s3.76,0,6.78-.14,5.29-.15,6.79-.15c.79,0,1.19.29,1.19.87,0,2.4-.26,6-.77,10.8s-.78,8.4-.78,10.8c0,1.13.45,1.78,1.34,2q1.83.38,18,.38c10,0,15.84-.13,17.43-.38a1.82,1.82,0,0,0,1.69-2c0-2.31-.17-5.79-.5-10.46S179,46.52,179,44.17c0-1,.59-1.49,1.76-1.49q2,0,6.22.15t6.29.14c1.36,0,3.44,0,6.22-.14s4.89-.15,6.3-.15,2,.39,2,1.16q0,5.53-.66,16.69t-.67,16.75q0,5.25.74,15.73C207.76,100,208,105.23,208,108.7Z"/>
      <path class="cls-2" d="M293.5,95.23a43.46,43.46,0,0,1-1.2,7.6q-1.26,6-2.25,7.17a3,3,0,0,1-2.32.91c-.42,0-1.12,0-2.1-.14q-5.14-.48-29.95-.48-5.42,0-16.1-.05t-16,0c-1.54,0-2.32-.46-2.32-1.4q0-5.39.88-16.19T223,76.41q0-5.47-.84-20.45-.21-3.84-.78-11.5l-.07-.67c-.09-.74.5-1.11,1.76-1.11q5.2,0,15.64.19t15.64.2q5.13,0,15.47-.2t15.46-.19q3.66,0,4.22,1.88a59.05,59.05,0,0,1,1.09,6.71q.74,5.61.74,6.81c0,.67-.47,1-1.41,1L288.44,59q-18.7-1-33.6-1.06c-2.49,0-4,.4-4.57,1.21a10.32,10.32,0,0,0-.35,3.7c0,2.18.46,3.63,1.4,4.33s2.32.92,4.57.92c.47,0,1.38,0,2.74-.08S261.12,68,262,68q8.85,0,17.92-.33l3.87-.24c1.59-.13,2.86-.2,3.79-.2,1.13,0,1.69.37,1.69,1.11q0-1-1.26,7.36a52.51,52.51,0,0,0-.57,7.7q0,1-2,1l-6.32-.48q-4-.28-18.28-.29h-7.45c-1.92,0-3.05.32-3.37,1a27.78,27.78,0,0,0-.07,3c0,2.44.23,4,.7,4.71q1.19,1.83,9,2.17h10.26q3.72,0,11.07-.46c4.9-.3,8.57-.46,11-.46C293,93.49,293.5,94.07,293.5,95.23Z"/>
      <path class="cls-2" d="M423.79,109.71q0,.33-1.41.48-2.67.28-13.43.29-9.21,0-12.51-.29a11.24,11.24,0,0,1-1.76-.24,2.44,2.44,0,0,1-1-1c-.7-1.25-1.74-3.11-3.09-5.58q-2.75-4.81-8.58-14.2-1.26-1.87-5.84-2.07,2.12.1-7.24.1c-.7,0-1.05.82-1.05,2.45a79,79,0,0,0,.88,9.77,81.09,81.09,0,0,1,.88,9.77c0,.54-.21.86-.64,1l-2,.1q-4.15.19-12.94.19-10,0-12.09-.29c-1.36-.19-2-.69-2-1.49q0-5.3.74-16t.74-16a289.82,289.82,0,0,0-1.34-31.76l-.07-.67c0-.54.69-.91,2.22-1.11s8.68-.38,21.47-.57q13-.2,20.74-.2,16,0,26.15,5,11.46,5.58,11.46,16.12,0,7-3,11.21t-10.9,8.13c-1.08.52-1.62,1-1.62,1.45q0-.06,8.58,12.07T423.79,109.71ZM394.26,66.55c0-3.91-1.87-6.63-5.62-8.13q-4.36-1.74-13.64-1.74-6.67,0-7.1,1.4-.42,1.64-.42,9.43c0,.74,0,1.83.07,3.27s.07,2.52.07,3.23q0,.24,2.25.48a89.32,89.32,0,0,0,9,.43Q394.26,74.92,394.26,66.55Z"/>
      <path class="cls-2" d="M516.24,86.57q0,12.27-4.29,16.74-7.87,8.18-39.3,8.18-14.19,0-21.86-1.49-12.23-2.41-15.88-9.19-1.83-3.33-1.83-11.84,0-2,.21-5.87t.21-5.82q0-5.58-.77-16.75T432,43.84c0-.77.49-1.16,1.48-1.16q4.29,0,13,.24t13,.24c1.17,0,1.76.36,1.76,1.06q0,6.36-.6,19t-.6,19q0,7.56,2.32,10.2,3.09,3.61,12.94,3.61,14.4,0,14.41-9.57,0-7-.5-20.93t-.49-20.93c0-1,.59-1.5,1.76-1.5,2.76,0,6.94-.08,12.51-.24s9.75-.24,12.51-.24c1.36,0,2,.39,2,1.16q0,5.53-.66,16.69t-.67,16.75c0,1,0,2.57.07,4.64S516.24,85.54,516.24,86.57Z"/>
      <path class="cls-2" d="M624.72,44.17q0,5.49-.67,16.48t-.67,16.53v31.71c0,.87-.67,1.3-2,1.3-1.13,0-2.83,0-5.1.1s-4,.09-5.1.09-3-.06-5.48-.19-4.27-.19-5.48-.19a5,5,0,0,1-3-1.59q-5.05-4.66-22.77-20.69-4.86-4.47-14.76-13.18a2.85,2.85,0,0,0-1.06-.58A1.15,1.15,0,0,0,558,75q0,5.58.45,16.74t.46,16.75c0,1.12-.63,1.68-1.9,1.68H532.7c-1.36,0-2-.5-2-1.49,0-3.47.25-8.69.74-15.69s.74-12.23.74-15.73q0-5.53-.67-16.55t-.67-16.51c0-.7.92-1.06,2.74-1.06,2.72,0,6.07-.12,10.06-.38.94-.07,2.78-.27,5.55-.63a47.55,47.55,0,0,1,5.56-.43c.56,0,1.42.55,2.59,1.64l26.23,24.58q3.51,3.33,10.61,9.72a5.07,5.07,0,0,0,3,1.5c.61,0,.92-1.26.92-3.76q0-5.06-.81-15.2t-.81-15.26c0-1.18.49-1.78,1.48-1.78q4.21,0,12.72-.24t12.72-.24C624.27,42.68,624.72,43.18,624.72,44.17Z"/>
      <path class="cls-2" d="M732.43,44.17q0,5.49-.67,16.48t-.67,16.53v31.71c0,.87-.68,1.3-2,1.3-1.12,0-2.82,0-5.09.1s-4,.09-5.1.09-3.05-.06-5.48-.19-4.27-.19-5.49-.19a5,5,0,0,1-3-1.59q-5.05-4.66-22.77-20.69-4.86-4.47-14.77-13.18a2.88,2.88,0,0,0-1.05-.58,1.13,1.13,0,0,0-.56,1.06q0,5.58.45,16.74t.46,16.75c0,1.12-.63,1.68-1.9,1.68H640.41c-1.36,0-2-.5-2-1.49,0-3.47.25-8.69.74-15.69s.74-12.23.74-15.73q0-5.53-.67-16.55t-.67-16.51c0-.7.92-1.06,2.74-1.06,2.72,0,6.07-.12,10-.38.94-.07,2.79-.27,5.56-.63a47.56,47.56,0,0,1,5.55-.43c.56,0,1.43.55,2.6,1.64l26.22,24.58q3.53,3.33,10.62,9.72a5.07,5.07,0,0,0,3,1.5c.61,0,.92-1.26.92-3.76q0-5.06-.81-15.2t-.81-15.26c0-1.18.49-1.78,1.47-1.78q4.23,0,12.73-.24t12.72-.24C732,42.68,732.43,43.18,732.43,44.17Z"/>
      <path class="cls-2" d="M774.62,74.63q0,5.69.42,17.08t.42,17.08c0,.65-.21,1-.63,1.21-.09,0-.7.09-1.83.19q-4.56.39-12.23.39a128.43,128.43,0,0,1-13.07-.39c-1.36-.19-2-.69-2-1.49q0,.76.63-8.47,1.26-19.49,1.26-25.6,0-5.14-.49-15.44t-.49-15.45c0-.7.54-1.06,1.62-1.06q2.17,0,6.57.15t6.57.14c1.46,0,3.6,0,6.44-.14s5-.15,6.43-.15,2,.36,2,1.06q0,5.15-.81,15.45T774.62,74.63Z"/>
      <path class="cls-2" d="M883.59,44.17q0,5.49-.67,16.48t-.66,16.53v31.71c0,.87-.68,1.3-2,1.3-1.13,0-2.83,0-5.1.1s-4,.09-5.09.09-3-.06-5.49-.19-4.26-.19-5.48-.19a4.94,4.94,0,0,1-3-1.59q-5.07-4.66-22.78-20.69-4.85-4.47-14.76-13.18a2.85,2.85,0,0,0-1.06-.58,1.15,1.15,0,0,0-.56,1.06q0,5.58.46,16.74t.45,16.75q0,1.68-1.89,1.68H791.57c-1.36,0-2-.5-2-1.49,0-3.47.24-8.69.73-15.69s.74-12.23.74-15.73q0-5.53-.67-16.55t-.66-16.51c0-.7.91-1.06,2.74-1.06,2.71,0,6.07-.12,10.05-.38.94-.07,2.79-.27,5.55-.63a47.86,47.86,0,0,1,5.56-.43c.56,0,1.43.55,2.6,1.64L842.4,67.94q3.51,3.33,10.61,9.72a5.07,5.07,0,0,0,3,1.5c.6,0,.91-1.26.91-3.76q0-5.06-.81-15.2t-.81-15.26c0-1.18.49-1.78,1.48-1.78q4.22,0,12.72-.24t12.73-.24C883.15,42.68,883.59,43.18,883.59,44.17Z"/>
      <path class="cls-2" d="M989.75,108.65c.1.87-.56,1.3-2,1.3a72.53,72.53,0,0,1-7.7-1.06c-4.24-.7-6.86-1.18-7.84-1.44a108.6,108.6,0,0,1-28.19,3.94q-21.72,0-35.64-9.91T894.64,76.8q0-15.26,13.36-25.31,13.77-10.4,35.78-10.4a70.45,70.45,0,0,1,20.1,2.8q10.2,3.07,16,8.66c.8.77,1.2,1.31,1.2,1.63q0,1.55-6.3,6.91t-8.11,5.36a13.76,13.76,0,0,1-3.24-2,31.5,31.5,0,0,0-7-3.66,34,34,0,0,0-11.81-2q-10.54,0-16.73,5.39a15.65,15.65,0,0,0-5.76,12.37,14.81,14.81,0,0,0,6,12.41q6.2,4.71,17.51,4.71a60.34,60.34,0,0,0,16-2.45q-.21-1.59-1.26-8.08a47.07,47.07,0,0,1-.91-8.09,1,1,0,0,1,.91-1.1,4.33,4.33,0,0,1,1.12-.1q2,0,6.15.26c2.75.18,4.82.27,6.23.27s3.75-.07,6.75-.22,5.24-.21,6.74-.21c1.17,0,1.76.53,1.76,1.58q0,2.31-.39,7t-.38,7q0,6.21,1.33,18.57Z"/>
    </g>
    <path class="cls-1" d="M917.14,276.05c-15.63,40.09-6.9,53-24.37,77.28-14.27,19.83-61.25,32.13-73.36,31.75-14-.43-14-5.65-30.71-6.7-5.1-.32-32,6.86-42.27,6.55s-18-.47-23.07-.47q-4.53,0-4.53-3.6c0-11.47,5.28-5.59,6.17-28.58s-3.52-63.35-3.52-74.82c0-12,9.63-29.69,8.74-53.63s-11.39-42.1-11.39-54q0-3.28,4.53-3.91c7.41-.83,23.38,4.65,40.28,4.65,32.12,0,49.09-5.43,58.58-4.49,24.72,2.5,42,12.51,58,18.77,22.26,8.69,23.51,22.52,31.12,39.42C918.68,240.23,923.28,260.31,917.14,276.05Zm-54.72-2.5c-3.18-17.33,2-38.54-11.07-46.58-13.57-8.36-24-13.58-47-14-16.06-.26-24.09,2.14-24.09,6.42,0,6.15,5.47,10.84,5.27,23.2s-5.9,26.18-5.9,32.33,3.6,21.31,3.81,33.46-3.18,15.14-3.18,21.29q0,6.72,25,6.72c18,0,31.52-12.89,41.85-24.88C856.87,300.19,868.06,304.24,862.42,273.55Z"/>
    <path class="cls-1" d="M704,379.8q0,2.76-3.85,3.84c-3.07.82-13.82.19-28.6,1.23-14.62,1-24.09-.41-28.29-1.23q-5.24-1.08-6.61-6.92c-6.77-13.42-6.2-22.65-8.15-23.68-1.64-.72-3.76-9.24-33.53-4.11-17.17,3-34.39,3.49-35.51,4.42a21.56,21.56,0,0,0-5.85,16.45c.74,8.7-4.3,13.12-7.07,13.84-3.49.82-14.18,4.3-35.06,1.23C496,382.59,488,383.39,488,380.41c0-2,6.24-7.66,19.77-44.83,4.18-11.47,13.9-37.65,15.4-53.38,2-21.55,10.87-30.6,15.53-43.29C545,221.78,552,217.08,556,206.24c5.43-14.94,6.69-33.19,7.64-36.19q1.85-5.84,4.3-5.84,4.15,0,12.84.77t13,.77q4.14,0,12.22-.54t12.07-.54q2.93,0,5.38,5.08c2.77,5.93,14,18.37,17.1,41.64,2.7,20.51,15.41,30.21,26.31,58.5,3.08,8,6.53,25.81,9.24,32.84,5.13,13.35,6,29.29,9.24,38C696.42,370.22,704,377.93,704,379.8ZM595,239.71c-2.16,4.51-10.27,14.78-10.92,29.37-.75,16.91-8.31,25.37-8.31,28.14q0,2.77,9.23,3.08c3.18.2,7.85-4.75,15.13-4.75,6.76,0,11.06,4.24,11.78,2.59a5.86,5.86,0,0,0,.31-2.15c0-3.38-8.66-12.08-7.07-28C606.27,256.54,597.13,243.81,595,239.71Z"/>
    <path class="cls-1" d="M483.14,340.39c0,4.53,3,9.94,1.22,22.06q-2.85,19.77-5.06,23.56a5.91,5.91,0,0,1-5.22,3,38.23,38.23,0,0,1-4.75-.48c-7.69-1.05-15.49-5.92-52.7-5.92-8.12,0-34.85,4.29-50.87,4.18s-28.05-.16-36.06-.16c-3.47,0-5.71-1.56-5.21-4.58,5.58-34.28.65-29.55,2-53.21.51-9.12,5.63-24.47,6.77-31.74,3.17-20.06-3.51-31-5.27-38-3.17-12.67-1.06-11.62-.27-18.49,1.06-9.25,5-14.75,4.49-26.91-.32-8.43-7.39-22.17-5.28-30.61L329,171.49c2.11-6.34,7.71-6.34,10.56-6.34,7.8,0,16,1.69,31.67,2.11s19.92-1.21,27.73-1.21,16.18-3.94,31.38-.9c10.56,2.11,18.8,1.9,26.4,3.17,6.33,1.05,10.55,2.11,14.77,6.33,1.76,1.76,9.48,6,9,18.36s1.72,19.4.54,21.76c-2.11,4.22-9.5,3.16-11.61,3.16-.63,0-9.5,1.06-13.72-1.05-13.72-6.33-33.27-1.81-55.62-1.81q-8.38,0-10.28,4c-.61,5.25,1.5,5.79,1.5,12.64,0,7.17-1.23,11.45.88,13.77q2.68,3,10.28,3,1.57,0,6.16-.24c3.06-.16,4.87-.79,7.59-.24,23.65,4.81,26.73-.37,40.33-1.11l8.69-.79c3.59-.42,5.47-.57,7.36.38,2.11,1.05,2.11,5,2.11,7.39,0-2.22-.21-.4-2.11,17.94-.85,8.44.87,18.36.87,26.79q0,3.17-4.59,3.17l-20.56-2.51c-6-.63-12.67,1.06-34.79,0l-12.71,0c-6.34,0-10.9,1-11.64,3.14-.1.53-.16,3.79-.16,9.8,0,8-1.93,17.47-.87,19.78,1.79,4,2.11,13.73,13.72,10.56-.21,0,20.06-8.44,32.06-7.72,5.58.33,13.89-.5,24.91-1.51s8.28-1.33,13.76-1.33C474.9,331.94,483.14,336.6,483.14,340.39Z"/>
    <path class="cls-1" d="M310,276c0,14.86-8.23,33.11-13.54,47.92-5.63,15.68-7.36,33.79-13.54,40.63-19.8,21.87-41.19,16.28-72.37,20.22-13.05,1.65-19.31-6.68-38.06-4.6-5.06.57-18.75,5.21-34.74,4.45-10.24-.49-17.92-.47-23-.47q-4.52,0-4.52-3.59c0-11.44,4.1-11.82,5-34.76.19-5-3.28-34.1-3.13-38.55.55-16,.79-20.88.79-29.84,0-12,8.43-31.7,7.55-55.58s-10.2-39.92-10.2-51.77q0-3.28,4.52-3.91c7.39-.83,19,1.52,35.89,1.52,32,0,53.27-2.3,62.73-1.36,24.66,2.5,38.33,14.05,53.94,21.15,22.92,10.41,27.41,20.05,35,36.9C309.58,240.32,310,259.19,310,276Zm-56.25,10.42c0-27.16-5.12-39.91-15.63-51-10.61-11.55-25.08-22.26-42.56-22.26-16,0-23.65,2.15-24,6.4-1.12,12.73,13.46,14.81,7.21,29.4-6.79,15.85-7.62,19.86-7.83,26-.5,14.63,3.46,23.34,3.67,35.46s-3.05,13-3.05,19.15q0,6.72,25,6.71c18,0,24-6.6,34.33-18.57C240.5,306.37,253.75,301,253.75,286.46Z"/>
    <path class="cls-3" d="M322,265c0,14.26-7.9,31.78-13,46-5.4,15.05-7.06,32.44-13,39-19,21-39.54,15.63-69.47,19.42C214,371,208,363,190,365c-4.86.54-18,5-33.35,4.26-9.83-.47-17.21-.44-22.1-.44-2.9,0-4.34-1.15-4.34-3.45,0-11,3.94-11.35,4.79-33.37.18-4.78-3.14-32.74-3-37,.52-15.36.75-20.05.75-28.65,0-11.48,8.1-30.43,7.25-53.35s-9.79-38.32-9.79-49.71c0-2.09,1.44-3.34,4.34-3.74,7.09-.8,18.27,1.45,34.45,1.45,30.76,0,51.14-2.2,60.22-1.3C252.89,162.1,266,173.19,281,180c22,10,26.32,19.25,33.61,35.42C321.6,230.7,322,248.82,322,265Zm-54,10c0-26.08-4.91-38.31-15-49-10.19-11.08-24.08-21.36-40.85-21.36-15.38,0-22.71,2.06-23.07,6.14C188,223,202,225,196,239c-6.52,15.21-7.32,19.07-7.52,25-.48,14,3.32,22.41,3.52,34s-2.92,12.5-2.92,18.39q0,6.44,24,6.44c17.27,0,23.06-6.35,32.95-17.83C255.29,294.12,268,289,268,275Z"/>
    <path class="cls-3" d="M493,325c0,4.29,2.85,9.41,1.16,20.9q-2.7,18.72-4.8,22.32a5.56,5.56,0,0,1-4.94,2.84,36.24,36.24,0,0,1-4.49-.45c-7.29-1-14.68-5.61-49.93-5.61-7.69,0-33,4.06-48.19,4s-26.57-.14-34.15-.14c-3.3,0-5.41-1.49-5-4.35,5.29-32.47.63-28,1.88-50.41.48-8.63,5.32-23.17,6.41-30.06,3-19-3.33-29.33-5-36-3-12-1-11-.25-17.51,1-8.76,4.69-14,4.25-25.49-.3-8-7-21-5-29l2-11c2-6,7.3-6,10-6,7.39,0,15.17,1.6,30,2s18.88-1.15,26.27-1.15S428.6,156.12,443,159c10,2,17.81,1.8,25,3,6,1,10,2,14,6,1.66,1.66,9,5.72,8.49,17.39s1.63,18.38.51,20.61c-2,4-9,3-11,3-.6,0-9,1-13-1-13-6-31.51-1.71-52.68-1.71q-7.95,0-9.74,3.74c-.58,5,1.42,5.48,1.42,12,0,6.79-1.17,10.85.83,13.05q2.54,2.85,9.73,2.84,1.5,0,5.84-.22c2.9-.15,4.62-.75,7.2-.23,22.4,4.56,25.31-.35,38.19-1l8.24-.75c3.4-.4,5.18-.54,7,.35,2,1,2,4.7,2,7,0-2.1-.2-.38-2,17-.8,8,.82,17.39.82,25.38,0,2-1.45,3-4.34,3L460,286c-5.69-.6-12,1-32.95,0L415,286c-6,0-10.32,1-11,3q-.15.75-.15,9.29c0,7.59-1.83,16.54-.83,18.74,1.7,3.8,2,13,13,10-.2,0,19-8,30.37-7.32,5.29.32,13.16-.47,23.6-1.42s7.84-1.26,13-1.26C485.2,317,493,321.41,493,325Z"/>
    <path class="cls-3" d="M720.21,365.07q0,2.7-3.75,3.75c-3,.79-13.46.18-27.86,1.19s-23.47-.4-27.56-1.19q-5.1-1.05-6.44-6.75C648,349,648.55,340,646.66,339c-1.6-.7-3.66-9-32.66-4-16.73,2.88-33.5,3.41-34.6,4.31a21,21,0,0,0-5.69,16c.72,8.48-4.2,12.79-6.89,13.49-3.4.79-13.82,4.18-34.16,1.19-15.12-2.22-22.92-1.44-22.92-4.34,0-2,6.08-7.46,19.26-43.67,4.07-11.18,13.54-36.68,15-52,2-21,10.59-29.81,15.14-42.17,6.14-16.69,13-21.27,16.86-31.83,5.3-14.56,6.52-32.34,7.44-35.25,1.2-3.8,2.6-5.69,4.2-5.69q4,0,12.51.74c5.64.51,9.86.75,12.65.75s6.67-.17,11.91-.52,9.16-.53,11.76-.53q2.85,0,5.24,4.95c2.7,5.78,13.68,17.9,16.66,40.57,2.63,20,15,29.43,25.63,57,3,7.8,6.36,25.15,9,32,5,13,5.81,28.53,9,37C712.82,355.74,720.21,363.25,720.21,365.07ZM614,228.61c-2.09,4.39-10,14.39-10.63,28.61-.74,16.47-8.09,24.71-8.09,27.41q0,2.7,9,3c3.09.2,7.64-4.63,14.73-4.63,6.59,0,10.78,4.13,11.48,2.53a5.84,5.84,0,0,0,.3-2.1c0-3.29-8.43-11.76-6.89-27.26C625,245,616.1,232.6,614,228.61Z"/>
    <path class="cls-3" d="M927,265c-15,38.39-6.6,50.74-23.34,74C890,358,845,369.77,833.41,369.42,820,369,820,364,804,363c-4.88-.31-30.64,6.56-40.47,6.26s-17.21-.44-22.1-.44c-2.9,0-4.34-1.15-4.34-3.45,0-11,5.06-5.35,5.91-27.37s-3.37-60.66-3.37-71.65c0-11.48,9.22-28.43,8.37-51.35s-10.91-40.32-10.91-51.71c0-2.09,1.44-3.34,4.34-3.74,7.09-.8,22.39,4.45,38.57,4.45,30.76,0,47-5.2,56.1-4.3,23.67,2.4,40.24,12,55.58,18C913,186,914.2,199.25,921.49,215.42,928.48,230.7,932.88,249.93,927,265Zm-52.4-2.39C871.55,246,876.52,225.7,864,218c-13-8-23-13-45-13.36-15.38-.25-23.07,2.05-23.07,6.14,0,5.89,5.24,10.39,5,22.22s-5.64,25.07-5.64,31,3.44,20.41,3.64,32-3,14.5-3,20.39q0,6.44,24,6.44c17.28,0,30.19-12.35,40.08-23.83C869.29,288.12,880,292,874.6,262.61Z"/>
  </g>
</svg>
