<svg xmlns="http://www.w3.org/2000/svg" xmlns:xlink="http://www.w3.org/1999/xlink" width="650" height="216" viewBox="0 0 650 216">
  <defs>
    <style>
      .cls-1 {
        fill: url(#linear-gradient);
      }

      .cls-2 {
        fill: url(#linear-gradient-2);
      }

      .cls-3 {
        fill: #fff;
      }
    </style>
    <linearGradient id="linear-gradient" x1="324.56" y1="-12.4" x2="325.47" y2="233.58" gradientUnits="userSpaceOnUse">
      <stop offset="0" stop-color="#d6140f"/>
      <stop offset="1" stop-color="#960000"/>
    </linearGradient>
    <linearGradient id="linear-gradient-2" x1="325.95" y1="209.44" x2="324.12" y2="12" xlink:href="#linear-gradient"/>
  </defs>
  <g id="newRestart">
    <g>
      <g>
        <polygon class="cls-1" points="577.35 213.5 475.5 194.48 402.33 213.5 375.92 206.37 246.92 213.5 147.34 196.26 75.67 213.5 26.63 192.7 37.95 137.42 4 95.22 15.32 48.86 70.39 8.44 129.99 7.85 186.57 18.55 275.59 6.07 321.61 20.93 424.96 2.5 513.22 17.95 581.12 8.44 627.14 38.16 609.79 89.28 646 117.81 636.19 179.62 577.35 213.5"/>
        <polygon class="cls-2" points="556 195.37 462.77 179.62 395.78 195.37 371.61 189.47 253.53 195.37 162.37 181.1 96.76 195.37 51.88 178.14 62.23 132.37 31.16 97.42 41.52 59.02 91.93 25.55 146.49 25.06 198.28 33.92 279.77 23.58 321.89 35.89 416.5 20.63 497.3 33.43 559.45 25.55 601.58 50.16 585.69 92.5 618.84 116.12 609.86 167.31 556 195.37"/>
      </g>
      <g>
        <path class="cls-3" d="M282.33,93.4l-11.27-.92c-1.47,0-2.48-.79-2.48-2.07l1.72-5c0-2.72-2.18-3.22-2.74-4a3.26,3.26,0,0,0-2.79-1.12,3.7,3.7,0,0,0-3.2,1.51c-.73,1-.08,2.73-1.09,4.57-1.65,3-.17,6.16.65,7.49s6.09,5.61,9.74,7.49c13.18,6,15.15,5.29,17.23,9.07,5.7,10.4,4.55,10.18,4.55,17.89,0,5.6-1.23,8.61-2.74,11.27s-.7,5.7-8.73,6.68c-4.74.58-9.34,2.7-15.07,2.7-6.28,0-9.14-1.11-13.58-3.18s-9.87-4.64-11.24-7.85.35-4.13-1.94-11.12l1.14-3c0-1.29,2-3,3.44-3l10.32-1.5c1.47,0,4.58,1.72,4.58,3l2.21,6.38c1.81,3.6.3,4.84.92,5.68a3.78,3.78,0,0,0,3.26,1.26,4,4,0,0,0,3.49-1.6,8.22,8.22,0,0,0,1.14-4.76q0-6.94-2.17-9.09c-1.49-1.42-6-3.86-9.42-7.86-4.2-4.88-11.28-5.1-13.18-6.62a17.17,17.17,0,0,1-4.72-6.32c-1.24-2.69.71-6.84.71-11,0-6,.52-8.69,2.29-11.48s3.51-4.42,7.45-6S258.41,67,264,67c6.1,0,8.32-.29,12.61,1.42a17.14,17.14,0,0,1,8.6,7.49c1.39,2.61,5.16,3.24,5.16,9.49l-1.72,5.49C288.64,92.19,283.8,93.4,282.33,93.4Z"/>
        <path class="cls-3" d="M346,73.44l1.47,8.66c0,1.28-2.86,6.31-4.33,6.31l-6.88-2c-1-.69-4.77,1.21-5.73,14.47-.43,5.89,1.72,12.48,1.14,25l1.15,10.49c0,1.28,2.29,7.48-2.87,10l-17.25,1c-1.48,0-4.53-5-2.81-10.51L311,119.36l3.44-14.47c2.29-6.49-1.72-18-6.31-17.48l-8,2c-1.72-.5-4-6-4-7.31V73.44c0-1.28,3.11-5,4.58-5L323,69.94l17.19-1.5C341.69,68.44,344.81,69.44,346,73.44Z"/>
        <path class="cls-3" d="M390.66,72.94l4,15v18.47l4,21,4.59,15.48c.24,1.4-.2,4.52-1.83,4.52l-14.22,0c-1.39,0-6.78-.9-6.89-2.11l-1.14-7.38c-.1-1.2.58-3.49-2.39-4.62h-3.5c-2.7.13-4.3,3.42-4.42,4.62l.78,7.4c-.21,2.59-6.28,2.09-7.66,2.09l-10.89-.5c-3.44-.5-5.73.5-5.54-2.1l5.54-21.36.69-10.5,3.9-20v-17c0-.24,1.72-6,6.87-6l21.78-1C385.67,68.94,390.66,69.94,390.66,72.94Zm-12.35,43.75c-.36-2.86-1-6.55-1.41-9.81-.31-2.76-5.36-6.25-5.73-3.49-.47,3.53-2,10.35-2.29,13-.14,1.36,3,2.89,4.58,2.89h2.21A2.46,2.46,0,0,0,378.31,116.69Z"/>
        <path class="cls-3" d="M411.86,86.42c0-2.39-.28-7.19,1.15-10.49,1.23-2.83,2.07-5.8,6.31-6.49l11.46,1c11.08,0,15.82-1.4,19.74-.65s5.87,4.58,8.34,7.64,5,6,5,12.72q0,9.18-2.62,12.34a7.48,7.48,0,0,1-2.14,1.73c-2,1.14-10,2.83-3.07,5.16a31.45,31.45,0,0,1,4.58,2c1.6,1.68,1.9,5.08,2.29,6.49s0,5.13,0,11.48l2.3,12.48c0,1.67,0,5.49-4.81,5.52l-13-1c-1.92,0-5.38-.33-5.38-2l1.94-7c0-4.21,0-18-3.09-24-.16-.32-2.64-2.5-4.36-1.5-2.38,1.38-4.59,9.48-4,12l2.29,13c0,1.67,0,10.48-3.39,10.51l-14.95-1c-4,.5-5.16-6.32-5.16-8l2.29-18.47-.75-14.17.75-7.29Zm23-.75-2.95,8.73c0,2.07,2.3,8.49,7.54,4.7a9.5,9.5,0,0,1,1-.42c1.06-.63,4.33-.91,2.38-4.78l-2.29-5c-.57-3.49,1.72-3.49,0-5.61a1.31,1.31,0,0,0-.27-.19C438,81.74,434.87,83.29,434.87,85.67Z"/>
        <path class="cls-3" d="M128.66,86.42c0-2.39-.28-7.19,1.15-10.49,1.23-2.83,2.07-5.8,6.31-6.49l11.46,1c11.08,0,15.82-1.4,19.74-.65s5.87,4.58,8.34,7.64,5,6,5,12.72q0,9.18-2.62,12.34a7.48,7.48,0,0,1-2.14,1.73c-2,1.14-10,2.83-3.07,5.16a31.45,31.45,0,0,1,4.58,2c1.6,1.68,1.9,5.08,2.29,6.49s0,5.13,0,11.48l2.3,12.48c0,1.67,0,5.49-4.81,5.52l-13-1c-1.92,0-5.38-.33-5.38-2l1.94-7c0-4.21,0-18-3.09-24-.16-.32-2.64-2.5-4.36-1.5-2.38,1.38-4.59,9.48-4,12l2.29,13c0,1.67,0,10.48-3.39,10.51l-14.95-1c-4,.5-5.16-6.32-5.16-8l2.29-18.47-.75-14.17.75-7.29Zm23-.75-2.95,8.73c0,2.07,2.3,8.49,7.54,4.7a9.5,9.5,0,0,1,1-.42c1.06-.63,4.33-.91,2.38-4.78l-2.29-5c-.57-3.49,1.72-3.49,0-5.61a.93.93,0,0,0-.27-.19C154.77,81.74,151.67,83.29,151.67,85.67Z"/>
        <path class="cls-3" d="M520.19,71.94l1.72,9.48c0,1.28-2.54,7-4,7l-7.45-2c-1.48,0-3.44,1.21-3.44,2.49l-1.15,4.49,1,16.86-1,12.6,1,10.85,1.29,8.62c0,1.28-2.48,5-3.95,5l-12.67,0c-1.47,0-8-2.71-8-4l1.14-10.48-1.14-18.47,2.29-11.48-2.29-14c0-1.28-2.54-3-4-3l-7.46,3c-1.47,0-2.56-5.53-2.56-6.81l1.42-9.16c0-1.28,3.11-3.5,4.58-3.5l9.49-.77,14,1.27,6.33-1.27,10.29-.23C517.07,68.44,520.19,70.66,520.19,71.94Z"/>
        <path class="cls-3" d="M192.13,69.45l12.07-.27h.21L213.72,71c.08,0,7.24-.91,7.32-.92l6.57-.51a1.56,1.56,0,0,1,1.73,1.87l-.89,2.94a1.26,1.26,0,0,0,0,.58l1.28,8.59a1.56,1.56,0,0,1-1.59,1.69l-7.92.4a1.64,1.64,0,0,1-.38,0L215.4,85a1.68,1.68,0,0,0-2,1.23l-.73,3.8a1.29,1.29,0,0,0,0,.44l1.21,8.14a1.66,1.66,0,0,0,1.83,1.29l7.22-.48h.34l4,.43a1.57,1.57,0,0,1,1.5,1.57l-.46,7a.67.67,0,0,0,0,.2l.43,4.83a1.56,1.56,0,0,1-1.5,1.6l-7,.77a1.87,1.87,0,0,1-.53,0l-3.48-.57a1.64,1.64,0,0,0-2,1.54l.53,9a1.48,1.48,0,0,1,0,.21l-.44,4.21a1.63,1.63,0,0,0,1.93,1.62l3.58-.42a2,2,0,0,1,.34,0l9.48.56a1.56,1.56,0,0,1,1.57,1.73l-.72,3.92a1.62,1.62,0,0,0,0,.38l.85,8a1.61,1.61,0,0,1-1.85,1.63l-8.28-.62a1.5,1.5,0,0,0-.3,0l-9.79.76h-.27l-7.57-1.69c-.12,0-5.29.92-5.41.94l-5.22.65a1.65,1.65,0,0,1-1.95-1.46l1.07-9.29s-1.32-10.39-1.32-10.42l.27-10.63c0-.08,1-12.86,1-12.94l-1.29-10.19a1.41,1.41,0,0,1,0-.2L190.7,82l-.24-11A1.6,1.6,0,0,1,192.13,69.45Z"/>
      </g>
    </g>
  </g>
</svg>
