<svg xmlns="http://www.w3.org/2000/svg" width="340" height="340" viewBox="0 0 340 340">
  <defs>
    <style>
      .cls-1 {
        fill: #5b5d68;
      }
    </style>
  </defs>
  <g id="setting">
    <path class="cls-1" d="M337.48,159.64a6.87,6.87,0,0,0-5.27-6.68l-55.28-13.31a110.4,110.4,0,0,0-9.85-23.76l29.7-48.51a6.88,6.88,0,0,0-1-8.45L281.55,44.64a6.87,6.87,0,0,0-8.44-1L224.49,73.13A110.57,110.57,0,0,0,200.17,63L186.77,7.76a6.88,6.88,0,0,0-6.69-5.26H159.91a6.89,6.89,0,0,0-6.69,5.26L139.83,63A110.94,110.94,0,0,0,115.5,73.13L66.88,43.62a6.9,6.9,0,0,0-8.45,1L44.2,58.94a6.88,6.88,0,0,0-1,8.45l29.7,48.5A110.53,110.53,0,0,0,63,140L7.74,153.42a6.89,6.89,0,0,0-5.26,6.69l0,20.17A6.87,6.87,0,0,0,7.78,187L63.05,200.3a110.26,110.26,0,0,0,10,24L43.46,272.91a6.87,6.87,0,0,0,1,8.45l14.27,14.25a6.88,6.88,0,0,0,8.45,1L115.74,267a110.46,110.46,0,0,0,24,10l13.36,55.26a6.88,6.88,0,0,0,6.68,5.27H180a6.86,6.86,0,0,0,6.69-5.25L200.09,277a110.63,110.63,0,0,0,24.16-10l48.55,29.63a6.88,6.88,0,0,0,8.45-1l14.27-14.25a6.9,6.9,0,0,0,1-8.45L267,224.34A110.7,110.7,0,0,0,277,200l55.24-13.49a6.89,6.89,0,0,0,5.25-6.69ZM170,236.84A66.84,66.84,0,1,1,236.84,170,66.84,66.84,0,0,1,170,236.84Z"/>
  </g>
</svg>
