<svg xmlns="http://www.w3.org/2000/svg" xmlns:xlink="http://www.w3.org/1999/xlink" width="650" height="216" viewBox="0 0 650 216">
  <defs>
    <style>
      .cls-1 {
        fill: url(#linear-gradient);
      }

      .cls-2 {
        fill: url(#linear-gradient-2);
      }

      .cls-3 {
        fill: #fff;
      }
    </style>
    <linearGradient id="linear-gradient" x1="324.56" y1="-13.55" x2="325.48" y2="234.76" gradientUnits="userSpaceOnUse">
      <stop offset="0" stop-color="#d6140f"/>
      <stop offset="1" stop-color="#960000"/>
    </linearGradient>
    <linearGradient id="linear-gradient-2" x1="325.96" y1="210.38" x2="324.12" y2="11.08" xlink:href="#linear-gradient"/>
  </defs>
  <g id="newStart">
    <g>
      <g>
        <polygon class="cls-1" points="577.35 214.5 475.5 195.3 402.33 214.5 375.92 207.3 246.92 214.5 147.34 197.1 75.67 214.5 26.63 193.5 37.95 137.7 4 95.1 15.32 48.3 70.39 7.5 129.99 6.9 186.57 17.7 275.59 5.1 321.61 20.1 424.96 1.5 513.22 17.1 581.12 7.5 627.14 37.5 609.79 89.1 646 117.9 636.19 180.3 577.35 214.5"/>
        <polygon class="cls-2" points="556 196.2 462.77 180.3 395.78 196.2 371.61 190.24 253.53 196.2 162.37 181.79 96.76 196.2 51.88 178.81 62.23 132.6 31.16 97.32 41.52 58.56 91.93 24.77 146.49 24.27 198.28 33.22 279.77 22.78 321.89 35.2 416.5 19.8 497.3 32.72 559.45 24.77 601.58 49.61 585.69 92.35 618.84 116.2 609.86 167.88 556 196.2"/>
      </g>
      <g>
        <path class="cls-3" d="M224.75,92.87l-11.5-1c-1.5,0-2.53-.83-2.53-2.15l1.75-5.18c0-2.82-2.22-3.34-2.79-4.11a3.3,3.3,0,0,0-2.84-1.16,3.73,3.73,0,0,0-3.27,1.57c-.74,1-.08,2.82-1.11,4.73-1.68,3.11-.17,6.39.66,7.77s6.22,5.81,9.94,7.76c13.44,6.21,15.45,5.48,17.56,9.4,5.82,10.78,4.65,10.55,4.65,18.54,0,5.81-1.26,8.93-2.8,11.69s-.71,5.91-8.9,6.92c-4.83.6-9.52,2.8-15.37,2.8-6.41,0-9.32-1.15-13.85-3.3s-10.07-4.81-11.47-8.13.36-4.28-2-11.53l1.17-3.1c0-1.33,2-3.11,3.51-3.11l10.52-1.55c1.5,0,4.68,1.78,4.68,3.1l2.24,6.61c1.85,3.74.32,5,.94,5.9a3.85,3.85,0,0,0,3.33,1.31,4.07,4.07,0,0,0,3.56-1.66A8.6,8.6,0,0,0,212,130.1q0-7.2-2.22-9.42c-1.52-1.48-6.1-4-9.61-8.15-4.28-5.06-11.51-5.28-13.44-6.86a17.71,17.71,0,0,1-4.81-6.55c-1.27-2.79.72-7.09.72-11.42,0-6.25.53-9,2.34-11.91s3.57-4.58,7.6-6.21,7.75-4.06,13.44-4.06c6.22,0,8.48-.3,12.86,1.48a17.57,17.57,0,0,1,8.77,7.76c1.42,2.7,5.26,3.35,5.26,9.83l-1.75,5.69C231.18,91.61,226.25,92.87,224.75,92.87Z"/>
        <path class="cls-3" d="M289.63,72.17l1.5,9c0,1.33-2.92,6.55-4.42,6.55l-7-2.07c-1-.72-4.86,1.25-5.85,15-.44,6.1,1.75,12.94,1.17,25.88l1.17,10.86c0,1.33,2.34,7.76-2.92,10.35l-17.61,1.07c-1.5,0-4.61-5.21-2.85-10.9L254,119.78l3.51-15c2.34-6.72-1.75-18.63-6.43-18.11l-8.18,2.07c-1.76-.52-4.09-6.25-4.09-7.58v-9c0-1.33,3.17-5.17,4.67-5.17l22.8,1.55L283.79,67C285.29,67,288.46,68,289.63,72.17Z"/>
        <path class="cls-3" d="M335.23,71.65l4.09,15.53v19.14l4.09,21.74,4.68,16c.24,1.45-.2,4.69-1.86,4.69l-14.51,0c-1.42,0-6.91-.94-7-2.19l-1.16-7.64c-.11-1.26.58-3.63-2.44-4.8h-3.57c-2.76.14-4.39,3.55-4.51,4.8l.79,7.66c-.21,2.68-6.4,2.17-7.81,2.17l-11.11-.52c-3.5-.52-5.84.52-5.65-2.17l5.65-22.15.7-10.89,4-20.68V74.76c0-.25,1.75-6.21,7-6.21l22.21-1C330.15,67.51,335.23,68.55,335.23,71.65ZM322.64,117c-.37-3-1.07-6.79-1.44-10.16-.32-2.87-5.47-6.48-5.85-3.62-.48,3.66-2.06,10.73-2.33,13.45-.15,1.41,3.07,3,4.67,3h2.25A2.53,2.53,0,0,0,322.64,117Z"/>
        <path class="cls-3" d="M356.86,85.63c0-2.48-.29-7.46,1.17-10.87,1.25-2.93,2.11-6,6.43-6.73l11.69,1c11.3,0,16.14-1.45,20.14-.68s6,4.75,8.5,7.92,5.07,6.24,5.07,13.19q0,9.51-2.67,12.79a7.83,7.83,0,0,1-2.18,1.79c-2.06,1.18-10.21,2.93-3.14,5.35a31.79,31.79,0,0,1,4.68,2.07c1.63,1.75,1.94,5.27,2.34,6.73s0,5.32,0,11.9l2.33,12.93c0,1.74,0,5.7-4.9,5.73l-13.22-1.07c-2,0-5.49-.34-5.49-2.07l2-7.24c0-4.37,0-18.63-3.15-24.83-.16-.33-2.69-2.6-4.44-1.56-2.44,1.43-4.68,9.83-4.1,12.42l2.34,13.45c0,1.73,0,10.87-3.46,10.9l-15.24-1.07c-4.1.52-5.27-6.54-5.27-8.28l2.34-19.14-.77-14.69.77-7.56Zm23.47-.78-3,9.06c0,2.14,2.34,8.79,7.69,4.86a8.9,8.9,0,0,1,1-.43c1.08-.66,4.42-.94,2.44-5l-2.34-5.18c-.59-3.62,1.75-3.62,0-5.82a1.15,1.15,0,0,0-.28-.19C383.48,80.78,380.33,82.38,380.33,84.85Z"/>
        <path class="cls-3" d="M467.34,70.62l1.76,9.83c0,1.33-2.6,7.25-4.1,7.25l-7.6-2.07c-1.5,0-3.5,1.26-3.5,2.58l-1.17,4.66,1,17.47-1,13.06,1,11.25,1.32,8.93c0,1.33-2.53,5.21-4,5.21l-12.92,0c-1.5,0-8.18-2.81-8.18-4.14l1.17-10.87-1.17-19.15,2.34-11.9-2.34-14.49c0-1.32-2.59-3.1-4.09-3.1l-7.6,3.1c-1.5,0-2.62-5.73-2.62-7.06l1.45-9.5c0-1.32,3.18-3.62,4.68-3.62l9.67-.8,14.29,1.32,6.46-1.32,10.5-.23C464.17,67,467.34,69.29,467.34,70.62Z"/>
      </g>
    </g>
  </g>
</svg>
