<svg id="bar-foreground" xmlns="http://www.w3.org/2000/svg" width="400" height="60" viewBox="0 0 400 60">
  <defs>
    <style>
      .cls-1 {
        fill: #5f5fb7;
      }
    </style>
  </defs>
  <path class="cls-1" d="M398.5,15.6a11,11,0,0,0-.27-2.44C397,7.65,391.76,3.5,385.45,3.5L127,3.61,126.33,6l-6.24-2.43h-12.5L103.4,8.47l-1.08-5H14.55c-7.21,0-13,5.42-13,12.1V44.4c0,6.68,5.84,12.1,13.05,12.1H28L25.76,52l6.52,4.42,3.8.06,2.69-2.27.43,2.32H320.51l3.07-2.26,1.91,2.26h7.12l-1.38-5,7.79,5h46.43c7.21,0,13.05-5.42,13.05-12.1V20.77l-3.31-4.13ZM392,37.47a12.4,12.4,0,0,1-12.38,12.41h-359A12.4,12.4,0,0,1,8.23,37.47V22.53a12.39,12.39,0,0,1,12.38-12.4h359A12.39,12.39,0,0,1,392,22.53Z"/>
</svg>
