<svg xmlns="http://www.w3.org/2000/svg" xmlns:xlink="http://www.w3.org/1999/xlink" width="1920" height="1080" viewBox="0 0 1920 1080">
  <defs>
    <style>
      .cls-1 {
        fill: url(#linear-gradient);
      }

      .cls-2 {
        fill: #e2bda3;
      }

      .cls-3 {
        fill: #211f1e;
      }

      .cls-4 {
        fill: #bf3ca3;
      }

      .cls-5 {
        fill: #d8b4a0;
      }

      .cls-6 {
        fill: #347569;
      }

      .cls-7 {
        fill: #333;
      }

      .cls-8 {
        fill: #db6b81;
      }

      .cls-9 {
        fill: #66524c;
      }

      .cls-10 {
        fill: #161616;
      }

      .cls-11 {
        fill: #d6d8d7;
      }

      .cls-12 {
        fill: #2a352e;
      }

      .cls-13 {
        fill: #26221d;
      }

      .cls-14 {
        fill: #e2e0e0;
      }

      .cls-15 {
        fill: #9e2323;
      }

      .cls-16 {
        fill: #e2e2e2;
      }

      .cls-17 {
        fill: #e6e6e6;
      }

      .cls-18 {
        fill: #d89595;
      }

      .cls-19 {
        fill: #3a4860;
      }

      .cls-20 {
        fill: #aaa19b;
      }

      .cls-21 {
        fill: #d9dddc;
      }

      .cls-22 {
        fill: #d0d8d6;
      }

      .cls-23 {
        fill: #2e3a3a;
      }

      .cls-24 {
        fill: #dbc258;
      }

      .cls-25 {
        fill: #3030a0;
      }

      .cls-26 {
        fill: #383737;
      }

      .cls-27 {
        fill: #efebe1;
      }

      .cls-28 {
        fill: #a02828;
      }

      .cls-29 {
        fill: #3f0707;
      }

      .cls-30 {
        fill: #e2dfd3;
      }

      .cls-31 {
        fill: #141414;
      }

      .cls-32 {
        fill: #3f3f3f;
      }

      .cls-33 {
        fill: #020202;
      }

      .cls-34 {
        fill: #fafcfa;
      }

      .cls-35 {
        fill: #d30202;
      }

      .cls-36 {
        fill: #f9cb0d;
      }

      .cls-37 {
        fill: #03ea80;
      }

      .cls-38 {
        fill: #ededeb;
      }

      .cls-39 {
        fill: #485c7c;
      }

      .cls-40 {
        fill: #c18053;
      }

      .cls-41 {
        fill: #2d2c2c;
      }

      .cls-42 {
        fill: #991a1a;
      }

      .cls-43 {
        fill: #181f2b;
      }
    </style>
    <linearGradient id="linear-gradient" x1="960.78" y1="-14.68" x2="959.25" y2="1071.44" gradientUnits="userSpaceOnUse">
      <stop offset="0" stop-color="#00113a"/>
      <stop offset="0.25" stop-color="#1e155e"/>
      <stop offset="0.8" stop-color="#691fb9"/>
      <stop offset="1" stop-color="#8523db"/>
    </linearGradient>
  </defs>
  <g id="gradient">
    <rect class="cls-1" width="1920" height="1080"/>
  </g>
  <g id="humans">
    <path class="cls-2" d="M1696.31,627.82c7.82,13.7,17.6,58.69,17.6,58.69s12.72,6,12.72,1c0-31.3-8.81-70.43-8.81-70.43C1711,615.11,1696.31,627.82,1696.31,627.82Z"/>
    <path class="cls-2" d="M1637.72,643c-2,17.49,4.83,56.65,4.83,56.65l18.11-6.82c-5.3-16.34-2.46-50.47-2.46-50.47Z"/>
    <path class="cls-3" d="M1659.54,689.54c-6,1.08-15.06,6.06-17.43,7.4a1,1,0,0,0-.49,1c1.56,13.62-7.9,31.74-6.93,39.44.38,3.07,1,4.41,3.91,6.12s6.15,1.91,8.68-.5c8-7.58,13.81-25.18,20.66-39.85,2.55-5.46-5.26-11.79-7.33-13.34A1.37,1.37,0,0,0,1659.54,689.54Z"/>
    <path class="cls-3" d="M1712.68,682.8a1.84,1.84,0,0,0-1.35,1.2c-2.52,7.65-2.64,16.36-1.59,18.32,1.55,2.89,25.35,18.76,32.68,18.54,5.18-.15,5.95-2.08,6.62-4.3s1.16-5.46-.4-8.35-16.14-14.24-18.45-18.47a9.6,9.6,0,0,1-1.42-5.47,1.44,1.44,0,0,0-1.1-1.54A33.86,33.86,0,0,0,1712.68,682.8Z"/>
    <path class="cls-4" d="M1649.73,493.92a.41.41,0,0,0-.49.26c-3.29,9.95-22.48,31.52-26.29,52.46-3.78,20.76,12,98,13.14,103.44a.41.41,0,0,0,.38.32,67.71,67.71,0,0,0,21.45-2,.39.39,0,0,0,.28-.33c7.52-46.67,8.65-70.68,8.78-79.2a.41.41,0,0,1,.8-.1c5.53,20.19,31.47,70,33.31,73.5a.43.43,0,0,0,.34.21c10.63.8,19.6-4.77,21.07-5.74a.41.41,0,0,0,.18-.4c-11.72-79-21.48-88.76-21.48-99.51,0-8.12,1.66-25.39,1.92-28a.42.42,0,0,0-.3-.43Z"/>
    <path class="cls-5" d="M1677.78,336.34c11,39.75-7.88,73.37-7.88,73.37l39.12-4.89c-3.73-42.43,4.16-65.95,4.16-65.95Z"/>
    <path class="cls-2" d="M1741.3,559.35c0-3.09,1-17.6,1-20.54s15.65-84.11,12.71-89-23.47,7.82-23.47,7.82c4.89,19.56,0,76.59,0,86.08,0,10.26-8.23,16.22-6.85,17.6,2,2,5.87-3.91,5.87-3.91-1,4.89-2.93,12.71-1,12.71s2.94-8.8,2.94-8.8-2,10.76,0,10.76,2.93-8.8,2.93-8.8-1,7.82,1,7.82,1.6-9,1.6-9-1,7.47,1.33,7S1741.3,559.35,1741.3,559.35Z"/>
    <path class="cls-2" d="M1615.12,430.25c-13.69,11.73-31.6,42.42-29.34,47.92,6.85,16.63,36.19,33.26,40.1,37.17S1642.51,532,1643.49,531s-6.85-8.8-6.85-8.8,7.83,8.8,8.8,7.82-4.89-6.84-4.89-6.84,5.87,6.84,6.85,4.89-6.85-9.79-6.85-9.79,6.85,8.81,7.83,6.85-8.8-12.71-8.8-12.71c0-2,3.91-5.87,2-6.85-.87-.44-6.84,3.91-8.8,1-1.72-2.58-22.75-22-22.62-27.6s18.71-29.13,22.62-31.09S1615.12,430.25,1615.12,430.25Z"/>
    <path class="cls-6" d="M1680.41,376.33c.25,11.86,12,29,12,29,11.72-7.32,15.63-29,15.63-29,29.35,16.75,40.29,25.92,44,33.38,3.91,7.82,3.91,46,3.91,46-9.78,1-23.47,8.8-23.47,8.8-2-10.76-7.83-22.5-7.83-22.5-19,31-22.5,75.32-22.5,75.32-23.77-10.8-58.68-12.72-58.68-12.72,11.74-29.34,1.19-64.32,1.19-64.32a89.3,89.3,0,0,0-18.31,14.48c-3.42-12.76-17.11-18.63-17.11-18.63,12.71-25.43,19.56-35.21,27.38-41.08S1680.41,376.33,1680.41,376.33Z"/>
    <path class="cls-2" d="M1774.26,257.69c-.87,29.26-34.6,89.53-77.29,89.53s-74.68-49.79-77.3-89.53c-3.25-49.33,34.61-89.52,77.3-89.52S1775.74,208.27,1774.26,257.69Z"/>
    <path class="cls-7" d="M1690.29,295.09a10.87,10.87,0,0,0-.73,3.45.9.9,0,0,0,.4.83c2.44,1.51,10.22,1.16,10.56-.34s-7.48.15-8.36-.72c-.6-.61,0-2.06.51-2.89a.66.66,0,0,0-.49-1,3.48,3.48,0,0,0-1.46.25A.79.79,0,0,0,1690.29,295.09Z"/>
    <path class="cls-8" d="M1683.71,316.82a.18.18,0,0,0-.17.25,12.76,12.76,0,0,0,12.12,7.6c9.42,0,16-12,17.25-14.43a.17.17,0,0,0-.22-.23C1696.26,317,1685.54,316.9,1683.71,316.82Z"/>
    <path class="cls-9" d="M1715.43,233.49a.92.92,0,0,0,1.27.62c29.61-12.66,38.36,3.92,40.09,2.18,2.62-2.62-16.59-19.21-41-5.24C1715.1,231.42,1715.23,232.6,1715.43,233.49Z"/>
    <path class="cls-9" d="M1675.64,234.36a.92.92,0,0,1-1.27.62c-29.61-12.66-38.36,3.92-40.09,2.19-2.62-2.62,16.59-19.22,41-5.24C1676,232.29,1675.85,233.47,1675.64,234.36Z"/>
    <path class="cls-10" d="M1663.32,247.72a24.54,24.54,0,0,1-10-10.82.16.16,0,0,0-.28,0c-2.29,6.58-1.67,9.63-1.67,9.63a15,15,0,0,1-6.93-8.28.11.11,0,0,0-.18,0c-3,4.58.66,10.32.66,10.32-5.41-2.65-7.63-5.41-8.29-6.37-.06-.09-.21-.05-.2.05a24.56,24.56,0,0,0,3,9.5c-5.57-1.85-7.94-3.8-8.64-4.47-.08-.08-.23,0-.22.08a34.16,34.16,0,0,0,6.54,15Z"/>
    <path class="cls-11" d="M1649,264c3.26-7.65,8.4-13.6,14-16.94a22.4,22.4,0,0,0-5.53-.69c-11.82,0-21.4,9.19-21.4,20.52a20.34,20.34,0,0,0,10.12,17.44A36.76,36.76,0,0,1,1649,264Z"/>
    <path class="cls-11" d="M1678.84,266.86A20.7,20.7,0,0,0,1663,247c-5.6,3.34-10.74,9.29-14,16.94a36.76,36.76,0,0,0-2.81,20.33,21.92,21.92,0,0,0,11.28,3.09C1669.26,287.39,1678.84,278.2,1678.84,266.86Z"/>
    <ellipse class="cls-12" cx="1662.9" cy="267.21" rx="10.04" ry="13.45"/>
    <path class="cls-10" d="M1723,247.72a24.48,24.48,0,0,0,10-10.82.16.16,0,0,1,.28,0c2.29,6.58,1.67,9.63,1.67,9.63a15,15,0,0,0,6.93-8.28.11.11,0,0,1,.18,0c3,4.58-.66,10.32-.66,10.32,5.41-2.65,7.64-5.41,8.29-6.37.06-.09.21-.05.2.05a24.56,24.56,0,0,1-3.05,9.5c5.57-1.85,7.94-3.8,8.64-4.47.08-.08.23,0,.22.08a34.16,34.16,0,0,1-6.54,15Z"/>
    <path class="cls-11" d="M1737.35,264c-3.26-7.65-8.4-13.6-14-16.94a22.4,22.4,0,0,1,5.53-.69c11.82,0,21.4,9.19,21.4,20.52a20.34,20.34,0,0,1-10.12,17.44A36.76,36.76,0,0,0,1737.35,264Z"/>
    <path class="cls-11" d="M1707.48,266.86A20.71,20.71,0,0,1,1723.35,247c5.6,3.34,10.74,9.29,14,16.94a36.76,36.76,0,0,1,2.81,20.33,21.89,21.89,0,0,1-11.28,3.09C1717.06,287.39,1707.48,278.2,1707.48,266.86Z"/>
    <ellipse class="cls-12" cx="1723.17" cy="267.21" rx="10.04" ry="13.45"/>
    <ellipse class="cls-11" cx="1665.52" cy="263.81" rx="1.31" ry="2.18"/>
    <ellipse class="cls-11" cx="1720.55" cy="263.81" rx="1.31" ry="2.18"/>
    <g>
      <path class="cls-9" d="M1768.48,361.85a.75.75,0,0,0,1.26.76c4.37-4.74,12.9-15.57,12.31-27.34-.71-14.22-5.22-25.89-2.88-36.9,4.94-23.22,18.09-48.93,17.27-84.59s-28.78-60.54-54.26-68.84c0,0,16.07-1.3,27.54,6.22,16.44,10.79,31.24,30.69,35.35,82.11,2.35,29.35-8.63,75.88-2.88,102.42s39.92,49.67,51.39,65.1c7.12,9.58,9.68,22.24,1.79,57.95a.61.61,0,0,0,1.13.42c4.73-9,15.93-32.29,17.22-53.81,1.65-27.37-22.19-39-26.31-67.17s3.29-61.37,9.87-83.77,28.78-76.29,28.78-105.32-9-66.35-30.42-89.57-64.13-40.63-93.73-33.17-66.6,45.61-60,98.69l-6.58,9.12s-22.61-2.9-42.34,9.54c-18.76,11.83-19.33,31.92-33.71,47.27-14,14.93-35.77,27.78-42.34,52.66s24.25,46,27.95,58.89c3.42,11.88-4.38,23.15-3.34,33.58.82,8.3,3.31,16.59,24.14,29.72a.75.75,0,0,0,1.09-.94,78.89,78.89,0,0,1-6.36-25.37c-1-12.73,10.37-18.33,10-38.65-.32-15.84-18.5-39.4-5.76-54.74,19.42-23.38,87.57-25.29,113.46-58.05,0,0,2,9.88,10.28,24.46,9.87,17.42,24.7,17.55,25.08,38.57.41,22.8-11.1,31.93-10.28,50.17s8.22,19.91,9.87,34C1774.07,344.36,1770.47,356.2,1768.48,361.85Z"/>
      <path class="cls-13" d="M1691.65,133.91a3,3,0,0,1-1.41-3.14c2-9.33,11.92-9.24,11.92-9.24,30.59.88,46.11,13.73,49.84,17.29a3,3,0,0,1,1,2.12c.06,6.92-3.93,10-5.74,11.07a3.81,3.81,0,0,1-1.69.49C1724.09,153.7,1698.42,138.26,1691.65,133.91Z"/>
    </g>
    <path class="cls-2" d="M1507.5,679.36c5.1,7.42,9.78,21.22,10.35,35.57,1,23.92-4.85,49.36-4.85,49.36-.32,6.74-4.23,15.44-3.57,18.35S1515,773,1515,773c-4.24,16.58-4.56,23.32-1.93,24s3.91-15.3,3.91-15.3-2.27,19.86.68,19.31c3.41-.64,4.11-18.18,4.11-18.18s-.82,16.49,1.39,17c3,.77,3.33-16.9,3.33-16.9s.35,15.12,3.3,14.57.94-31.14.94-31.14c-.51-3.69,3.21-30.24,4.37-54.92a425.67,425.67,0,0,0-.41-44.07Z"/>
    <path class="cls-2" d="M1401,674.19c-6.2,9-17.09,28.67-18.43,48.56-1.91,28,1.42,45.94,1.42,45.94,2.28,7,13.38,16.77,13.53,20.07s-9.14-4.7-9.14-4.7c9.27,16.22,8.92,17.76,6.35,19.36s-8.57-15-8.57-15,8.14,20.31,4.86,20.66c-3.8.39-9.61-18-9.61-18s5.64,17.2,3.46,18.48c-3,1.76-8.41-16.85-8.41-16.85s4,16.12.71,16.46-7.35-32.69-7.35-32.69c-.46-3.58-7-27.82-7.11-53.34-.16-30.27,8.39-62.07,8.39-62.07Z"/>
    <path class="cls-2" d="M1405.9,878.93c5.1,14.84-3.11,92.39-3.11,92.39,13.42,6.14,24.26,4.27,24.26,4.27,1.49-36.27,16.87-101.47,16.87-101.47Z"/>
    <path class="cls-2" d="M1467.81,873.43c9.26,34.83,7.8,101.84,7.8,101.84,13.81-12.16,25-9,25-9-1.45-58,2.11-102.41,2.11-102.41Z"/>
    <path class="cls-14" d="M1475.69,966.42l0,10.11,25.1-6.5-.33-11C1489.53,965.62,1475.69,966.42,1475.69,966.42Z"/>
    <path class="cls-14" d="M1403.65,962.83l-.86,8.49,24.28,7.82.3-9.18A75.41,75.41,0,0,1,1403.65,962.83Z"/>
    <path class="cls-3" d="M1388.38,995.45l-13.24,10.48a28.35,28.35,0,0,0-6.11,8.16c-2.38,5-3.23,10.65.3,14.86,4.17,5,12.09,7.94,17,7.28,8.7-1.17,20.33-12.88,37.28-29.24,2.55-2.46,3.48-2.85,4.47-8,.39-2.06,0-4.88,0-7-.18-8.57-.19-13.11-1.41-15.06a5.54,5.54,0,0,0-2.66-2.41c-3.76-2.15-5.75-1.5-15.28-4.66-2.59-.87-6.86,1.23-7.12,3.49-.38,3.18-.83,6.8-1,8.16C1400,985.76,1388.38,995.45,1388.38,995.45Z"/>
    <path class="cls-3" d="M1473.32,974.44c0,7.35-1.75,20.25-2.7,26.49a6.43,6.43,0,0,0,2.7,6.41,16.33,16.33,0,0,0,4.9,2,9.12,9.12,0,0,0,4.22,0c20.07-4.58,35-3.44,41.35-3.44,4.08,0,6.23-3.1,7.13-4.66,2-3.49,2.27-11.18,1.63-14a5.77,5.77,0,0,0-3.41-4.31,95.6,95.6,0,0,0-22.42-4.79,2.34,2.34,0,0,1-2-1.53,23.34,23.34,0,0,1-1.16-9.1,2.35,2.35,0,0,0-3-2.57c-9.24,3.52-20.4,5.75-25.11,6.6A2.82,2.82,0,0,0,1473.32,974.44Z"/>
    <path class="cls-15" d="M1414.19,760c-16.38,27.68-23.82,98.72-25.41,115.83a4.52,4.52,0,0,0,3,4.88c16.09,4.54,45.4,1,55.86-.54a6.12,6.12,0,0,0,5-5.08,58.91,58.91,0,0,0,.64-16.33c1.53,10,4.61,15.52,6.61,18.16a5.56,5.56,0,0,0,3.85,2.27c21.2,2.08,47-4.86,57.46-8,2.72-.83,4.46-3.86,4.05-7-5.65-43.73-30.9-113.29-30.9-113.29Z"/>
    <path class="cls-16" d="M1484.09,598.15c16-.42,34.76,11.4,42.78,16.89a14.31,14.31,0,0,1,5.52,7.89c7.72,26.55,9.85,35.29,10.26,41.43a5.22,5.22,0,0,1-4.17,5.7c-12.07,1.54-23.14,10.15-28.54,15-2.31,2.08-5.72,1.25-7-1.76a85.88,85.88,0,0,1-3.6-9.38c-5,25.27,1.23,77.42,3.43,93.88.34,2.55-1.52,4.77-3.75,4.48-36.35-4.73-74.66-1.52-88.71,0-2.8.3-5.07-2.5-4.63-5.68,6.41-47-2-94.51-2-94.51a64.26,64.26,0,0,1-3.39,11.19c-1.22,3-4.29,4.27-6.86,2.75-7.55-4.49-18.37-6.81-24.88-7.87-3.18-.52-5.33-4-4.73-7.59,3-18.27,11.54-38.33,15-45.94a13.82,13.82,0,0,1,4.09-5.31C1400.18,606,1425,602.81,1425,602.81l59.06-4.66"/>
    <path class="cls-5" d="M1424,572.51c3.5,9.32,4.38,30.3,4.38,30.3,23.63,14,51-4.12,51-4.12-8.16-12.2-2.69-30.14-2.69-30.14C1451.14,581.83,1424,572.51,1424,572.51Z"/>
    <path class="cls-2" d="M1530.9,483.32c0,33-33,93.4-80,95.16-46.57,1.74-77-48.46-82.28-87.83-6.81-51,13.18-87,77-87.83C1512.42,402,1530.9,418.54,1530.9,483.32Z"/>
    <path class="cls-17" d="M1416.11,453.16a22.35,22.35,0,0,0-6.37-.93c-12.82,0-23.21,10.81-23.21,24.15a24.58,24.58,0,0,0,6.27,16.5c0-.38,0-.74.06-1.13C1393.83,478.34,1402.81,461.27,1416.11,453.16Z"/>
    <path class="cls-17" d="M1409.74,500.53c12.81,0,23.2-10.81,23.2-24.15a24,24,0,0,0-16.83-23.22c-13.3,8.11-22.28,25.18-23.25,38.59,0,.39,0,.75-.06,1.13A22.7,22.7,0,0,0,1409.74,500.53Z"/>
    <path class="cls-17" d="M1505.51,491.75c0,.39,0,.75.06,1.13a24.63,24.63,0,0,0,6.27-16.5c0-13.34-10.39-24.15-23.21-24.15a22.35,22.35,0,0,0-6.37.93C1495.56,461.27,1504.54,478.34,1505.51,491.75Z"/>
    <path class="cls-17" d="M1465.43,476.38c0,13.34,10.39,24.15,23.2,24.15a22.7,22.7,0,0,0,16.94-7.65c0-.38,0-.74-.06-1.13-1-13.41-10-30.48-23.25-38.59A24,24,0,0,0,1465.43,476.38Z"/>
    <path class="cls-18" d="M1427.82,547.64c14.78-1.1,33.9-10.67,39.58-13.67a.8.8,0,0,1,1.12.94,26.86,26.86,0,0,0-.08,14.59,1.48,1.48,0,0,1-1.21,1.92c-12.5,1.43-30.93-1.37-39.46-2.87A.46.46,0,0,1,1427.82,547.64Z"/>
    <path class="cls-7" d="M1441.38,508.76c-1.05,1.1-5.27,6.59-4.21,7.69s13.71,0,13.71-1.1-12.66,1.1-12.66,0,4.22-5.49,4.11-6.59S1441.38,508.76,1441.38,508.76Z"/>
    <ellipse class="cls-19" cx="1415.54" cy="476.93" rx="7.38" ry="13.17"/>
    <ellipse class="cls-19" cx="1481.99" cy="476.93" rx="7.38" ry="13.17"/>
    <ellipse class="cls-17" cx="1415.54" cy="476.38" rx="1.05" ry="1.65"/>
    <ellipse class="cls-17" cx="1479.88" cy="476.38" rx="1.05" ry="1.65"/>
    <path class="cls-20" d="M1451.51,416.27c-37.33,3-89,42-102,52.34a1.27,1.27,0,0,1-1.94-1.47c6.26-19.62,16.87-24.6,16.87-24.6-15.43,5.36-29.22,12.77-30.4,12s.68-3.48,1.33-4.71c7.51-14.34,64.75-86.06,108.38-90.47,56-5.66,117.64,63.53,129.33,84.24.66,1.17-4.83,1-8.59-.29-8-2.76-23.91-9.88-23.91-9.88,3.92,5.23,6.56,12.4,7.92,16.75a1.57,1.57,0,0,1-2.23,1.91C1485.31,417.37,1451.51,416.27,1451.51,416.27Z"/>
    <g>
      <path class="cls-21" d="M225.64,318.72c14.35,3.38,43.06,27,49.81,25.33s39.81-37.68,39.81-43.59-8.85-14.66-7.66-17c1.69-3.37,8.66,10.76,12.89,9.91s5.91-19.41,8.44-19.41c3.38,0,.31,15.26.31,15.26s8.39-15.76,10.67-14.42c2.87,1.69-7.45,18.42-7.45,18.42s11.77-14.52,12.51-10.82c.85,4.22-9.13,14.2-9.13,14.2s10.82-8.24,10.82-5.76-16,16.45-20.26,22.8-41.66,57.48-54.33,55.79-57.41-32.09-57.41-32.09Z"/>
      <path class="cls-21" d="M90.66,312.64c-26,15-42.37,45.43-43.69,59.07C45.89,382.83,61.66,419.79,68,434.92s7.37,30.19,10.72,28.39c.75-.4,0-11.36,0-11.36S83.4,463.6,85,462.5c2.5-1.77-2.82-14.2-2.82-14.2s5.4,12.9,7.92,12-5.4-14.82-5.4-14.82,6.54,8.92,9,7.16-8.87-11.36-8.94-13.91,9.68,1,9.54-4.07c-.05-1.7-11.76.5-15.3-4.5s-14.9-53.81-11.66-59.85,34.33-38.65,34.33-38.65Z"/>
      <path class="cls-22" d="M116.66,531.64c-2,46,5,58,5,71,0,16.12-17,79-17,79l15,5c11-18,29-70,29.55-80.5.92-17.48-2.55-96.5-2.55-96.5Z"/>
      <path class="cls-23" d="M106.32,678.87a3.15,3.15,0,0,0-4.12,2.49c-1.85,10.67-7.34,16.88-5.54,22.28,2,6,36.61,17,42,17,5,0,8.2-2.94,7.6-7.47s-8.6-9.53-13.6-12.53c-4.62-2.77-10.61-5.51-11.31-9.26s.7-6.21,0-7C120.86,683.86,111.62,680.67,106.32,678.87Z"/>
      <path class="cls-22" d="M163.66,520.64c-4,11-6.82,73.1-5,84,3,18,27,69,27,69l16-9c-7-34-16.47-48-17.15-60-.85-15,17.15-78,17.15-78Z"/>
      <path class="cls-23" d="M198.66,663.64c1.13-1.13,4.11-1.33,5,0,2,3,6,10,6,17,0,5-22,29-29,32-3.79,1.62-10-3-10-9s12.3-16.95,15-20-1-7-1-9S196.66,665.64,198.66,663.64Z"/>
      <path class="cls-24" d="M133.66,268.64c-15,19-75,65-75,65,13,0,18-2,18-2-2.31,11.94-10,17-10,17,10-7,18-6,18-6-1,9-7,19-7,19,8-9,19.72-15.6,19.72-15.6,16.75,29.44,22.72,95.53,22.72,95.53,17.16,7.37,72.49,2.16,72.49,2.16-5.2-38.22,27.27-95.56,27.27-95.56,13.87,5.35,27.63,14.94,27.63,14.94a128.64,128.64,0,0,0-8.83-16.47,131.57,131.57,0,0,1,21.13.54,159.61,159.61,0,0,0-11.13-12.54c8-.8,16-1,16-1-69-44-90-67-90-67Z"/>
      <path class="cls-25" d="M118.66,427.64c-48.38,123-35,149-35,149,11-23,34-40,34-40,8,11,14,33,14,33,4-19,25-35,25-35,17,11,25,31,25,31,3-17,16-31,16-31,14,7,26,27,26,27,5-31-30.47-136-30.47-136C155.66,430.64,118.66,427.64,118.66,427.64Z"/>
      <path class="cls-21" d="M233.88,165.18c-5.22,61.46-43.22,108.59-82.95,108.52-40.27-.06-66.27-58.06-69.13-116.14C80.38,128.63,110,73,160.13,73S238.79,107.29,233.88,165.18Z"/>
      <path class="cls-26" d="M124.68,192.55c-8.44,3.42-17.15,3.59-23.93,1.1a19,19,0,0,0,7.69,8.49c10.36,6,24.52.85,31.63-11.47a28.63,28.63,0,0,0,3.84-17.25C141.55,181.17,134.52,188.56,124.68,192.55Z"/>
      <path class="cls-27" d="M124.68,192.55c9.84-4,16.87-11.38,19.23-19.13-.71-6.7-4.06-12.61-9.72-15.88-10.35-6-24.51-.84-31.62,11.48-4.75,8.21-5.15,17.55-1.82,24.63C107.53,196.14,116.24,196,124.68,192.55Z"/>
      <path class="cls-28" d="M118,167.18c8.45-3.42,17.15-3.59,23.94-1.09a19,19,0,0,0-7.7-8.5c-10.35-6-24.51-.84-31.62,11.47a28.64,28.64,0,0,0-3.85,17.25C101.08,178.56,108.11,171.17,118,167.18Z"/>
      <circle class="cls-10" cx="125.94" cy="173.19" r="4.71"/>
      <path class="cls-26" d="M188.34,192.65c8.52,3.45,17.29,3.62,24.13,1.11a19.13,19.13,0,0,1-7.76,8.56c-10.44,6-24.71.85-31.88-11.56A29,29,0,0,1,169,173.37C171.34,181.18,178.42,188.63,188.34,192.65Z"/>
      <path class="cls-27" d="M188.34,192.65c-9.92-4-17-11.47-19.39-19.28.73-6.75,4.1-12.71,9.8-16,10.44-6,24.72-.84,31.88,11.57,4.79,8.28,5.19,17.69,1.84,24.83C205.63,196.27,196.86,196.1,188.34,192.65Z"/>
      <path class="cls-28" d="M195.12,167.08c-8.51-3.45-17.28-3.62-24.12-1.11a19.08,19.08,0,0,1,7.76-8.56c10.44-6,24.71-.85,31.88,11.56a28.88,28.88,0,0,1,3.87,17.39C212.13,178.55,205,171.1,195.12,167.08Z"/>
      <circle class="cls-10" cx="187.07" cy="182.39" r="4.82"/>
      <path class="cls-29" d="M135.21,235.63c.13-12.23,14.77-5.73,19.51-5.73,5,0,19.18-8.57,19.5,4.31.36,14.55-10.78,9.61-17.83,9.61C151.7,243.82,135.08,249.1,135.21,235.63Z"/>
      <path class="cls-30" d="M144.73,231.3a21.73,21.73,0,0,0,0,5.18l1,1.14c2-1.75,2.35-5.07,2.35-5.07A5.47,5.47,0,0,0,144.73,231.3Z"/>
      <path class="cls-30" d="M150.77,233a19.83,19.83,0,0,0,0,4.66c2,.75,2.62,0,2.62,0a6.6,6.6,0,0,1,.46-4.66A3.56,3.56,0,0,0,150.77,233Z"/>
      <path class="cls-30" d="M156.29,232.59c-.49,2.45,0,3.33,0,3.33,1.19-.46,2.53.78,2.53.78a17.94,17.94,0,0,0,.77-4.11A7.15,7.15,0,0,0,156.29,232.59Z"/>
      <path class="cls-30" d="M162.17,231.3c-.33,2.08.24,4.41,1.1,4,2.93-1.48,2.93-5.22,2.93-5.22C164.52,229.64,162.17,231.3,162.17,231.3Z"/>
      <path class="cls-30" d="M160.7,242.43a8.19,8.19,0,0,1-.09-3.68,4.49,4.49,0,0,1,2.66-2.05c.58,1.67,0,5.73,0,5.73A3.33,3.33,0,0,1,160.7,242.43Z"/>
      <path class="cls-30" d="M145.31,242.66c.42-5.12,1.82-4.71,1.82-4.71,1.29,1.25,2.06,4.71,2.06,4.71A6.49,6.49,0,0,1,145.31,242.66Z"/>
      <path class="cls-30" d="M167.2,242.66c-.33-3.46-.42-6-.42-6a6,6,0,0,0,2.62-2.24c1.16,1.83.46,6,.46,6C169.55,242.11,167.2,242.66,167.2,242.66Z"/>
      <path class="cls-30" d="M138.68,238.67a1.55,1.55,0,0,1,2.29-.92c1.75,1.54,1.71,4.91,1.71,4.91C140.37,241.72,138.68,238.67,138.68,238.67Z"/>
      <path class="cls-30" d="M152.73,241.58a5.26,5.26,0,0,1,1.69-3c1.38.22,2.35,3,2.35,3A9.43,9.43,0,0,1,152.73,241.58Z"/>
      <path class="cls-31" d="M150.73,122.26c-3.5,2.8,17.89,7.39,21.28,7.78s6.56-.18,10.17.44,12.8,5.67,13.77,3.65-11.6-5.59-14-6.14-9,0-10.65-.16S152.19,121.1,150.73,122.26Z"/>
      <path class="cls-31" d="M172.44,121.62c2.09.55.57,5.65,1.06,8.22s1.46,7.72.22,7.69-3.07-3.85-2.67-5.28S170.35,121.07,172.44,121.62Z"/>
      <path class="cls-31" d="M182.14,139.88c2.59-.66,1.93-2.39,2.81-5.82s1.32-10.77-.69-10.77-2.29,6.89-2,8.43-2.1,4.92-1.87,6.27A2.8,2.8,0,0,0,182.14,139.88Z"/>
      <path class="cls-31" d="M162,116.53c-1.77,1.5-1.4,3.26-2.13,7.38s-1.33,12.54,0,11.94,1.82-8.43,1.69-10.08,1.62-6.16,1.52-7.62S162,116.53,162,116.53Z"/>
      <path class="cls-32" d="M176.07,146.09a1,1,0,0,0,1.11,1.18c36.41-5.72,39.33,17.62,41.84,16.07,3.8-2.36-10.25-29.21-41.68-20.15C176.52,143.43,176.2,144.92,176.07,146.09Z"/>
      <path class="cls-32" d="M137.22,146.29a1,1,0,0,1-1.11,1.16C99.92,143,96.89,165.23,94.4,163.81c-3.77-2.14,10.35-28,41.57-20.23C136.79,143.78,137.11,145.19,137.22,146.29Z"/>
      <path class="cls-32" d="M228.66,152.64c-6.4,63.91,22.12,163.22,22.12,163.22-4.27-47.53,8.41-92.8,8.41-92.8,10.66,8.19,16.35,26.22,16.35,26.22,2.18-43.64-26.12-100.6-26.12-100.6a49.12,49.12,0,0,1,26.17,22.6C265,110.82,242,98.2,242.12,98.51,245,79.66,238,59,238,59c-21.33-1.64-41.44,4.32-41.44,4.32C173.87,51,168.53,34.64,168.53,34.64c-18.48,9.83-28.78,28.63-28.78,28.63-25.6,3.28-38.57-8.37-38.57-8.37C92.65,63.09,85,88.68,85,88.68,52.26,110,40.21,168.16,40.21,168.16,53.72,149.31,65.1,146,65.1,146,44.46,194.29,36.66,255.84,36.66,255.84c12.09-24.59,25.59-32,25.59-32,5.61,40.11-2.9,105.76-2.9,105.76,34.74-62.41,29.31-178,29.31-178,59.56-25.94,90-49,90-49C189.64,126.8,228.66,152.64,228.66,152.64Z"/>
    </g>
  </g>
  <g id="text">
    <rect class="cls-33" x="559.37" y="54" width="801.25" height="95.92" rx="3.63"/>
    <g>
      <path class="cls-34" d="M633.19,88.18c0,.52-.42.78-1.25.78q-2.16,0-17.06-.58-.33,9.81-.34,13.69,0,4.58.54,13.77t.54,13.77a.88.88,0,0,1-.51.93,10.37,10.37,0,0,1-1.59.19c-2.26.21-5.59.31-10,.31q-7.31,0-10.25-.31-1.59-.19-1.59-1.2,0-4.57.57-13.73t.56-13.73q0-3-.45-13.5-11.34.78-18.08.78-.9,0-.9-.39a16.1,16.1,0,0,1,.79-3c.6-1.81.94-2.91,1-3.29.11-1.22.24-2.43.4-3.65.26-1.94.71-2.91,1.36-2.91l.79,0Q587,77,604.91,77q5.1,0,18.81-.73l7.43-.39a4.16,4.16,0,0,1,1.3.1c.11.06.19.31.23.75q0,1-.12,2.91c-.07,1.37-.11,2.34-.11,2.91a15.73,15.73,0,0,0,.37,2.85A16.84,16.84,0,0,1,633.19,88.18Z"/>
      <path class="cls-34" d="M715.76,129.53c0,.54-.17.88-.51,1a6.27,6.27,0,0,1-1.59.19c-2.3.16-5.55.23-9.74.23-5.93,0-9.42-.07-10.46-.23s-1.56-.5-1.56-1c0-2,.15-5.11.43-9.21s.42-7.17.42-9.21c0-1-.41-1.59-1.24-1.74q-1.93-.31-13.72-.31t-13.82.31c-.83.13-1.25.71-1.25,1.74q0,3,.28,9.06t.29,9.05c0,.78-.51,1.23-1.53,1.36-1.21.16-4.76.23-10.66.23-5.1,0-8.34-.07-9.74-.23-1.1-.13-1.64-.53-1.64-1.2q0-4.19.59-12.64t.6-12.69q0-4.5-.57-13.51t-.57-13.52c0-.57.4-.86,1.19-.86,1.17,0,2.94,0,5.3.12s4.13.12,5.3.12,3,0,5.47-.12,4.26-.12,5.46-.12c.65,0,1,.24,1,.7q0,2.91-.63,8.71t-.62,8.71q0,1.35,1.08,1.59,1.47.32,14.5.31,12.13,0,14.06-.31a1.47,1.47,0,0,0,1.36-1.59c0-1.86-.14-4.68-.4-8.44s-.4-6.59-.4-8.47c0-.8.48-1.21,1.42-1.21,1.1,0,2.77,0,5,.12s3.93.12,5.07.12,2.76,0,5-.12,3.94-.12,5.07-.12,1.65.32,1.65.94q0,4.45-.54,13.45t-.54,13.5q0,4.23.59,12.69T715.76,129.53Z"/>
      <path class="cls-34" d="M784.68,118.67a35.76,35.76,0,0,1-1,6.13q-1,4.85-1.81,5.78a2.42,2.42,0,0,1-1.87.73c-.34,0-.91,0-1.7-.11q-4.14-.39-24.14-.39-4.37,0-13,0t-12.92,0c-1.24,0-1.87-.37-1.87-1.12q0-4.35.71-13.05t.71-13.06q0-4.41-.68-16.48-.17-3.1-.62-9.27l-.06-.54c-.08-.6.4-.9,1.42-.9,2.79,0,7,.06,12.6.16s9.82.16,12.61.16,6.92-.06,12.47-.16,9.71-.16,12.47-.16c2,0,3.09.51,3.4,1.52a50.4,50.4,0,0,1,.87,5.41q.6,4.52.6,5.49c0,.54-.38.81-1.13.81-.23,0-.63,0-1.19,0q-15.08-.85-27.09-.85c-2,0-3.23.32-3.68,1a8.31,8.31,0,0,0-.29,3c0,1.76.38,2.93,1.14,3.5a6.48,6.48,0,0,0,3.68.73c.38,0,1.11,0,2.21-.06s2,0,2.72,0q7.14,0,14.45-.28l3.12-.19q1.92-.15,3.06-.15c.9,0,1.36.29,1.36.89q0-.83-1,5.93a41.87,41.87,0,0,0-.46,6.21c0,.52-.55.77-1.64.77l-5.1-.38c-2.15-.16-7.07-.24-14.73-.24h-6c-1.55,0-2.46.26-2.72.78a21.59,21.59,0,0,0-.06,2.4c0,2,.19,3.24.57,3.8q1,1.48,7.25,1.75h8.28q3,0,8.92-.37c4-.24,6.9-.37,8.87-.37C784.26,117.27,784.68,117.74,784.68,118.67Z"/>
      <path class="cls-34" d="M889.7,130.34c0,.19-.38.31-1.14.39-1.43.16-5,.23-10.82.23-5,0-8.31-.07-10.09-.23a8.72,8.72,0,0,1-1.41-.19,2,2,0,0,1-.8-.78l-2.49-4.5q-2.21-3.87-6.91-11.44c-.68-1-2.25-1.56-4.71-1.67,1.14.06-.81.08-5.83.08-.57,0-.85.66-.85,2a62.77,62.77,0,0,0,.71,7.87,64.89,64.89,0,0,1,.71,7.88c0,.44-.17.69-.51.77l-1.59.08q-3.35.15-10.43.15c-5.4,0-8.65-.07-9.74-.23s-1.65-.55-1.65-1.2q0-4.26.6-12.88t.59-12.91a235.89,235.89,0,0,0-1.07-25.6l-.06-.55c0-.43.56-.73,1.78-.89s7-.31,17.32-.46c7-.11,12.56-.16,16.71-.16q12.91,0,21.08,4,9.24,4.5,9.24,13c0,3.78-.8,6.79-2.38,9s-4.52,4.43-8.79,6.55c-.86.42-1.3.8-1.3,1.17t6.91,9.73Q889.7,129.34,889.7,130.34ZM865.9,95.55A6.56,6.56,0,0,0,861.36,89q-3.51-1.4-11-1.4c-3.59,0-5.49.38-5.72,1.13a45.77,45.77,0,0,0-.34,7.6q0,.89.06,2.64c0,1.16,0,2,0,2.59,0,.13.61.26,1.82.39a70,70,0,0,0,7.25.35Q865.9,102.3,865.9,95.55Z"/>
      <path class="cls-34" d="M964.22,111.69q0,9.89-3.45,13.5-6.35,6.59-31.68,6.59a98.35,98.35,0,0,1-17.62-1.2q-9.86-2-12.81-7.41-1.47-2.69-1.47-9.54c0-1.06.06-2.64.17-4.73s.17-3.66.17-4.7q0-4.5-.62-13.5t-.63-13.45c0-.62.4-.94,1.19-.94,2.31,0,5.79.07,10.46.2s8.15.19,10.45.19c1,0,1.42.29,1.42.86q0,5.11-.48,15.34t-.49,15.34c0,4.06.63,6.8,1.87,8.22q2.5,2.91,10.43,2.91,11.61,0,11.62-7.72,0-5.62-.4-16.87T942,77.9c0-.8.48-1.2,1.42-1.2q3.35,0,10.09-.19t10.08-.2c1.1,0,1.65.32,1.65.94q0,4.45-.54,13.45t-.54,13.5c0,.83,0,2.08.06,3.74S964.22,110.86,964.22,111.69Z"/>
      <path class="cls-34" d="M1051.67,77.52q0,4.41-.54,13.28t-.54,13.32v25.56c0,.7-.55,1-1.64,1-.91,0-2.28,0-4.11.08s-3.2.08-4.11.08-2.45-.06-4.42-.16-3.44-.15-4.42-.15a4,4,0,0,1-2.43-1.28q-4.08-3.77-18.36-16.68Q1007.19,109,999.2,102a2.56,2.56,0,0,0-.85-.46.9.9,0,0,0-.46.85q0,4.5.37,13.5t.37,13.49c0,.91-.51,1.36-1.53,1.36H977.49c-1.09,0-1.64-.4-1.64-1.2q0-4.19.6-12.64T977,104.2q0-4.45-.54-13.34T976,77.56c0-.57.74-.86,2.21-.86,2.19,0,4.9-.1,8.11-.31.75,0,2.24-.22,4.47-.5a39.43,39.43,0,0,1,4.48-.35q.67,0,2.1,1.32l21.13,19.82q2.84,2.67,8.56,7.83a4.1,4.1,0,0,0,2.44,1.2c.49,0,.73-1,.73-3q0-4.08-.65-12.26t-.65-12.29c0-1,.4-1.44,1.19-1.44q3.39,0,10.25-.19c4.58-.13,8-.2,10.26-.2C1051.31,76.31,1051.67,76.72,1051.67,77.52Z"/>
      <path class="cls-34" d="M1138.49,77.52q0,4.41-.54,13.28t-.54,13.32v25.56c0,.7-.54,1-1.64,1-.91,0-2.28,0-4.11.08s-3.2.08-4.11.08-2.45-.06-4.42-.16-3.43-.15-4.42-.15a4,4,0,0,1-2.43-1.28q-4.08-3.77-18.36-16.68Q1094,109,1086,102a2.46,2.46,0,0,0-.85-.46.92.92,0,0,0-.46.85q0,4.5.37,13.5t.37,13.49c0,.91-.51,1.36-1.53,1.36h-19.6q-1.65,0-1.65-1.2,0-4.19.6-12.64t.59-12.69q0-4.45-.54-13.34t-.53-13.3c0-.57.73-.86,2.21-.86q3.29,0,8.1-.31c.75,0,2.25-.22,4.48-.5a39.28,39.28,0,0,1,4.47-.35q.67,0,2.1,1.32l21.13,19.82q2.84,2.67,8.56,7.83a4.1,4.1,0,0,0,2.44,1.2c.49,0,.73-1,.73-3q0-4.08-.65-12.26t-.65-12.29c0-1,.4-1.44,1.19-1.44q3.4,0,10.26-.19t10.25-.2C1138.13,76.31,1138.49,76.72,1138.49,77.52Z"/>
      <path class="cls-34" d="M1172.5,102.07q0,4.58.34,13.77t.34,13.77c0,.51-.17.84-.51,1q-.12,0-1.47.15-3.69.32-9.86.31a104,104,0,0,1-10.54-.31q-1.65-.22-1.65-1.2c0,.41.17-1.86.51-6.83q1-15.7,1-20.63,0-4.16-.39-12.45c-.27-5.54-.4-9.68-.4-12.45,0-.57.43-.86,1.3-.86,1.17,0,2.94,0,5.3.12s4.13.12,5.3.12,2.9,0,5.18-.12,4-.12,5.19-.12,1.64.29,1.64.86c0,2.77-.22,6.91-.65,12.45S1172.5,99.3,1172.5,102.07Z"/>
      <path class="cls-34" d="M1260.34,77.52q0,4.41-.54,13.28t-.54,13.32v25.56c0,.7-.54,1-1.64,1-.91,0-2.27,0-4.11.08s-3.2.08-4.1.08-2.46-.06-4.42-.16-3.44-.15-4.42-.15a4,4,0,0,1-2.44-1.28q-4.08-3.77-18.36-16.68-3.91-3.62-11.9-10.63a2.46,2.46,0,0,0-.85-.46.92.92,0,0,0-.45.85q0,4.5.36,13.5t.37,13.49c0,.91-.51,1.36-1.53,1.36h-19.6q-1.65,0-1.65-1.2,0-4.19.6-12.64t.59-12.69q0-4.45-.53-13.34t-.54-13.3c0-.57.73-.86,2.21-.86q3.29,0,8.1-.31c.76,0,2.25-.22,4.48-.5a39.45,39.45,0,0,1,4.47-.35c.46,0,1.15.44,2.1,1.32l21.14,19.82c1.88,1.78,4.74,4.39,8.55,7.83a4.12,4.12,0,0,0,2.44,1.2c.49,0,.74-1,.74-3q0-4.08-.66-12.26t-.65-12.29c0-1,.4-1.44,1.19-1.44q3.4,0,10.26-.19t10.25-.2C1260,76.31,1260.34,76.72,1260.34,77.52Z"/>
      <path class="cls-34" d="M1345.92,129.49q.11,1-1.59,1a59.78,59.78,0,0,1-6.2-.86q-5.13-.84-6.32-1.16a87.62,87.62,0,0,1-22.73,3.18q-17.5,0-28.73-8t-11.1-19.9q0-12.28,10.76-20.4Q1291.13,75,1308.86,75a56.73,56.73,0,0,1,16.2,2.25q8.22,2.49,12.92,7c.65.62,1,1.06,1,1.31q0,1.24-5.07,5.57c-3.39,2.88-5.57,4.33-6.55,4.33a10.81,10.81,0,0,1-2.61-1.6,25.71,25.71,0,0,0-5.66-2.94,27.32,27.32,0,0,0-9.52-1.59q-8.51,0-13.49,4.34a12.61,12.61,0,0,0-4.65,10,12,12,0,0,0,4.82,10q5,3.8,14.11,3.8a48.83,48.83,0,0,0,12.92-2c-.11-.85-.45-3-1-6.52a38.21,38.21,0,0,1-.74-6.51.85.85,0,0,1,.74-.9,4,4,0,0,1,.91-.07q1.63,0,4.95.21c2.21.14,3.89.21,5,.21s3,0,5.44-.17,4.23-.18,5.44-.18c.94,0,1.42.43,1.42,1.28,0,1.25-.11,3.12-.32,5.63s-.31,4.38-.31,5.62q0,5,1.08,15Z"/>
    </g>
    <path class="cls-33" d="M1287.39,264.43c-12.61,32.31-5.56,42.7-19.65,62.29-11.5,16-49.37,25.9-59.14,25.6-11.28-.35-11.28-4.56-24.75-5.4-4.11-.26-25.79,5.52-34.07,5.27s-14.48-.38-18.6-.38c-2.44,0-3.65-1-3.65-2.9,0-9.24,4.26-4.5,5-23s-2.83-51.06-2.83-60.3c0-9.67,7.75-23.94,7-43.23s-9.18-33.94-9.18-43.52c0-1.77,1.21-2.82,3.65-3.16,6-.67,18.85,3.75,32.47,3.75,25.89,0,39.57-4.38,47.22-3.62,19.93,2,33.87,10.09,46.78,15.13,17.95,7,19,18.16,25.09,31.78C1288.63,235.56,1292.33,251.74,1287.39,264.43Zm-44.11-2c-2.57-14,1.61-31.06-8.93-37.55-10.94-6.73-19.36-10.94-37.85-11.24-13-.22-19.42,1.72-19.42,5.17,0,5,4.41,8.74,4.24,18.7s-4.75,21.1-4.75,26.06,2.9,17.18,3.07,27-2.56,12.2-2.56,17.16q0,5.43,20.17,5.42c14.55,0,25.42-10.39,33.74-20.05C1238.8,283.88,1247.82,287.15,1243.28,262.41Z"/>
    <path class="cls-33" d="M1115.57,348.06q0,2.24-3.09,3.1c-2.48.66-11.15.15-23.06,1s-19.42-.33-22.81-1c-2.81-.58-4.58-2.44-5.33-5.58-5.46-10.82-5-18.26-6.57-19.09-1.32-.58-3-7.45-27-3.31-13.84,2.38-27.72,2.81-28.63,3.56A17.33,17.33,0,0,0,994.35,340c.59,7-3.47,10.58-5.7,11.16-2.81.66-11.44,3.46-28.26,1-12.51-1.84-19-1.2-19-3.6,0-1.64,5-6.17,15.94-36.13,3.36-9.25,11.2-30.35,12.41-43,1.65-17.38,8.76-24.67,12.52-34.9,5.08-13.81,10.78-17.59,14-26.33,4.38-12,5.39-26.76,6.16-29.17,1-3.14,2.14-4.71,3.47-4.71q3.35,0,10.35.62c4.66.41,8.16.62,10.47.62s5.52-.15,9.86-.44,7.57-.43,9.73-.43c1.56,0,3,1.36,4.33,4.09,2.24,4.78,11.32,14.81,13.78,33.57,2.18,16.53,12.43,24.35,21.21,47.15,2.48,6.46,5.27,20.81,7.45,26.48,4.14,10.76,4.81,23.6,7.45,30.62C1109.46,340.34,1115.57,346.55,1115.57,348.06Zm-87.88-112.92c-1.73,3.63-8.27,11.91-8.8,23.67-.6,13.63-6.69,20.45-6.69,22.69,0,1.48,2.48,2.31,7.44,2.47,2.56.17,6.32-3.82,12.19-3.82,5.45,0,8.92,3.41,9.5,2.09a5,5,0,0,0,.24-1.74c0-2.72-7-9.73-5.7-22.56C1036.79,248.7,1029.43,238.44,1027.69,235.14Z"/>
    <path class="cls-33" d="M937.54,316.29c0,3.66,2.43,8,1,17.78q-2.29,15.94-4.07,19a4.76,4.76,0,0,1-4.21,2.42,32,32,0,0,1-3.83-.38c-6.2-.85-12.48-4.78-42.48-4.78-6.54,0-28.09,3.46-41,3.37s-22.6-.12-29.06-.12c-2.8,0-4.6-1.27-4.21-3.7,4.5-27.63.53-23.81,1.6-42.89.41-7.35,4.53-19.72,5.46-25.59,2.55-16.16-2.84-24.95-4.26-30.63-2.55-10.21-.85-9.36-.22-14.9.86-7.45,4-11.89,3.62-21.69-.25-6.8-6-17.87-4.25-24.68l1.7-9.36c1.7-5.1,6.22-5.1,8.51-5.1,6.29,0,12.91,1.36,25.53,1.7s16.06-1,22.35-1,13-3.17,25.3-.72c8.51,1.7,15.16,1.53,21.28,2.55,5.1.85,8.51,1.7,11.91,5.1,1.41,1.42,7.64,4.87,7.22,14.8s1.39,15.64.44,17.54c-1.7,3.4-7.66,2.55-9.36,2.55-.51,0-7.66.85-11.07-.85-11.06-5.1-26.81-1.46-44.83-1.46-4.5,0-7.26,1.07-8.28,3.19-.49,4.23,1.21,4.66,1.21,10.19,0,5.78-1,9.23.7,11.1,1.44,1.61,4.21,2.42,8.29,2.42.84,0,2.5-.06,5-.19s3.92-.64,6.12-.19c19.06,3.87,21.54-.3,32.5-.89l7-.64c2.89-.34,4.41-.46,5.93.3,1.7.85,1.7,4,1.7,6,0-1.79-.17-.32-1.7,14.46-.68,6.8.7,14.8.7,21.6q0,2.55-3.7,2.55l-16.57-2c-4.85-.51-10.21.85-28,0l-10.25,0c-5.11,0-8.79.83-9.38,2.53-.09.42-.13,3.06-.13,7.9,0,6.46-1.56,14.08-.71,15.95,1.45,3.23,1.71,11.06,11.07,8.5-.17,0,16.16-6.8,25.84-6.22,4.5.27,11.2-.41,20.08-1.21s6.67-1.07,11.09-1.07C930.9,309.49,937.54,313.23,937.54,316.29Z"/>
    <path class="cls-33" d="M798,264.42c0,12-6.64,26.69-10.92,38.63-4.54,12.64-5.93,27.24-10.92,32.75-15.95,17.63-33.2,13.12-58.33,16.3-10.52,1.33-15.56-5.38-30.68-3.71-4.08.46-15.11,4.2-28,3.59-8.26-.4-14.45-.38-18.56-.38q-3.65,0-3.64-2.89c0-9.23,3.31-9.53,4-28,.16-4-2.64-27.49-2.52-31.07.44-12.89.64-16.83.64-24.05,0-9.64,6.79-25.56,6.08-44.8s-8.22-32.18-8.22-41.74q0-2.64,3.64-3.14c6-.67,15.35,1.21,28.93,1.21,25.83,0,42.94-1.84,50.57-1.09,19.88,2,30.89,11.33,43.48,17.05,18.47,8.4,22.1,16.16,28.22,29.74C797.64,235.62,798,250.84,798,264.42Zm-45.35,8.4c0-21.9-4.12-32.17-12.59-41.15-8.56-9.3-20.22-17.93-34.31-17.93-12.91,0-19.07,1.73-19.37,5.15-.9,10.27,10.85,12,5.81,23.7-5.47,12.78-6.14,16-6.31,21-.4,11.79,2.78,18.82,2.95,28.58s-2.45,10.5-2.45,15.44q0,5.42,20.13,5.41c14.5,0,19.37-5.32,27.67-15C742,288.87,752.63,284.58,752.63,272.82Z"/>
    <path class="cls-35" d="M807.65,255.52c0,11.5-6.37,25.62-10.48,37.08-4.35,12.13-5.69,26.15-10.48,31.44-15.31,16.93-31.87,12.6-56,15.65-10.1,1.28-14.93-5.17-29.44-3.56-3.92.44-14.51,4-26.89,3.44-7.92-.38-13.87-.36-17.81-.36-2.34,0-3.5-.93-3.5-2.78,0-8.86,3.18-9.15,3.86-26.9.15-3.86-2.53-26.39-2.42-29.83.42-12.38.61-16.15.61-23.09,0-9.25,6.52-24.53,5.84-43s-7.89-30.9-7.89-40.07c0-1.69,1.16-2.7,3.5-3,5.71-.64,14.73,1.17,27.77,1.17,24.79,0,41.22-1.77,48.54-1.05,19.08,1.93,29.66,10.87,41.74,16.36,17.73,8.07,21.21,15.52,27.09,28.56C807.32,227.88,807.65,242.48,807.65,255.52Zm-43.53,8.06c0-21-4-30.88-12.09-39.5-8.21-8.93-19.41-17.21-32.93-17.21-12.4,0-18.31,1.66-18.6,4.95-.87,9.85,10.42,11.46,5.58,22.74-5.25,12.27-5.9,15.38-6.06,20.12-.39,11.32,2.68,18.07,2.84,27.44s-2.36,10.07-2.36,14.82q0,5.21,19.32,5.2c13.93,0,18.6-5.12,26.57-14.37C753.87,279,764.12,274.87,764.12,263.58Z"/>
    <path class="cls-35" d="M945.49,303.89c0,3.46,2.3,7.59.93,16.84q-2.17,15.09-3.86,18a4.5,4.5,0,0,1-4,2.3,29.63,29.63,0,0,1-3.62-.36c-5.87-.81-11.83-4.53-40.24-4.53-6.2,0-26.61,3.28-38.85,3.2s-21.41-.12-27.53-.12c-2.66,0-4.36-1.2-4-3.51,4.26-26.17.5-22.55,1.51-40.63.38-7,4.29-18.68,5.17-24.23,2.41-15.32-2.69-23.64-4-29-2.42-9.67-.81-8.87-.21-14.12.81-7.06,3.79-11.26,3.43-20.54-.24-6.44-5.64-16.93-4-23.38l1.61-8.87c1.61-4.83,5.89-4.83,8.06-4.83,6,0,12.23,1.29,24.19,1.61s15.21-.93,21.17-.93,12.36-3,24-.68c8.06,1.61,14.35,1.45,20.15,2.41,4.83.81,8.06,1.62,11.28,4.84,1.34,1.34,7.24,4.61,6.84,14s1.32,14.81.42,16.61c-1.61,3.23-7.26,2.42-8.87,2.42-.48,0-7.25.81-10.48-.81-10.48-4.83-25.4-1.38-42.47-1.38-4.26,0-6.88,1-7.84,3-.47,4,1.14,4.42,1.14,9.65,0,5.47-.94,8.75.67,10.52q2,2.3,7.85,2.29c.8,0,2.37-.06,4.7-.18s3.72-.6,5.8-.18c18.06,3.67,20.41-.28,30.79-.85l6.64-.6c2.74-.32,4.18-.44,5.62.29,1.61.8,1.61,3.79,1.61,5.64,0-1.69-.16-.31-1.61,13.7-.65,6.44.66,14,.66,20.46,0,1.61-1.17,2.41-3.5,2.41l-15.7-1.91c-4.59-.48-9.67.81-26.56,0l-9.71,0c-4.84,0-8.33.79-8.89,2.4-.08.4-.12,2.9-.12,7.48,0,6.12-1.47,13.34-.67,15.11,1.37,3.06,1.61,10.48,10.48,8.06-.16,0,15.32-6.45,24.48-5.9,4.26.26,10.61-.38,19-1.15s6.32-1,10.51-1C939.2,297.44,945.49,301,945.49,303.89Z"/>
    <path class="cls-35" d="M1128.64,336.19c0,1.45-1,2.45-3,3-2.41.64-10.85.14-22.46,1a85.06,85.06,0,0,1-22.22-1q-4.1-.85-5.19-5.44c-5.32-10.54-4.87-17.79-6.4-18.59-1.29-.57-2.95-7.26-26.32-3.23-13.49,2.32-27,2.74-27.89,3.47a16.93,16.93,0,0,0-4.59,12.92c.58,6.83-3.38,10.3-5.56,10.87-2.73.64-11.13,3.37-27.53,1C965.28,338.38,959,339,959,336.67c0-1.6,4.9-6,15.52-35.2,3.28-9,10.91-29.57,12.09-41.92,1.61-16.93,8.53-24,12.2-34,5-13.45,10.5-17.15,13.6-25.66,4.27-11.73,5.25-26.07,6-28.41q1.44-4.59,3.38-4.59,3.26,0,10.08.6t10.2.6c2.18,0,5.38-.13,9.6-.42s7.39-.42,9.48-.42q2.29,0,4.23,4c2.17,4.66,11,14.43,13.42,32.71,2.12,16.1,12.1,23.72,20.66,45.93,2.42,6.29,5.13,20.27,7.26,25.79,4,10.48,4.68,23,7.25,29.83C1122.69,328.67,1128.64,334.72,1128.64,336.19Zm-85.61-110c-1.69,3.55-8.06,11.61-8.57,23.07-.59,13.27-6.53,19.92-6.53,22.1,0,1.44,2.42,2.25,7.25,2.41,2.49.16,6.16-3.73,11.88-3.73,5.31,0,8.69,3.33,9.25,2a4.73,4.73,0,0,0,.24-1.69c0-2.66-6.8-9.49-5.55-22C1051.89,239.4,1044.72,229.41,1043,226.18Z"/>
    <path class="cls-35" d="M1295.33,255.52c-12.07,31-5.32,40.9-18.81,59.66-11,15.31-47.28,24.8-56.63,24.51-10.81-.34-10.81-4.37-23.71-5.17-3.93-.25-24.69,5.29-32.62,5.05s-13.87-.36-17.81-.36c-2.34,0-3.5-.93-3.5-2.78,0-8.86,4.08-4.31,4.76-22.06s-2.71-48.9-2.71-57.76c0-9.25,7.43-22.92,6.74-41.39s-8.79-32.51-8.79-41.68c0-1.69,1.16-2.7,3.5-3,5.71-.64,18,3.59,31.09,3.59,24.79,0,37.89-4.19,45.22-3.47,19.08,1.93,32.44,9.66,44.8,14.49,17.19,6.71,18.15,17.39,24,30.43C1296.52,227.88,1300.07,243.37,1295.33,255.52Zm-42.24-1.93c-2.46-13.37,1.55-29.75-8.54-36-10.48-6.45-18.54-10.48-36.25-10.77-12.4-.21-18.6,1.65-18.6,4.95,0,4.75,4.23,8.37,4.07,17.91s-4.55,20.2-4.55,25,2.77,16.45,2.93,25.83-2.45,11.68-2.45,16.43q0,5.21,19.32,5.2c13.93,0,24.33-9.95,32.3-19.21C1248.81,274.16,1257.45,277.29,1253.09,253.59Z"/>
    <g>
      <path class="cls-36" d="M711.43,537.52c.15.41.31.88.5,1.42s.4,1.15.64,1.84a3.2,3.2,0,0,1,.26.6,1.76,1.76,0,0,1,.07.49,43.25,43.25,0,0,1-4.64,2.42q-2.43,1.1-5.12,2c-.47.15-1,.32-1.68.49s-1.4.41-2.23.69c-.66.32-1.48.69-2.45,1.11s-2.1.86-3.37,1.31c-.82.28-1.63.55-2.46.8s-1.64.49-2.45.71a23.24,23.24,0,0,1-2.78.71,12,12,0,0,1-2.16.24,4.78,4.78,0,0,1-3.48-1.14,4.58,4.58,0,0,1-1.16-3.41,15.41,15.41,0,0,1,.64-4.43,14.35,14.35,0,0,1,2-4,17.05,17.05,0,0,1,1-1.7c.41-.64.88-1.35,1.42-2.14a16.84,16.84,0,0,0,1.44-1.77c.59-.81,1.3-1.92,2.14-3.34.56-.88,1.15-1.82,1.75-2.79s1.18-1.95,1.75-2.89c.27-.45.61-1,1-1.76s.87-1.56,1.39-2.51c.31-.38.68-.85,1.08-1.42s.86-1.24,1.35-2q1-1.71,2.19-3.91t2.45-4.86c1.38-2.71,2.4-4.93,3.08-6.65a12.12,12.12,0,0,0,1-3.67,1.87,1.87,0,0,0-.59-1.26,7.1,7.1,0,0,0-1.8-1.3,16.3,16.3,0,0,0-1.83-.88,5.12,5.12,0,0,0-1.34-.35l-2.8-.14c-.32-.13-.66-.26-1-.41s-.72-.27-1.14-.4l-1.81.76a10,10,0,0,0-1.27-.43,4.84,4.84,0,0,0-1.12-.14c-1.48.13-2.84.29-4.09.48l-1-.48a1.41,1.41,0,0,1-.28-.73c-.06-.37-.15-.85-.27-1.45l.66-1.58c.27-.65.57-1.39.89-2.21.09-.44.16-.77.18-1a4.79,4.79,0,0,1,1.49-2.54,4.34,4.34,0,0,1,2.86-.87,12.93,12.93,0,0,1,1.6.09l1.31.19.52.52a9.31,9.31,0,0,0,1.21-.45,2.06,2.06,0,0,1,.74-.21l4.39,1.09a15.27,15.27,0,0,1,1.54.21c.62.11,1.32.26,2.11.45a9,9,0,0,0,1.3.9c.53.32,1.15.68,1.87,1.09a8,8,0,0,1,2.46,1.83,9.17,9.17,0,0,1,1.7,2.58,11.52,11.52,0,0,1,.85,2.34,9.5,9.5,0,0,1,.26,2.11,13.15,13.15,0,0,1-.3,2.89,9.44,9.44,0,0,1-.88,2.41l-.48,1.85a6.28,6.28,0,0,1-.35,1,9.83,9.83,0,0,1-.68,1.33c-.42.73-.88,1.47-1.37,2.23a5.68,5.68,0,0,1-.66,1.3,12.57,12.57,0,0,1-1.22,1.54,1.35,1.35,0,0,0-.35.42,6.18,6.18,0,0,0-.39.81,16.8,16.8,0,0,1-1.25,2.56c-.56,1-1.26,2.11-2.1,3.41-1.11,1.64-2,3-2.6,3.95l-1.31,2.11c-.29.32-.59.65-.88,1s-.62.76-1,1.24l-.48,1.42a13.9,13.9,0,0,1-1.29,2.44c-.74,1.21-1.77,2.85-3.09,4.9a42.36,42.36,0,0,0-2.88,4.64,7.07,7.07,0,0,0-.92,2.46.51.51,0,0,0,.29.48l1.44-.34c.35.1.68.18,1,.24a14.48,14.48,0,0,1,1.84-.24l1.29.48a10.22,10.22,0,0,1,1.82-.59,6.88,6.88,0,0,1,1.35-.17,17.56,17.56,0,0,0,3.5-.33,11.49,11.49,0,0,0,3-1,14.24,14.24,0,0,0,1.84-.41c.74-.2,1.58-.46,2.54-.78a6.71,6.71,0,0,1,.85-.42,9.12,9.12,0,0,0,.92-.48l1.13-.28A5.74,5.74,0,0,0,711.43,537.52Z"/>
      <path class="cls-36" d="M715.47,520.37a4.75,4.75,0,0,1,.28-1.47,13.22,13.22,0,0,1,.83-1.94c.51-1,.9-1.69,1.16-2.23a4.59,4.59,0,0,0,.42-1c.13-.34.29-.8.5-1.37l.72-1.94a8.41,8.41,0,0,0,.85-2.25c.32-1.15.69-2.68,1.1-4.57q.3-.76.63-1.83c.22-.71.49-1.55.81-2.53a20,20,0,0,1,.55-2.56c.27-1,.62-2.07,1-3.27s1-2.25,1.62-3.36a5.46,5.46,0,0,1,2.43-2.46,4.55,4.55,0,0,1,1,1,1.88,1.88,0,0,1,.33,1,8.74,8.74,0,0,1-.83,3.15,9,9,0,0,0-.83,2.68,1,1,0,0,0,.33.71,5.8,5.8,0,0,0,1.07-1.14c.52-.63,1.19-1.48,2-2.55a24.91,24.91,0,0,1,1.86-2,3.8,3.8,0,0,1,1.57-1,6.47,6.47,0,0,1,1.21-.42,9.67,9.67,0,0,0,1.66-.62,4.48,4.48,0,0,0,.78-.66,2.82,2.82,0,0,1,.81-.57l.55.14a4,4,0,0,0,1.84.88,9.6,9.6,0,0,0,1.92.45,4.48,4.48,0,0,1,.77.76,12.45,12.45,0,0,0,1.15,1.13,11.32,11.32,0,0,1,2.74,3.34,27.67,27.67,0,0,1,2.31,5.47,47.14,47.14,0,0,1,1.45,5.69,28.85,28.85,0,0,1,.5,5.21A53.93,53.93,0,0,1,751,524a24.49,24.49,0,0,1-4.68,9.57l-.72.92c-.28.37-.63.8-1,1.3v.53a2.72,2.72,0,0,1-.42,1,11.31,11.31,0,0,1-1,1.26l-2.76,3.24q-1.41,1.63-2.88,3.2a22.23,22.23,0,0,1-3.5,3.22,11.47,11.47,0,0,1-3.21,1.66A4.41,4.41,0,0,1,729.2,551a6.18,6.18,0,0,1-2.37.4,13.35,13.35,0,0,1-3.36-.35,3.61,3.61,0,0,1-1.84-1,7.58,7.58,0,0,0-.78-.86c-.29-.28-.64-.64-1-1.08a5.87,5.87,0,0,1-1.18-2.25,28,28,0,0,1-1-4.24c-.2-1.3-.35-2.55-.46-3.77s-.17-2.34-.17-3.38a10,10,0,0,1,.19-1.57,7.48,7.48,0,0,0,.14-1.66c0-.72,0-1.35-.07-1.89a14.08,14.08,0,0,1,.4-2.7,14.58,14.58,0,0,0,.41-2.94,1.91,1.91,0,0,0-.22-.71,7,7,0,0,0-.85,1.57,2,2,0,0,1-.52.71.86.86,0,0,1-.55.23.72.72,0,0,1-.64-.42,2.69,2.69,0,0,1-.24-1.28,10.12,10.12,0,0,1,.2-1.71A11.18,11.18,0,0,0,715.47,520.37Zm22.12-23.16a6.48,6.48,0,0,0-1.81.28,10.36,10.36,0,0,0-1.88.81l-3.57,2a3.86,3.86,0,0,0-.83.75,10.58,10.58,0,0,0-1,1.43l-1.69,2.69a13.79,13.79,0,0,0-1.44,4.5q-.63,3.27-1.1,8.53c-.25,2.68-.42,5.19-.52,7.51s-.15,4.46-.15,6.41c0,4,.48,7,1.44,9a4.64,4.64,0,0,0,4.35,3,6.58,6.58,0,0,0,3.06-.92,18.19,18.19,0,0,0,3.68-2.82,30.64,30.64,0,0,0,3-3.25,19.39,19.39,0,0,0,2.14-3.34A26.3,26.3,0,0,0,742.4,531l2.19-5.83a40.42,40.42,0,0,0,1.44-5.47,31.31,31.31,0,0,0,.51-5.7c-.14-1-.3-1.88-.48-2.8l.26-2c-.24-.38-.45-.73-.62-1l-.19-.61a20.2,20.2,0,0,0-3.09-7.7A5.88,5.88,0,0,0,737.59,497.21Z"/>
      <path class="cls-36" d="M760.76,504.69c-.07-.63-.16-1.29-.26-2,0,.29,0,.07.11-.66s.18-2,.3-3.74a5.07,5.07,0,0,0,.42-.92l.24-.74c-.22-.35-.38-.64-.5-.87a1.49,1.49,0,0,1-.16-.6c.19-1.92.38-3.75.55-5.49a3.32,3.32,0,0,1,.65-1.61,12.35,12.35,0,0,1,1.67-1.94,14.07,14.07,0,0,1,1.66-1.52,10.44,10.44,0,0,1,1.55-1,3.07,3.07,0,0,0,1.18-.71.51.51,0,0,1,.41-.29c.39,0,.69.26.9.76a6.25,6.25,0,0,1,.31,2.27,10.94,10.94,0,0,1-.31,2.23,11,11,0,0,0-.32,2.08c0,.19,0,.92.06,2.18s.09,3.08.17,5.45A31.87,31.87,0,0,0,770,503c.35,1.92.81,3.93,1.38,6a22.53,22.53,0,0,0,2.47,6.09c.89,1.34,1.86,2,2.92,2,.83,0,1.94-.69,3.32-2.08a44.29,44.29,0,0,0,4.86-6.26c1.43-2.14,2.7-4.15,3.82-6a47.46,47.46,0,0,0,2.71-5.12,19.13,19.13,0,0,1,2.25-3.74,20.09,20.09,0,0,1,2.95-3l.85-.61a1,1,0,0,1,.52-.24c.43,0,.77.42,1,1.28a15.57,15.57,0,0,1,.34,3.79c-.15,1.54-.27,3.08-.37,4.59q-.33,3.55-1,7.39t-1.68,8c-.34,1.39-.63,2.6-.88,3.64a25,25,0,0,0-.51,2.66c-.05.41-.12.92-.21,1.54s-.18,1.33-.27,2.15q-.37,1.19-.81,2.37a12.1,12.1,0,0,0-.61,2.27c-.16.89-.3,1.91-.42,3.08,0,.22,0,.51,0,.85s-.05.71-.07,1.09q-.85,4.83-1.73,9.38a5.61,5.61,0,0,1-.34,1.09,3.48,3.48,0,0,0-1.08.8,9.36,9.36,0,0,0-1.27,1.71,11,11,0,0,1-1.11,1.4q-.43.45-.66.45a.6.6,0,0,1-.48-.24,1.38,1.38,0,0,1-.18-.81,2.8,2.8,0,0,1,.11-.61,28.15,28.15,0,0,0,.9-4.64q.39-3,.72-7.49c0-.63.22-2.33.59-5.11s.91-6.63,1.62-11.56q.15-1.19.39-2.91c.16-1.15.36-2.47.61-4,.17-.75.31-1.41.42-2a7.15,7.15,0,0,0,.17-1.21,1.5,1.5,0,0,0-.13-.69.44.44,0,0,0-.39-.21c-.15,0-.42.25-.81.74a21.34,21.34,0,0,0-1.48,2.2c-.34.54-.69,1.1-1,1.7s-.73,1.19-1.12,1.76c-.67.88-1.28,1.72-1.85,2.51l-2.73,3.5-.9.71-1.27,1a6.32,6.32,0,0,1-2.24,2.44,5.25,5.25,0,0,1-2.82,1,4.44,4.44,0,0,1-3-1.25,13.19,13.19,0,0,1-2.74-3.86c-.4-.85-.78-1.71-1.17-2.56s-.79-1.7-1.23-2.56l-.18,0a23.42,23.42,0,0,0-.69,3.84c-.33,2.36-.75,5.84-1.27,10.42s-1,8.4-1.29,11.08-.44,4.42-.44,5.21a7.21,7.21,0,0,1-.46,2.49,1.58,1.58,0,0,1-1.2,1,9.17,9.17,0,0,0-1.14.26l-1.77.55a.87.87,0,0,1-.33-.17.4.4,0,0,1-.15-.35l.22-1.75-.37-1.8q.22-1.47.45-2.85c.09-1.89.18-3.67.25-5.35,0-.34.12-.93.28-1.75a10.65,10.65,0,0,0,.24-1.85,6.74,6.74,0,0,0-.11-1,5.45,5.45,0,0,1-.11-1,67,67,0,0,1,.64-7.72,67.72,67.72,0,0,0,.65-7.77c-.08-.72-.16-1.45-.26-2.18.12-1.13.32-2.55.59-4.26S760.42,507,760.76,504.69Z"/>
      <path class="cls-36" d="M802,551.21c.22-.26.53-.6.94-1s.93-.94,1.56-1.54a4.53,4.53,0,0,0,1.07-1.19,2.33,2.33,0,0,0,.34-1.18c0-1.49,0-2.44,0-2.85s0-.72,0-.95q0-4.54.18-7.11a12,12,0,0,1,.48-3.17l-.07-1.43-.22-.33c0-.34,0-.65,0-.92s0-.5,0-.69c0-1.74-.59-2.84-1.78-3.32a2.78,2.78,0,0,1-1.79-2.89,2.61,2.61,0,0,1,1-1.63,26.56,26.56,0,0,1,3-2.34c.17-1.55.36-3.24.56-5.07s.43-3.85.7-6.06c-.1-.41-.18-.74-.23-1a5.24,5.24,0,0,1-.07-.74,14.11,14.11,0,0,1,.3-3,13.68,13.68,0,0,1,.81-2.61,14.59,14.59,0,0,1,.84-1.44c.35-.52.77-1.1,1.26-1.73a7.71,7.71,0,0,0,.88-1.25,2,2,0,0,0,.3-.88.81.81,0,0,0-.24-.61.92.92,0,0,0-.68-.24,11.66,11.66,0,0,0-4,1.11,11.51,11.51,0,0,1-4,1.12,1.11,1.11,0,0,1-.65-.15.54.54,0,0,1-.2-.47,16.29,16.29,0,0,1,.07-1.66,4,4,0,0,1,.19-1,6.12,6.12,0,0,0,1-1.19,2.07,2.07,0,0,0,.35-1.13,1,1,0,0,1,.39-.62,3.29,3.29,0,0,1,1.24-.66q3.39-1.23,5.17-1.9l2.05-.75a27.27,27.27,0,0,1,3.94-1,22.38,22.38,0,0,1,3.51-.3,4.43,4.43,0,0,1,.73.12,1.41,1.41,0,0,0,.74,0l1.55-.33a7.81,7.81,0,0,1,1.29.26l3,.73c.27-.06.57-.14.89-.24a3.51,3.51,0,0,1,1.79.43,3,3,0,0,1,1.12,1.18,3.57,3.57,0,0,0,1,.15,2.66,2.66,0,0,1,1.75.68,5.87,5.87,0,0,1,1.38,2,17.31,17.31,0,0,1,.81,2.43,10.34,10.34,0,0,1,.29,2.49,13.73,13.73,0,0,1-.82,4.76,13.91,13.91,0,0,1-2.49,4.18c-.13.1-.72.66-1.79,1.69s-2.62,2.45-4.66,4.28a8.68,8.68,0,0,0-.78.8,10.82,10.82,0,0,1-1.07,1.09q-3,2.32-5.82,4.45a38.11,38.11,0,0,0-3.58,2.79c-.81.76-1.21,1.3-1.21,1.61a2.52,2.52,0,0,0,.63,1.69,5.18,5.18,0,0,0,1.91,1.3l4.24,1.94c1.57.73,3.26,1.6,5.05,2.61a2.78,2.78,0,0,1,.65.38c.25.19.54.39.86.61a11.79,11.79,0,0,1,4.7,3.73,8.69,8.69,0,0,1,1.53,5.09q0,4.22-5.92,8t-17.71,7.21q-.18.66-.42,1.32c-.16.44-.3.87-.42,1.28a2.12,2.12,0,0,1-.74.83,2.06,2.06,0,0,1-1.11.31,1.26,1.26,0,0,1-1.1-.64,4.77,4.77,0,0,1-.55-2c-.2-.23-.36-.32-.48-.29l-2.1.71-.76-.5-.72-.45a2.25,2.25,0,0,1-.59-.68,1.77,1.77,0,0,1-.22-.88,1,1,0,0,1,.24-.69A6.64,6.64,0,0,1,802,551.21Zm11.31-22.47c-.39,0-.73.43-1,1.3a19.87,19.87,0,0,0-.68,3.86l-.3,4.77c-.1,1.6-.19,3.18-.29,4.76-.15.79-.27,1.63-.37,2.52l.07.47.3.19c1-.35,2.07-.71,3.28-1.09.83,0,1.33-.1,1.49-.31a69.42,69.42,0,0,1,6-3.58,17,17,0,0,0,3.65-2.49,3.14,3.14,0,0,0,1.22-2,1.73,1.73,0,0,0-.33-1,5.2,5.2,0,0,0-1-1,25.41,25.41,0,0,0-3.83-2.59,37.17,37.17,0,0,0-4.61-2.11l-.75-.3-.94-.36c-.54-.32-1-.57-1.24-.76A1.31,1.31,0,0,0,813.27,528.74Zm7.15-35.51a8.15,8.15,0,0,0-2.26.26,2.17,2.17,0,0,0-1.24.83,4.91,4.91,0,0,0-.61,1.47c-.2.72-.43,1.72-.68,3-.1.69-.16,1.47-.2,2.32s0,1.78,0,2.79a13.71,13.71,0,0,1-.85,2.08l.19,1.23c-.3,1.58-.51,2.84-.63,3.79a18.85,18.85,0,0,0-.18,1.89,1.68,1.68,0,0,0,.22,1,.76.76,0,0,0,.62.28,5,5,0,0,0,1.76-1q1.38-1.05,3.81-3.13l4.11-3.47c.95-.81,1.49-1.26,1.64-1.35l.94-1.49c.31-.49.61-1,.9-1.45a9.46,9.46,0,0,0,.92-1.77,4,4,0,0,0,.3-1.4,3.79,3.79,0,0,0-.55-2,4.73,4.73,0,0,0-1.66-1.56c-.25-.13-.68-.32-1.31-.57a20,20,0,0,0-2.41-.76l-1.92-.66A3.92,3.92,0,0,0,820.42,493.23Z"/>
      <path class="cls-36" d="M840.28,541.12c0-1.77.06-3.26.17-4.48a28.43,28.43,0,0,1,.38-2.87q-.08-.79-.18-1.65c0-.67.06-1.77.18-3.32s.31-3.57.56-6.06.41-4.26.57-5.57.27-2.1.35-2.39c0-.53-.11-1.12-.17-1.75a20.64,20.64,0,0,0-.31-2.08l-.81-.76-.19-.57c0-.88.1-1.78.13-2.68s.12-1.8.24-2.72a18.36,18.36,0,0,1,.35-3c.19-.86.38-1.6.57-2.23a4,4,0,0,0,.24-.66,7.9,7.9,0,0,1,.35-.9c.22-1.14.44-2.28.67-3.41s.45-2.24.7-3.32a6.32,6.32,0,0,1,1.58-2.6,4.8,4.8,0,0,1,2.51-1.28,13.19,13.19,0,0,1,1.77-1.07,3,3,0,0,1,1.18-.35.9.9,0,0,1,.81.52,3.08,3.08,0,0,1,.29,1.47c0,.25-.1,1.13-.29,2.63s-.51,3.57-.92,6.22c-.08.89-.2,1.94-.37,3.15s-.41,2.66-.7,4.34q-.56,2.79-1.09,6.13c-.36,2.23-.68,4.68-1,7.37-.12,1.13-.26,2.25-.4,3.36s-.29,2.22-.41,3.36c-.15,1.3-.27,2.52-.39,3.67s-.16,2.19-.16,3.1c0,.35,0,.68,0,1a7,7,0,0,1,.06.9,5.79,5.79,0,0,1,0,1.37c-.06.57-.13,1.25-.2,2s-.19,1.44-.26,2.06a13.63,13.63,0,0,0-.11,1.4q0,2.41.09,3.9a15.55,15.55,0,0,0,.2,2c.18.85.35,1.77.52,2.75,0,.53-.55,1.33-1.66,2.39s-1.9,1.58-2.39,1.58a1,1,0,0,1-.8-.4,5.07,5.07,0,0,1-.71-1.21,13.37,13.37,0,0,1-.41-1.37,4.83,4.83,0,0,1-.15-1.14,4.39,4.39,0,0,1,.15-.9,4.29,4.29,0,0,0,.15-.9,15,15,0,0,0-.67-2.36c-.05.31-.07.25-.07-.19Z"/>
      <path class="cls-36" d="M884.57,537.52l1.4,4.35a12.64,12.64,0,0,1-1,1,17.3,17.3,0,0,1-1.35,1.16,19.56,19.56,0,0,0-1.86,1l-2.49,1.42a17.83,17.83,0,0,1-1.75,1.28,2.42,2.42,0,0,1-.94.43,5.68,5.68,0,0,0-1.75.52q-1.27.52-3.33,1.56c-.74.35-1.52.7-2.34,1.07s-1.68.68-2.57,1l-2.28-.62-1.4.81-1.42,0a10.12,10.12,0,0,1-1.38-.12,3.41,3.41,0,0,1-1.61-.37A1.08,1.08,0,0,1,858,551l.22-1.8-.22-.33a2.43,2.43,0,0,1-1.68-.43,3.09,3.09,0,0,1-.42-2c0-.47,0-1.26.05-2.37s.09-2.54.17-4.31a4.27,4.27,0,0,1,.24-1,4.24,4.24,0,0,0,.24-1.09,3,3,0,0,1-.22-.76,3.28,3.28,0,0,1,0-.52c0-1.23.15-2.75.31-4.55s.37-3.93.61-6.39c.3-1.48.54-3.16.74-5q-.07-2.08-.15-4.26,1.36-7.87,2.8-15.82a10,10,0,0,1,.83-2.7,15.86,15.86,0,0,1,1.46-2.47,2.86,2.86,0,0,0,.48-.52c.12-.28.28-.64.48-1.06s.43-.91.7-1.45l.71-.57c.34-.25.78-.6,1.35-1,.25-.25.53-.55.85-.9s.69-.76,1.1-1.23a26.33,26.33,0,0,0,2.6-2.3,5.3,5.3,0,0,1,3-1.49c.56,0,1.13-.07,1.69-.12s1.11-.1,1.62-.16a7.48,7.48,0,0,1,1.29-.24c.25-.06.46-.13.65-.19a1.61,1.61,0,0,1,.5-.09,3.23,3.23,0,0,1,.6.07c.26,0,.61.12,1,.21s.64.05.89.05a5.24,5.24,0,0,0,.7-.05,4.29,4.29,0,0,1,2.17,1.66,4.68,4.68,0,0,1,.7,2.6,17.64,17.64,0,0,1-.49,4.86c-.34,1.06-.86,1.58-1.57,1.58a2.79,2.79,0,0,1-1.84-1.06q-1-1.07-5.57-1.07l-3.72.95a1.63,1.63,0,0,1-.42.57,2.36,2.36,0,0,1-.43.28l-1.29-.61a4,4,0,0,0-1.33,1.56,22.89,22.89,0,0,0-1.54,3.51,4.65,4.65,0,0,0-.28,1.18,13.38,13.38,0,0,0-.09,1.66c-.44,2.27-.89,4.47-1.33,6.58-.42,2.27-.75,4-1,5.16s-.41,1.88-.46,2.13-.14.62-.19.9a5,5,0,0,0-.07.86,2,2,0,0,0,.18.94.6.6,0,0,0,.56.34c.22,0,.75-.52,1.6-1.57a5.53,5.53,0,0,1,1.9-1.75c.51-.19,1-.39,1.56-.62a14.47,14.47,0,0,0,1.64-.8,10.62,10.62,0,0,1,1.75-.38c1-.16,2.27-.35,4-.57l1,.38,2-.47,1,.61a6,6,0,0,1,.69,1.16,15.2,15.2,0,0,1,.57,1.5,14.71,14.71,0,0,1-.48,4.31c-.32,1-.8,1.46-1.44,1.46l-2-1c-1.67.22-3.32.44-4.95.64s-3.3.4-5,.59a9.56,9.56,0,0,0-4.75,2.61,7.46,7.46,0,0,0-1.85,4.73,18.9,18.9,0,0,1-.25,1.9c-.15.85-.32,1.91-.52,3.17l.26,1.42c-.22,1.36-.39,2.64-.52,3.84s-.18,2.27-.18,3.22a1.64,1.64,0,0,0,.11.69c.07.14.16.18.26.12l2.84-.29a9.56,9.56,0,0,1,1.51,0l2,.19,2.32-.23a11.16,11.16,0,0,0,1.61-.76A4.79,4.79,0,0,1,874,542a8.44,8.44,0,0,0,2.16-.29,11.21,11.21,0,0,0,2.08-.76c.67-.31,1.32-.64,2-1l2-1a6.05,6.05,0,0,0,1-.52C883.56,538.26,884,537.93,884.57,537.52Z"/>
      <path class="cls-36" d="M911.62,537.47l1.47,4.36a4.94,4.94,0,0,1-2.27.89,38.45,38.45,0,0,1-4.55.66,46.39,46.39,0,0,1-6.47,6.76,24.4,24.4,0,0,1-6.39,4c-.49.19-1.06.39-1.7.61a3.33,3.33,0,0,1-1.29-.3,10.66,10.66,0,0,1-1.54-.88,7.36,7.36,0,0,1-1.37-1.37,2.34,2.34,0,0,1-.48-1.38,4.36,4.36,0,0,1,1.07-2.75,11.12,11.12,0,0,1,3.13-2.51q4.14-2.46,8.15-5a1,1,0,0,1,.85.31,1.18,1.18,0,0,1,.26.78,2.56,2.56,0,0,1-1.42,2.16c-1,.58-1.42,1-1.42,1.25.17.32.32.47.44.47.32,0,1-.61,2.12-1.84s1.63-2,1.6-2.32l-.18-1.09.07-.19a11.52,11.52,0,0,0,1.42-1.94,3.11,3.11,0,0,0,.46-1.38,8.22,8.22,0,0,0-.92-3.17,38.21,38.21,0,0,0-2.76-4.78,42.69,42.69,0,0,0-2.81-3.91c-.93-1.15-1.83-2.17-2.69-3.06a10.14,10.14,0,0,1-.88-1.11,7,7,0,0,1-.59-1c-.27-.63-.49-1.15-.65-1.56a2.85,2.85,0,0,0-.42-.81c-.12-.19-.29-.41-.5-.68l-.75-.93a7.55,7.55,0,0,1-1.2-2.89,21.11,21.11,0,0,1-.42-4.59,15.34,15.34,0,0,1,.38-3.48,11.32,11.32,0,0,1,1.13-3c.07-.19.14-.41.22-.66s.16-.54.26-.85a18.64,18.64,0,0,1,2.87-4.81,41.68,41.68,0,0,1,5.31-5.47c.29-.19.65-.44,1.07-.76a16.63,16.63,0,0,0,1.4-1.23,6,6,0,0,1,1-.85,6.94,6.94,0,0,1,1.28-.71c.66-.35,1.41-.73,2.24-1.14a24.91,24.91,0,0,1,3.06-1.8,4.9,4.9,0,0,1,1.85-.57,2,2,0,0,1,1.82.95,5.07,5.07,0,0,1,.61,2.75,17.87,17.87,0,0,1-.24,3.24,3.47,3.47,0,0,1-.65,1.68q-4.34,4.45-7,6.7t-3.72,2.25a.94.94,0,0,1-.81-.38,1.79,1.79,0,0,1-.3-1.13,4.18,4.18,0,0,1,1.66-2.82c1.11-1,1.65-1.81,1.62-2.35l-.33-.28a.9.9,0,0,0-.42.14,3.15,3.15,0,0,0-.5.38,36.74,36.74,0,0,0-4.88,6,9.23,9.23,0,0,0-1.64,4.66,12.52,12.52,0,0,0,.42,3.18,18,18,0,0,0,1.24,3.31c.39.79,1,1.8,1.71,3s1.7,2.68,2.86,4.38q2.38,3.55,3.68,5.5a18.27,18.27,0,0,0,1.44,2,19.11,19.11,0,0,1,1.25,2.47,10.09,10.09,0,0,1,.7,2.36,14.92,14.92,0,0,1,.26,2.23c.05.88.07,2,.07,3.22,0,.74.09,1.17.26,1.28a1.64,1.64,0,0,0,.85.17.5.5,0,0,0,.35-.12A2.22,2.22,0,0,0,911.62,537.47Z"/>
      <path class="cls-36" d="M959.47,505.5c-.09-.54-.19-1-.29-1.42.12-.92.26-1.81.4-2.68s.27-1.76.37-2.67a15.18,15.18,0,0,1,.91-3.27A3,3,0,0,1,962,493.9l2.36-1.28q.4-.19,1.14-.48a.62.62,0,0,1,.59.48,4,4,0,0,1,.18,1.37q0,.33-.18,1.89c-.12,1.05-.29,2.51-.52,4.41-.05.44-.09.9-.13,1.37s-.09.95-.16,1.42a3.13,3.13,0,0,1-.26,1.12c-.17.42-.39.92-.66,1.49a14.55,14.55,0,0,1-.79,4.59q-1,3.65-3,9.85c-1.16,3.45-2.17,6.46-3.06,9s-1.66,4.72-2.32,6.39c-.34.89-.74,1.84-1.18,2.87l-1.36,3.2q.33,1,.63,1.8a3.62,3.62,0,0,1-.15.94l-1.29,2c-.51.79-1.12,1.67-1.8,2.65-.47.28-1,.6-1.51.95-.37.63-.68,1.18-.92,1.65a7.11,7.11,0,0,1-1.31.79,3,3,0,0,1-1.12.26,2.18,2.18,0,0,1-1.72-1.14,4,4,0,0,1-.8-2.32,3.74,3.74,0,0,1,.85-2,7.18,7.18,0,0,0,1-1.56l-.11-.48-.37-.61a17,17,0,0,0-.4-2.16,15.78,15.78,0,0,0-.63-1.87,19.54,19.54,0,0,1-1.18-3.48q-.53-2.06-1-4.71c-.13-.82-.22-1.48-.28-2s-.09-.81-.09-1a9.31,9.31,0,0,1-.34-1c-.12-.41-.25-.88-.4-1.42-.12-1-.28-2.35-.46-3.93s-.38-3.42-.58-5.54a5.45,5.45,0,0,0-.09-.9c-.06-.35-.15-.77-.28-1.28a8.82,8.82,0,0,1-.29-1.23,6.65,6.65,0,0,1-.07-1q0-1.36,0-2.7a3.75,3.75,0,0,1-.15-1.23l.3-1.85a6.37,6.37,0,0,1-.61-1.61,9.09,9.09,0,0,1-.24-2.22,3.7,3.7,0,0,1,.11-.9,5.92,5.92,0,0,1,.26-.81c-.12-.5-.22-1-.3-1.54a12.58,12.58,0,0,1-.11-1.68,6.35,6.35,0,0,1-.53-1.4,2.78,2.78,0,0,1-.06-1.2l.22-1.9c-.09-.47-.18-.87-.25-1.18.27-1.9.5-3.41.7-4.55a20.58,20.58,0,0,1,.44-2.18,6.84,6.84,0,0,1,1.56-2.67,5.3,5.3,0,0,1,2.53-1.4,9.62,9.62,0,0,1,.9-.76,1.24,1.24,0,0,1,.72-.28,1,1,0,0,1,.76.49,4.46,4.46,0,0,1,.57,1.45,11.38,11.38,0,0,1,.24,1.56,13,13,0,0,1,0,1.38c-.1,1.16-.2,2.51-.3,4s-.17,3.21-.22,5.07a10.62,10.62,0,0,1-.33,1.06,3.85,3.85,0,0,0-.26,1.17,7.32,7.32,0,0,0,.26,1.51,7.39,7.39,0,0,1,.26,1.52c0,.19,0,.53-.08,1s-.12,1.47-.22,2.89c.1.72.22,1.48.37,2.27,0,.35,0,.92-.11,1.71s-.11,1.37-.11,1.75a1.29,1.29,0,0,0,.07.5,10.54,10.54,0,0,1,.3,1.3c0,.69.08,1.49.16,2.39s.19,2,.32,3.2c.12,1.07.28,2.41.46,4s.36,3.48.54,5.59l0,1.56a2.49,2.49,0,0,0,.14.79,4.32,4.32,0,0,0,.45.92l.48,2.75c.17,1,.35,2,.52,3a1.88,1.88,0,0,0,.26.8.51.51,0,0,0,.41.29,10.38,10.38,0,0,0,1.28-2.13,12.69,12.69,0,0,0,.87-1.92c.35-.93.78-2.19,1.27-3.77a12.4,12.4,0,0,1,.55-1.47c.25-.56.53-1.21.85-1.94a31.43,31.43,0,0,0,1.32-3.45q.84-2.52,2.06-6.64l1.68-5.77c.45-1.58.77-2.8,1-3.65Z"/>
      <path class="cls-36" d="M991.72,537.47l1.47,4.36a4.94,4.94,0,0,1-2.27.89,38.45,38.45,0,0,1-4.55.66,46.39,46.39,0,0,1-6.47,6.76,24.4,24.4,0,0,1-6.39,4c-.49.19-1.06.39-1.7.61a3.33,3.33,0,0,1-1.29-.3,11.28,11.28,0,0,1-1.55-.88,7.27,7.27,0,0,1-1.36-1.37,2.34,2.34,0,0,1-.48-1.38,4.36,4.36,0,0,1,1.07-2.75,11.12,11.12,0,0,1,3.13-2.51q4.13-2.46,8.15-5a1.05,1.05,0,0,1,.85.31,1.18,1.18,0,0,1,.25.78,2.55,2.55,0,0,1-1.41,2.16c-.95.58-1.42,1-1.42,1.25.17.32.32.47.44.47.32,0,1-.61,2.12-1.84s1.63-2,1.6-2.32l-.18-1.09.07-.19a11.52,11.52,0,0,0,1.42-1.94,3.11,3.11,0,0,0,.46-1.38,8.22,8.22,0,0,0-.92-3.17,39.51,39.51,0,0,0-2.76-4.78,42.69,42.69,0,0,0-2.81-3.91c-.93-1.15-1.83-2.17-2.69-3.06a10.14,10.14,0,0,1-.88-1.11,7,7,0,0,1-.59-1c-.27-.63-.49-1.15-.65-1.56a2.85,2.85,0,0,0-.42-.81c-.12-.19-.29-.41-.5-.68l-.75-.93a7.55,7.55,0,0,1-1.2-2.89,21,21,0,0,1-.43-4.59,15.34,15.34,0,0,1,.39-3.48,11.32,11.32,0,0,1,1.13-3c.07-.19.14-.41.22-.66s.16-.54.26-.85a18.64,18.64,0,0,1,2.87-4.81,41.68,41.68,0,0,1,5.31-5.47c.29-.19.65-.44,1.07-.76a18.38,18.38,0,0,0,1.4-1.23,6,6,0,0,1,1-.85,6.94,6.94,0,0,1,1.28-.71c.66-.35,1.41-.73,2.24-1.14a24.91,24.91,0,0,1,3.06-1.8,4.9,4.9,0,0,1,1.85-.57,2,2,0,0,1,1.82.95,5.07,5.07,0,0,1,.61,2.75,17.87,17.87,0,0,1-.24,3.24,3.47,3.47,0,0,1-.65,1.68q-4.35,4.45-7,6.7T982,500.5a.94.94,0,0,1-.81-.38,1.79,1.79,0,0,1-.3-1.13,4.18,4.18,0,0,1,1.66-2.82c1.11-1,1.65-1.81,1.62-2.35l-.33-.28a.9.9,0,0,0-.42.14,3.15,3.15,0,0,0-.5.38,36.74,36.74,0,0,0-4.88,6,9.23,9.23,0,0,0-1.64,4.66,12.52,12.52,0,0,0,.42,3.18,18.68,18.68,0,0,0,1.23,3.31c.4.79,1,1.8,1.72,3s1.7,2.68,2.86,4.38q2.38,3.55,3.68,5.5a18.27,18.27,0,0,0,1.44,2,19.11,19.11,0,0,1,1.25,2.47,10.59,10.59,0,0,1,.7,2.36,16.36,16.36,0,0,1,.26,2.23c.05.88.07,2,.07,3.22,0,.74.09,1.17.26,1.28a1.64,1.64,0,0,0,.85.17.5.5,0,0,0,.35-.12A2.22,2.22,0,0,0,991.72,537.47Z"/>
      <path class="cls-36" d="M1051.11,485.42c.42,0,.71.29.89.87a9.69,9.69,0,0,1,.25,2.54c0,.72-.1,2-.29,3.9s-.48,4.34-.85,7.37l.44,3.08c-.2.72-.39,1.58-.59,2.56s-.37,2.05-.52,3.22c-.19,1.32-.37,2.44-.53,3.36s-.32,1.66-.46,2.23c-.2,1-.38,1.88-.54,2.72s-.27,1.66-.35,2.49q-.25,3-.68,5.66a42.68,42.68,0,0,1-1.13,5.13c-.32,1.2-.8,3.49-1.46,6.87s-1.48,7.82-2.49,13.31a26,26,0,0,1-1.47,5.54c-.54,1.23-1.14,1.85-1.77,1.85a.85.85,0,0,1-.71-.28,2.16,2.16,0,0,1-.29-1,2.9,2.9,0,0,1,0-.52c0-.19,0-.74,0-1.66a3.87,3.87,0,0,0-.22-1l.74-3.69a9.89,9.89,0,0,0-.19-1.33c0-1.1.22-3.34.65-6.7s1-7.87,1.86-13.52c.29-1.87.58-3.9.85-6.11a3,3,0,0,0-.08-.81.29.29,0,0,0-.29-.24l-.85.48-.92-.57a3.86,3.86,0,0,0-.9.87q-.69.78-1,.78a10.12,10.12,0,0,1-2-.3,9.74,9.74,0,0,0-2-.31,3.44,3.44,0,0,0-1.73.54,8.5,8.5,0,0,0-1.92,1.63,10.75,10.75,0,0,0-3.08,1.06,9,9,0,0,0-2.38,1.87l-1.1,1.13a5.51,5.51,0,0,0-.43,2.35q-.12,2-.12,5.52a31.68,31.68,0,0,0,.25,4.74c.17,1,.43,1.52.78,1.52a.93.93,0,0,0,.59-.21,4.58,4.58,0,0,0,.62-.69c.15-.22.32-.45.52-.69a4,4,0,0,0,.48-.73l.29-.05a.34.34,0,0,1,.39.19,1.47,1.47,0,0,1,.13.71c-.25.7-.49,1.33-.72,1.9s-.44,1-.61,1.42l-2.25,4.41a5.29,5.29,0,0,1-1.58,1.75,3.79,3.79,0,0,1-2.14.62c-.66,0-1.15-1.16-1.48-3.46a77.49,77.49,0,0,1-.5-10.34,36.34,36.34,0,0,0-.26-4.62,13.55,13.55,0,0,0-.84-3.39,11.55,11.55,0,0,1-.77-2.18,7.12,7.12,0,0,1-.22-1.61,4.34,4.34,0,0,1,.2-1.19,6,6,0,0,1,.61-1.32c.32-.51.57-.92.76-1.26a2.5,2.5,0,0,0,.31-.82,18.47,18.47,0,0,0,.42-2c.14-.82.29-1.77.46-2.84.15-.73.28-1.75.41-3.08s.21-2.92.26-4.78a49.49,49.49,0,0,1,.77-8,13.39,13.39,0,0,0,.48-3.26l-.22-1.19c.05-.66.12-1.51.22-2.55s.23-2.24.4-3.6a4.91,4.91,0,0,0,.74-.83,12,12,0,0,0,.85-1.35,21,21,0,0,1,2.76-1.23,2.3,2.3,0,0,1,2,.9,4.2,4.2,0,0,1,.67,2.56,6.3,6.3,0,0,1-.2,1.32c-.14.57-.31,1.28-.5,2.14a29.48,29.48,0,0,0-.72,4q-.39,2.94-.87,7.53-.33,3.31-.72,6.23c-.25,1.94-.56,3.75-.9,5.42a5.13,5.13,0,0,0-.11.81,2.08,2.08,0,0,0,.18,1,.61.61,0,0,0,.56.31c.91-.09,1.73-.19,2.47-.28a12,12,0,0,0,2.54-1h2.84a13,13,0,0,0,1.71-.17,12.55,12.55,0,0,1,1.68-.16,6.08,6.08,0,0,1,1.57.31,6.37,6.37,0,0,0,1.64.3,4.46,4.46,0,0,0,1.14-.19,9.57,9.57,0,0,0,1.69-.66,2.14,2.14,0,0,0,.81-.14.46.46,0,0,0,.34-.43c.12-.41.26-.91.42-1.51s.33-1.3.5-2.09.11-1.59.2-2.6.2-2.2.35-3.55c.34-2.53.6-4.6.76-6.21s.24-2.74.24-3.41a3.22,3.22,0,0,0-.08-.71,1,1,0,0,0-.26-.52c-.19-.28-.41-.63-.66-1a7,7,0,0,1,.55-1.47c.57-1.1,1-2,1.44-2.77a11.49,11.49,0,0,1,1-1.59,12,12,0,0,1,1.42-1.58A14.36,14.36,0,0,1,1051.11,485.42Z"/>
      <path class="cls-36" d="M1058.47,529.37a20.26,20.26,0,0,0-.37-3.13,21.37,21.37,0,0,1-.37-3.22c0-.41,0-1,.1-1.91s.09-1.51.09-1.92c0-1.17-.06-2.93-.17-5.28s-.16-4.12-.16-5.28q0-2.94.25-7.58c.18-3.1.42-6.73.74-10.9a10.72,10.72,0,0,1,.79-3.45,1.73,1.73,0,0,1,1.53-1.19c.23,0,.44.19.65.57a10.71,10.71,0,0,1,.68,1.71c.57.69,1.13,1.32,1.7,1.89a5,5,0,0,1,1,1.87,9.3,9.3,0,0,1,.33,2.63,23.2,23.2,0,0,1-.46,3.91,24.22,24.22,0,0,0-.46,3.81c0,1.64,0,3-.13,4.14a13.5,13.5,0,0,1-.38,2.59l-.41,1.51c.1.95.2,2,.3,3.17q-.12,2.7-.15,5.64a48.56,48.56,0,0,0,.37,5.94q.36,3.06,1,6.14a20.82,20.82,0,0,0,2.16,6.27c.85,1.41,1.8,2.11,2.85,2.11a2.46,2.46,0,0,0,1.5-.5,5.19,5.19,0,0,0,1.31-1.54c.31-.56.62-1.15.92-1.75s.59-1.18.88-1.75a17,17,0,0,0,1-1.92c.37-.77.78-1.7,1.22-2.77.42-1.89.88-3.8,1.4-5.73s1-3.87,1.55-5.83c.12-.63.28-1.44.48-2.44s.39-2.13.59-3.43a58.65,58.65,0,0,0,1.38-6.58q.68-4.21,1.53-10.23c.2-.63.44-1.44.72-2.42s.61-2.11,1-3.41c.1-.47.29-1.21.56-2.22s.65-2.29,1.14-3.84a2.87,2.87,0,0,1,3-2.32c.46,0,.8.39,1,1.16a14.59,14.59,0,0,1,.31,3.53,87,87,0,0,1-.86,11q-.87,6.51-2.71,14.89c-.08.51-.19,1.15-.35,1.92s-.35,1.65-.57,2.63c0,.6-.08,1.29-.17,2.06s-.2,1.67-.35,2.68q-.59,2.65-1,5.68t-.6,6.3a12.83,12.83,0,0,1-.13,1.42c-.09.63-.21,1.39-.35,2.28s-.25,1.67-.3,2.36-.07,1.35-.07,2c.07.85.14,1.65.22,2.41a9.93,9.93,0,0,1,.72,1.11,1.69,1.69,0,0,1,.24.74,8.53,8.53,0,0,1-.76,1.85,18.88,18.88,0,0,1-1.38,2.13,9,9,0,0,1-1.73,1.94,2.62,2.62,0,0,1-1.55.66c-.44,0-.87-.35-1.29-1.06a4,4,0,0,1-.63-2V548a7.63,7.63,0,0,0,.26-1.09,1.5,1.5,0,0,0-.09-.49,5,5,0,0,1-.17-.69l.22-.71c.1-.32.2-.68.3-1.09,0-.16-.11-.35-.17-.57a8.4,8.4,0,0,0-.27-.8c0-.19.09-.42.14-.69s.13-.61.22-1a7.43,7.43,0,0,0-.07-1c0-.22.06-.54.11-1s.11-.95.19-1.58.17-1,.23-1.35a4.73,4.73,0,0,0,.1-.83,1.79,1.79,0,0,0-.1-.62.75.75,0,0,0-.23-.38,1.9,1.9,0,0,0-.61.71,13.21,13.21,0,0,0-.87,1.71c-.39.85-.73,1.54-1,2.06s-.48.88-.57,1.07l-.15.66q-1,1.75-1.77,2.91c-.52.77-.91,1.32-1.18,1.64a8.91,8.91,0,0,1-1.68,1.46,9.44,9.44,0,0,1-2.34,1.14,8.18,8.18,0,0,0-1.29.47,6,6,0,0,1-2.47-.47,3.59,3.59,0,0,1-1.62-1.33,24.7,24.7,0,0,1-3.35-7.53A36,36,0,0,1,1058.47,529.37Z"/>
      <path class="cls-36" d="M1098.6,504.69c-.07-.63-.16-1.29-.26-2,0,.29,0,.07.11-.66s.17-2,.3-3.74a5.87,5.87,0,0,0,.42-.92l.24-.74a9.31,9.31,0,0,1-.5-.87,1.49,1.49,0,0,1-.16-.6c.19-1.92.38-3.75.55-5.49a3.3,3.3,0,0,1,.64-1.61,13,13,0,0,1,1.68-1.94,14.07,14.07,0,0,1,1.66-1.52,10.44,10.44,0,0,1,1.55-1,3.16,3.16,0,0,0,1.18-.71.51.51,0,0,1,.4-.29c.4,0,.7.26.91.76a6.48,6.48,0,0,1,.31,2.27,11.71,11.71,0,0,1-.31,2.23A11,11,0,0,0,1107,490c0,.19,0,.92.06,2.18s.09,3.08.16,5.45a33,33,0,0,0,.58,5.45c.35,1.92.81,3.93,1.38,6a22.21,22.21,0,0,0,2.47,6.09q1.33,2,2.91,2c.84,0,2-.69,3.32-2.08a44.23,44.23,0,0,0,4.87-6.26c1.43-2.14,2.7-4.15,3.82-6a47.46,47.46,0,0,0,2.71-5.12,19.13,19.13,0,0,1,2.25-3.74,19.62,19.62,0,0,1,3-3l.85-.61a1,1,0,0,1,.51-.24c.44,0,.77.42,1,1.28a15,15,0,0,1,.35,3.79c-.15,1.54-.27,3.08-.37,4.59q-.33,3.55-1,7.39t-1.68,8c-.34,1.39-.64,2.6-.88,3.64s-.42,1.93-.52,2.66c0,.41-.11.92-.2,1.54s-.18,1.33-.28,2.15-.51,1.58-.8,2.37a12.1,12.1,0,0,0-.61,2.27c-.16.89-.3,1.91-.42,3.08,0,.22,0,.51,0,.85s-.05.71-.08,1.09q-.84,4.83-1.73,9.38a6.23,6.23,0,0,1-.33,1.09,3.37,3.37,0,0,0-1.08.8,9.36,9.36,0,0,0-1.27,1.71,11,11,0,0,1-1.11,1.4q-.43.45-.66.45a.57.57,0,0,1-.48-.24,1.38,1.38,0,0,1-.18-.81,2.8,2.8,0,0,1,.11-.61,28.15,28.15,0,0,0,.9-4.64q.39-3,.72-7.49c0-.63.22-2.33.59-5.11s.91-6.63,1.62-11.56q.15-1.19.39-2.91c.16-1.15.36-2.47.61-4,.17-.75.31-1.41.42-2a7.15,7.15,0,0,0,.17-1.21,1.5,1.5,0,0,0-.13-.69.44.44,0,0,0-.39-.21c-.15,0-.42.25-.81.74a19.82,19.82,0,0,0-1.48,2.2c-.34.54-.69,1.1-1,1.7s-.73,1.19-1.12,1.76c-.67.88-1.28,1.72-1.85,2.51l-2.73,3.5-.9.71c-.36.29-.78.62-1.28,1a6.29,6.29,0,0,1-2.23,2.44,5.25,5.25,0,0,1-2.82,1,4.44,4.44,0,0,1-3-1.25,13.19,13.19,0,0,1-2.74-3.86c-.4-.85-.78-1.71-1.17-2.56s-.79-1.7-1.23-2.56l-.19,0a24.13,24.13,0,0,0-.68,3.84c-.33,2.36-.75,5.84-1.27,10.42s-1,8.4-1.29,11.08-.44,4.42-.44,5.21a7.21,7.21,0,0,1-.46,2.49,1.58,1.58,0,0,1-1.2,1,9.17,9.17,0,0,0-1.14.26l-1.77.55a.74.74,0,0,1-.33-.17.4.4,0,0,1-.15-.35l.22-1.75-.37-1.8c.15-1,.3-1.93.44-2.85.1-1.89.19-3.67.26-5.35,0-.34.12-.93.28-1.75a10.65,10.65,0,0,0,.24-1.85,6.74,6.74,0,0,0-.11-1,5.45,5.45,0,0,1-.11-1,67,67,0,0,1,.64-7.72,67.72,67.72,0,0,0,.65-7.77c-.08-.72-.16-1.45-.26-2.18.12-1.13.32-2.55.59-4.26S1098.25,507,1098.6,504.69Z"/>
      <path class="cls-36" d="M1137.73,533.16a8.17,8.17,0,0,1-.13-.85c0-.22,0-.41,0-.57a10.46,10.46,0,0,1,.29-2.68,5.16,5.16,0,0,1,.89-1.87,3.63,3.63,0,0,1,.75-.57c.41-.25.94-.55,1.61-.9a3.78,3.78,0,0,0,1.12-1,2.63,2.63,0,0,0,.46-1.45,7.81,7.81,0,0,1,.45-1.52c.22-.56.47-1.18.77-1.84.1-.19.39-1.28.89-3.27s1.18-4.91,2.06-8.76c.25-1.17.49-2.18.74-3s.45-1.58.63-2.18a26.43,26.43,0,0,1,1.93-5.28,23,23,0,0,0,1.13-2.06v-.24l-1.15-2.32,1.44-2.13,1.85-.48c.37-.06.7-.5,1-1.32a10.5,10.5,0,0,1,1.61-2.7,3.87,3.87,0,0,0,.83-.59c.38-.34.86-.8,1.45-1.4a9.64,9.64,0,0,1,1.33-1.19,1.73,1.73,0,0,1,.85-.37,1.76,1.76,0,0,1,1.43.52,2,2,0,0,1,.44,1.37,8.71,8.71,0,0,1-.84,3,8.46,8.46,0,0,0-.85,3,1.67,1.67,0,0,0,.17.78.87.87,0,0,0,.38.4l4.42,3.08c.24.12.46.62.66,1.49a27.52,27.52,0,0,1,.48,3.57c.14,1.26.26,2.31.35,3.15s.13,1.51.13,2c-.18,1.36-.35,2.73-.52,4.12.25,1.77.51,3.63.81,5.59q-.22,2.79-.48,5.68a1.22,1.22,0,0,0,.09.49.4.4,0,0,0,.28.26,1.33,1.33,0,0,1,.94.43,1.57,1.57,0,0,1,.31,1,3.77,3.77,0,0,1-.2,1.35,1.93,1.93,0,0,1-.57.78,10.12,10.12,0,0,0-.76.67,2.87,2.87,0,0,0-.38.47l.48,2.94-.67,6.73c0,.57,0,1.3-.11,2.18s-.18,1.91-.33,3.08c-.24.86-.43,1.57-.55,2.14a6.79,6.79,0,0,0-.18,1.13q.18.81.33,1.71c-.15.85-.3,1.71-.46,2.56s-.31,1.69-.46,2.51a5.86,5.86,0,0,1-1.07,2.44,2,2,0,0,1-1.54.78.77.77,0,0,1-.72-.54,4.29,4.29,0,0,1-.24-1.64,9.89,9.89,0,0,1,.13-1.37,9.89,9.89,0,0,0,.13-1.37,7.13,7.13,0,0,0-.07-.91,7.69,7.69,0,0,1-.08-1c0-.88.07-2.3.21-4.24s.2-3.41.2-4.39c-.12-.53-.25-1.08-.37-1.65q.1-.9.15-1.83a13.94,13.94,0,0,0,0-1.73l.55-1.28-.48-4.4-.25-.15a1.53,1.53,0,0,0-.65.22,7.72,7.72,0,0,0-1,.68,9.19,9.19,0,0,1-1.39.41,13.46,13.46,0,0,1-2.48.26q-.68.42-1.26.75a16.36,16.36,0,0,0-2.14.83c-.86.4-1.86.88-3,1.45a14.38,14.38,0,0,1-1.82,1,3.7,3.7,0,0,1-1.39.36.86.86,0,0,0-.73.42,3.58,3.58,0,0,0-.48,1.23,13.76,13.76,0,0,1-.54,2.09c-.28.88-.66,2-1.12,3.32-.1.35-.24.88-.41,1.61s-.37,1.63-.59,2.7c-.15.41-.32.92-.51,1.54s-.42,1.33-.67,2.15a13.29,13.29,0,0,1-.09,1.4c-.06.56-.15,1.2-.28,1.92-.12.44-.29,1-.5,1.68s-.47,1.43-.79,2.26a2.27,2.27,0,0,1-.85,1.11,2.55,2.55,0,0,1-1.43.35,1.1,1.1,0,0,1-1-.54,3.19,3.19,0,0,1-.35-1.68,20.31,20.31,0,0,1,.22-2.82,33,33,0,0,1,.7-3.48c.35-1.67.64-3,.89-4.07a14.39,14.39,0,0,0,.4-2.33c.08-.22.19-.61.33-1.18s.32-1.26.52-2.08.43-1.69.63-2.7l-.19-.38-1.18.24a.75.75,0,0,1-.59-.43,2.35,2.35,0,0,1-.18-1,4,4,0,0,1,.07-.73C1137.56,533.86,1137.63,533.54,1137.73,533.16Zm13.4-8.73a9.1,9.1,0,0,0,2.5-.52,9.25,9.25,0,0,1,2.51-.53,9.58,9.58,0,0,0,1,.24c.62-.16,1.22-.34,1.81-.55s1.19-.39,1.81-.54a1,1,0,0,0,.55-.36,1.18,1.18,0,0,0,.18-.69c0-.94-.07-1.59-.07-1.94q0-.9.09-2c.06-.74.16-1.51.28-2.3l-.44-2.13.14-1.94c-.1-.7-.18-1.35-.24-2a7.22,7.22,0,0,1,0-1.54L1161,507c-.13-.29-.26-.59-.41-.9-.24-.54-.5-1.05-.76-1.54s-.51-1-.75-1.49a4.12,4.12,0,0,0-1.11-1.33,2.08,2.08,0,0,0-1.21-.43c-.5,0-1,.51-1.52,1.52a20.08,20.08,0,0,0-1.43,4.59c-.08.26-.28.78-.61,1.57s-.81,1.81-1.42,3.08a20.87,20.87,0,0,1-1,4.47c-.56,1.79-1.35,3.88-2.35,6.28a1.49,1.49,0,0,0-.21.57c0,.16,0,.33,0,.52a.83.83,0,0,0,.13.5.48.48,0,0,0,.39.17q.38,0,1.2-.09A10.4,10.4,0,0,1,1151.13,524.43Z"/>
      <path class="cls-36" d="M1180.56,499.2l-.59-3.08c.15-.63.29-1.27.44-1.92s.28-1.28.41-1.92a1.85,1.85,0,0,1,.75-1,2.51,2.51,0,0,1,1.42-.36,4.07,4.07,0,0,0,1-.19,4.55,4.55,0,0,1,1-.19c.22,0,.51.22.88.67a3,3,0,0,0,.78.75,4.2,4.2,0,0,0,.64-.8c.26-.38.58-.89.94-1.52a8.53,8.53,0,0,1,.93-1.23,2.41,2.41,0,0,1,1-.66,11.83,11.83,0,0,0,1,.61,1.11,1.11,0,0,1,.36.43,1.94,1.94,0,0,1,.09.66,5.38,5.38,0,0,1-.19,1c-.12.52-.3,1.23-.55,2.11s-.48,1.74-.63,2.37-.24,1.12-.29,1.47a17.08,17.08,0,0,0-.87,2,4.89,4.89,0,0,0-.32,1.63,13.14,13.14,0,0,0,.45,2.82c.29,1.25.72,2.81,1.28,4.67q1.18,3.78,2.4,7.91,1.11,4.54,2.32,8.78t2.54,8.13q1.37,4.07,2.25,6.06c.58,1.33,1,2,1.32,2s.42-.18.53-.55a6.46,6.46,0,0,0,.17-1.73,11,11,0,0,1,.09-1.23,13.4,13.4,0,0,1,.31-1.65c.22-.86.43-1.82.62-2.89.25-1.64.48-3.08.68-4.31l.54-3.18c.09-.57.2-1.76.33-3.6s.24-4.31.36-7.43a10.55,10.55,0,0,1,.13-1.33c.09-.57.17-1.21.24-1.94s.17-1.35.22-1.87.08-1,.08-1.4c0-.72-.07-1.81-.19-3.24s-.18-2.52-.18-3.25q.55-3,1-5.82c.27-1.64.53-3,.77-4.1s.46-1.92.63-2.49a12.54,12.54,0,0,1,1.44-3,8.94,8.94,0,0,1,1.88-2.06h.29a.58.58,0,0,1,.5.19,1.1,1.1,0,0,1,.13.62c-.13.66-.24,1.17-.33,1.51.07.57.14,1.17.22,1.8-.08.79-.16,1.46-.26,2q-.08.53-.15,1.59c-.05.71-.07,1.57-.07,2.58,0,.38,0,1.19-.11,2.44s-.21,2.91-.41,5q-.21,4.45-.53,8.85t-.64,8.81q-.3,5.31-.85,9.69t-1.33,7.84a45.32,45.32,0,0,1-.68,4.64q-.49,2.55-1.27,5.54l-1.14,2.37a11.35,11.35,0,0,1-2.32,1.21,15.11,15.11,0,0,1-2.46,1c-.37,0-.92-.63-1.66-1.88a42.47,42.47,0,0,1-2.62-5.7c-1-2.31-1.72-4.21-2.28-5.71a23,23,0,0,1-1.07-3.39c0-.28-.12-.64-.22-1.09s-.21-.94-.33-1.51c-.49-1.39-1.12-3.11-1.86-5.16s-1.62-4.49-2.6-7.3a15.21,15.21,0,0,0-.65-2,22.48,22.48,0,0,0-.94-2.06l-.25.14c-.18.63-.35,1.42-.52,2.37s-.37,2.08-.59,3.41a23.76,23.76,0,0,1-.78,2.27q-.56,2.75-1.26,6c-.46,2.15-1,4.45-1.51,6.92-.15.82-.3,1.67-.44,2.55s-.32,1.8-.52,2.75l-.67,1.56c-.09,1-.2,1.88-.33,2.8-.17.72-.39,1.6-.65,2.63s-.57,2.25-.94,3.67a3.16,3.16,0,0,1-.53,1.63,1.54,1.54,0,0,1-1.16.59,1.25,1.25,0,0,1-.3.41,2.24,2.24,0,0,1-.74.4c-.24.06-.42-.11-.55-.5a6.28,6.28,0,0,1-.18-1.73,18.57,18.57,0,0,1,.18-2.08c.13-1,.31-2.15.56-3.6.27-1.64.48-2.93.64-3.86s.27-1.52.31-1.78c.1-.76.21-1.75.34-3s.26-2.65.4-4.26c.05-.41.13-.93.24-1.54s.25-1.34.43-2.16c.12-.63.37-2.34.74-5.14s.84-6.68,1.43-11.67S1180,504.16,1180.56,499.2Z"/>
      <path class="cls-36" d="M1238.63,537.47l1.47,4.36a4.94,4.94,0,0,1-2.26.89,39,39,0,0,1-4.56.66,46.36,46.36,0,0,1-6.46,6.76,24.44,24.44,0,0,1-6.4,4c-.49.19-1.06.39-1.69.61a3.25,3.25,0,0,1-1.29-.3,10.21,10.21,0,0,1-1.55-.88,7.36,7.36,0,0,1-1.37-1.37,2.34,2.34,0,0,1-.48-1.38,4.36,4.36,0,0,1,1.07-2.75,11.18,11.18,0,0,1,3.14-2.51q4.13-2.46,8.14-5a1,1,0,0,1,.85.31,1.18,1.18,0,0,1,.26.78,2.56,2.56,0,0,1-1.42,2.16c-.95.58-1.42,1-1.42,1.25.17.32.32.47.44.47.32,0,1-.61,2.12-1.84s1.63-2,1.6-2.32l-.18-1.09.07-.19a11,11,0,0,0,1.42-1.94,3.11,3.11,0,0,0,.46-1.38,8,8,0,0,0-.92-3.17,37,37,0,0,0-2.76-4.78,44.69,44.69,0,0,0-2.8-3.91c-.94-1.15-1.83-2.17-2.69-3.06a10.29,10.29,0,0,1-.89-1.11,8,8,0,0,1-.59-1c-.27-.63-.48-1.15-.64-1.56a2.57,2.57,0,0,0-.43-.81c-.12-.19-.29-.41-.49-.68s-.47-.58-.76-.93a7.55,7.55,0,0,1-1.2-2.89,21.11,21.11,0,0,1-.42-4.59,15.93,15.93,0,0,1,.38-3.48,11.68,11.68,0,0,1,1.13-3c.07-.19.15-.41.22-.66s.16-.54.26-.85a18.64,18.64,0,0,1,2.87-4.81,41.68,41.68,0,0,1,5.31-5.47c.3-.19.65-.44,1.07-.76a16.63,16.63,0,0,0,1.4-1.23,6.1,6.1,0,0,1,1-.85,6.84,6.84,0,0,1,1.27-.71q1-.53,2.25-1.14a24.18,24.18,0,0,1,3.06-1.8,4.87,4.87,0,0,1,1.84-.57,2,2,0,0,1,1.82.95,5.07,5.07,0,0,1,.61,2.75,17.87,17.87,0,0,1-.24,3.24,3.48,3.48,0,0,1-.64,1.68q-4.35,4.45-7,6.7t-3.72,2.25a1,1,0,0,1-.81-.38,1.8,1.8,0,0,1-.29-1.13,4.16,4.16,0,0,1,1.65-2.82c1.11-1,1.65-1.81,1.63-2.35l-.34-.28a.9.9,0,0,0-.42.14,3.15,3.15,0,0,0-.5.38,36.74,36.74,0,0,0-4.88,6,9.33,9.33,0,0,0-1.64,4.66,12.52,12.52,0,0,0,.42,3.18,18.75,18.75,0,0,0,1.24,3.31c.39.79,1,1.8,1.71,3s1.7,2.68,2.86,4.38q2.38,3.55,3.68,5.5a18.27,18.27,0,0,0,1.44,2,19.11,19.11,0,0,1,1.25,2.47,10.09,10.09,0,0,1,.7,2.36,14.92,14.92,0,0,1,.26,2.23c0,.88.08,2,.08,3.22,0,.74.08,1.17.25,1.28a1.67,1.67,0,0,0,.85.17.48.48,0,0,0,.35-.12A2.22,2.22,0,0,0,1238.63,537.47Z"/>
    </g>
    <g>
      <path class="cls-37" d="M776.68,609.69a3.16,3.16,0,0,1,1.26.22,2.7,2.7,0,0,1,.87.55,4.15,4.15,0,0,1,.59.8c.19.32.43.72.73,1.2.36.65.62,1.15.77,1.5a2.28,2.28,0,0,1,.24.69c-.16,1.31-.3,2.56-.44,3.76s-.24,2.55-.44,3.88q-.13.48-.24,1.05c.09.57.17,1.16.22,1.79s.1,1.27.12,1.9.07,1.05.07,1.67,0,1.32-.07,2.11c0,1,0,1.8-.07,2.42s0,1,0,1.27,0,.33,0,.54a5,5,0,0,0,.14.67,10.39,10.39,0,0,0,.24,1.19V639a56.1,56.1,0,0,0,.82,6,30.51,30.51,0,0,0,1,5,2.47,2.47,0,0,1,.4-.2l2.63-4.74c.14-.38.31-.87.53-1.47s.46-1.29.76-2.08a43.88,43.88,0,0,0,2.88-7.75,113.35,113.35,0,0,0,2.55-11.34,10,10,0,0,1,1.07-3,2.66,2.66,0,0,1,1.47-1.35l3-1.09a2.31,2.31,0,0,1,1.12.83,2.55,2.55,0,0,1,.33,1.37,24.32,24.32,0,0,1-.37,3.4q-.37,2.34-1.14,5.9c0,.51-.09,1.16-.18,1.92s-.22,1.67-.35,2.71q-.27,1.21-.42,1.92a6.55,6.55,0,0,0-.15.88q0,.89,0,2c0,.76,0,1.61.07,2.56,0,1.15.06,2.1.06,2.87v1.62c0,1.51.08,2.66.16,3.43s.18,1.17.32,1.17.58-.48,1.06-1.45a41.9,41.9,0,0,0,1.77-4.4c.57-1.49,1.08-2.89,1.54-4.22s.87-2.58,1.23-3.76a2.48,2.48,0,0,0,.54-1,7.39,7.39,0,0,0,.27-1.73q.54-1.46,1-3.06t1.08-3.33c.22-.67.47-1.52.72-2.53l.93-3.62-.44-1.42c.07-.27.17-.61.31-1a12.82,12.82,0,0,0,.37-1.46,12.85,12.85,0,0,1,1.64-2.19c.48-.5.87-.75,1.16-.75a.47.47,0,0,1,.47.36,3.37,3.37,0,0,1,.14,1.13c0,1.37,0,2.44-.08,3.19a6.26,6.26,0,0,1-.22,1.47c-.16.32-.3.62-.41.9l-.27.69.44,1.66a10.38,10.38,0,0,0-.47,1.71c-.18.82-.39,1.9-.61,3.23s-.43,2.26-.61,3a5.51,5.51,0,0,1-.51,1.49A8.27,8.27,0,0,1,808,634c-.22.6-.49,1.33-.81,2.16a9.28,9.28,0,0,0-.44,1.37l-.57,2.21c-.16.52-.36,1.13-.61,1.84s-.53,1.58-.85,2.59a6.2,6.2,0,0,0-.66,1.18,12.48,12.48,0,0,0-.59,1.86,16.59,16.59,0,0,1-.62,1.58c-.31.68-.68,1.57-1.13,2.65a28.66,28.66,0,0,1-1.22,2.6,3.38,3.38,0,0,1-.71,1l-.81.47a1.38,1.38,0,0,1-.68.46,3.6,3.6,0,0,1-1,.08,8.22,8.22,0,0,1-1.06.57,1.92,1.92,0,0,1-.73.21,2.46,2.46,0,0,1-2.06-1,7,7,0,0,1-1.12-3.11c-.06-1-.14-1.94-.22-2.92s-.16-2-.25-3c0-.5-.13-1.16-.25-2s-.32-1.81-.59-3q-.72,1.35-1.47,2.79c-.51,1-1,2-1.58,3a4.11,4.11,0,0,1-.47,1.48c-.34.79-.81,1.89-1.42,3.28s-1.31,2.94-2,4.43a6.51,6.51,0,0,1-1.67,2,3.32,3.32,0,0,1-2,.66c-.36,0-.71-.28-1-.85a11.49,11.49,0,0,1-1-2.57c-.2-.69-.4-1.4-.59-2.11l-.59-2.18a5.62,5.62,0,0,0,.23-.78,8.48,8.48,0,0,1-.49-1.28c-.17-.54-.35-1.2-.56-2l-.27-1.83c-.11-.74-.24-1.62-.37-2.63,0-.32-.05-.64-.07-1s0-.65-.07-1a3.31,3.31,0,0,0-.18-.81,8.28,8.28,0,0,0-.46-1,4.46,4.46,0,0,1-.12-1q0-.79-.12-2.22a10.57,10.57,0,0,0-.2-1.91,1.56,1.56,0,0,0-.51-1l-.91-.68a5.57,5.57,0,0,1-.33-1.47,21.31,21.31,0,0,1-.11-2.45,74.18,74.18,0,0,1,.45-8c.31-2.77.76-5.69,1.37-8.76a3.45,3.45,0,0,1,.85-1.79A2.07,2.07,0,0,1,776.68,609.69Z"/>
      <path class="cls-37" d="M846.07,612.36a.83.83,0,0,1,.81.62,5.33,5.33,0,0,1,.23,1.81,24.86,24.86,0,0,1-.27,2.79q-.27,2-.78,5.25l.41,2.2q-.27.78-.54,1.83c-.18.7-.34,1.46-.47,2.3s-.35,1.74-.5,2.4a14.55,14.55,0,0,1-.42,1.59c-.18.69-.34,1.34-.49,1.94a14.36,14.36,0,0,0-.32,1.77c-.16,1.42-.37,2.77-.63,4a25.08,25.08,0,0,1-1,3.67q-.44,1.29-1.34,4.9c-.59,2.41-1.36,5.58-2.28,9.5a15.5,15.5,0,0,1-1.36,4c-.49.87-1,1.31-1.62,1.31a.85.85,0,0,1-.64-.2,1.15,1.15,0,0,1-.27-.71,1.12,1.12,0,0,1,0-.37c0-.14,0-.53,0-1.18a2.35,2.35,0,0,0-.21-.75l.68-2.63a5,5,0,0,0-.17-.95,38.1,38.1,0,0,1,.59-4.78q.6-3.6,1.71-9.65c.27-1.33.53-2.79.78-4.36a1.82,1.82,0,0,0-.07-.58.28.28,0,0,0-.27-.17l-.78.34-.84-.41a3.63,3.63,0,0,0-.83.63,1.8,1.8,0,0,1-.93.55,11.25,11.25,0,0,1-1.88-.22,12.32,12.32,0,0,0-1.84-.22,3.78,3.78,0,0,0-1.59.39,7.89,7.89,0,0,0-1.76,1.17,11.59,11.59,0,0,0-2.82.75,8.4,8.4,0,0,0-2.18,1.34c-.32.24-.65.51-1,.81-.18.15-.31.71-.39,1.67s-.12,2.27-.12,3.94a17.25,17.25,0,0,0,.24,3.39c.15.72.39,1.08.71,1.08a.93.93,0,0,0,.54-.16,3.5,3.5,0,0,0,.57-.49c.14-.15.29-.32.47-.49a2.34,2.34,0,0,0,.44-.52l.27,0a.34.34,0,0,1,.36.13.87.87,0,0,1,.12.51q-.35.75-.66,1.35c-.22.41-.4.75-.56,1l-2.06,3.14a4.2,4.2,0,0,1-1.45,1.25,4.15,4.15,0,0,1-2,.45c-.6,0-1.06-.83-1.36-2.47a44.65,44.65,0,0,1-.45-7.38,19.9,19.9,0,0,0-.24-3.3,8,8,0,0,0-.77-2.42,7.37,7.37,0,0,1-.71-1.56,4.27,4.27,0,0,1-.2-1.15,2.27,2.27,0,0,1,.19-.84,3.88,3.88,0,0,1,.55-.95c.3-.36.53-.65.7-.89a1.59,1.59,0,0,0,.28-.59,9.23,9.23,0,0,0,.39-1.42c.13-.59.27-1.26.42-2a17.67,17.67,0,0,0,.38-2.19c.11-1,.19-2.09.23-3.42a28.24,28.24,0,0,1,.71-5.74,7.31,7.31,0,0,0,.44-2.33l-.2-.85c0-.47.11-1.08.2-1.82s.22-1.6.37-2.57a3.73,3.73,0,0,0,.68-.59,8.46,8.46,0,0,0,.78-1,21.51,21.51,0,0,1,2.53-.88,2.41,2.41,0,0,1,1.83.64,2.59,2.59,0,0,1,.61,1.83,3.66,3.66,0,0,1-.19.94c-.12.41-.28.92-.46,1.53a16.43,16.43,0,0,0-.65,2.87c-.24,1.39-.51,3.19-.8,5.37-.2,1.58-.42,3.06-.66,4.45s-.51,2.67-.83,3.87a3.49,3.49,0,0,0-.1.57,1.24,1.24,0,0,0,.17.73.61.61,0,0,0,.51.22l2.26-.2a12.45,12.45,0,0,0,2.34-.75h2.6c.36,0,.88,0,1.57-.11a14.69,14.69,0,0,1,1.54-.12,7.07,7.07,0,0,1,1.44.22,7.68,7.68,0,0,0,1.5.22,5.43,5.43,0,0,0,1-.14,12,12,0,0,0,1.55-.47,2.67,2.67,0,0,0,.75-.1c.2-.07.3-.17.3-.31q.17-.44.39-1.08c.15-.43.3-.92.46-1.49s.1-1.13.18-1.86.19-1.56.32-2.53c.32-1.8.55-3.28.7-4.43a24.28,24.28,0,0,0,.22-2.43,2.09,2.09,0,0,0-.07-.51.75.75,0,0,0-.24-.37c-.18-.2-.38-.45-.61-.74a4.1,4.1,0,0,1,.51-1q.78-1.19,1.32-2a7.57,7.57,0,0,1,.88-1.13,9.36,9.36,0,0,1,1.3-1.14A13.94,13.94,0,0,1,846.07,612.36Z"/>
      <path class="cls-37" d="M849.91,637.3a3,3,0,0,1,.25-1,10,10,0,0,1,.76-1.38c.48-.68.83-1.21,1.07-1.59a3.09,3.09,0,0,0,.39-.74c.11-.25.26-.58.45-1s.42-.87.66-1.39a5.12,5.12,0,0,0,.78-1.61c.29-.82.63-1.91,1-3.26.18-.36.37-.79.57-1.3s.45-1.11.74-1.81a11.22,11.22,0,0,1,.51-1.82c.25-.7.56-1.48.95-2.33s1-1.62,1.48-2.41a4.66,4.66,0,0,1,2.24-1.75,3.72,3.72,0,0,1,.87.74,1.13,1.13,0,0,1,.31.71,5.13,5.13,0,0,1-.76,2.25,5.17,5.17,0,0,0-.76,1.91.67.67,0,0,0,.3.51,5.64,5.64,0,0,0,1-.82c.48-.45,1.09-1,1.86-1.82a18.21,18.21,0,0,1,1.71-1.44,3.7,3.7,0,0,1,1.44-.69,8.33,8.33,0,0,1,1.11-.31,10.93,10.93,0,0,0,1.52-.43,4,4,0,0,0,.71-.48,2.8,2.8,0,0,1,.75-.4l.5.1a4.29,4.29,0,0,0,1.69.62,10.28,10.28,0,0,0,1.76.32,4.44,4.44,0,0,1,.71.55,11.58,11.58,0,0,0,1,.81,8.89,8.89,0,0,1,2.52,2.38,18.15,18.15,0,0,1,2.11,3.9,26.23,26.23,0,0,1,1.33,4.06,15.83,15.83,0,0,1,.46,3.72,30.29,30.29,0,0,1-1.42,9.8,16.42,16.42,0,0,1-4.29,6.83l-.66.66-1,.93v.37a1.81,1.81,0,0,1-.39.73,8.45,8.45,0,0,1-.9.89l-2.53,2.32q-1.29,1.17-2.64,2.28a19.7,19.7,0,0,1-3.21,2.3,11.74,11.74,0,0,1-2.94,1.18,4.15,4.15,0,0,1-1.51.83,7.19,7.19,0,0,1-2.18.29,14.92,14.92,0,0,1-3.07-.26,3.52,3.52,0,0,1-1.69-.72,6.26,6.26,0,0,0-.71-.61c-.27-.2-.59-.46-1-.78a4.09,4.09,0,0,1-1.08-1.6,16.61,16.61,0,0,1-.91-3c-.19-.92-.33-1.82-.43-2.69a21,21,0,0,1-.15-2.41,6.31,6.31,0,0,1,.17-1.12,4.11,4.11,0,0,0,.13-1.18,13.11,13.11,0,0,0-.06-1.35,7.92,7.92,0,0,1,.37-1.93,8.12,8.12,0,0,0,.37-2.1,1.17,1.17,0,0,0-.2-.5,4.74,4.74,0,0,0-.78,1.11,1.38,1.38,0,0,1-.47.51,1,1,0,0,1-.51.17.67.67,0,0,1-.59-.31,1.51,1.51,0,0,1-.22-.91,6.22,6.22,0,0,1,.18-1.22A5.65,5.65,0,0,0,849.91,637.3Zm20.28-16.53a6.79,6.79,0,0,0-1.65.21,10.28,10.28,0,0,0-1.73.57L863.53,623a4.56,4.56,0,0,0-.76.54,8.2,8.2,0,0,0-.93,1l-1.55,1.93A8.11,8.11,0,0,0,859,629.7a51.19,51.19,0,0,0-1,6.08c-.23,1.92-.39,3.7-.48,5.36s-.13,3.18-.13,4.58q0,4.29,1.32,6.41a4.38,4.38,0,0,0,4,2.11,7.29,7.29,0,0,0,2.81-.66,17,17,0,0,0,3.38-2,25.39,25.39,0,0,0,2.74-2.32,14,14,0,0,0,2-2.38,16.82,16.82,0,0,0,1.06-2q.74-1.53,2-4.16a23,23,0,0,0,1.31-3.91,17.17,17.17,0,0,0,.48-4.07c-.14-.68-.28-1.34-.44-2l.23-1.46c-.22-.27-.41-.52-.57-.74s-.12-.33-.17-.44a12.73,12.73,0,0,0-2.84-5.49A5.92,5.92,0,0,0,870.19,620.77Z"/>
      <path class="cls-37" d="M911.48,609.69a3.21,3.21,0,0,1,1.27.22,2.55,2.55,0,0,1,.86.55,4.15,4.15,0,0,1,.59.8l.73,1.2q.54,1,.78,1.5a2.46,2.46,0,0,1,.23.69c-.15,1.31-.3,2.56-.44,3.76s-.23,2.55-.43,3.88q-.14.48-.24,1.05c.09.57.16,1.16.22,1.79s.09,1.27.12,1.9.06,1.05.06,1.67,0,1.32-.06,2.11c0,1,0,1.8-.07,2.42s0,1,0,1.27,0,.33,0,.54a4.9,4.9,0,0,0,.13.67c0,.32.13.71.24,1.19V639a57.24,57.24,0,0,0,.83,6,31.21,31.21,0,0,0,1,5,2.51,2.51,0,0,1,.41-.2l2.63-4.74c.13-.38.31-.87.52-1.47s.47-1.29.76-2.08a43,43,0,0,0,2.89-7.75q1.37-4.79,2.55-11.34a10,10,0,0,1,1.06-3,2.66,2.66,0,0,1,1.47-1.35l3-1.09a2.28,2.28,0,0,1,1.11.83,2.46,2.46,0,0,1,.34,1.37,24.32,24.32,0,0,1-.37,3.4q-.37,2.34-1.15,5.9c0,.51-.08,1.16-.18,1.92s-.21,1.67-.35,2.71q-.27,1.21-.42,1.92a6.55,6.55,0,0,0-.15.88q0,.89,0,2c0,.76,0,1.61.07,2.56.05,1.15.07,2.1.07,2.87v1.62c0,1.51.07,2.66.15,3.43s.19,1.17.32,1.17.58-.48,1.07-1.45a44.24,44.24,0,0,0,1.77-4.4c.56-1.49,1.07-2.89,1.53-4.22s.88-2.58,1.24-3.76a2.74,2.74,0,0,0,.54-1,8.63,8.63,0,0,0,.27-1.73c.36-1,.71-2,1-3.06s.7-2.18,1.08-3.33c.23-.67.47-1.52.73-2.53l.93-3.62-.44-1.42c.07-.27.17-.61.3-1a11,11,0,0,0,.37-1.46,13.4,13.4,0,0,1,1.64-2.19c.49-.5.87-.75,1.17-.75a.48.48,0,0,1,.47.36,3.43,3.43,0,0,1,.13,1.13c0,1.37,0,2.44-.08,3.19a6.26,6.26,0,0,1-.22,1.47c-.16.32-.29.62-.41.9l-.27.69.44,1.66a11.52,11.52,0,0,0-.47,1.71c-.18.82-.38,1.9-.61,3.23s-.43,2.26-.61,3a6,6,0,0,1-.5,1.49,9.1,9.1,0,0,1-.44,1.56c-.23.6-.5,1.33-.81,2.16a7.36,7.36,0,0,0-.44,1.37c-.16.62-.35,1.36-.58,2.21-.16.52-.36,1.13-.61,1.84s-.53,1.58-.84,2.59a5.27,5.27,0,0,0-.66,1.18,11.41,11.41,0,0,0-.59,1.86c-.12.36-.32.89-.63,1.58s-.68,1.57-1.13,2.65a26.16,26.16,0,0,1-1.22,2.6,3.2,3.2,0,0,1-.71,1l-.81.47a1.35,1.35,0,0,1-.67.46A3.6,3.6,0,0,1,932,656a8.26,8.26,0,0,1-1.07.57,1.84,1.84,0,0,1-.72.21,2.48,2.48,0,0,1-2.07-1,7,7,0,0,1-1.11-3.11c-.07-1-.14-1.94-.22-2.92s-.16-2-.25-3c-.05-.5-.13-1.16-.26-2s-.32-1.81-.59-3l-1.47,2.79c-.51,1-1,2-1.57,3a4.47,4.47,0,0,1-.48,1.48c-.33.79-.81,1.89-1.42,3.28s-1.3,2.94-2,4.43a6.52,6.52,0,0,1-1.68,2,3.28,3.28,0,0,1-2,.66c-.36,0-.71-.28-1.05-.85a11.09,11.09,0,0,1-1-2.57c-.21-.69-.41-1.4-.6-2.11l-.59-2.18a7.87,7.87,0,0,0,.24-.78,8.48,8.48,0,0,1-.49-1.28c-.17-.54-.36-1.2-.56-2l-.27-1.83c-.12-.74-.24-1.62-.38-2.63l-.06-1c0-.32,0-.65-.07-1a3.91,3.91,0,0,0-.19-.81,7,7,0,0,0-.46-1,5.58,5.58,0,0,1-.11-1q-.06-.79-.12-2.22a10.47,10.47,0,0,0-.21-1.91,1.6,1.6,0,0,0-.5-1l-.92-.68a6.09,6.09,0,0,1-.32-1.47,21.05,21.05,0,0,1-.12-2.45,71.77,71.77,0,0,1,.46-8q.45-4.15,1.37-8.76a3.45,3.45,0,0,1,.84-1.79A2.08,2.08,0,0,1,911.48,609.69Z"/>
      <path class="cls-37" d="M950.35,652.11a28.74,28.74,0,0,1,.15-3.2,15.55,15.55,0,0,1,.35-2c0-.38-.1-.78-.17-1.18s.06-1.27.17-2.37.29-2.55.51-4.33.38-3,.52-4a15.79,15.79,0,0,1,.33-1.71c-.05-.38-.1-.8-.16-1.25a12.2,12.2,0,0,0-.28-1.48L951,630l-.17-.41c0-.63.09-1.27.12-1.91a18.58,18.58,0,0,1,.22-1.94,10.2,10.2,0,0,1,.32-2.13,15.53,15.53,0,0,1,.53-1.59,3.88,3.88,0,0,0,.22-.48,4.23,4.23,0,0,1,.32-.64c.2-.81.4-1.62.61-2.43s.41-1.6.64-2.37a4.7,4.7,0,0,1,1.45-1.86,5,5,0,0,1,2.3-.91,13.66,13.66,0,0,1,1.62-.76,3.23,3.23,0,0,1,1.09-.25.86.86,0,0,1,.74.37,1.77,1.77,0,0,1,.27,1c0,.18-.09.8-.27,1.87s-.46,2.55-.85,4.45c-.06.63-.18,1.38-.33,2.24s-.38,1.9-.65,3.1-.67,2.79-1,4.38-.63,3.34-.9,5.25c-.11.81-.24,1.61-.37,2.4s-.26,1.59-.37,2.4-.26,1.8-.36,2.62a18.5,18.5,0,0,0-.15,2.22,5.52,5.52,0,0,0,.05.71,4.85,4.85,0,0,1,0,.64,3,3,0,0,1,0,1l-.18,1.45q-.13.81-.24,1.47a6.74,6.74,0,0,0-.1,1c0,1.15,0,2.08.08,2.79a8.21,8.21,0,0,0,.19,1.4c.16.61.32,1.26.47,2,0,.39-.5.95-1.52,1.71a4.7,4.7,0,0,1-2.19,1.13,1,1,0,0,1-.73-.29,3.2,3.2,0,0,1-.66-.86,8.24,8.24,0,0,1-.37-1,2.76,2.76,0,0,1-.14-.81,2.57,2.57,0,0,1,.14-.64,2.43,2.43,0,0,0,.13-.64,8.56,8.56,0,0,0-.61-1.69c0,.22-.06.18-.06-.14Z"/>
      <path class="cls-37" d="M983.16,649.54c.9,2,1.35,3,1.35,3.11a13.87,13.87,0,0,0-.81,1.28c-.25.46-.52.92-.81,1.39a3.75,3.75,0,0,1-1,1,6.47,6.47,0,0,1-1.49.74l-2.29.93c-.73.31-1.38.6-2,.9a7.12,7.12,0,0,1-2.12.62l-2.18.29a6.85,6.85,0,0,1-1.47.25c-.48,0-.93,0-1.33,0a5.17,5.17,0,0,1-.85,0,1.53,1.53,0,0,1-.57-.18l-.59-.41-.56-.37-.88-.51c-.27-.16-.47-.61-.59-1.35a20.38,20.38,0,0,1-.19-3.25,21,21,0,0,1,.85-4.73,22.16,22.16,0,0,0,.84-4.33,3.89,3.89,0,0,0-.07-.66,5.2,5.2,0,0,1-.06-.7,30.49,30.49,0,0,1,.66-4.31,29.66,29.66,0,0,0,.65-4.68,1,1,0,0,0-.49-.93,1,1,0,0,1-.49-.87,14,14,0,0,1,.14-1.82,17.22,17.22,0,0,1,.47-2.23q.27-1,.51-2c.16-.66.31-1.31.47-1.94s.32-1.49.49-2.26.31-1.51.43-2.23a14.61,14.61,0,0,1,.64-1.82c.29-.72.64-1.55,1.05-2.47.2-.45.38-.87.54-1.27s.32-.81.5-1.26a3,3,0,0,1,.78-1,5.55,5.55,0,0,1,1.25-.77c.41-.15.77-.27,1.08-.35a3.25,3.25,0,0,1,.65-.12A1.49,1.49,0,0,1,977,612a3.44,3.44,0,0,1,.42,1.91,8.08,8.08,0,0,1,0,.93,5.72,5.72,0,0,1-.25,1.2c-.09.47-.18.88-.25,1.21s-.15.61-.19.82c0,.54-.06,1-.1,1.48s-.1.87-.17,1.25-.32.6-.54,1c-.16,1.06-.29,2-.39,2.66a12.54,12.54,0,0,0-.15,1.5,11.44,11.44,0,0,1-.73,3.57,11.42,11.42,0,0,0-.73,3.26,5.91,5.91,0,0,1-.16,1.23c-.12.51-.29,1.11-.51,1.81-.25,1-.45,1.68-.59,2.2s-.25.83-.29.95c0,.33-.1.73-.15,1.18s-.14,1-.26,1.59c-.52,2.45-.9,4.49-1.16,6.1a25,25,0,0,0-.39,3.63,5.19,5.19,0,0,0,.23,1.73c.16.4.4.61.71.61a20.14,20.14,0,0,0,4.32-.48,31.33,31.33,0,0,0,4.54-1.38,2.44,2.44,0,0,0,.53-.14l.52-.2a4.86,4.86,0,0,0,.61-.88,7.13,7.13,0,0,0,.78-.56A4.48,4.48,0,0,0,983.16,649.54Z"/>
      <path class="cls-37" d="M1005.9,649.54c.9,2,1.35,3,1.35,3.11a13.87,13.87,0,0,0-.81,1.28c-.25.46-.52.92-.81,1.39a3.75,3.75,0,0,1-1,1,6.47,6.47,0,0,1-1.49.74l-2.29.93c-.72.31-1.38.6-2,.9a7.12,7.12,0,0,1-2.12.62l-2.18.29a6.85,6.85,0,0,1-1.47.25c-.48,0-.93,0-1.33,0a5.17,5.17,0,0,1-.85,0,1.53,1.53,0,0,1-.57-.18l-.59-.41-.56-.37-.88-.51c-.27-.16-.47-.61-.59-1.35a20.38,20.38,0,0,1-.19-3.25,21,21,0,0,1,.85-4.73,22.16,22.16,0,0,0,.84-4.33,3.89,3.89,0,0,0-.07-.66,5.2,5.2,0,0,1-.06-.7,30.49,30.49,0,0,1,.66-4.31,28.48,28.48,0,0,0,.65-4.68,1,1,0,0,0-.49-.93,1,1,0,0,1-.49-.87,14,14,0,0,1,.14-1.82,17.22,17.22,0,0,1,.47-2.23q.27-1,.51-2c.16-.66.31-1.31.47-1.94s.32-1.49.49-2.26.31-1.51.43-2.23a14.61,14.61,0,0,1,.64-1.82c.29-.72.64-1.55,1.05-2.47.2-.45.38-.87.54-1.27s.32-.81.5-1.26a3,3,0,0,1,.78-1,5.55,5.55,0,0,1,1.25-.77c.41-.15.77-.27,1.08-.35a3.25,3.25,0,0,1,.65-.12,1.49,1.49,0,0,1,1.33.63,3.44,3.44,0,0,1,.42,1.91,8.08,8.08,0,0,1,0,.93,5.72,5.72,0,0,1-.25,1.2c-.09.47-.18.88-.25,1.21l-.19.82c0,.54-.06,1-.1,1.48s-.1.87-.17,1.25-.32.6-.54,1c-.16,1.06-.29,2-.39,2.66a12.54,12.54,0,0,0-.15,1.5,11.44,11.44,0,0,1-.73,3.57,11.42,11.42,0,0,0-.73,3.26,5.91,5.91,0,0,1-.16,1.23c-.12.51-.29,1.11-.51,1.81-.25,1-.45,1.68-.59,2.2s-.25.83-.29.95c0,.33-.1.73-.15,1.18s-.14,1-.26,1.59c-.51,2.45-.9,4.49-1.16,6.1a25,25,0,0,0-.39,3.63,4.9,4.9,0,0,0,.24,1.73c.15.4.39.61.71.61a20,20,0,0,0,4.31-.48,31.33,31.33,0,0,0,4.54-1.38,2.44,2.44,0,0,0,.53-.14l.52-.2a4.86,4.86,0,0,0,.61-.88,7.13,7.13,0,0,0,.78-.56A4.48,4.48,0,0,0,1005.9,649.54Z"/>
      <path class="cls-37" d="M1033.43,609.69a3.21,3.21,0,0,1,1.27.22,2.65,2.65,0,0,1,.86.55,4.15,4.15,0,0,1,.59.8l.73,1.2q.54,1,.78,1.5a2.46,2.46,0,0,1,.23.69c-.15,1.31-.3,2.56-.44,3.76s-.23,2.55-.44,3.88c-.09.32-.16.67-.23,1.05.09.57.16,1.16.22,1.79s.09,1.27.12,1.9.06,1.05.06,1.67,0,1.32-.06,2.11c0,1,0,1.8-.07,2.42s0,1,0,1.27,0,.33,0,.54a4.9,4.9,0,0,0,.13.67c0,.32.13.71.24,1.19V639a57.24,57.24,0,0,0,.83,6,31.21,31.21,0,0,0,1,5,3,3,0,0,1,.4-.2l2.64-4.74c.13-.38.31-.87.52-1.47s.47-1.29.76-2.08a43.82,43.82,0,0,0,2.89-7.75q1.37-4.79,2.55-11.34a10,10,0,0,1,1.06-3,2.66,2.66,0,0,1,1.47-1.35l3-1.09a2.28,2.28,0,0,1,1.11.83,2.46,2.46,0,0,1,.34,1.37,24.32,24.32,0,0,1-.37,3.4q-.37,2.34-1.15,5.9c0,.51-.08,1.16-.18,1.92s-.21,1.67-.35,2.71q-.27,1.21-.42,1.92a6.55,6.55,0,0,0-.15.88q0,.89,0,2c0,.76,0,1.61.07,2.56,0,1.15.07,2.1.07,2.87v1.62c0,1.51.07,2.66.15,3.43s.19,1.17.32,1.17.58-.48,1.06-1.45a41.5,41.5,0,0,0,1.78-4.4c.56-1.49,1.07-2.89,1.53-4.22s.87-2.58,1.24-3.76a2.74,2.74,0,0,0,.54-1,8.63,8.63,0,0,0,.27-1.73c.36-1,.7-2,1-3.06s.7-2.18,1.08-3.33c.23-.67.47-1.52.73-2.53l.93-3.62-.44-1.42c.07-.27.17-.61.3-1a11,11,0,0,0,.37-1.46,13.4,13.4,0,0,1,1.64-2.19q.72-.75,1.17-.75a.48.48,0,0,1,.47.36,3.43,3.43,0,0,1,.13,1.13c0,1.37,0,2.44-.08,3.19a6.26,6.26,0,0,1-.22,1.47c-.16.32-.29.62-.41.9l-.27.69.44,1.66a11.52,11.52,0,0,0-.47,1.71c-.18.82-.38,1.9-.61,3.23s-.43,2.26-.61,3a6,6,0,0,1-.5,1.49,9.1,9.1,0,0,1-.44,1.56c-.23.6-.5,1.33-.81,2.16a7.36,7.36,0,0,0-.44,1.37c-.16.62-.35,1.36-.58,2.21-.16.52-.36,1.13-.61,1.84s-.53,1.58-.84,2.59a5.27,5.27,0,0,0-.66,1.18,11.41,11.41,0,0,0-.59,1.86c-.12.36-.32.89-.63,1.58s-.68,1.57-1.13,2.65a26.16,26.16,0,0,1-1.22,2.6,3.2,3.2,0,0,1-.71,1l-.81.47a1.34,1.34,0,0,1-.68.46,3.56,3.56,0,0,1-1,.08,8.26,8.26,0,0,1-1.07.57,1.84,1.84,0,0,1-.72.21,2.48,2.48,0,0,1-2.07-1,6.87,6.87,0,0,1-1.11-3.11c-.07-1-.14-1.94-.22-2.92s-.17-2-.26-3c0-.5-.13-1.16-.25-2s-.32-1.81-.59-3l-1.47,2.79c-.51,1-1,2-1.57,3a4.47,4.47,0,0,1-.48,1.48c-.33.79-.81,1.89-1.42,3.28s-1.3,2.94-2,4.43a6.52,6.52,0,0,1-1.68,2,3.28,3.28,0,0,1-2,.66c-.36,0-.71-.28-1-.85a11.49,11.49,0,0,1-1-2.57c-.2-.69-.4-1.4-.59-2.11l-.59-2.18a7.87,7.87,0,0,0,.24-.78,7.53,7.53,0,0,1-.49-1.28c-.17-.54-.36-1.2-.56-2l-.27-1.83c-.12-.74-.24-1.62-.38-2.63,0-.32,0-.64-.07-1s0-.65-.06-1a3.91,3.91,0,0,0-.19-.81,7,7,0,0,0-.46-1,6.28,6.28,0,0,1-.12-1c0-.53-.07-1.27-.11-2.22a10.47,10.47,0,0,0-.21-1.91,1.56,1.56,0,0,0-.51-1l-.91-.68a5.64,5.64,0,0,1-.32-1.47,21.05,21.05,0,0,1-.12-2.45,71.77,71.77,0,0,1,.46-8q.45-4.15,1.37-8.76a3.37,3.37,0,0,1,.84-1.79A2.08,2.08,0,0,1,1033.43,609.69Z"/>
      <path class="cls-37" d="M1072.3,652.11a28.74,28.74,0,0,1,.15-3.2,15.55,15.55,0,0,1,.35-2c0-.38-.1-.78-.17-1.18s.06-1.27.17-2.37.28-2.55.51-4.33.38-3,.52-4a15.79,15.79,0,0,1,.33-1.71c-.05-.38-.1-.8-.16-1.25a12.2,12.2,0,0,0-.28-1.48L1073,630l-.17-.41c0-.63.09-1.27.12-1.91a18.58,18.58,0,0,1,.22-1.94,10.2,10.2,0,0,1,.32-2.13,15.53,15.53,0,0,1,.53-1.59,3.88,3.88,0,0,0,.22-.48,4.23,4.23,0,0,1,.32-.64c.2-.81.4-1.62.61-2.43s.41-1.6.64-2.37a4.7,4.7,0,0,1,1.45-1.86,5,5,0,0,1,2.3-.91,13.66,13.66,0,0,1,1.62-.76,3.23,3.23,0,0,1,1.08-.25.87.87,0,0,1,.75.37,1.77,1.77,0,0,1,.27,1c0,.18-.09.8-.27,1.87s-.46,2.55-.85,4.45c-.06.63-.18,1.38-.34,2.24s-.37,1.9-.64,3.1-.67,2.79-1,4.38-.63,3.34-.9,5.25c-.11.81-.24,1.61-.37,2.4s-.26,1.59-.37,2.4-.26,1.8-.36,2.62a18.5,18.5,0,0,0-.15,2.22,5.52,5.52,0,0,0,0,.71,4.85,4.85,0,0,1,0,.64,3,3,0,0,1,0,1l-.18,1.45q-.14.81-.24,1.47a6.74,6.74,0,0,0-.1,1c0,1.15,0,2.08.08,2.79a8.21,8.21,0,0,0,.19,1.4c.16.61.32,1.26.47,2,0,.39-.5.95-1.52,1.71a4.68,4.68,0,0,1-2.2,1.13,1,1,0,0,1-.72-.29,3.2,3.2,0,0,1-.66-.86,8.24,8.24,0,0,1-.37-1,2.76,2.76,0,0,1-.14-.81,2.57,2.57,0,0,1,.14-.64,2.43,2.43,0,0,0,.13-.64,8.56,8.56,0,0,0-.61-1.69c0,.22-.06.18-.06-.14Z"/>
      <path class="cls-37" d="M1091.33,622.19l-.55-2.19.41-1.37c.13-.46.26-.92.37-1.37a1.46,1.46,0,0,1,.7-.73,2.81,2.81,0,0,1,1.3-.25,5.08,5.08,0,0,0,.93-.14,4.83,4.83,0,0,1,.9-.13,1.45,1.45,0,0,1,.81.47,2.43,2.43,0,0,0,.71.54,3.69,3.69,0,0,0,.59-.57,13.5,13.5,0,0,0,.86-1.09,6.43,6.43,0,0,1,.85-.87,2.31,2.31,0,0,1,.88-.48c.37.18.68.33,1,.44a.69.69,0,0,1,.32.31,1,1,0,0,1,.09.47,3.75,3.75,0,0,1-.17.73q-.16.56-.51,1.5c-.25.68-.44,1.24-.57,1.69s-.23.8-.28,1.05a10.53,10.53,0,0,0-.79,1.4,2.87,2.87,0,0,0-.29,1.17,7.61,7.61,0,0,0,.4,2c.28.89.67,2,1.19,3.33q1.08,2.7,2.19,5.64,1,3.25,2.13,6.27t2.33,5.8a45.74,45.74,0,0,0,2.06,4.33c.54.94.95,1.42,1.22,1.42a.51.51,0,0,0,.48-.39A3.69,3.69,0,0,0,1111,650a5.55,5.55,0,0,1,.09-.88,8.17,8.17,0,0,1,.29-1.19c.2-.6.39-1.29.57-2.06.22-1.17.43-2.2.62-3.07s.35-1.64.49-2.27a24.28,24.28,0,0,0,.3-2.57c.11-1.31.22-3.08.34-5.31a6,6,0,0,1,.11-.94c.08-.41.16-.87.22-1.39s.16-1,.21-1.33a9.65,9.65,0,0,0,.06-1,21.3,21.3,0,0,0-.17-2.32,23.15,23.15,0,0,1-.16-2.31c.33-1.42.65-2.81.94-4.16.25-1.17.49-2.15.71-2.92s.42-1.37.58-1.78a8.4,8.4,0,0,1,1.32-2.11,7,7,0,0,1,1.72-1.47h.27a.6.6,0,0,1,.46.13.73.73,0,0,1,.11.44,9.09,9.09,0,0,1-.3,1.08c.07.41.14.84.2,1.29a11.73,11.73,0,0,1-.23,1.42c0,.25-.09.62-.14,1.13s-.07,1.12-.07,1.84c0,.27,0,.85-.1,1.74s-.19,2.08-.37,3.57c-.13,2.12-.3,4.23-.49,6.32s-.39,4.19-.59,6.29c-.18,2.52-.44,4.83-.77,6.91a49.52,49.52,0,0,1-1.22,5.6,26.12,26.12,0,0,1-.62,3.31c-.31,1.22-.7,2.54-1.17,3.95l-1,1.69a11.68,11.68,0,0,1-2.13.87,16.82,16.82,0,0,1-2.26.72c-.34,0-.85-.44-1.52-1.33a27.46,27.46,0,0,1-2.4-4.07q-1.32-2.47-2.1-4.08a14.34,14.34,0,0,1-1-2.41c0-.21-.11-.47-.2-.78s-.19-.68-.31-1.08c-.45-1-1-2.22-1.7-3.69s-1.49-3.2-2.39-5.2a8.22,8.22,0,0,0-.59-1.44,14.93,14.93,0,0,0-.86-1.47l-.24.1c-.15.45-.31,1-.47,1.69s-.34,1.49-.54,2.43a17.22,17.22,0,0,1-.71,1.63c-.34,1.3-.73,2.72-1.16,4.26s-.89,3.17-1.39,4.93c-.13.59-.27,1.2-.4,1.83s-.3,1.28-.48,2l-.61,1.11c-.09.68-.19,1.34-.3,2s-.36,1.14-.6,1.87-.52,1.61-.86,2.62a2,2,0,0,1-.49,1.17,1.53,1.53,0,0,1-1.06.42,1,1,0,0,1-.27.29,2.24,2.24,0,0,1-.68.29c-.23,0-.39-.08-.51-.36a3.51,3.51,0,0,1-.17-1.23,10.59,10.59,0,0,1,.17-1.49c.12-.68.29-1.53.51-2.57l.59-2.75c.15-.67.24-1.09.29-1.27.09-.54.19-1.25.31-2.13s.23-1.89.37-3c0-.3.12-.66.22-1.1s.23-.95.39-1.54.33-1.67.67-3.67.78-4.77,1.32-8.33S1090.78,625.73,1091.33,622.19Z"/>
      <path class="cls-37" d="M1135.49,654a4.24,4.24,0,0,1-.56,2.11,6.4,6.4,0,0,1-1.71,1.91,9.68,9.68,0,0,1-2.73,1.44,9.82,9.82,0,0,1-3.18.49,1.1,1.1,0,0,1-1-.49,2.64,2.64,0,0,1-.34-1.5q0-.94,2.81-3.33t4-2.39a3.33,3.33,0,0,1,1.79.56C1135.2,653.17,1135.49,653.57,1135.49,654Zm9.84-30a10.33,10.33,0,0,1,.35,1.59,11.66,11.66,0,0,1,.12,1.65,15.81,15.81,0,0,1-.78,4.58,32.12,32.12,0,0,1-2.36,5.6c-.88,1.64-1.72,3.31-2.51,5s-1.64,3.35-2.52,5a2.13,2.13,0,0,1-1.1,1.17,4.49,4.49,0,0,1-2,.38,2.14,2.14,0,0,1-.92-.16,1.33,1.33,0,0,1-.54-.58q1.35-3.62,2.9-7a47.07,47.07,0,0,0,2.45-6.4,17.73,17.73,0,0,0,.79-4.65,6,6,0,0,0-.66-2.75,9,9,0,0,0-2-2.56,23.36,23.36,0,0,0-2-1.55,32.73,32.73,0,0,0-3.11-1.89,7.28,7.28,0,0,0,.5,1.62,4.64,4.64,0,0,1,.41,1.28.74.74,0,0,1-.17.54.83.83,0,0,1-.61.17,3.51,3.51,0,0,1-2.06-.84,11.82,11.82,0,0,1-2.33-2.57,5.14,5.14,0,0,1-.49-1,4,4,0,0,1-.22-1.39,7,7,0,0,1,.67-3,3.55,3.55,0,0,1,1.49-1.83,2.57,2.57,0,0,1,.47-.17,3,3,0,0,1,.65-.07q3.27,0,8.92,3.42T1145.33,624Z"/>
    </g>
  </g>
  <g id="start-button">
    <path class="cls-38" d="M416.82,837.69c5.37,34.74,4.29,81.39,4.29,81.39C414.67,928,419,937.6,419,937.6c4.25,21.19.38,66.35.38,66.35-9.17,10.1-32.3,26.46-31.22,27.46s32.24-21.84,32.24-21.84-33.32,23.82-31.17,24.81,33.32-22.83,33.32-22.83-32.24,23.83-30.09,24.82,32.24-22.83,32.24-22.83-30.09,22.83-27.94,23.82,31.17-23.82,31.17-23.82-27.76,22.89-24.63,23.85,18.89-15.88,23.19-18.85,6-4.1,6-8.07a42.54,42.54,0,0,0-1.29-8.91l-3.09-61.81c-.07-1.38-.69,1,.1-.12,3.69-5.11,1.91-22.44,1.91-22.44-2.15-34.74,2.15-83.38,2.15-83.38Z"/>
    <path class="cls-22" d="M540.75,608.74c6.85,10.76,12,26.9,16.28,25.11,19.42-8.13,37.7-44.84,54-38.56,12.71,4.9,15.73,48.9,13.71,49.32-4.28.9-8.48-24.34-8.48-24.34s3.29,27.4.77,27.93c-4.28.89-6.31-26.92-6.31-26.92s2.5,24.69-1.17,24.91-3.79-24.91-3.79-24.91.25,23.33-2.44,23.33c-3.43,0-3.43-19.73-3.43-19.73-27.42,20.63-28.25,45.73-44.55,45.73s-36.85-40.35-36.85-40.35Z"/>
    <path class="cls-22" d="M349.39,605.15C339.1,607,328.72,626,324.54,624c-19-9.25-37.05-44.31-53.64-39-12.95,4.15-18.32,47.9-16.33,48.44,4.23,1.14,9.77-23.8,9.77-23.8s-4.75,27.16-2.26,27.83c4.23,1.15,7.74-26.5,7.74-26.5s-3.82,24.5-.17,24.93,5.12-24.64,5.12-24.64-1.49,23.28,1.19,23.44c3.42.2,4.48-19.5,4.48-19.5,26.27,22.2,25.76,47.32,42,48.28S358.81,633,358.81,633Z"/>
    <path class="cls-23" d="M477.06,990.74c2.57,10.76-5.14,30.79,0,35.12s57.41,2.54,58.26-1,.86-9.86-2.57-12.55-20.52,0-23.11-2.69-4.12-28.81-4.12-28.81Z"/>
    <path class="cls-39" d="M399.94,770.15c-7.53,29.57,0,101.71,0,101.71,3.43-17.42,12-26.39,12-26.39,6.85,7.18,10.28,26,10.28,26,0-10.76,7.71-24.22,7.71-24.22,8.57,7.18,12.85,19.56,12.85,19.56.86-18.66,9.43-29.42,9.43-29.42,8.57,43.94,9.43,64.68,9.43,83.45s7.71,83.34,7.71,83.34c3.42-5.38,11.14-4.48,11.14-4.48,8.56,8.07,8.56,9.86,8.56,9.86a14.87,14.87,0,0,1,14.57-9.86c6,4.48,6.86,6.27,6.86,6.27,12.85-5.38,12.85-7.17,12.85-7.17v-2.69c0-12-6.86-76.22-6.86-104.92,0-29.64-12.85-124.64-12.85-124.64"/>
    <path class="cls-40" d="M402.51,570.18c-34.27,0-70.29,44.15-70.29,44.15,8.66-3.33,14.66-3.14,14.66-3.14-.28,9.86-6.53,18.64-6.53,18.64,6.13-4.3,15.62-6.7,15.62-6.7-.27,9.86-5.79,23.15-5.79,23.15,8.84-9.6,26-9.07,26-9.07,22.49,53.62,17.5,139.59,17.5,139.59,62.4,6.41,119.33-6.19,119.33-6.19-11.18-59.55-1.45-131-1.45-131,7.7.24,16.07,7.67,16.07,7.67-4.19-3.71-3.91-13.57-3.91-13.57,9.45-.61,18.77,3.27,18.77,3.27-6-2-5.59-14.53-5.59-14.53,7.73-.66,16.22,2.3,16.22,2.3-21-44.61-67.46-53.65-67.46-53.65C437.64,580.94,402.51,570.18,402.51,570.18Z"/>
    <path class="cls-22" d="M526.08,469.87c0,40.88-41.77,113.76-80.5,113.68-34.29-.07-75.12-41.71-75.12-121.43,0-26.78,30.86-69.77,75.12-69.77S526.08,416.16,526.08,469.87Z"/>
    <path class="cls-41" d="M415.52,488.11c-8.81,3.73-17.89,3.92-25,1.2a20.5,20.5,0,0,0,8,9.28c10.81,6.53,25.58.92,33-12.53a32.46,32.46,0,0,0,4-18.84C433.13,475.68,425.79,483.76,415.52,488.11Z"/>
    <path class="cls-27" d="M415.52,488.11c10.27-4.35,17.61-12.43,20.08-20.89-.75-7.32-4.24-13.77-10.15-17.34-10.81-6.53-25.58-.92-33,12.53-4.95,9-5.37,19.16-1.9,26.9C397.63,492,406.71,491.84,415.52,488.11Z"/>
    <path class="cls-42" d="M408.5,460.4c8.82-3.73,17.9-3.92,25-1.19a20.47,20.47,0,0,0-8-9.29c-10.81-6.53-25.58-.91-33,12.54a32.48,32.48,0,0,0-4,18.83C390.9,472.83,398.23,464.76,408.5,460.4Z"/>
    <path class="cls-27" d="M479.67,488.3c-10.41-4.41-17.85-12.6-20.35-21.18.76-7.42,4.3-14,10.29-17.58,10.95-6.62,25.94-.93,33.46,12.71,5,9.09,5.44,19.43,1.92,27.26C497.82,492.28,488.61,492.09,479.67,488.3Z"/>
    <ellipse class="cls-10" cx="419.79" cy="464.66" rx="4.02" ry="4.21"/>
    <ellipse class="cls-10" cx="472.21" cy="475.15" rx="3.96" ry="4.14"/>
    <path class="cls-31" d="M438.19,425.65c-1.62-5.09,16.16,1.41,18.85,2.82s4.89,3.8,7.83,5.07,11.7.57,11.7,3.39-10.77,0-12.79-.7-6.74-4.94-8.08-5.64S438.86,427.77,438.19,425.65Z"/>
    <path class="cls-31" d="M454.31,438.26c1.78.53,2.49-6.09,3.79-8.75s3.91-7.95,3-8.61-3.71,2.7-3.93,4.53S452.53,437.74,454.31,438.26Z"/>
    <path class="cls-31" d="M468.26,422.85c1.71,2.16.59,3.77,0,8.14s-2.92,12.95-4.43,11.84.78-9.06,1.54-10.65.21-6.74.87-8.15A2,2,0,0,1,468.26,422.85Z"/>
    <path class="cls-31" d="M444.61,438.33c-.8-2.67.13-4.47,1.07-9.54s3.56-15,4.37-13.54-1.69,10.57-2.39,12.37-1,7.89-1.62,9.48S444.61,438.33,444.61,438.33Z"/>
    <g>
      <path class="cls-29" d="M415.92,541.46c.19-16,24-5.11,31.33-5.11,7.79,0,28.53-13.57,29,3.26.56,19-17.09,10.87-28,10.87C441,550.48,415.71,559.07,415.92,541.46Z"/>
      <path class="cls-30" d="M430.64,535.81a24.31,24.31,0,0,0,0,6.77l1.56,1.48c3.12-2.27,3.63-6.62,3.63-6.62A9.55,9.55,0,0,0,430.64,535.81Z"/>
      <path class="cls-30" d="M440,538a22.1,22.1,0,0,0,0,6.08c3.11,1,4.06,0,4.06,0-.95-3.9.71-6.08.71-6.08A6.45,6.45,0,0,0,440,538Z"/>
      <path class="cls-30" d="M448.54,537.5c-.77,3.2,0,4.34,0,4.34,1.83-.6,3.91,1,3.91,1a20.74,20.74,0,0,0,1.2-5.37A13.08,13.08,0,0,0,448.54,537.5Z"/>
      <path class="cls-30" d="M457.64,535.81c-.52,2.72.36,5.76,1.69,5.19a7.75,7.75,0,0,0,4.54-6.82C461.27,533.64,457.64,535.81,457.64,535.81Z"/>
      <path class="cls-30" d="M455.37,550.35a9,9,0,0,1-.15-4.81,7.07,7.07,0,0,1,4.11-2.67c.9,2.18,0,7.48,0,7.48C456.6,551,455.37,550.35,455.37,550.35Z"/>
      <path class="cls-30" d="M431.54,550.65c.66-6.69,2.83-6.15,2.83-6.15,2,1.63,3.18,6.15,3.18,6.15A11.89,11.89,0,0,1,431.54,550.65Z"/>
      <path class="cls-30" d="M465.42,550.65c-.52-4.52-.66-7.78-.66-7.78a9,9,0,0,0,4.07-2.93c1.78,2.39.7,7.83.7,7.83C469.06,549.94,465.42,550.65,465.42,550.65Z"/>
      <path class="cls-30" d="M421.29,545.44c1-2.35,3.53-1.2,3.53-1.2,2.71,2,2.65,6.41,2.65,6.41C423.9,549.43,421.29,545.44,421.29,545.44Z"/>
      <path class="cls-30" d="M443,549.24c.08-2,2.62-4,2.62-4,2.13.3,3.64,4,3.64,4A17.09,17.09,0,0,1,443,549.24Z"/>
    </g>
    <path class="cls-41" d="M479.76,488.3c8.93,3.79,18.14,4,25.32,1.21a20.81,20.81,0,0,1-8.14,9.42c-11,6.62-25.94.93-33.47-12.71a32.92,32.92,0,0,1-4.06-19.1C461.91,475.7,469.34,483.89,479.76,488.3Z"/>
    <path class="cls-42" d="M486.7,460.21c-8.93-3.78-18.14-4-25.32-1.21a20.79,20.79,0,0,1,8.14-9.41c11-6.62,25.94-.93,33.47,12.7a33,33,0,0,1,4.07,19.1C504.55,472.81,497.12,464.62,486.7,460.21Z"/>
    <path class="cls-43" d="M370.72,476.13c-.67-17.69,7.19-32,13.88-37.88s20.53-5.84,28.43-11.47,9.91-16.08,20.69-16.89,17.22,4.95,26.12,6.9,20.91-6.3,27.7-1.37a72.48,72.48,0,0,1,18.24,20.21c4.73,8.13,14.15,10.59,18.18,19.3a31.62,31.62,0,0,1,2.39,18.38c2.69-26.07,5.33-51.69,4.68-57.93a.6.6,0,0,0-1.08-.32,83.75,83.75,0,0,0-6.42,15.35c-3.57-18.68-2.31-31.07-1.79-34.7a.22.22,0,0,0-.41-.16,79.58,79.58,0,0,0-8.82,20.76,247.49,247.49,0,0,1-6.05-43.43c0-.07-.09-.07-.11,0-4,15.39-9.87,21.73-9.87,21.73-7.53-19-7-33-6.49-38.12a.36.36,0,0,0-.67-.21C479.63,374.9,471.43,381,471.43,381c-5.85-19.88-6.66-30.47-6.74-34a.17.17,0,0,0-.33,0,103.62,103.62,0,0,1-14.26,32.43c-7.85-17.69-7.53-30.57-7.14-34.76a.11.11,0,1,0-.21,0c-6.8,24-18.46,37.25-18.46,37.25-8.88-14.15-10.06-25.38-10.15-29.71a.13.13,0,0,0-.26,0C409.76,375.9,398,389.77,398,389.77c-2.8-6.13-3.66-16.53-3.92-22.32a.28.28,0,0,0-.55,0,111,111,0,0,1-11.69,37.62c-2.69-9.07-2.69-20.91-2.69-20.91-3.37,29.46-9.43,41-9.43,41C365,413.09,367,403.72,367,403.72,359.64,422.75,370.72,476.13,370.72,476.13Z"/>
  </g>
</svg>
