<svg id="Layer_1" data-name="Layer 1" xmlns="http://www.w3.org/2000/svg" xmlns:xlink="http://www.w3.org/1999/xlink" width="1920" height="1080" viewBox="0 0 1920 1080">
  <defs>
    <style>
      .cls-1 {
        fill: url(#linear-gradient);
      }

      .cls-2 {
        fill: #267238;
      }

      .cls-3 {
        fill: #020247;
      }

      .cls-4 {
        fill: #e8e9ea;
      }

      .cls-5 {
        fill: #03ea80;
      }
    </style>
    <linearGradient id="linear-gradient" x1="960.95" y1="-14.68" x2="959.42" y2="1071.44" gradientUnits="userSpaceOnUse">
      <stop offset="0" stop-color="#001235"/>
      <stop offset="0.24" stop-color="#1d1659"/>
      <stop offset="0.78" stop-color="#661fb4"/>
      <stop offset="1" stop-color="#8523db"/>
    </linearGradient>
  </defs>
  <rect class="cls-1" width="1920.33" height="1080"/>
  <rect class="cls-2" x="654.38" y="159.94" width="607.85" height="338.38"/>
  <path class="cls-3" d="M1282,224.93c0-6-.15-11.8-.43-17.43-2-39.41-10.5-69.06-20.73-69.06l-419.15.79-1.07,10.19-10.13-10.21-20.27,0-6.8,18.34-1.75-19.13H659.33c-11.69,0-21.16,38.72-21.16,86.49V367.1l3.93,17.06-4.1,7.17v13.31l7.17,5.12-7,12.63v8.38c0,47.77,9.47,86.49,21.16,86.49h21.8l-3.61-14.44,10.57,13.67,6.15.43,4.38-8,.69,8.38h456.21l5-8.49,3.1,8.49h11.55l-2.24-16.06,12.62,16.06h75.31c11.69,0,21.16-38.72,21.16-86.49V261.86l-5.37-29.5Zm-23,156.32c0,49-9,110.16-20.09,110.16H679.55c-11.09,0-20.09-61.19-20.09-110.16V274.45c0-49,9-110.16,20.09-110.16h559.38c11.09,0,20.09,61.19,20.09,110.16Z"/>
  <g>
    <path class="cls-4" d="M895.06,226.74a12.24,12.24,0,0,1-1.19,5.58q-9.74,19.25-26.53,40.5a9.74,9.74,0,0,0-2.38,5.65c0,2.63.15,6.56.45,11.82s.45,9.16.45,11.74c0,.89-.2,1.44-.6,1.63a16.76,16.76,0,0,1-2,.37,113.65,113.65,0,0,1-13.38.45,123.49,123.49,0,0,1-13.75-.45c-1.39-.19-2.08-.91-2.08-2.15q0-3.94.67-12t.67-12.08a9.61,9.61,0,0,0-1.79-5.13q-9-12.71-25.71-38.94a10.08,10.08,0,0,1-1.71-4.76q0-4.46-.45-13.37t-.44-13.38c0-1.64.49-2.45,1.48-2.45q4.54,0,13.75.37c6.15.25,10.75.37,13.83.37,1.14,0,1.71.37,1.71,1.12,0,2.52-.12,6.33-.34,11.4s-.33,8.88-.33,11.41q0,2.24,6.54,11.15,5.19,7,8.54,10.77,3-3.56,8.1-10.7,6.39-8.91,6.39-10.77,0-3.72-.55-11.26t-.56-11.26c0-1,.22-1.64.67-1.79h1.86q4.46,0,13.41-.4t13.49-.41c1,0,1.49,1.06,1.49,3.19q0,3.94.14,11.86T895.06,226.74Z"/>
    <path class="cls-4" d="M1008.19,252q0,23.19-14.79,38.87-15.09,15.9-38.2,15.9t-38.12-16Q902.21,275.05,902.21,252t14.87-38.87Q932.23,197,955.2,197q22.81,0,38,16.12Q1008.19,229.06,1008.19,252ZM980,251.86a27.93,27.93,0,0,0-6.76-19,22.8,22.8,0,0,0-18.06-8.17q-10.49,0-17.76,8.47a27.91,27.91,0,0,0-7.06,18.8q0,11.37,6.61,18.95,7,8,18.21,8,10.49,0,17.84-8.4A27.58,27.58,0,0,0,980,251.86Z"/>
    <path class="cls-4" d="M1108.6,267.54q0,19-4.53,25.87Q1095.74,306,1062.53,306q-15,0-23.11-2.3-12.95-3.72-16.8-14.2-1.93-5.13-1.93-18.28,0-3,.22-9.07t.22-9q0-8.62-.81-25.86t-.82-25.79c0-1.19.52-1.78,1.56-1.78q4.53,0,13.71.37t13.71.37c1.24,0,1.86.55,1.86,1.64q0,9.81-.63,29.39t-.63,29.39q0,11.67,2.45,15.76,3.27,5.56,13.67,5.57,15.24,0,15.24-14.79,0-10.77-.52-32.33t-.52-32.33c0-1.53.62-2.3,1.86-2.3q4.38,0,13.22-.37t13.23-.37c1.44,0,2.16.59,2.16,1.78q0,8.55-.71,25.79t-.7,25.86q0,2.38.07,7.17T1108.6,267.54Z"/>
  </g>
  <g>
    <path class="cls-4" d="M912.67,390.65q0,.23-13.82,30-14,30.33-16.05,34.11a11.13,11.13,0,0,1-.82,1.49,2.84,2.84,0,0,1-1.41.67c-1.24.3-4.76.44-10.55.44-5.4,0-8.7-.14-9.89-.44a6.77,6.77,0,0,1-1.78-.6,5.73,5.73,0,0,1-1-1.41c-.29-.54-1.71-4-4.23-10.48l-8.1-20.66-8.25,20.89q-1.27,3.56-4.16,10.25a7.79,7.79,0,0,1-1,1.52,4.06,4.06,0,0,1-1.7.49,67.93,67.93,0,0,1-9.74.44c-5.95,0-9.51-.14-10.7-.44a3.32,3.32,0,0,1-2.08-2.16q-29.13-59.82-29.13-64.06,0-5.94.4-17.8t.41-17.8c0-1.63.5-2.45,1.49-2.45q4.23,0,12.82.37t12.89.37c1.14,0,1.71.48,1.71,1.42q0,5.94-.56,17.94t-.55,17.95q0,2.24,5.42,14.2,4.9,10.69,7.14,14.49c.74,1.29,1.24,1.93,1.48,1.93q.6,0,3.05-7.13,7-20,7.13-23.64.3-6.84.08-17.39c-.15-10.15-.22-16-.22-17.46a1.56,1.56,0,0,1,1.85-2.16q3.79-.44,13.08-.44,14.21,0,14.2,2,0,5-.37,15.46-.37,10.19-.3,15.46v3.79q0,3.8,7.65,24.15,2.61,7.06,3.13,7.06c.24,0,.74-.64,1.48-1.93q2.08-3.65,6.69-14.42,5.13-11.75,5.13-14,0-6-.56-18t-.56-17.95c0-.89.57-1.34,1.71-1.34q4.4,0,13.19-.37c5.88-.24,10.27-.37,13.2-.37q1.41,0,1.41,3,0,5.88.41,17.58T912.67,390.65Z"/>
    <path class="cls-4" d="M1027.43,404.85q0,23.17-14.78,38.86-15.09,15.92-38.2,15.91t-38.13-16.06q-14.87-15.68-14.86-38.71T936.32,366q15.16-16.12,38.13-16.13,22.81,0,38,16.13Q1027.44,381.88,1027.43,404.85Zm-28.16-.15a28,28,0,0,0-6.76-18.95,22.81,22.81,0,0,0-18.06-8.18q-10.49,0-17.77,8.47a28,28,0,0,0-7.06,18.81q0,11.37,6.62,18.95,7,7.95,18.21,7.95,10.47,0,17.83-8.4A27.53,27.53,0,0,0,999.27,404.7Z"/>
    <path class="cls-4" d="M1138.55,354.9q0,8.48-.7,25.46t-.71,25.53v49c0,1.34-.72,2-2.15,2-1.19,0-3,.05-5.39.15s-4.2.15-5.39.15-3.22-.11-5.8-.3-4.51-.3-5.79-.3c-.9,0-2-.82-3.2-2.45q-5.36-7.22-24.08-32-5.13-6.92-15.6-20.36a3,3,0,0,0-1.12-.89,2,2,0,0,0-.59,1.63q0,8.63.48,25.86t.48,25.87c0,1.73-.67,2.6-2,2.6h-25.72c-1.44,0-2.15-.77-2.15-2.31q0-8,.78-24.22t.78-24.31q0-8.53-.71-25.56t-.71-25.49c0-1.09,1-1.64,2.9-1.64,2.88,0,6.42-.19,10.63-.59q1.49-.15,5.87-1a35.94,35.94,0,0,1,5.87-.67c.6,0,1.51.85,2.75,2.53l27.72,38q3.72,5.13,11.22,15c1.24,1.54,2.31,2.3,3.2,2.3.64,0,1-1.93,1-5.79q0-7.81-.86-23.49t-.85-23.56c0-1.83.52-2.75,1.56-2.75q4.46,0,13.45-.37t13.45-.37C1138.08,352.6,1138.55,353.37,1138.55,354.9Z"/>
  </g>
  <g>
    <path class="cls-5" d="M607.12,615.87a1.57,1.57,0,0,1,1.39.65,3.33,3.33,0,0,1,.43,1.88c0,1.55-.06,3-.19,4.35a18.73,18.73,0,0,1-.68,3.57c-.43,1.32-.84,2.61-1.24,3.88s-.78,2.56-1.19,3.87a8.92,8.92,0,0,0-.87,1.19c-.06.64-.13,1.27-.21,1.88a1.24,1.24,0,0,1-.33.69c-.19.21-.43.46-.72.73-.08.31-.2.67-.34,1.08l-.52,1.44c-.76,1.56-1.76,3.42-3,5.57s-2.79,4.64-4.58,7.45c0,.49,0,.95,0,1.37l-2.43,5.5q-1.26,3-2.2,5.71a39.49,39.49,0,0,0-1.41,5.2c-.17.92-.31,1.68-.41,2.27a9,9,0,0,0-.15,1.26,3.32,3.32,0,0,0,.52,1.4,3.9,3.9,0,0,1,.52,1.17c0,.67-.85,1.54-2.54,2.61s-2.74,1.59-3.15,1.56-.89-.18-1.36-.25-.92-.16-1.33-.25a3.68,3.68,0,0,1-1.39-.62,1.21,1.21,0,0,1-.47-1,10.32,10.32,0,0,1,.3-1.79,26.68,26.68,0,0,1,1-3.69,16.22,16.22,0,0,1,1.45-3.09l.13-.18a1.2,1.2,0,0,1-.19-.46,5.26,5.26,0,0,0-.2-.6c.14-.55.35-1.22.61-2s.61-1.72,1-2.75a11.56,11.56,0,0,0,.87-2,23.48,23.48,0,0,0,.78-2.77,15.16,15.16,0,0,1-2.52-2.8,9.5,9.5,0,0,1-1.39-3.07c-.23-.52-.53-1.19-.91-2s-.78-1.77-1.21-2.91l-3.22-11.68c-.08-.92-.21-2-.37-3.28s-.41-2.71-.76-4.33l.4-1.06-.74-1a9.73,9.73,0,0,0-.07-1c0-.44-.11-1-.19-1.62s-.14-1.14-.16-1.58,0-.82,0-1.13a5.73,5.73,0,0,1,.48-2.61,2.12,2.12,0,0,1,1.43-1.14l.68,0,.8,0a12.17,12.17,0,0,0,3.17-1.47,2.81,2.81,0,0,1,2,.67,3.38,3.38,0,0,1,1,1.9,11.69,11.69,0,0,1,.17,1.81c0,.78,0,1.7,0,2.77,0,.58,0,1.42-.16,2.52s-.15,1.91-.15,2.43a2.87,2.87,0,0,0,.07.62c0,.23.09.54.15.94q0,1.51.33,3.69c.19,1.45.43,3.11.72,5q.25,1.65.78,4.11t1.22,5.7q.35.46.72,1.08a12.12,12.12,0,0,1,.72,1.4l.31.18c.17,0,.6-.69,1.28-2.09s1.61-3.47,2.79-6.25c.18-.37.38-.85.61-1.45s.5-1.29.82-2.08a5.13,5.13,0,0,0,.48-.73l.61-1.1c.14-.52.36-1.19.65-2s.65-1.76,1.08-2.86c.38-.71.8-1.57,1.28-2.59s1-2.24,1.58-3.65a26.12,26.12,0,0,1,1.63-3q1.59-2.73,4.57-7.81a4,4,0,0,1,.74-.94A1.17,1.17,0,0,1,607.12,615.87Z"/>
    <path class="cls-5" d="M608,650.43a4.15,4.15,0,0,1,.32-1.42,13.27,13.27,0,0,1,1-1.88c.61-.91,1.06-1.63,1.37-2.15a5,5,0,0,0,.5-1c.14-.34.34-.78.58-1.33l.85-1.88a7.36,7.36,0,0,0,1-2.18c.37-1.11.81-2.58,1.3-4.42.23-.49.48-1.08.74-1.76s.58-1.51,1-2.45a16.43,16.43,0,0,1,.65-2.48c.32-1,.73-2,1.22-3.16s1.24-2.19,1.91-3.26a6,6,0,0,1,2.86-2.38,4.78,4.78,0,0,1,1.13,1,1.61,1.61,0,0,1,.39,1,7.21,7.21,0,0,1-1,3.05,7.25,7.25,0,0,0-1,2.59.92.92,0,0,0,.39.69,7.77,7.77,0,0,0,1.26-1.1c.61-.62,1.4-1.44,2.39-2.48a27.75,27.75,0,0,1,2.19-1.95,4.8,4.8,0,0,1,1.84-.94,8.88,8.88,0,0,1,1.44-.41,13.77,13.77,0,0,0,1.95-.59,5.11,5.11,0,0,0,.91-.65,3.63,3.63,0,0,1,1-.55l.65.14a5.13,5.13,0,0,0,2.17.85,13.14,13.14,0,0,0,2.25.43,5.48,5.48,0,0,1,.92.74,12.57,12.57,0,0,0,1.34,1.1,11.67,11.67,0,0,1,3.24,3.23,24.78,24.78,0,0,1,2.71,5.29,38.48,38.48,0,0,1,1.71,5.5,23,23,0,0,1,.59,5,43.54,43.54,0,0,1-1.82,13.3,22.38,22.38,0,0,1-5.52,9.25l-.84.9-1.24,1.26v.5a2.43,2.43,0,0,1-.5,1,12,12,0,0,1-1.15,1.21l-3.26,3.14c-1.1,1.06-2.22,2.09-3.38,3.1a25.05,25.05,0,0,1-4.13,3.11,14.49,14.49,0,0,1-3.77,1.61,5.25,5.25,0,0,1-1.93,1.12,8.8,8.8,0,0,1-2.8.39,19.11,19.11,0,0,1-3.95-.34,4.44,4.44,0,0,1-2.17-1,9.67,9.67,0,0,0-.92-.83c-.34-.27-.75-.62-1.21-1.05a5.45,5.45,0,0,1-1.39-2.18,24,24,0,0,1-1.17-4.1c-.23-1.25-.41-2.47-.54-3.64a30.12,30.12,0,0,1-.2-3.28,8.21,8.21,0,0,1,.22-1.51,6.36,6.36,0,0,0,.17-1.61,16.2,16.2,0,0,0-.09-1.83,11.39,11.39,0,0,1,.48-2.61,11.64,11.64,0,0,0,.48-2.84,1.61,1.61,0,0,0-.26-.69,6.52,6.52,0,0,0-1,1.51,1.89,1.89,0,0,1-.61.69,1.22,1.22,0,0,1-.65.23.89.89,0,0,1-.76-.41,2.21,2.21,0,0,1-.28-1.24,8.47,8.47,0,0,1,.24-1.65A8.57,8.57,0,0,0,608,650.43Zm26-22.41a8.74,8.74,0,0,0-2.12.27,14.73,14.73,0,0,0-2.22.78l-4.21,2a5.23,5.23,0,0,0-1,.74,10.43,10.43,0,0,0-1.19,1.37l-2,2.62a11.62,11.62,0,0,0-1.69,4.35,72.31,72.31,0,0,0-1.3,8.25q-.44,3.9-.61,7.26c-.12,2.25-.17,4.32-.17,6.21,0,3.89.56,6.78,1.69,8.69a5.57,5.57,0,0,0,5.12,2.87,8.88,8.88,0,0,0,3.6-.9,20.89,20.89,0,0,0,4.35-2.73,31.37,31.37,0,0,0,3.51-3.14,18.76,18.76,0,0,0,2.52-3.23,22.67,22.67,0,0,0,1.37-2.7c.62-1.38,1.48-3.25,2.58-5.64a32.18,32.18,0,0,0,1.69-5.29,24.64,24.64,0,0,0,.61-5.52c-.17-.92-.36-1.82-.56-2.71l.3-2c-.29-.37-.54-.7-.74-1s-.16-.44-.22-.59a17.74,17.74,0,0,0-3.64-7.45A7.42,7.42,0,0,0,634.06,628Z"/>
    <path class="cls-5" d="M660.22,659.14a16.28,16.28,0,0,0-.43-3,16.55,16.55,0,0,1-.43-3.12c0-.4,0-1,.1-1.86s.11-1.46.11-1.85c0-1.13-.06-2.84-.19-5.11s-.2-4-.2-5.11c0-1.9.1-4.34.31-7.34s.49-6.51.86-10.54a8.81,8.81,0,0,1,.94-3.34,2,2,0,0,1,1.8-1.15c.26,0,.51.18.76.55a9.82,9.82,0,0,1,.8,1.65c.67.67,1.33,1.28,2,1.83a4.65,4.65,0,0,1,1.17,1.81,7.51,7.51,0,0,1,.39,2.55,19.09,19.09,0,0,1-.54,3.78,18.78,18.78,0,0,0-.54,3.69c0,1.59,0,2.92-.16,4a11.31,11.31,0,0,1-.45,2.5l-.48,1.46c.12.92.23,1.94.35,3.07q-.14,2.61-.18,5.46a39.52,39.52,0,0,0,.44,5.75q.44,3,1.17,5.94a18.22,18.22,0,0,0,2.54,6.07,4.21,4.21,0,0,0,3.36,2,3.35,3.35,0,0,0,1.76-.48,5.37,5.37,0,0,0,1.54-1.49c.38-.55.74-1.12,1.09-1.7s.69-1.15,1-1.69a17.73,17.73,0,0,0,1.22-1.86c.43-.75.91-1.64,1.43-2.68.49-1.84,1-3.68,1.65-5.55s1.21-3.74,1.82-5.64c.15-.61.33-1.39.57-2.36s.46-2.07.69-3.32a46.54,46.54,0,0,0,1.63-6.37q.8-4.08,1.8-9.9c.23-.61.51-1.39.85-2.34l1.15-3.3c.11-.46.33-1.17.65-2.15s.76-2.22,1.34-3.71a3,3,0,0,1,1.26-1.68,4.19,4.19,0,0,1,2.26-.57c.55,0,.95.37,1.19,1.12a11.61,11.61,0,0,1,.37,3.42,68.48,68.48,0,0,1-1,10.65,147,147,0,0,1-3.19,14.42c-.09.49-.22,1.11-.41,1.86s-.41,1.59-.67,2.54c0,.58-.1,1.24-.2,2s-.24,1.61-.41,2.59a48.84,48.84,0,0,0-1.15,5.5c-.31,2-.54,4-.72,6.1a9.36,9.36,0,0,1-.15,1.37c-.1.61-.24,1.35-.41,2.2a19.82,19.82,0,0,0-.35,2.29c-.06.68-.09,1.3-.09,1.88.09.83.18,1.61.26,2.34a9.9,9.9,0,0,1,.85,1.08,1.41,1.41,0,0,1,.28.71,7.42,7.42,0,0,1-.89,1.79,16.36,16.36,0,0,1-1.63,2.06,9.39,9.39,0,0,1-2,1.88,3.4,3.4,0,0,1-1.82.64,2,2,0,0,1-1.52-1,3.43,3.43,0,0,1-.74-2v-.37a7,7,0,0,0,.31-1,1.28,1.28,0,0,0-.11-.48,3.93,3.93,0,0,1-.2-.67c.06-.15.15-.38.26-.68a11,11,0,0,0,.35-1.06c-.06-.15-.12-.33-.19-.55s-.18-.47-.33-.78a5.19,5.19,0,0,0,.17-.66c.06-.26.15-.59.26-1a5.6,5.6,0,0,0-.08-.91c0-.22.07-.53.13-.94s.13-.93.22-1.54.2-1,.28-1.3a4.67,4.67,0,0,0,.11-.81,1.63,1.63,0,0,0-.11-.59.71.71,0,0,0-.28-.37,2,2,0,0,0-.72.69,12.63,12.63,0,0,0-1,1.65c-.46.82-.86,1.49-1.19,2l-.68,1-.17.64c-.78,1.14-1.48,2.07-2.08,2.82a19.77,19.77,0,0,1-1.39,1.58,9.47,9.47,0,0,1-2,1.42,13.21,13.21,0,0,1-2.76,1.11,10,10,0,0,0-1.51.45,8.63,8.63,0,0,1-2.91-.45,4.2,4.2,0,0,1-1.91-1.29,22.25,22.25,0,0,1-4-7.29A29,29,0,0,1,660.22,659.14Z"/>
    <path class="cls-5" d="M762.82,667c1.18,2.66,1.78,4.07,1.78,4.22a21.1,21.1,0,0,1-2.35,2.16q-1.47,1.19-3.6,2.7a24.74,24.74,0,0,1-3.8,2.38,6.15,6.15,0,0,1-2.36.74,5.46,5.46,0,0,1-3.19-1,7.38,7.38,0,0,1-2.41-3l-.29-.62a6.78,6.78,0,0,0-.36-.71c-.73-.73-1.42-1.47-2.09-2.2a29.6,29.6,0,0,1-1.82-2.64q-1.35-2.09-3.39-5.7c-.6-1.13-1.26-2.28-2-3.44s-1.42-2.34-2.17-3.53a7.72,7.72,0,0,0-.67,2.13q-.37,1.68-.72,4.56a6.53,6.53,0,0,1-.28,1.51,6.75,6.75,0,0,0-.28,1.56,4.24,4.24,0,0,0,.1.76,3.65,3.65,0,0,1,.11.76,37.68,37.68,0,0,1-.39,4.44,37.81,37.81,0,0,0-.39,4.45,3.17,3.17,0,0,1-.37,1.74,1.36,1.36,0,0,1-1.23.55,6,6,0,0,1-1.44-.28,9.4,9.4,0,0,1-1.21.28c-.32,0-.57-.21-.76-.62a5,5,0,0,1-.28-2,8.13,8.13,0,0,1,.21-1.46,7.78,7.78,0,0,0,.22-1.56,7.64,7.64,0,0,0-.13-1.17,7.77,7.77,0,0,1-.13-1.17c0-.24.06-1,.19-2.29s.34-3.13.63-5.55.5-4.43.7-5.86.35-2.31.43-2.62.2-.47.35-.78a3.59,3.59,0,0,0,.3-1.1l-.65-2.61c.23-1.4.52-3.47.85-6.21s.73-6.18,1.19-10.33c.26-2.45.47-4.34.61-5.69s.23-2.11.26-2.29a7.79,7.79,0,0,1,1.87-3.14,8,8,0,0,1,3.21-1.9,7.89,7.89,0,0,0,.63-.51c.24-.21.54-.45.89-.73.37-.06.85.49,1.43,1.65a6.7,6.7,0,0,1,.87,2.57,7.18,7.18,0,0,1-.09,1,9.51,9.51,0,0,1-.34,1.45q-.32,1-.48,1.65c-.12.43-.19.72-.22.87q-.69,2.52-1.56,6.32c-.58,2.54-1.22,5.53-1.91,9-.06.27-.13.62-.2,1a11.85,11.85,0,0,1-.37,1.49l-.3,1.42a5.4,5.4,0,0,0-.13,1.1,2.65,2.65,0,0,0,.43,1.33q1.31-.51,4.17-3.76t7.38-9.13a118.68,118.68,0,0,0,6.9-9.7c1.54-2.49,2.3-4.24,2.3-5.25a2.47,2.47,0,0,0-.67-1.4,2.52,2.52,0,0,1-.67-1.45,2.39,2.39,0,0,1,1-2,7.41,7.41,0,0,1,3.16-1.21,3.17,3.17,0,0,0,1.34-.8,2.68,2.68,0,0,1,1.56-.75,9.87,9.87,0,0,0,1.21.18c.49-.28,1-.56,1.43-.87a4.08,4.08,0,0,1,1,1.54,6,6,0,0,1,.29,1.94,13.74,13.74,0,0,1-.5,3.88,6.08,6.08,0,0,1-1.54,2.68c-.2.18-.42.4-.65.64s-.46.52-.7.82a25.21,25.21,0,0,1-1.91,3.44c-.81,1.26-1.78,2.63-2.9,4.13q-3.74,4.86-6.86,8.52c-2.09,2.45-4,4.49-5.65,6.14a15.6,15.6,0,0,0-1.56,1.81,2.43,2.43,0,0,0-.52,1.31c.49,1,.93,1.94,1.3,2.8q1.05,2.65,2.19,5.18t2.28,5.08a29.42,29.42,0,0,0,3.54,5.76c1.09,1.26,2.08,1.9,3,1.9a5.65,5.65,0,0,0,1.3-.53c.72-.35,1.68-.85,2.86-1.49a6,6,0,0,1,1.67-1.44C762.35,667.58,762.79,667.21,762.82,667Z"/>
    <path class="cls-5" d="M769.88,670.51a40.15,40.15,0,0,1,.2-4.33,21.79,21.79,0,0,1,.45-2.78c-.06-.52-.13-1-.22-1.6s.08-1.71.22-3.21.36-3.45.65-5.87.49-4.11.68-5.38a19.94,19.94,0,0,1,.41-2.32c-.06-.52-.12-1.08-.2-1.69a16.21,16.21,0,0,0-.37-2l-1-.73-.22-.55c.06-.86.11-1.72.15-2.59a24.2,24.2,0,0,1,.29-2.64,13.56,13.56,0,0,1,.41-2.88c.22-.83.44-1.55.67-2.16a3.73,3.73,0,0,0,.28-.64,5.27,5.27,0,0,1,.42-.87l.78-3.3c.26-1.1.53-2.17.82-3.21a6.23,6.23,0,0,1,1.87-2.52,6.3,6.3,0,0,1,2.95-1.24,17.11,17.11,0,0,1,2.08-1,4,4,0,0,1,1.39-.34,1.11,1.11,0,0,1,1,.5,2.5,2.5,0,0,1,.35,1.42c0,.25-.12,1.1-.35,2.55s-.6,3.46-1.09,6c-.08.86-.23,1.88-.43,3s-.48,2.58-.83,4.19q-.64,2.71-1.28,5.94t-1.15,7.13c-.14,1.1-.3,2.18-.47,3.25s-.34,2.16-.48,3.26c-.18,1.25-.33,2.43-.46,3.55a25.94,25.94,0,0,0-.19,3,7.27,7.27,0,0,0,.06,1,5.45,5.45,0,0,1,.07.87,5,5,0,0,1,0,1.33c-.08.55-.16,1.21-.24,2s-.22,1.4-.31,2a11.33,11.33,0,0,0-.13,1.35c0,1.56,0,2.82.11,3.78a11.16,11.16,0,0,0,.24,1.9c.2.83.4,1.71.61,2.66,0,.52-.65,1.29-2,2.32a5.9,5.9,0,0,1-2.82,1.53,1.32,1.32,0,0,1-.93-.39,4.78,4.78,0,0,1-.85-1.17,12.05,12.05,0,0,1-.47-1.33,3.77,3.77,0,0,1-.18-1.1,3.47,3.47,0,0,1,.18-.87,3.74,3.74,0,0,0,.17-.87,12.65,12.65,0,0,0-.78-2.29q-.09.46-.09-.18Z"/>
    <path class="cls-5" d="M812,667c1.15,2.66,1.73,4.07,1.73,4.22a18.6,18.6,0,0,0-1,1.74c-.32.61-.66,1.24-1,1.88a5.06,5.06,0,0,1-1.35,1.42,8,8,0,0,1-1.9,1c-1,.43-2,.85-3,1.26s-1.76.82-2.51,1.22a8.62,8.62,0,0,1-2.72.84l-2.8.39a9,9,0,0,1-1.89.35c-.62,0-1.19.07-1.71.07a8.07,8.07,0,0,1-1.09-.07,2,2,0,0,1-.73-.26c-.26-.18-.52-.36-.76-.55l-.72-.5c-.49-.31-.87-.54-1.13-.69s-.6-.82-.76-1.83a30.24,30.24,0,0,1-.24-4.4,30.81,30.81,0,0,1,1.09-6.43,31.29,31.29,0,0,0,1.08-5.87,7.54,7.54,0,0,0-.08-.89,6.33,6.33,0,0,1-.09-.94,42.78,42.78,0,0,1,.85-5.85,41.64,41.64,0,0,0,.84-6.35,1.37,1.37,0,0,0-.63-1.26,1.29,1.29,0,0,1-.63-1.17,19.14,19.14,0,0,1,.18-2.47,22.56,22.56,0,0,1,.61-3c.23-.88.44-1.77.65-2.68s.4-1.77.6-2.63.42-2,.63-3.07.4-2,.55-3a23.47,23.47,0,0,1,.82-2.47c.38-1,.83-2.09,1.35-3.35q.39-.92.69-1.71c.2-.54.42-1.11.65-1.72a4,4,0,0,1,1-1.3,7,7,0,0,1,1.61-1,12.25,12.25,0,0,1,1.39-.48,4.53,4.53,0,0,1,.82-.16,1.92,1.92,0,0,1,1.72.85,4.93,4.93,0,0,1,.54,2.59,11.93,11.93,0,0,1-.07,1.26,9.11,9.11,0,0,1-.32,1.63q-.18,1-.33,1.65l-.24,1.1c0,.73-.07,1.4-.13,2s-.13,1.18-.21,1.7-.41.81-.7,1.33c-.2,1.44-.37,2.63-.5,3.6a17.28,17.28,0,0,0-.19,2,16.26,16.26,0,0,1-.94,4.83,16,16,0,0,0-.93,4.43,8.22,8.22,0,0,1-.22,1.67c-.14.69-.36,1.5-.65,2.45-.32,1.28-.57,2.28-.76,3s-.31,1.13-.37,1.28c-.05.46-.12,1-.19,1.61s-.18,1.33-.33,2.15q-1,5-1.49,8.27a34.87,34.87,0,0,0-.5,4.93,7.14,7.14,0,0,0,.3,2.34c.2.55.51.82.91.82a24.67,24.67,0,0,0,5.54-.64,37.74,37.74,0,0,0,5.83-1.88,2.62,2.62,0,0,0,.68-.18l.67-.28a5.47,5.47,0,0,0,.78-1.19,7.44,7.44,0,0,0,1-.75A5.54,5.54,0,0,0,812,667Z"/>
    <path class="cls-5" d="M841.22,667c1.16,2.66,1.74,4.07,1.74,4.22a16.73,16.73,0,0,0-1.05,1.74c-.31.61-.66,1.24-1,1.88a5,5,0,0,1-1.34,1.42,8,8,0,0,1-1.91,1c-1,.43-2,.85-3,1.26s-1.76.82-2.51,1.22a8.62,8.62,0,0,1-2.72.84l-2.8.39a9,9,0,0,1-1.88.35c-.63,0-1.2.07-1.72.07a7.8,7.8,0,0,1-1.08-.07,2,2,0,0,1-.74-.26c-.26-.18-.52-.36-.76-.55l-.72-.5c-.49-.31-.87-.54-1.13-.69s-.6-.82-.76-1.83a25,25,0,0,1,.85-10.83,31.6,31.6,0,0,0,1.09-5.87,6.14,6.14,0,0,0-.09-.89,6.33,6.33,0,0,1-.09-.94,42.78,42.78,0,0,1,.85-5.85,41.64,41.64,0,0,0,.84-6.35,1.38,1.38,0,0,0-.62-1.26,1.29,1.29,0,0,1-.63-1.17,19,19,0,0,1,.17-2.47,24.25,24.25,0,0,1,.61-3c.23-.88.45-1.77.65-2.68s.4-1.77.61-2.63.41-2,.63-3.07.39-2,.54-3a23.47,23.47,0,0,1,.82-2.47c.38-1,.83-2.09,1.35-3.35q.39-.92.69-1.71c.21-.54.42-1.11.65-1.72a4.16,4.16,0,0,1,1-1.3,7,7,0,0,1,1.61-1,12.25,12.25,0,0,1,1.39-.48,4.53,4.53,0,0,1,.82-.16,1.91,1.91,0,0,1,1.72.85,4.93,4.93,0,0,1,.54,2.59,11.93,11.93,0,0,1-.07,1.26,9.11,9.11,0,0,1-.32,1.63q-.18,1-.33,1.65c-.1.46-.18.82-.23,1.1,0,.73-.08,1.4-.14,2s-.13,1.18-.21,1.7-.41.81-.7,1.33c-.2,1.44-.37,2.63-.5,3.6a17.28,17.28,0,0,0-.19,2,16.53,16.53,0,0,1-.93,4.83,15.76,15.76,0,0,0-.94,4.43,8.22,8.22,0,0,1-.22,1.67c-.14.69-.36,1.5-.65,2.45-.31,1.28-.57,2.28-.76,3s-.31,1.13-.36,1.28c-.06.46-.13,1-.2,1.61s-.18,1.33-.33,2.15q-1,5-1.49,8.27a34.87,34.87,0,0,0-.5,4.93,7.14,7.14,0,0,0,.3,2.34c.2.55.51.82.91.82a24.61,24.61,0,0,0,5.54-.64,38.19,38.19,0,0,0,5.84-1.88,2.66,2.66,0,0,0,.67-.18l.67-.28a5.47,5.47,0,0,0,.78-1.19,7.44,7.44,0,0,0,1-.75A5,5,0,0,0,841.22,667Z"/>
    <path class="cls-5" d="M880.45,667l1.65,4.22a14,14,0,0,1-1.15,1c-.45.35-1,.72-1.59,1.12-.6.21-1.34.52-2.19.92l-2.93,1.37c-.84.55-1.53,1-2.06,1.24a3.24,3.24,0,0,1-1.11.41,8.22,8.22,0,0,0-2.06.5c-1,.34-2.31.85-3.93,1.52l-2.75,1c-1,.35-2,.66-3,.94l-2.69-.6-1.65.78-1.67,0c-.57,0-1.11-.06-1.63-.12a4.78,4.78,0,0,1-1.89-.36,1,1,0,0,1-.63-.92l.26-1.74-.26-.32a3.32,3.32,0,0,1-2-.41c-.34-.28-.5-.92-.5-1.93,0-.46,0-1.22.06-2.29s.11-2.46.2-4.17a3.53,3.53,0,0,1,.28-1,3.36,3.36,0,0,0,.28-1.06,2.45,2.45,0,0,1-.3-1.24c.06-1.19.18-2.65.37-4.4s.42-3.8.71-6.18a44.67,44.67,0,0,0,.87-4.86c-.06-1.35-.11-2.72-.17-4.13q1.6-7.61,3.3-15.31a8.42,8.42,0,0,1,1-2.61,15.23,15.23,0,0,1,1.72-2.38,2.24,2.24,0,0,0,.56-.51c.15-.27.33-.61.57-1s.5-.87.82-1.39c.17-.13.46-.31.85-.55l1.58-1,1-.87,1.3-1.19a31.71,31.71,0,0,0,3.06-2.23,6.74,6.74,0,0,1,3.54-1.44c.67,0,1.33-.07,2-.12s1.3-.09,1.91-.16a13.48,13.48,0,0,1,1.52-.23l.76-.18a2.16,2.16,0,0,1,.58-.09,4.61,4.61,0,0,1,.72.07l1.24.2a10.36,10.36,0,0,0,1,0,5.39,5.39,0,0,0,.82,0,5.13,5.13,0,0,1,2.56,1.61,4,4,0,0,1,.83,2.52,14.07,14.07,0,0,1-.59,4.7c-.39,1-1,1.53-1.84,1.53a3.53,3.53,0,0,1-2.17-1q-1.21-1-6.56-1l-4.38.92a1.79,1.79,0,0,1-.5.55,3.68,3.68,0,0,1-.5.27l-1.52-.59a4,4,0,0,0-1.56,1.51,20.26,20.26,0,0,0-1.83,3.39,4.41,4.41,0,0,0-.32,1.15,10.57,10.57,0,0,0-.11,1.6q-.78,3.3-1.56,6.37-.74,3.3-1.2,5c-.3,1.13-.48,1.82-.54,2.06s-.16.6-.22.87a4.65,4.65,0,0,0-.08.82,1.67,1.67,0,0,0,.21.92.74.74,0,0,0,.66.32c.26,0,.89-.5,1.88-1.51a6.38,6.38,0,0,1,2.24-1.7c.61-.18,1.22-.38,1.84-.59s1.27-.48,1.94-.78a15.92,15.92,0,0,1,2.06-.37c1.11-.15,2.67-.33,4.66-.55l1.22.37,2.3-.46,1.22.6a6,6,0,0,1,.8,1.12,5.21,5.21,0,0,1,.11,5.61c-.38,1-.94,1.43-1.7,1.43l-2.38-1-5.84.62c-1.93.19-3.89.39-5.88.57a12.1,12.1,0,0,0-5.6,2.52,6.5,6.5,0,0,0-2.17,4.58,14.7,14.7,0,0,1-.31,1.84c-.17.82-.37,1.85-.6,3.07l.3,1.37c-.26,1.32-.46,2.55-.61,3.71a26.63,26.63,0,0,0-.22,3.12,1.38,1.38,0,0,0,.13.67c.09.13.19.17.31.11l3.34-.28a12.82,12.82,0,0,1,1.78,0l2.3.18,2.74-.23a13.08,13.08,0,0,0,1.88-.73,6.58,6.58,0,0,1,2.63-.64,11.63,11.63,0,0,0,2.54-.28,15.09,15.09,0,0,0,2.45-.73c.78-.3,1.56-.62,2.32-.94l2.33-.94a8.33,8.33,0,0,0,1.15-.5C879.25,667.74,879.81,667.42,880.45,667Z"/>
    <path class="cls-5" d="M924.76,667c.63,1.5,1.18,2.9,1.65,4.22a8.71,8.71,0,0,1-2.31,1.67,19.14,19.14,0,0,1-3.34,1.36c-.34.09-.76.21-1.23.36s-1,.31-1.63.46c-.84.06-1.85.16-3,.28s-2.55.29-4.15.5a52.7,52.7,0,0,1-6,4.41,17.5,17.5,0,0,1-4.4,2.07l-.65.6a16.94,16.94,0,0,1-3.59,1.12c-1.4.29-3.06.54-5,.76a2.63,2.63,0,0,1-1.06-.67,12.27,12.27,0,0,1-1.24-1.49l1.09-1.31c.43-.54.91-1.18,1.43-1.91a5.92,5.92,0,0,1,1.54-1.64,6.08,6.08,0,0,1,2.28-.89,28.59,28.59,0,0,0,3.17-.92,9.53,9.53,0,0,1,1.06-.75c.42-.26.89-.58,1.41-.94a10.84,10.84,0,0,0,2.09-1.43c.72-.61,1.52-1.35,2.39-2.24l2.77-2.87q1.05-1.07,1.26-1.35a11.13,11.13,0,0,1,.74-1.17,5.22,5.22,0,0,1,1-1l1.51-2.77q.91-1.68,2.18-3.88.21-.23.54-.66c.21-.29.47-.6.76-.94a7,7,0,0,0,1.26-3.21,29.94,29.94,0,0,0,.39-5.23,10.76,10.76,0,0,0-1-4.39,21.36,21.36,0,0,0-3.15-4.86,29.92,29.92,0,0,0-3.77-3.78,22,22,0,0,0-4-2.73c-1-.55-2-1.09-2.93-1.63l-2.5-1.44c-.4,1.53-.91,3.63-1.54,6.32s-1.32,6-2.1,9.81q-1.3,6.51-2,10.5a40.18,40.18,0,0,0-.65,5.36c-.18.76-.32,1.53-.44,2.29l-1.73,9a33.93,33.93,0,0,1-2.6,4.63c-.73,1-1.29,1.51-1.7,1.51-.2,0-.39-.17-.57-.53a8,8,0,0,1-.52-1.67l.52-2.61a5,5,0,0,1-.26-.78c.17-2,.34-4,.48-6s.31-4.06.48-6.08c.15-2.26.36-4.38.65-6.37s.61-3.82,1-5.5l-.52-2.34a15.38,15.38,0,0,0,.54-2.16c.16-.85.3-1.83.41-2.93.12-1.41.22-2.54.31-3.41a9.24,9.24,0,0,1,.3-1.82c.12-.39.24-.9.37-1.51s.28-1.34.46-2.2a6.45,6.45,0,0,1,1.52-2,12.3,12.3,0,0,0,1.78-2.18,3.92,3.92,0,0,0,1.34-.39.74.74,0,0,0,.43-.66c0-.21-.16-.4-.49-.55a5.8,5.8,0,0,0-1.5-.37,6.91,6.91,0,0,1-1.11-.11,6.45,6.45,0,0,1-1.28-.39l-3.56-1.84a7.1,7.1,0,0,1-1.73-1.1,1.58,1.58,0,0,1-.59-1.14c.18-.61.32-1.23.44-1.84l-.5-1.51a2.94,2.94,0,0,1-.2-.92,1,1,0,0,1,.19-.64.69.69,0,0,1,.55-.23l2.12.41.87-.29.87-.35a10.52,10.52,0,0,1,1.87.16,6.31,6.31,0,0,1,1.26.35l1.25.68c.44.25.86.46,1.26.65l1.39-.23a1.24,1.24,0,0,1,.48.09,6.72,6.72,0,0,0,1.26.66,11.28,11.28,0,0,0,1.69.53,17.06,17.06,0,0,1,1.78.39,5.79,5.79,0,0,1,1.17.44q4.6,2.52,8,4.74a40.08,40.08,0,0,1,5.71,4.34,21.64,21.64,0,0,1,5.26,7,18.63,18.63,0,0,1,1.69,7.75,30.55,30.55,0,0,1-3.6,13.62,70.55,70.55,0,0,1-10.73,15.14,15.52,15.52,0,0,1,1.61-.6c.67-.21,1.43-.47,2.3-.78q2.73-.65,5.64-1.38a19.87,19.87,0,0,0,3.09-1.19A7.24,7.24,0,0,0,924.76,667Z"/>
    <path class="cls-5" d="M949.69,662.81a6.21,6.21,0,0,1-.15-.83c0-.21,0-.39,0-.55a8.54,8.54,0,0,1,.35-2.59,4.75,4.75,0,0,1,1-1.81,4,4,0,0,1,.89-.55q.72-.36,1.89-.87a4.14,4.14,0,0,0,1.32-1,2.22,2.22,0,0,0,.55-1.4,6.23,6.23,0,0,1,.52-1.47c.26-.55.56-1.14.91-1.79a28,28,0,0,0,1-3.16q.87-2.88,2.44-8.48c.29-1.13.58-2.11.86-2.93l.74-2.11a23.6,23.6,0,0,1,2.28-5.11,19.46,19.46,0,0,0,1.33-2V626l-1.35-2.25,1.7-2.06,2.17-.46c.43-.06.83-.49,1.19-1.28a10.13,10.13,0,0,1,1.89-2.62,3.93,3.93,0,0,0,1-.57c.45-.32,1-.77,1.72-1.35a10.63,10.63,0,0,1,1.56-1.15,2.33,2.33,0,0,1,1-.36,2.4,2.4,0,0,1,1.69.5,1.76,1.76,0,0,1,.52,1.33,7.13,7.13,0,0,1-1,2.93,7.23,7.23,0,0,0-1,2.93,1.36,1.36,0,0,0,.19.76.89.89,0,0,0,.46.39l5.19,3q.43.18.78,1.44a22.25,22.25,0,0,1,.57,3.46c.17,1.22.31,2.23.41,3a16.71,16.71,0,0,1,.15,2c-.2,1.31-.41,2.64-.61,4q.44,2.58,1,5.41-.26,2.7-.56,5.5a1.06,1.06,0,0,0,.11.48.45.45,0,0,0,.33.25,1.68,1.68,0,0,1,1.1.41,1.35,1.35,0,0,1,.37,1,3,3,0,0,1-.24,1.31,1.81,1.81,0,0,1-.67.75,8.72,8.72,0,0,0-.89.65,2.33,2.33,0,0,0-.45.45l.56,2.85-.78,6.51a20.64,20.64,0,0,1-.13,2.11c-.09.86-.22,1.85-.39,3-.29.83-.5,1.52-.65,2.07a6.05,6.05,0,0,0-.22,1.1c.15.52.28,1.07.4,1.65-.18.83-.36,1.65-.55,2.48s-.36,1.63-.54,2.43a5.43,5.43,0,0,1-1.25,2.36,2.56,2.56,0,0,1-1.82.76.92.92,0,0,1-.85-.53,3.43,3.43,0,0,1-.28-1.58,8.44,8.44,0,0,1,.15-1.33,8.57,8.57,0,0,0,.15-1.33,6.78,6.78,0,0,0-.08-.87,6.13,6.13,0,0,1-.09-1c0-.85.08-2.22.24-4.1s.24-3.3.24-4.24c-.15-.52-.29-1.06-.44-1.61a17.2,17.2,0,0,0,.18-1.76,10.2,10.2,0,0,0,0-1.68l.66-1.24-.57-4.26-.3-.14a2.14,2.14,0,0,0-.76.21,8.17,8.17,0,0,0-1.24.66,12.76,12.76,0,0,1-1.63.39,19,19,0,0,1-2.93.25c-.52.28-1,.52-1.48.74a19.8,19.8,0,0,0-2.52.8c-1,.38-2.19.85-3.52,1.4a17.66,17.66,0,0,1-2.15.94,5,5,0,0,1-1.63.34,1.08,1.08,0,0,0-.87.42,3.07,3.07,0,0,0-.56,1.19,12.29,12.29,0,0,1-.63,2c-.34.85-.78,1.92-1.33,3.21-.11.33-.27.85-.48,1.55s-.43,1.58-.69,2.62c-.17.4-.38.89-.61,1.49s-.49,1.29-.78,2.09a11,11,0,0,1-.11,1.35c-.07.53-.18,1.15-.32,1.86-.15.42-.34,1-.59,1.62s-.56,1.39-.94,2.18a2.27,2.27,0,0,1-1,1.08,3.65,3.65,0,0,1-1.7.34,1.38,1.38,0,0,1-1.15-.52,2.7,2.7,0,0,1-.41-1.63,17,17,0,0,1,.26-2.73,27.83,27.83,0,0,1,.83-3.37c.4-1.62.75-2.93,1-3.94a11.82,11.82,0,0,0,.48-2.24c.08-.22.22-.6.39-1.15s.38-1.22.61-2,.5-1.63.74-2.61l-.22-.37-1.39.23a.85.85,0,0,1-.7-.41,1.9,1.9,0,0,1-.21-1,3.09,3.09,0,0,1,.08-.71C949.49,663.49,949.58,663.17,949.69,662.81Zm15.78-8.45a12.87,12.87,0,0,0,2.95-.51,13.21,13.21,0,0,1,3-.5c.4.09.81.17,1.21.23.73-.16,1.44-.33,2.13-.53s1.41-.38,2.13-.53a1.11,1.11,0,0,0,.65-.35.94.94,0,0,0,.22-.66c-.06-.92-.09-1.54-.09-1.88,0-.58,0-1.23.11-2s.18-1.46.33-2.22l-.52-2.06.17-1.88c-.12-.67-.21-1.31-.28-1.9a5.78,5.78,0,0,1,0-1.49c-.06-.13-.16-.33-.31-.6s-.3-.57-.47-.87c-.3-.52-.59-1-.9-1.49s-.6-1-.89-1.44a4.41,4.41,0,0,0-1.3-1.29,2.8,2.8,0,0,0-1.43-.41c-.58,0-1.17.49-1.78,1.47a17,17,0,0,0-1.7,4.44,14.32,14.32,0,0,1-.71,1.52c-.39.76-.95,1.75-1.67,3a17.77,17.77,0,0,1-1.17,4.34c-.67,1.72-1.6,3.75-2.78,6.07a1.19,1.19,0,0,0-.24.55,4.18,4.18,0,0,0,0,.51.66.66,0,0,0,.15.48.58.58,0,0,0,.45.16c.29,0,.76,0,1.42-.09S965.18,654.36,965.47,654.36Z"/>
    <path class="cls-5" d="M1017.83,667c1.16,2.66,1.74,4.07,1.74,4.22a16.73,16.73,0,0,0-1.05,1.74c-.31.61-.66,1.24-1,1.88a4.89,4.89,0,0,1-1.34,1.42,8,8,0,0,1-1.91,1c-1,.43-2,.85-3,1.26s-1.77.82-2.52,1.22a8.62,8.62,0,0,1-2.72.84l-2.79.39a9.21,9.21,0,0,1-1.89.35c-.63,0-1.2.07-1.72.07a7.91,7.91,0,0,1-1.08-.07,2,2,0,0,1-.74-.26c-.26-.18-.52-.36-.76-.55l-.72-.5c-.49-.31-.87-.54-1.13-.69s-.6-.82-.75-1.83a30.24,30.24,0,0,1-.24-4.4,30.62,30.62,0,0,1,1.08-6.43,31.6,31.6,0,0,0,1.09-5.87,6.14,6.14,0,0,0-.09-.89,6.33,6.33,0,0,1-.09-.94,44.54,44.54,0,0,1,.85-5.85,42.05,42.05,0,0,0,.85-6.35,1.37,1.37,0,0,0-.63-1.26,1.29,1.29,0,0,1-.63-1.17,20.93,20.93,0,0,1,.17-2.47,24.25,24.25,0,0,1,.61-3c.23-.88.45-1.77.65-2.68s.4-1.77.61-2.63.41-2,.63-3.07.39-2,.54-3a23.47,23.47,0,0,1,.82-2.47c.38-1,.83-2.09,1.35-3.35q.39-.92.69-1.71c.21-.54.42-1.11.66-1.72a4,4,0,0,1,1-1.3,7,7,0,0,1,1.61-1,12.25,12.25,0,0,1,1.39-.48,4.53,4.53,0,0,1,.82-.16,1.91,1.91,0,0,1,1.72.85,4.93,4.93,0,0,1,.54,2.59q0,.55-.06,1.26a10.23,10.23,0,0,1-.33,1.63c-.12.64-.22,1.19-.33,1.65s-.18.82-.23,1.1c0,.73-.08,1.4-.13,2s-.13,1.18-.22,1.7-.41.81-.7,1.33c-.2,1.44-.37,2.63-.49,3.6a15.83,15.83,0,0,0-.2,2,16.53,16.53,0,0,1-.93,4.83,15.76,15.76,0,0,0-.94,4.43,8.85,8.85,0,0,1-.21,1.67c-.15.69-.37,1.5-.66,2.45-.31,1.28-.57,2.28-.75,3s-.32,1.13-.37,1.28c-.06.46-.13,1-.2,1.61s-.18,1.33-.32,2.15q-1,5-1.5,8.27a34.87,34.87,0,0,0-.5,4.93,7.14,7.14,0,0,0,.3,2.34c.2.55.51.82.91.82a24.61,24.61,0,0,0,5.54-.64,37.84,37.84,0,0,0,5.84-1.88,2.66,2.66,0,0,0,.67-.18l.67-.28a5.47,5.47,0,0,0,.78-1.19,7.44,7.44,0,0,0,1-.75A5,5,0,0,0,1017.83,667Z"/>
    <path class="cls-5" d="M1047,667c1.16,2.66,1.74,4.07,1.74,4.22a15.09,15.09,0,0,0-1,1.74c-.32.61-.67,1.24-1,1.88a4.89,4.89,0,0,1-1.34,1.42,8,8,0,0,1-1.91,1c-1,.43-2,.85-3,1.26s-1.77.82-2.52,1.22a8.64,8.64,0,0,1-2.71.84l-2.8.39a9.21,9.21,0,0,1-1.89.35c-.62,0-1.2.07-1.72.07a7.91,7.91,0,0,1-1.08-.07,2,2,0,0,1-.74-.26l-.76-.55c-.25-.18-.48-.35-.72-.5-.49-.31-.86-.54-1.12-.69s-.61-.82-.76-1.83a30.24,30.24,0,0,1-.24-4.4,30.62,30.62,0,0,1,1.08-6.43,30.75,30.75,0,0,0,1.09-5.87,6.14,6.14,0,0,0-.09-.89,6.33,6.33,0,0,1-.09-.94,44.54,44.54,0,0,1,.85-5.85,40.75,40.75,0,0,0,.85-6.35,1.37,1.37,0,0,0-.63-1.26,1.29,1.29,0,0,1-.63-1.17,20.93,20.93,0,0,1,.17-2.47,24.25,24.25,0,0,1,.61-3c.23-.88.45-1.77.65-2.68s.41-1.77.61-2.63.41-2,.63-3.07.4-2,.54-3a23.47,23.47,0,0,1,.82-2.47c.38-1,.83-2.09,1.35-3.35.26-.61.49-1.18.7-1.71s.41-1.11.65-1.72a3.88,3.88,0,0,1,1-1.3,6.7,6.7,0,0,1,1.6-1,12.25,12.25,0,0,1,1.39-.48,4.53,4.53,0,0,1,.82-.16,1.9,1.9,0,0,1,1.72.85,4.93,4.93,0,0,1,.54,2.59q0,.55-.06,1.26a10.23,10.23,0,0,1-.33,1.63c-.11.64-.22,1.19-.32,1.65s-.19.82-.24,1.1c0,.73-.08,1.4-.13,2s-.13,1.18-.22,1.7-.41.81-.69,1.33c-.21,1.44-.37,2.63-.5,3.6a17.94,17.94,0,0,0-.2,2,16.53,16.53,0,0,1-.93,4.83,15.76,15.76,0,0,0-.94,4.43,8.85,8.85,0,0,1-.21,1.67c-.15.69-.37,1.5-.65,2.45-.32,1.28-.58,2.28-.76,3s-.31,1.13-.37,1.28c-.06.46-.13,1-.2,1.61s-.18,1.33-.32,2.15q-1,5-1.5,8.27a36.46,36.46,0,0,0-.5,4.93,7.14,7.14,0,0,0,.3,2.34c.21.55.51.82.91.82a24.61,24.61,0,0,0,5.54-.64,37.84,37.84,0,0,0,5.84-1.88,2.66,2.66,0,0,0,.67-.18l.67-.28a5.47,5.47,0,0,0,.78-1.19,7.44,7.44,0,0,0,1-.75A5,5,0,0,0,1047,667Z"/>
    <path class="cls-5" d="M1109.39,667l.58,1.38.76,1.79a2.33,2.33,0,0,1,.31.57,1.72,1.72,0,0,1,.08.48,54.18,54.18,0,0,1-5.47,2.34q-2.87,1-6,2-.82.23-2,.48c-.76.17-1.64.39-2.62.67-.78.3-1.75.66-2.89,1.07s-2.47.84-4,1.26c-1,.28-1.92.54-2.89.78s-1.93.48-2.88.69c-1.19.3-2.28.53-3.28.69a17.72,17.72,0,0,1-2.54.23,6.47,6.47,0,0,1-4.1-1.1,4,4,0,0,1-1.37-3.3,12.11,12.11,0,0,1,.76-4.29,13,13,0,0,1,2.32-3.87,15.38,15.38,0,0,1,1.15-1.65c.48-.61,1-1.3,1.67-2.06a18.48,18.48,0,0,0,1.7-1.72c.69-.78,1.53-1.86,2.51-3.23.67-.86,1.36-1.76,2.07-2.71l2.06-2.79c.32-.43.71-1,1.19-1.7s1-1.51,1.63-2.43c.37-.37.8-.82,1.28-1.37s1-1.21,1.58-2c.81-1.1,1.68-2.36,2.59-3.78s1.87-3,2.88-4.69q2.43-3.94,3.63-6.44a10.08,10.08,0,0,0,1.19-3.56,1.71,1.71,0,0,0-.69-1.21,8.68,8.68,0,0,0-2.13-1.26,20.09,20.09,0,0,0-2.15-.85,6.85,6.85,0,0,0-1.58-.34l-3.3-.14-1.17-.39q-.61-.21-1.35-.39l-2.13.73a13.78,13.78,0,0,0-1.49-.41,6.76,6.76,0,0,0-1.33-.14c-1.74.13-3.34.28-4.82.46l-1.17-.46a1.24,1.24,0,0,1-.32-.71c-.08-.35-.19-.81-.33-1.39l.78-1.54c.32-.63.67-1.34,1-2.13a8.12,8.12,0,0,0,.22-1,4.6,4.6,0,0,1,1.76-2.46,5.88,5.88,0,0,1,3.36-.84,17.88,17.88,0,0,1,1.89.09l1.54.18.61.51c.58-.16,1.06-.3,1.43-.44a2.78,2.78,0,0,1,.87-.21l5.17,1.06c.49,0,1.1.1,1.82.2s1.55.26,2.47.44a15.13,15.13,0,0,0,1.54.87c.63.31,1.36.66,2.2,1.05a9.37,9.37,0,0,1,2.9,1.77,9.07,9.07,0,0,1,2,2.5,9.79,9.79,0,0,1,1,2.27,7.52,7.52,0,0,1,.3,2,10.72,10.72,0,0,1-.34,2.79,8,8,0,0,1-1.05,2.34l-.56,1.79a5.4,5.4,0,0,1-.41,1,9.14,9.14,0,0,1-.81,1.29c-.49.7-1,1.42-1.6,2.15a5.41,5.41,0,0,1-.78,1.26,12.31,12.31,0,0,1-1.44,1.49,1.55,1.55,0,0,0-.41.41,4.72,4.72,0,0,0-.45.78,15.54,15.54,0,0,1-1.48,2.48c-.67,1-1.49,2.05-2.47,3.3-1.31,1.59-2.33,2.86-3.06,3.83s-1.26,1.64-1.54,2-.7.63-1,1-.72.73-1.13,1.19l-.56,1.37a12.36,12.36,0,0,1-1.52,2.36q-1.3,1.77-3.64,4.75a41.34,41.34,0,0,0-3.39,4.49,6,6,0,0,0-1.09,2.38.47.47,0,0,0,.35.46l1.69-.32c.41.09.8.17,1.18.23a17.55,17.55,0,0,1,2.17-.23l1.52.46a13,13,0,0,1,2.14-.57,9.35,9.35,0,0,1,1.59-.16,25.33,25.33,0,0,0,4.12-.32,16.06,16.06,0,0,0,3.52-1,18.54,18.54,0,0,0,2.17-.39c.87-.2,1.87-.45,3-.76.32-.15.66-.29,1-.41a10.69,10.69,0,0,0,1.09-.46c.46-.09.9-.18,1.32-.28A5.48,5.48,0,0,0,1109.39,667Z"/>
    <path class="cls-5" d="M1114.15,650.43a4.15,4.15,0,0,1,.32-1.42,13.27,13.27,0,0,1,1-1.88c.61-.91,1.06-1.63,1.37-2.15a5,5,0,0,0,.5-1c.14-.34.34-.78.58-1.33l.85-1.88a7.36,7.36,0,0,0,1-2.18c.37-1.11.81-2.58,1.3-4.42.23-.49.48-1.08.74-1.76s.58-1.51,1-2.45a16.43,16.43,0,0,1,.65-2.48c.32-1,.73-2,1.22-3.16s1.24-2.19,1.91-3.26a6,6,0,0,1,2.86-2.38,4.78,4.78,0,0,1,1.13,1,1.61,1.61,0,0,1,.39,1,7.21,7.21,0,0,1-1,3.05,7.46,7.46,0,0,0-1,2.59.92.92,0,0,0,.39.69,7.77,7.77,0,0,0,1.26-1.1c.61-.62,1.4-1.44,2.39-2.48a27.75,27.75,0,0,1,2.19-1.95,4.8,4.8,0,0,1,1.84-.94,8.88,8.88,0,0,1,1.44-.41,13.77,13.77,0,0,0,2-.59,4.77,4.77,0,0,0,.91-.65,3.63,3.63,0,0,1,1-.55l.65.14a5.13,5.13,0,0,0,2.17.85,13.14,13.14,0,0,0,2.25.43,5.11,5.11,0,0,1,.92.74,12.57,12.57,0,0,0,1.34,1.1,11.67,11.67,0,0,1,3.24,3.23,24.78,24.78,0,0,1,2.71,5.29,38.48,38.48,0,0,1,1.71,5.5,23,23,0,0,1,.59,5,43.54,43.54,0,0,1-1.82,13.3,22.38,22.38,0,0,1-5.52,9.25l-.84.9-1.24,1.26v.5a2.43,2.43,0,0,1-.5,1,11,11,0,0,1-1.15,1.21l-3.26,3.14c-1.1,1.06-2.22,2.09-3.38,3.1a25.44,25.44,0,0,1-4.12,3.11,14.69,14.69,0,0,1-3.78,1.61,5.25,5.25,0,0,1-1.93,1.12,8.8,8.8,0,0,1-2.8.39,19.11,19.11,0,0,1-4-.34,4.44,4.44,0,0,1-2.17-1,10.86,10.86,0,0,0-.91-.83c-.35-.27-.76-.62-1.22-1.05a5.45,5.45,0,0,1-1.39-2.18,24,24,0,0,1-1.17-4.1c-.23-1.25-.41-2.47-.54-3.64a30.12,30.12,0,0,1-.2-3.28,8.21,8.21,0,0,1,.22-1.51,6.36,6.36,0,0,0,.17-1.61,16.2,16.2,0,0,0-.09-1.83,11.39,11.39,0,0,1,.48-2.61,11.64,11.64,0,0,0,.48-2.84,1.61,1.61,0,0,0-.26-.69,6.52,6.52,0,0,0-1,1.51,1.89,1.89,0,0,1-.61.69,1.22,1.22,0,0,1-.65.23.89.89,0,0,1-.76-.41,2.21,2.21,0,0,1-.28-1.24,8.47,8.47,0,0,1,.24-1.65A8.57,8.57,0,0,0,1114.15,650.43Zm26-22.41a8.74,8.74,0,0,0-2.12.27,14.73,14.73,0,0,0-2.22.78l-4.21,2a5.23,5.23,0,0,0-1,.74,10.43,10.43,0,0,0-1.19,1.37l-2,2.62a11.62,11.62,0,0,0-1.69,4.35,72.31,72.31,0,0,0-1.3,8.25q-.43,3.9-.61,7.26c-.12,2.25-.17,4.32-.17,6.21,0,3.89.56,6.78,1.69,8.69a5.57,5.57,0,0,0,5.12,2.87,9,9,0,0,0,3.61-.9,21.11,21.11,0,0,0,4.34-2.73,31.37,31.37,0,0,0,3.51-3.14,18.76,18.76,0,0,0,2.52-3.23,22.67,22.67,0,0,0,1.37-2.7c.62-1.38,1.48-3.25,2.58-5.64a32.18,32.18,0,0,0,1.69-5.29,24.64,24.64,0,0,0,.61-5.52c-.17-.92-.36-1.82-.56-2.71l.3-2c-.29-.37-.54-.7-.74-1s-.16-.44-.21-.59a17.86,17.86,0,0,0-3.65-7.45A7.42,7.42,0,0,0,1140.19,628Z"/>
    <path class="cls-5" d="M1167.48,635.26q-.12-.91-.3-1.92c0,.27,0,.06.13-.64s.2-1.91.35-3.63a4.37,4.37,0,0,0,.5-.89c.1-.26.19-.5.28-.71a8,8,0,0,1-.59-.85,1.22,1.22,0,0,1-.19-.57c.23-1.86.45-3.64.65-5.32a2.87,2.87,0,0,1,.76-1.56,14,14,0,0,1,2-1.88,15.75,15.75,0,0,1,2-1.46,11.94,11.94,0,0,1,1.82-1,3.89,3.89,0,0,0,1.39-.69.62.62,0,0,1,.48-.28,1.16,1.16,0,0,1,1.06.74,5,5,0,0,1,.37,2.2,8.72,8.72,0,0,1-.37,2.15,8.62,8.62,0,0,0-.37,2c0,.18,0,.88.07,2.11s.11,3,.19,5.27a27,27,0,0,0,.67,5.27c.42,1.86,1,3.8,1.63,5.82a19.68,19.68,0,0,0,2.92,5.89,4.41,4.41,0,0,0,3.43,2c1,0,2.28-.68,3.91-2a45,45,0,0,0,5.73-6q2.52-3.12,4.49-5.82a43.48,43.48,0,0,0,3.2-4.95,17.57,17.57,0,0,1,2.65-3.62,21.28,21.28,0,0,1,3.47-2.94l1-.59a1.37,1.37,0,0,1,.61-.23c.51,0,.9.41,1.18,1.24a12.48,12.48,0,0,1,.4,3.66c-.17,1.5-.31,3-.43,4.45q-.39,3.43-1.15,7.15c-.51,2.47-1.16,5-2,7.7-.41,1.34-.75,2.52-1,3.53a24,24,0,0,0-.61,2.57c-.06.39-.14.89-.24,1.48s-.21,1.3-.32,2.09c-.29.76-.61,1.53-1,2.29a10.54,10.54,0,0,0-.71,2.2c-.19.86-.36,1.85-.5,3,0,.22,0,.49,0,.83s-.06.68-.09,1.05c-.66,3.12-1.34,6.14-2,9.08a4.85,4.85,0,0,1-.39,1.05,4.09,4.09,0,0,0-1.28.78,10,10,0,0,0-1.49,1.65,12.45,12.45,0,0,1-1.3,1.35,1.56,1.56,0,0,1-.78.44.78.78,0,0,1-.57-.23,1.17,1.17,0,0,1-.21-.78,2.07,2.07,0,0,1,.13-.6,22.58,22.58,0,0,0,1.06-4.49c.3-2,.59-4.37.85-7.24q0-.92.69-5t1.91-11.18c.12-.77.27-1.71.46-2.82s.42-2.39.71-3.83c.21-.73.37-1.37.5-1.9a5.82,5.82,0,0,0,.2-1.17,1.16,1.16,0,0,0-.15-.67.57.57,0,0,0-.46-.2c-.17,0-.49.23-1,.71a19.85,19.85,0,0,0-1.73,2.13c-.41.52-.82,1.07-1.24,1.65s-.86,1.15-1.33,1.69c-.78.86-1.5,1.67-2.17,2.43l-3.21,3.4-1.07.68-1.5,1a6.73,6.73,0,0,1-2.63,2.36,7.08,7.08,0,0,1-3.32,1,5.87,5.87,0,0,1-3.5-1.21,13.1,13.1,0,0,1-3.23-3.74l-1.37-2.47c-.45-.83-.93-1.65-1.45-2.48l-.22,0a18.92,18.92,0,0,0-.8,3.71c-.4,2.29-.89,5.65-1.5,10.08s-1.17,8.13-1.52,10.73a49.65,49.65,0,0,0-.52,5,6,6,0,0,1-.54,2.41,1.84,1.84,0,0,1-1.42,1,12.4,12.4,0,0,0-1.34.25l-2.08.53a1,1,0,0,1-.39-.16.38.38,0,0,1-.18-.34l.26-1.7-.43-1.74c.17-.95.35-1.86.52-2.75.11-1.83.22-3.56.3-5.18a13.79,13.79,0,0,1,.33-1.7,8.38,8.38,0,0,0,.28-1.78,4.65,4.65,0,0,0-.13-.94,4.74,4.74,0,0,1-.13-.94,53.28,53.28,0,0,1,.76-7.47,55,55,0,0,0,.76-7.52c-.09-.7-.19-1.4-.3-2.11.14-1.1.37-2.47.69-4.12S1167.08,637.46,1167.48,635.26Z"/>
    <path class="cls-5" d="M1216,680.27c.26-.24.63-.57,1.11-1s1.09-.91,1.84-1.5a4.79,4.79,0,0,0,1.26-1.14,2,2,0,0,0,.39-1.15c0-1.44,0-2.35,0-2.75s0-.7,0-.92c0-2.93.07-5.23.22-6.88a9.5,9.5,0,0,1,.56-3.07l-.09-1.38-.26-.32c0-.34,0-.64,0-.89s0-.49,0-.67a3,3,0,0,0-2.11-3.21,2.73,2.73,0,0,1-2.1-2.8c0-.43.4-1,1.21-1.58a31.72,31.72,0,0,1,3.56-2.27c.2-1.49.42-3.13.65-4.9s.51-3.72.83-5.86c-.12-.4-.2-.72-.26-1a3.21,3.21,0,0,1-.09-.71,11.6,11.6,0,0,1,.35-2.93,12.48,12.48,0,0,1,1-2.52,13.44,13.44,0,0,1,1-1.4c.41-.5.9-1.06,1.48-1.67a8.18,8.18,0,0,0,1-1.21,1.78,1.78,0,0,0,.35-.85.74.74,0,0,0-.29-.6,1.25,1.25,0,0,0-.8-.23,16,16,0,0,0-4.73,1.08,16,16,0,0,1-4.69,1.08,1.6,1.6,0,0,1-.76-.14.48.48,0,0,1-.24-.46,12.48,12.48,0,0,1,.09-1.6,3.4,3.4,0,0,1,.22-1,6.91,6.91,0,0,0,1.15-1.15,1.86,1.86,0,0,0,.41-1.1q0-.23.45-.6a4.39,4.39,0,0,1,1.46-.64l6.1-1.83,2.41-.73a36.37,36.37,0,0,1,4.64-.94,30.89,30.89,0,0,1,4.13-.3,7.18,7.18,0,0,1,.86.11,1.84,1.84,0,0,0,.87,0c.58-.1,1.19-.2,1.82-.33a12.56,12.56,0,0,1,1.52.26l3.52.71c.32-.06.67-.14,1-.23a4.76,4.76,0,0,1,2.11.41,3.27,3.27,0,0,1,1.32,1.14,4.91,4.91,0,0,0,1.17.14,3.46,3.46,0,0,1,2.07.67,5.6,5.6,0,0,1,1.62,1.9,13.3,13.3,0,0,1,1,2.36,8.39,8.39,0,0,1,.35,2.4,11.11,11.11,0,0,1-1,4.6,13.2,13.2,0,0,1-2.93,4.06c-.15.09-.85.63-2.11,1.62s-3.09,2.38-5.49,4.15a7.53,7.53,0,0,0-.91.78,15.18,15.18,0,0,1-1.26,1.05c-2.37,1.5-4.66,2.93-6.86,4.31a40.38,40.38,0,0,0-4.21,2.7c-1,.73-1.43,1.25-1.43,1.56a2.19,2.19,0,0,0,.74,1.62,6.28,6.28,0,0,0,2.26,1.27l5,1.88q2.77,1.05,5.94,2.52a3,3,0,0,1,.76.37l1,.59a13.66,13.66,0,0,1,5.54,3.6,7.42,7.42,0,0,1,1.8,4.93q0,4.08-7,7.75t-20.85,7c-.15.42-.32.85-.5,1.28s-.36.84-.5,1.24a2.32,2.32,0,0,1-.87.8,2.74,2.74,0,0,1-1.3.3,1.58,1.58,0,0,1-1.31-.62,4.22,4.22,0,0,1-.65-1.95c-.23-.21-.42-.31-.56-.28l-2.48.69c-.31-.18-.61-.34-.89-.48l-.84-.43a2.49,2.49,0,0,1-.7-.67,1.52,1.52,0,0,1-.26-.85.85.85,0,0,1,.29-.66A6.31,6.31,0,0,1,1216,680.27Zm13.33-21.74q-.69,0-1.2,1.26a16.13,16.13,0,0,0-.8,3.74c-.11,1.53-.23,3.07-.35,4.61s-.23,3.08-.34,4.61c-.18.77-.32,1.58-.44,2.43l.09.46.35.18c1.15-.33,2.44-.68,3.86-1.05,1,0,1.57-.1,1.76-.3s2.52-1.35,7-3.46a21.65,21.65,0,0,0,4.3-2.41c1-.75,1.43-1.4,1.43-2a1.44,1.44,0,0,0-.39-1,5.35,5.35,0,0,0-1.17-1,30.8,30.8,0,0,0-4.52-2.5,46.54,46.54,0,0,0-5.42-2l-.89-.3-1.11-.34c-.64-.31-1.12-.55-1.46-.74A1.82,1.82,0,0,0,1229.33,658.53Zm8.42-34.36a11.4,11.4,0,0,0-2.67.25,2.61,2.61,0,0,0-1.45.8,4.22,4.22,0,0,0-.72,1.42c-.25.71-.51,1.67-.8,2.89a17.69,17.69,0,0,0-.24,2.24c0,.83,0,1.73,0,2.7a12.25,12.25,0,0,1-1,2l.21,1.19c-.34,1.53-.59,2.75-.73,3.66a14.13,14.13,0,0,0-.22,1.83,1.44,1.44,0,0,0,.26,1,1,1,0,0,0,.74.27,6.1,6.1,0,0,0,2.06-1q1.62-1,4.49-3l4.84-3.36c1.12-.78,1.76-1.22,1.93-1.31l1.11-1.44c.36-.48.72-.94,1.06-1.4a8.68,8.68,0,0,0,1.09-1.72,3.3,3.3,0,0,0,.35-1.35,3.24,3.24,0,0,0-.65-2,5.39,5.39,0,0,0-2-1.51c-.29-.12-.8-.3-1.54-.55s-1.68-.48-2.84-.73l-2.26-.64A5.94,5.94,0,0,0,1237.75,624.17Z"/>
    <path class="cls-5" d="M1261.13,670.51a40.15,40.15,0,0,1,.2-4.33,19.9,19.9,0,0,1,.46-2.78c-.06-.52-.13-1-.22-1.6s.07-1.71.22-3.21.36-3.45.65-5.87.48-4.11.67-5.38.33-2,.41-2.32c-.06-.52-.12-1.08-.19-1.69s-.2-1.29-.37-2l-1-.73-.21-.55.15-2.59a24.15,24.15,0,0,1,.28-2.64,15,15,0,0,1,.41-2.88,20,20,0,0,1,.68-2.16,4.73,4.73,0,0,0,.28-.64,6.1,6.1,0,0,1,.41-.87l.78-3.3c.26-1.1.54-2.17.83-3.21a6.12,6.12,0,0,1,1.86-2.52,6.34,6.34,0,0,1,3-1.24,17.15,17.15,0,0,1,2.09-1,4,4,0,0,1,1.39-.34,1.1,1.1,0,0,1,.95.5,2.5,2.5,0,0,1,.35,1.42c0,.25-.12,1.1-.35,2.55s-.59,3.46-1.08,6c-.09.86-.24,1.88-.44,3s-.47,2.58-.82,4.19c-.44,1.81-.86,3.79-1.28,5.94s-.81,4.53-1.15,7.13c-.15,1.1-.31,2.18-.48,3.25s-.33,2.16-.48,3.26c-.17,1.25-.32,2.43-.45,3.55a26.12,26.12,0,0,0-.2,3,5.86,5.86,0,0,0,.07,1,6.82,6.82,0,0,1,.06.87,4.61,4.61,0,0,1,0,1.33c-.07.55-.15,1.21-.24,2s-.22,1.4-.3,2a9.54,9.54,0,0,0-.13,1.35c0,1.56,0,2.82.1,3.78a13.83,13.83,0,0,0,.24,1.9c.21.83.41,1.71.61,2.66,0,.52-.65,1.29-1.95,2.32a5.9,5.9,0,0,1-2.82,1.53,1.34,1.34,0,0,1-.94-.39,5.06,5.06,0,0,1-.84-1.17,10.46,10.46,0,0,1-.48-1.33,3.74,3.74,0,0,1-.17-1.1,3.34,3.34,0,0,1,.17-.87,3.74,3.74,0,0,0,.17-.87,12.65,12.65,0,0,0-.78-2.29q-.09.46-.09-.18Z"/>
    <path class="cls-5" d="M1313.3,667l1.65,4.22a14,14,0,0,1-1.15,1c-.45.35-1,.72-1.59,1.12-.6.21-1.33.52-2.19.92l-2.93,1.37c-.84.55-1.53,1-2.06,1.24a3.17,3.17,0,0,1-1.11.41,8.22,8.22,0,0,0-2.06.5c-1,.34-2.31.85-3.93,1.52-.87.33-1.78.68-2.75,1s-2,.66-3,.94l-2.69-.6-1.65.78-1.67,0c-.57,0-1.11-.06-1.63-.12a4.78,4.78,0,0,1-1.89-.36,1,1,0,0,1-.63-.92l.26-1.74L1282,678a3.32,3.32,0,0,1-2-.41c-.34-.28-.5-.92-.5-1.93,0-.46,0-1.22.06-2.29s.11-2.46.2-4.17a3.53,3.53,0,0,1,.28-1,3.36,3.36,0,0,0,.28-1.06,2.45,2.45,0,0,1-.3-1.24c.06-1.19.18-2.65.37-4.4s.42-3.8.71-6.18a44.67,44.67,0,0,0,.87-4.86c-.06-1.35-.11-2.72-.17-4.13q1.61-7.61,3.3-15.31a8.42,8.42,0,0,1,1-2.61,15.23,15.23,0,0,1,1.72-2.38,2.24,2.24,0,0,0,.56-.51c.15-.27.33-.61.57-1s.5-.87.82-1.39c.18-.13.46-.31.85-.55l1.58-1,1-.87,1.3-1.19a31.71,31.71,0,0,0,3.06-2.23,6.74,6.74,0,0,1,3.54-1.44c.67,0,1.33-.07,2-.12s1.3-.09,1.91-.16a13.48,13.48,0,0,1,1.52-.23l.76-.18a2.16,2.16,0,0,1,.58-.09,4.5,4.5,0,0,1,.72.07l1.24.2a10.36,10.36,0,0,0,1,0,5.39,5.39,0,0,0,.82,0,5.13,5.13,0,0,1,2.56,1.61,4,4,0,0,1,.83,2.52,14.07,14.07,0,0,1-.59,4.7c-.39,1-1,1.53-1.84,1.53a3.53,3.53,0,0,1-2.17-1q-1.21-1-6.56-1l-4.38.92a1.79,1.79,0,0,1-.5.55,3.68,3.68,0,0,1-.5.27l-1.52-.59a4,4,0,0,0-1.56,1.51,20.26,20.26,0,0,0-1.83,3.39,4.41,4.41,0,0,0-.32,1.15,10.57,10.57,0,0,0-.11,1.6q-.78,3.3-1.56,6.37-.73,3.3-1.2,5c-.3,1.13-.48,1.82-.54,2.06s-.16.6-.22.87a4.65,4.65,0,0,0-.08.82,1.58,1.58,0,0,0,.22.92.71.71,0,0,0,.65.32c.26,0,.89-.5,1.88-1.51a6.38,6.38,0,0,1,2.24-1.7c.61-.18,1.22-.38,1.84-.59s1.27-.48,1.94-.78a15.92,15.92,0,0,1,2.06-.37c1.11-.15,2.67-.33,4.66-.55l1.22.37,2.3-.46,1.22.6a5.55,5.55,0,0,1,.8,1.12,10.64,10.64,0,0,1,.67,1.44,12,12,0,0,1-.56,4.17c-.38,1-.94,1.43-1.7,1.43l-2.38-1-5.84.62c-1.93.19-3.89.39-5.88.57a12.1,12.1,0,0,0-5.6,2.52,6.54,6.54,0,0,0-2.17,4.58,14.7,14.7,0,0,1-.31,1.84c-.17.82-.37,1.85-.6,3.07l.3,1.37c-.26,1.32-.46,2.55-.61,3.71a26.63,26.63,0,0,0-.22,3.12,1.26,1.26,0,0,0,.14.67c.08.13.18.17.3.11l3.34-.28a12.82,12.82,0,0,1,1.78,0l2.3.18,2.74-.23a12.21,12.21,0,0,0,1.88-.73,6.58,6.58,0,0,1,2.63-.64,11.63,11.63,0,0,0,2.54-.28,15.09,15.09,0,0,0,2.45-.73c.78-.3,1.56-.62,2.33-.94s1.54-.63,2.32-.94a8.33,8.33,0,0,0,1.15-.5C1312.11,667.74,1312.66,667.42,1313.3,667Z"/>
    <path class="cls-5" d="M1345.15,667l1.73,4.22a6.48,6.48,0,0,1-2.67.86q-2.06.38-5.36.64a50.81,50.81,0,0,1-7.61,6.54,30.55,30.55,0,0,1-7.53,3.85c-.58.18-1.25.38-2,.59a4.67,4.67,0,0,1-1.52-.29,12.48,12.48,0,0,1-1.82-.85,7.73,7.73,0,0,1-1.61-1.33,2,2,0,0,1-.56-1.33,3.79,3.79,0,0,1,1.25-2.66,13.08,13.08,0,0,1,3.69-2.43q4.86-2.37,9.6-4.81a1.41,1.41,0,0,1,1,.3,1,1,0,0,1,.3.76c0,.82-.56,1.51-1.67,2.08s-1.67,1-1.67,1.21c.2.31.37.46.52.46.37,0,1.21-.59,2.49-1.78s1.92-1.94,1.89-2.25l-.22-1,.09-.19a10.88,10.88,0,0,0,1.67-1.88,2.7,2.7,0,0,0,.55-1.33,7,7,0,0,0-1.09-3.07,36.22,36.22,0,0,0-3.26-4.63,47.47,47.47,0,0,0-3.29-3.78c-1.1-1.11-2.16-2.1-3.17-3a10.48,10.48,0,0,1-1.05-1.08,6.41,6.41,0,0,1-.69-1c-.32-.61-.57-1.11-.76-1.51a2.35,2.35,0,0,0-.5-.78c-.14-.18-.34-.4-.58-.66l-.89-.9a6.77,6.77,0,0,1-1.41-2.79,16.49,16.49,0,0,1-.5-4.45,12.62,12.62,0,0,1,.45-3.37,9.92,9.92,0,0,1,1.33-2.91c.08-.18.17-.39.26-.64s.18-.52.3-.82a17.67,17.67,0,0,1,3.39-4.66,45.69,45.69,0,0,1,6.25-5.29c.34-.18.76-.43,1.26-.73a18.67,18.67,0,0,0,1.64-1.19,7.59,7.59,0,0,1,1.16-.83,10,10,0,0,1,1.49-.69l2.65-1.1a32.75,32.75,0,0,1,3.6-1.74,6.69,6.69,0,0,1,2.17-.55,2.55,2.55,0,0,1,2.15.92,4.24,4.24,0,0,1,.72,2.66,14.86,14.86,0,0,1-.28,3.14,3.12,3.12,0,0,1-.76,1.62q-5.13,4.32-8.25,6.49c-2.08,1.45-3.55,2.18-4.38,2.18a1.27,1.27,0,0,1-1-.37,1.56,1.56,0,0,1-.35-1.1c0-.83.65-1.74,2-2.73s1.93-1.75,1.91-2.27l-.39-.27a1,1,0,0,0-.5.14,3.46,3.46,0,0,0-.59.36,37.66,37.66,0,0,0-5.75,5.85,8,8,0,0,0-1.93,4.51,9.81,9.81,0,0,0,.5,3.07,16.07,16.07,0,0,0,1.45,3.21c.46.76,1.14,1.73,2,2.91s2,2.59,3.36,4.24q2.82,3.43,4.34,5.32a19.19,19.19,0,0,0,1.7,2,17.05,17.05,0,0,1,1.47,2.38,9,9,0,0,1,.83,2.29,13.37,13.37,0,0,1,.3,2.16c.06.85.09,1.89.09,3.11,0,.72.1,1.13.3,1.24a2.24,2.24,0,0,0,1,.16.71.71,0,0,0,.41-.11A4.09,4.09,0,0,0,1345.15,667Z"/>
  </g>
</svg>
