<svg xmlns="http://www.w3.org/2000/svg" width="380" height="700" viewBox="0 0 380 700">
  <defs>
    <style>
      .cls-1 {
        fill: #ededeb;
      }

      .cls-2 {
        fill: #d0d8d6;
      }

      .cls-3 {
        fill: #2e3a3a;
      }

      .cls-4 {
        fill: #485c7c;
      }

      .cls-5 {
        fill: #c18053;
      }

      .cls-6 {
        fill: #2d2c2c;
      }

      .cls-7 {
        fill: #efebe1;
      }

      .cls-8 {
        fill: #991a1a;
      }

      .cls-9 {
        fill: #161616;
      }

      .cls-10 {
        fill: #141414;
      }

      .cls-11 {
        fill: #181f2b;
      }

      .cls-12 {
        fill: #3f0707;
      }

      .cls-13 {
        fill: #e2dfd3;
      }
    </style>
  </defs>
  <g id="head">
    <path class="cls-1" d="M167.52,495.44c5.38,34.74,4.3,81.4,4.3,81.4-6.45,8.93-2.11,18.52-2.11,18.52,4.26,21.18.38,66.35.38,66.35-9.16,10.1-32.29,26.46-31.22,27.45s32.25-21.84,32.25-21.84S137.8,691.14,140,692.14s33.32-22.83,33.32-22.83-32.25,23.82-30.1,24.81,32.25-22.83,32.25-22.83-30.1,22.83-27.95,23.82,31.17-23.82,31.17-23.82S150.88,694.18,154,695.14s18.9-15.87,23.2-18.85,6-4.1,6-8.07a42.09,42.09,0,0,0-1.3-8.9l-3.08-61.82c-.07-1.37-.7,1,.09-.12,3.69-5.11,1.92-22.43,1.92-22.43-2.15-34.74,2.15-83.38,2.15-83.38Z"/>
    <path class="cls-2" d="M291.46,266.49c6.85,10.77,12,26.91,16.28,25.11,19.42-8.13,37.7-44.83,54-38.56,12.71,4.91,15.72,48.9,13.71,49.32C371.14,303.26,367,278,367,278s3.29,27.39.77,27.92c-4.29.9-6.31-26.92-6.31-26.92s2.49,24.69-1.17,24.91S356.45,279,356.45,279s.24,23.33-2.44,23.33c-3.43,0-3.43-19.72-3.43-19.72-27.42,20.62-28.26,45.73-44.56,45.73S269.18,288,269.18,288Z"/>
    <path class="cls-2" d="M100.09,262.91c-10.28,1.79-20.66,20.87-24.85,18.83-18.95-9.26-37-44.32-53.63-39-13,4.14-18.32,47.89-16.33,48.43,4.23,1.15,9.77-23.8,9.77-23.8s-4.75,27.16-2.26,27.84c4.22,1.14,7.74-26.51,7.74-26.51s-3.82,24.51-.17,24.94S25.48,269,25.48,269s-1.5,23.28,1.19,23.44c3.42.2,4.48-19.5,4.48-19.5,26.27,22.21,25.75,47.32,42,48.28s36.34-30.5,36.34-30.5Z"/>
    <path class="cls-3" d="M227.76,648.49c2.57,10.76-5.14,30.79,0,35.13s57.41,2.53,58.27-1,.86-9.87-2.57-12.56-20.53,0-23.12-2.69-4.11-28.81-4.11-28.81Z"/>
    <path class="cls-4" d="M150.65,427.9c-7.54,29.57,0,101.71,0,101.71,3.42-17.42,12-26.38,12-26.38,6.86,7.17,10.29,26,10.29,26,0-10.76,7.71-24.21,7.71-24.21,8.57,7.17,12.85,19.55,12.85,19.55.86-18.65,9.43-29.42,9.43-29.42,8.56,43.94,9.42,64.68,9.42,83.46s7.71,83.33,7.71,83.33c3.43-5.38,11.14-4.48,11.14-4.48,8.57,8.07,8.57,9.86,8.57,9.86a14.86,14.86,0,0,1,14.57-9.86c6,4.48,6.85,6.28,6.85,6.28C274,658.36,274,656.56,274,656.56v-2.69c0-12-6.85-76.22-6.85-104.91,0-29.65-12.85-124.65-12.85-124.65"/>
    <path class="cls-5" d="M153.22,227.94c-34.28,0-70.3,44.14-70.3,44.14,8.67-3.32,14.67-3.14,14.67-3.14-.28,9.86-6.53,18.64-6.53,18.64,6.12-4.3,15.62-6.69,15.62-6.69-.28,9.85-5.8,23.14-5.8,23.14,8.85-9.59,26-9.07,26-9.07,22.49,53.63,17.5,139.59,17.5,139.59,62.39,6.41,119.32-6.18,119.32-6.18-11.18-59.56-1.45-131-1.45-131,7.71.23,16.07,7.67,16.07,7.67-4.18-3.72-3.9-13.58-3.9-13.58,9.44-.6,18.77,3.27,18.77,3.27-5.95-2-5.6-14.52-5.6-14.52,7.74-.66,16.23,2.29,16.23,2.29-21-44.61-67.47-53.65-67.47-53.65C188.35,238.7,153.22,227.94,153.22,227.94Z"/>
    <path class="cls-2" d="M276.79,127.63c0,40.87-41.78,113.75-80.51,113.68-34.28-.07-75.12-41.72-75.12-121.44,0-26.78,30.86-69.77,75.12-69.77S276.79,73.91,276.79,127.63Z"/>
    <path class="cls-6" d="M166.23,145.86c-8.81,3.74-17.9,3.93-25,1.2a20.43,20.43,0,0,0,8,9.28c10.81,6.53,25.59.92,33-12.53a32.44,32.44,0,0,0,4-18.84C183.84,133.44,176.5,141.51,166.23,145.86Z"/>
    <path class="cls-7" d="M166.23,145.86c10.27-4.35,17.61-12.42,20.07-20.89-.75-7.31-4.24-13.77-10.14-17.34-10.81-6.53-25.59-.92-33,12.53-5,9-5.37,19.17-1.89,26.9C148.33,149.79,157.42,149.6,166.23,145.86Z"/>
    <path class="cls-8" d="M159.21,118.16c8.81-3.74,17.9-3.93,25-1.2a20.51,20.51,0,0,0-8-9.28c-10.81-6.53-25.59-.92-33,12.53a32.44,32.44,0,0,0-4,18.84C141.6,130.58,148.94,122.51,159.21,118.16Z"/>
    <path class="cls-7" d="M230.38,146.05C220,141.64,212.53,133.46,210,124.87c.76-7.41,4.29-14,10.28-17.58,11-6.62,25.94-.93,33.46,12.71,5,9.1,5.45,19.43,1.93,27.27C248.52,150,239.31,149.84,230.38,146.05Z"/>
    <ellipse class="cls-9" cx="170.49" cy="122.41" rx="4.02" ry="4.21"/>
    <ellipse class="cls-9" cx="222.92" cy="132.9" rx="3.96" ry="4.14"/>
    <path class="cls-10" d="M188.89,83.41c-1.62-5.09,16.17,1.41,18.86,2.82s4.88,3.79,7.83,5.06,11.7.57,11.7,3.39-10.77,0-12.79-.7-6.74-4.93-8.09-5.64S189.57,85.52,188.89,83.41Z"/>
    <path class="cls-10" d="M205,96c1.78.52,2.48-6.1,3.79-8.75s3.9-8,2.95-8.62-3.71,2.7-3.92,4.54S203.24,95.5,205,96Z"/>
    <path class="cls-10" d="M219,80.6c1.72,2.17.59,3.78,0,8.14s-2.91,13-4.43,11.85.78-9.07,1.55-10.66.21-6.74.87-8.15A2,2,0,0,1,219,80.6Z"/>
    <path class="cls-10" d="M195.31,96.09c-.79-2.68.13-4.47,1.08-9.55s3.55-15,4.37-13.54-1.7,10.57-2.39,12.38-1,7.88-1.63,9.48S195.31,96.09,195.31,96.09Z"/>
    <path class="cls-11" d="M121.16,131.66c-.67-17.69,7.19-32,13.88-37.88s20.53-5.84,28.43-11.47,9.91-16.08,20.69-16.89,17.22,5,26.12,6.9S231.19,66,238,71a72.48,72.48,0,0,1,18.24,20.21c4.73,8.13,14.15,10.59,18.18,19.3a31.62,31.62,0,0,1,2.39,18.38c2.69-26.07,5.33-51.69,4.68-57.93a.6.6,0,0,0-1.08-.32A83.75,83.75,0,0,0,274,85.94c-3.56-18.68-2.31-31.07-1.78-34.7a.23.23,0,0,0-.42-.16A80,80,0,0,0,263,71.84a246,246,0,0,1-6-43.43.06.06,0,0,0-.11,0c-4,15.39-9.88,21.73-9.88,21.73-7.53-19-7-33-6.49-38.12a.36.36,0,0,0-.67-.21c-9.68,18.63-17.89,24.72-17.89,24.72-5.85-19.88-6.66-30.47-6.74-34a.17.17,0,0,0-.33,0,103.62,103.62,0,0,1-14.26,32.43C192.69,17.19,193,4.31,193.4.12a.11.11,0,1,0-.21,0c-6.8,24-18.46,37.25-18.46,37.25C165.85,23.19,164.67,12,164.59,7.63a.14.14,0,0,0-.27,0C160.2,31.43,148.47,45.3,148.47,45.3c-2.81-6.13-3.66-16.52-3.93-22.32a.28.28,0,0,0-.55,0A110.86,110.86,0,0,1,132.3,60.58c-2.69-9.07-2.69-20.91-2.69-20.91-3.37,29.46-9.43,41-9.43,41-4.71-12.06-2.72-21.44-2.72-21.44C110.08,78.28,121.16,131.66,121.16,131.66Z"/>
    <g>
      <path class="cls-12" d="M166.63,199.22c.18-16,24-5.11,31.33-5.11,7.79,0,28.53-13.58,29,3.26.56,19-17.09,10.86-28,10.86C191.73,208.23,166.42,216.82,166.63,199.22Z"/>
      <path class="cls-13" d="M181.35,193.56a24.37,24.37,0,0,0,0,6.78l1.56,1.48c3.11-2.28,3.63-6.63,3.63-6.63A9.57,9.57,0,0,0,181.35,193.56Z"/>
      <path class="cls-13" d="M190.69,195.74a22.11,22.11,0,0,0,0,6.08c3.12,1,4.07,0,4.07,0-.95-3.91.7-6.08.7-6.08A6.4,6.4,0,0,0,190.69,195.74Z"/>
      <path class="cls-13" d="M199.24,195.25c-.76,3.2,0,4.35,0,4.35,1.84-.6,3.91,1,3.91,1a20.38,20.38,0,0,0,1.2-5.38A13.08,13.08,0,0,0,199.24,195.25Z"/>
      <path class="cls-13" d="M208.34,193.56c-.52,2.72.36,5.76,1.7,5.19a7.75,7.75,0,0,0,4.53-6.82C212,191.39,208.34,193.56,208.34,193.56Z"/>
      <path class="cls-13" d="M206.07,208.1a9,9,0,0,1-.14-4.8,7,7,0,0,1,4.11-2.67c.9,2.17,0,7.47,0,7.47C207.3,208.78,206.07,208.1,206.07,208.1Z"/>
      <path class="cls-13" d="M182.24,208.4c.67-6.69,2.83-6.15,2.83-6.15,2,1.64,3.18,6.15,3.18,6.15A11.76,11.76,0,0,1,182.24,208.4Z"/>
      <path class="cls-13" d="M216.13,208.4c-.52-4.51-.66-7.77-.66-7.77a9,9,0,0,0,4.06-2.94c1.79,2.39.71,7.84.71,7.84C219.76,207.69,216.13,208.4,216.13,208.4Z"/>
      <path class="cls-13" d="M172,203.19c1-2.35,3.54-1.19,3.54-1.19,2.71,2,2.65,6.4,2.65,6.4C174.6,207.18,172,203.19,172,203.19Z"/>
      <path class="cls-13" d="M193.73,207c.08-2,2.62-3.95,2.62-3.95,2.13.29,3.63,3.95,3.63,3.95A17.27,17.27,0,0,1,193.73,207Z"/>
    </g>
    <path class="cls-6" d="M230.46,146.05c8.94,3.79,18.15,4,25.32,1.22a20.67,20.67,0,0,1-8.14,9.41c-10.95,6.62-25.94.93-33.46-12.71a32.91,32.91,0,0,1-4.07-19.1C212.61,133.46,220.05,141.64,230.46,146.05Z"/>
    <path class="cls-8" d="M237.41,118c-8.94-3.79-18.15-4-25.32-1.22a20.78,20.78,0,0,1,8.14-9.41c11-6.62,25.94-.93,33.46,12.71a32.84,32.84,0,0,1,4.07,19.1C255.26,130.56,247.82,122.38,237.41,118Z"/>
  </g>
</svg>
