<svg xmlns="http://www.w3.org/2000/svg" width="380" height="700" viewBox="0 0 380 700">
  <defs>
    <style>
      .cls-1 {
        fill: #d9dddc;
      }

      .cls-2 {
        fill: #2e3a3a;
      }

      .cls-3 {
        fill: #7f3d44;
      }

      .cls-4 {
        fill: #7ea565;
      }

      .cls-5 {
        fill: #2d2c2c;
      }

      .cls-6 {
        fill: #efebe1;
      }

      .cls-7 {
        fill: #991a1a;
      }

      .cls-8 {
        fill: #161616;
      }

      .cls-9 {
        fill: #141414;
      }

      .cls-10 {
        fill: #3f0707;
      }

      .cls-11 {
        fill: #e2dfd3;
      }

      .cls-12 {
        fill: #212121;
      }
    </style>
  </defs>
  <g id="head">
    <path class="cls-1" d="M116,244.45c-10.28,1.81-64,46.48-66,67.69s14,81.85,21,97c5.51,11.94,10,42.9,12,43.45,4.23,1.16,2-21.22,2-21.22s3.51,22.56,6,23.24c4.23,1.16,0-21.22,0-21.22s4.35,20.79,8,21.22-3-21.22-3-21.22,7.6,18.4,10,17.18c4-2-7-29.3-7-29.3,8,7.07,19,13.13-2-10.11-2-2.25-6.61-10.32-8-13.13-5-10.1-15-61.64-10-76.79,3.7-11.22,57-42.44,57-42.44Z"/>
    <path class="cls-1" d="M275.83,245.46c10.28,1.82,64,46.48,66,67.69s-14,81.85-21,97c-5.52,11.94-10,42.9-12,43.45-4.23,1.16-2-21.22-2-21.22s-3.51,22.56-6,23.24c-4.23,1.17,0-21.22,0-21.22s-4.35,20.79-8,21.22,3-21.22,3-21.22-7.6,18.4-10,17.18c-4-2,7-29.3,7-29.3-8,7.07-19,13.13,2-10.1,2-2.26,6.61-10.33,8-13.14,5-10.1,15-61.64,10-76.79-3.7-11.22-57-42.44-57-42.44Z"/>
    <path class="cls-2" d="M227.76,648.13c2.57,10.91-5.14,31.22,0,35.61s57.41,2.57,58.27-1.07.86-10-2.57-12.72-20.53,0-23.12-2.73-4.11-29.2-4.11-29.2Z"/>
    <path class="cls-2" d="M191.7,648.13c-2.57,10.91,5.14,31.22,0,35.61s-57.41,2.57-58.27-1.07-.86-10,2.57-12.72,20.53,0,23.12-2.73,4.11-29.2,4.11-29.2Z"/>
    <path class="cls-3" d="M150.65,424.52c-4.07,16.19-.15,86.5-2.59,147.68-2.06,51.91-.06,92.13-.06,92.13,4.35-11.8,15-5.15,15-5.15,6.85,7.27,9.93,10.38,9.93,10.38,0-10.91,13.07-12.45,13.07-12.45,8.57,7.28,15,7.22,15,7.22.39-8.62-1.05-37,1-74.25,2.45-44.4.92-97.39.92-97.39,8.56,44.54,9.42,65.57,9.42,84.6s7.71,84.48,7.71,84.48c3.43-5.46,11.14-4.55,11.14-4.55,8.57,8.18,8.57,10,8.57,10,4.28-10.91,14.57-10,14.57-10,6,4.55,6.85,6.36,6.85,6.36C274,658.13,274,656.31,274,656.31v-2.73c0-12.12-6.85-77.26-6.85-106.35,0-30.05-12.85-126.34-12.85-126.34"/>
    <path class="cls-4" d="M153.22,222.83C117,231.31,79,263.64,79,263.64c8.67-3.36,18.59.76,18.59.76-.28,10-6.53,18.89-6.53,18.89,6.12-4.36,21.94-2.47,21.94-2.47-.28,10-7,23.24-7,23.24,8.84-9.73,22.86-13.29,22.86-13.29,22.49,54.36,17.5,141.5,17.5,141.5,62.39,6.5,111.32-6.27,111.32-6.27-11.18-60.37,2.55-132.81,2.55-132.81C267.94,293.43,280,302,280,302c-1-6.06-6-18.19-6-18.19,9.6-4.36,20,0,20,0-1-5.05-5-19.19-5-19.19,7.73-.67,23,3,23,3-32-37.39-75.67-43.95-75.67-43.95C188.35,233.74,153.22,222.83,153.22,222.83Z"/>
    <path class="cls-1" d="M274.22,127.77c0,38.1-20.64,106.53-76.22,106.57-46.42,2-72.42-39.49-72.42-113.8,0-25,31.14-65,71.84-65S274.22,77.69,274.22,127.77Z"/>
    <path class="cls-5" d="M169.78,146.85c-8.1,3.48-16.46,3.66-23,1.12a19.08,19.08,0,0,0,7.39,8.65c9.94,6.09,23.53.86,30.35-11.68a30.59,30.59,0,0,0,3.69-17.57C186,135.27,179.23,142.79,169.78,146.85Z"/>
    <path class="cls-6" d="M169.78,146.85c9.45-4.06,16.19-11.58,18.46-19.48-.69-6.82-3.9-12.83-9.33-16.16-9.94-6.09-23.53-.86-30.35,11.68-4.55,8.37-4.94,17.87-1.75,25.08C153.32,150.51,161.68,150.33,169.78,146.85Z"/>
    <path class="cls-7" d="M163.33,121c8.1-3.48,16.46-3.66,23-1.11a19.06,19.06,0,0,0-7.39-8.66c-9.94-6.08-23.53-.85-30.35,11.69a30.56,30.56,0,0,0-3.69,17.56C147.14,132.61,153.88,125.08,163.33,121Z"/>
    <path class="cls-6" d="M229.7,147c-9.58-4.11-16.42-11.75-18.72-19.75.7-6.91,4-13,9.46-16.39,10.08-6.17,23.85-.86,30.77,11.85,4.62,8.48,5,18.11,1.77,25.42C246.38,150.74,237.91,150.56,229.7,147Z"/>
    <ellipse class="cls-8" cx="173.7" cy="124.99" rx="3.7" ry="3.93"/>
    <ellipse class="cls-8" cx="222.84" cy="135.78" rx="3.64" ry="3.86"/>
    <g>
      <path class="cls-9" d="M220.67,91.25c1.49-2.54-14.86.7-17.34,1.4s-4.49,1.89-7.2,2.53-10.76.28-10.76,1.69,9.91,0,11.77-.35,6.19-2.46,7.43-2.81S220.05,92.3,220.67,91.25Z"/>
      <path class="cls-9" d="M205.84,97.53c-1.63.26-2.28-3-3.48-4.36s-3.59-4-2.72-4.29,3.41,1.35,3.61,2.26S207.48,97.27,205.84,97.53Z"/>
      <path class="cls-9" d="M193,89.85c-1.58,1.08-.54,1.88,0,4.06s2.68,6.45,4.07,5.9-.72-4.52-1.42-5.31-.19-3.36-.8-4.06A2.47,2.47,0,0,0,193,89.85Z"/>
      <path class="cls-9" d="M214.77,97.56c.73-1.33-.12-2.22-1-4.75s-3.27-7.45-4-6.74,1.56,5.26,2.2,6.16.94,3.93,1.49,4.72A1.29,1.29,0,0,0,214.77,97.56Z"/>
    </g>
    <g>
      <path class="cls-10" d="M177.38,196.62c.13-16.75,16.14-5.35,21.08-5.35,5.24,0,19.2-14.24,19.53,3.41.38,19.94-11.5,11.39-18.83,11.39C194.27,206.07,177.24,215.08,177.38,196.62Z"/>
      <path class="cls-11" d="M187.28,190.7a40.78,40.78,0,0,0,0,7.1l1.05,1.55c2.1-2.39,2.45-6.95,2.45-6.95A4.91,4.91,0,0,0,187.28,190.7Z"/>
      <path class="cls-11" d="M193.57,193a36.06,36.06,0,0,0,0,6.38c2.1,1,2.74,0,2.74,0a11.54,11.54,0,0,1,.47-6.38A2.93,2.93,0,0,0,193.57,193Z"/>
      <path class="cls-11" d="M199.32,192.47c-.51,3.35,0,4.55,0,4.55,1.24-.63,2.63,1.08,2.63,1.08a32.07,32.07,0,0,0,.81-5.63A5.65,5.65,0,0,0,199.32,192.47Z"/>
      <path class="cls-11" d="M205.45,190.7c-.35,2.84.24,6,1.14,5.44,3-2,3-7.15,3-7.15C207.89,188.42,205.45,190.7,205.45,190.7Z"/>
      <path class="cls-11" d="M203.92,205.94a14.54,14.54,0,0,1-.1-5,4.91,4.91,0,0,1,2.77-2.8c.6,2.28,0,7.84,0,7.84C204.75,206.64,203.92,205.94,203.92,205.94Z"/>
      <path class="cls-11" d="M187.89,206.25c.44-7,1.9-6.44,1.9-6.44,1.34,1.71,2.14,6.44,2.14,6.44A5.23,5.23,0,0,1,187.89,206.25Z"/>
      <path class="cls-11" d="M210.69,206.25c-.35-4.73-.45-8.15-.45-8.15,1.49-.57,2.73-3.08,2.73-3.08,1.21,2.51.48,8.22.48,8.22A4.09,4.09,0,0,1,210.69,206.25Z"/>
      <path class="cls-11" d="M181,200.79c.71-2.47,2.38-1.25,2.38-1.25,1.82,2.11,1.78,6.71,1.78,6.71C182.74,205,181,200.79,181,200.79Z"/>
      <path class="cls-11" d="M195.61,204.78a7.93,7.93,0,0,1,1.77-4.14c1.43.31,2.44,4.14,2.44,4.14A7.61,7.61,0,0,1,195.61,204.78Z"/>
    </g>
    <path class="cls-5" d="M229.77,147c8.22,3.53,16.69,3.71,23.29,1.13a19.21,19.21,0,0,1-7.49,8.77c-10.07,6.18-23.85.87-30.77-11.84a31,31,0,0,1-3.74-17.81C213.36,135.28,220.2,142.92,229.77,147Z"/>
    <path class="cls-7" d="M236.16,120.84c-8.22-3.53-16.69-3.71-23.28-1.13a19.24,19.24,0,0,1,7.48-8.77c10.08-6.17,23.86-.87,30.78,11.84a31,31,0,0,1,3.74,17.81C252.58,132.59,245.74,125,236.16,120.84Z"/>
    <path class="cls-12" d="M125.43,132.2c14.71-16.13,10.11-30.36,10.11-30.36,12-5.69,18.91-19.38,18.91-19.38,15.12,3.26,22.42,0,22.42,0C192.56,71.49,197.42,64,197.42,64c9.86,11.26,18,14.89,18,14.89,14.88-1.73,24.24-5.21,24.24-5.21-.17,15.81,7.8,25.31,7.8,25.31,24.22,6.62,27,31.28,27,31.28C276.25,102.79,302,82.88,302,82.88c-21-3.38-33.11-14.23-33.11-14.23-6.43-19,9.2-39.84,9.2-39.84C258.78,43,229.35,43,229.35,43,219.5,35.59,222,7,222,7c-4.63,14.89-32.19,28.45-32.19,28.45-18.55-7-27.59-26.55-27.59-26.55,1.91,18.4-9.19,37-9.19,37C131.08,52.55,108,40.2,108,40.2c12.87,19,16.55,34.14,16.55,34.14C117,82.27,96,90.46,96,90.46,122.42,97.08,125.43,132.2,125.43,132.2Z"/>
    <path class="cls-7" d="M166,342c3.07-9,8.87-10.5,12.71-9.5S182.58,352,185,354s5.78,1.8,10,6,5.52,7.22,3,16-5.33,25.17-12.39,25.5-10-16-13-19-10.75,6-15.35,0,3.84-11.1,3.07-14-8.24-10.06-7.19-14S166,342,166,342Z"/>
    <path class="cls-7" d="M162.34,398.67c.32-3.38.92-3.94,1.32-3.57s.4,7.32.65,8.07.6.68,1,2.25.57,2.71.31,6-.55,9.44-1.28,9.57-1-6-1.35-7.13-1.11,2.25-1.58,0,.39-4.17.31-5.26-.85-3.77-.74-5.26A24.9,24.9,0,0,1,162.34,398.67Z"/>
    <path class="cls-7" d="M71.32,371.59c-.55-2.4,0-4.24.44-4.09s.86,3.17,1.25,3.61.66.28,1.4,1.23,2.16,1.69,2.74,4,.79,6.62.22,6.92-1.39-1.14-2.68-3.47c-.48-.88-.54.86-1.48-.55s-.68-3-1-3.68-1.62-2.34-1.89-3.39S71.32,371.59,71.32,371.59Z"/>
    <path class="cls-7" d="M67.5,398.5c-1.71-9.94-.58-15.19,1.71-16.1s7.29,13.1,9.29,13.1,1-8,3-8,.67,8.74,3,12c2.5,3.5,6.73,1.27,9,9C96,417,107,443,103,442c-2.27-.57-5-9-8-11-1-.65,4,16,2,17-1.79.9-4-13-6-15s2.79,10.21,0,13c-3,3-4.73-14.42-6-14s-.47,16.22-2,16c-2.44-.35-7-30-7-30Z"/>
    <path class="cls-7" d="M306.52,395.34c3.31-7.07,4.18-11.21,6.5-12.16s.88,11.22,3.2,10.26,6.53-8.91,6.53-8.91,3.5,2.48-.59,10.16-5.17,24.63-8.37,20.19c-2.87-4-5,2.32-6.78-1.1S306.52,395.34,306.52,395.34Z"/>
    <path class="cls-7" d="M296.78,429.21c-.33-2.45-.84-2.59-.33-5.19s2.38-3.53,2.89-6.13a26.75,26.75,0,0,0,.29-5.93s1.52-4.78,1.73-1.53,3.07.83,1.28,5.68c-1.61,4.35-1.06,5.49-2.25,8.44A11.48,11.48,0,0,1,296.78,429.21Z"/>
    <path class="cls-7" d="M321.56,383.27c-2.54-2.06-3.54-1.77-4.73-4.67s1.26-5.3.07-8.19a21.63,21.63,0,0,0-4.26-5.88s-1.22-5.8,1.76-2.87,6-1.71,6.75,4.38c.71,5.44,2.59,6.09,2.9,9.86S321.56,383.27,321.56,383.27Z"/>
  </g>
</svg>
