<svg xmlns="http://www.w3.org/2000/svg" width="320" height="700" viewBox="0 0 320 700">
  <defs>
    <style>
      .cls-1 {
        fill: #d9dddc;
      }

      .cls-2 {
        fill: #d0d8d6;
      }

      .cls-3 {
        fill: #2e3a3a;
      }

      .cls-4 {
        fill: #dbc258;
      }

      .cls-5 {
        fill: #3030a0;
      }

      .cls-6 {
        fill: #383737;
      }

      .cls-7 {
        fill: #efebe1;
      }

      .cls-8 {
        fill: #a02828;
      }

      .cls-9 {
        fill: #161616;
      }

      .cls-10 {
        fill: #3f0707;
      }

      .cls-11 {
        fill: #e2dfd3;
      }

      .cls-12 {
        fill: #141414;
      }

      .cls-13 {
        fill: #3f3f3f;
      }
    </style>
  </defs>
  <g id="head">
    <path class="cls-1" d="M194.48,291.08c14.35,3.38,43.06,27,49.81,25.33s39.81-37.68,39.81-43.59-8.85-14.66-7.66-17c1.69-3.38,8.66,10.75,12.89,9.91s5.91-19.42,8.44-19.42c3.38,0,.31,15.26.31,15.26s8.39-15.76,10.67-14.42c2.87,1.69-7.45,18.42-7.45,18.42s11.77-14.52,12.51-10.82c.85,4.22-9.13,14.2-9.13,14.2s10.82-8.24,10.82-5.76-16,16.45-20.26,22.8-41.66,57.48-54.33,55.79-57.41-32.08-57.41-32.08Z"/>
    <path class="cls-1" d="M59.5,285c-26,15-42.37,45.43-43.69,59.07-1.08,11.12,14.69,48.08,21.06,63.21s7.37,30.19,10.72,28.4c.75-.4,0-11.37,0-11.37s4.6,11.65,6.15,10.55c2.5-1.77-2.82-14.2-2.82-14.2s5.4,12.91,7.92,12-5.39-14.83-5.39-14.83,6.53,8.93,9,7.16-8.87-11.36-8.94-13.91,9.68,1,9.54-4.07c0-1.7-11.76.5-15.3-4.5s-14.89-53.81-11.66-59.85S70.5,304,70.5,304Z"/>
    <path class="cls-2" d="M85.5,504c-2,46,5,58,5,71,0,16.12-17,79-17,79l15,5c11-18,29-70,29.55-80.5C119,561,115.5,482,115.5,482Z"/>
    <path class="cls-3" d="M75.16,651.23A3.16,3.16,0,0,0,71,653.72C69.19,664.39,63.7,670.6,65.5,676c2,6,36.61,17,42,17,5,0,8.2-2.94,7.6-7.47S106.5,676,101.5,673c-4.62-2.77-10.61-5.51-11.31-9.26s.7-6.21,0-7C89.7,656.22,80.46,653,75.16,651.23Z"/>
    <path class="cls-2" d="M132.5,493c-4,11-6.82,73.1-5,84,3,18,27,69,27,69l16-9c-7-34-16.47-48-17.15-60-.85-15,17.15-78,17.15-78Z"/>
    <path class="cls-3" d="M167.5,636c1.13-1.13,4.11-1.33,5,0,2,3,6,10,6,17,0,5-22,29-29,32-3.79,1.62-10-3-10-9s12.3-17,15-20-1-7-1-9S165.5,638,167.5,636Z"/>
    <path class="cls-4" d="M102.5,241c-15,19-75,65-75,65,13,0,18-2,18-2-2.31,11.95-10,17-10,17,10-7,18-6,18-6-1,9-7,19-7,19,8-9,19.72-15.6,19.72-15.6C83,347.84,88.94,413.93,88.94,413.93c17.16,7.37,72.49,2.16,72.49,2.16-5.2-38.22,27.27-95.56,27.27-95.56,13.87,5.35,27.63,14.94,27.63,14.94A128.64,128.64,0,0,0,207.5,319a131,131,0,0,1,21.13.55A158.63,158.63,0,0,0,217.5,307c8-.8,16-1,16-1-69-44-90-67-90-67Z"/>
    <path class="cls-5" d="M87.5,400c-48.38,123-35,149-35,149,11-23,34-40,34-40,8,11,14,33,14,33,4-19,25-35,25-35,17,11,25,31,25,31,3-17,16-31,16-31,14,7,26,27,26,27,5-31-30.47-136-30.47-136C124.5,403,87.5,400,87.5,400Z"/>
    <path class="cls-1" d="M202.72,137.55C197.5,199,159.5,246.13,119.77,246.06,79.5,246,53.5,188,50.64,129.92,49.22,101,78.87,45.31,129,45.31S207.63,79.66,202.72,137.55Z"/>
    <path class="cls-6" d="M93.52,164.91c-8.44,3.42-17.15,3.6-23.93,1.1a19.05,19.05,0,0,0,7.69,8.5c10.36,6,24.52.84,31.63-11.48a28.64,28.64,0,0,0,3.85-17.25C110.39,153.53,103.36,160.93,93.52,164.91Z"/>
    <path class="cls-7" d="M93.52,164.91c9.84-4,16.87-11.38,19.24-19.13-.72-6.7-4.07-12.61-9.73-15.87-10.35-6-24.51-.85-31.62,11.47-4.74,8.22-5.15,17.55-1.82,24.63C76.37,168.51,85.08,168.33,93.52,164.91Z"/>
    <path class="cls-8" d="M86.79,139.54c8.45-3.42,17.16-3.59,23.94-1.09A19,19,0,0,0,103,130c-10.35-6-24.51-.84-31.62,11.47a28.64,28.64,0,0,0-3.85,17.25C69.92,150.92,77,143.53,86.79,139.54Z"/>
    <circle class="cls-9" cx="94.78" cy="145.56" r="4.71"/>
    <path class="cls-6" d="M157.18,165c8.52,3.45,17.29,3.63,24.13,1.11a19.21,19.21,0,0,1-7.76,8.57c-10.44,6-24.71.84-31.88-11.57a28.85,28.85,0,0,1-3.87-17.39C140.18,153.54,147.26,161,157.18,165Z"/>
    <path class="cls-7" d="M157.18,165c-9.92-4-17-11.47-19.38-19.28.72-6.75,4.09-12.71,9.79-16,10.44-6,24.72-.85,31.88,11.56,4.79,8.28,5.19,17.69,1.84,24.83C174.47,168.64,165.7,168.46,157.18,165Z"/>
    <path class="cls-8" d="M164,139.44c-8.51-3.45-17.28-3.62-24.12-1.1a19.1,19.1,0,0,1,7.76-8.57c10.44-6,24.71-.85,31.88,11.57a28.84,28.84,0,0,1,3.87,17.38C181,150.91,173.89,143.46,164,139.44Z"/>
    <circle class="cls-9" cx="155.91" cy="154.75" r="4.82"/>
    <path class="cls-10" d="M104.05,208c.13-12.23,14.77-5.73,19.51-5.73,5,0,19.18-8.57,19.5,4.31.36,14.55-10.78,9.61-17.83,9.61C120.54,216.18,103.92,221.46,104.05,208Z"/>
    <path class="cls-11" d="M113.57,203.66a21.83,21.83,0,0,0,0,5.19l1,1.13c2-1.74,2.34-5.07,2.34-5.07A5.47,5.47,0,0,0,113.57,203.66Z"/>
    <path class="cls-11" d="M119.61,205.32a19.83,19.83,0,0,0,0,4.66c2,.75,2.62,0,2.62,0a6.6,6.6,0,0,1,.46-4.66A3.56,3.56,0,0,0,119.61,205.32Z"/>
    <path class="cls-11" d="M125.13,205c-.49,2.44,0,3.32,0,3.32,1.19-.46,2.53.79,2.53.79a18,18,0,0,0,.77-4.11A7,7,0,0,0,125.13,205Z"/>
    <path class="cls-11" d="M131,203.66c-.33,2.08.24,4.41,1.1,4,2.93-1.47,2.93-5.22,2.93-5.22C133.36,202,131,203.66,131,203.66Z"/>
    <path class="cls-11" d="M129.55,214.79a8.1,8.1,0,0,1-.1-3.68,4.45,4.45,0,0,1,2.66-2c.58,1.66,0,5.72,0,5.72A3.29,3.29,0,0,1,129.55,214.79Z"/>
    <path class="cls-11" d="M114.15,215c.43-5.12,1.82-4.71,1.82-4.71C117.26,211.56,118,215,118,215A6.49,6.49,0,0,1,114.15,215Z"/>
    <path class="cls-11" d="M136,215c-.33-3.46-.42-6-.42-6a6.06,6.06,0,0,0,2.62-2.25c1.16,1.83.46,6,.46,6C138.39,214.47,136,215,136,215Z"/>
    <path class="cls-11" d="M107.52,211a1.55,1.55,0,0,1,2.29-.91c1.75,1.54,1.71,4.9,1.71,4.9C109.21,214.08,107.52,211,107.52,211Z"/>
    <path class="cls-11" d="M121.57,213.94a5.26,5.26,0,0,1,1.69-3c1.38.23,2.35,3,2.35,3A9.43,9.43,0,0,1,121.57,213.94Z"/>
    <path class="cls-12" d="M119.57,94.62c-3.5,2.8,17.89,7.39,21.28,7.78s6.56-.18,10.17.44,12.8,5.67,13.77,3.65-11.6-5.59-14-6.14-9,0-10.64-.16S121,93.46,119.57,94.62Z"/>
    <path class="cls-12" d="M141.28,94c2.09.55.57,5.65,1.06,8.22s1.47,7.72.22,7.7-3.07-3.86-2.67-5.29S139.19,93.43,141.28,94Z"/>
    <path class="cls-12" d="M151,112.24c2.59-.66,1.93-2.39,2.81-5.82s1.32-10.77-.69-10.77-2.29,6.89-2,8.43-2.1,4.92-1.87,6.27A2.8,2.8,0,0,0,151,112.24Z"/>
    <path class="cls-12" d="M130.86,88.89c-1.78,1.5-1.41,3.26-2.14,7.38s-1.33,12.54,0,12,1.82-8.44,1.69-10.09S132.07,92,132,90.52,130.86,88.89,130.86,88.89Z"/>
    <path class="cls-13" d="M144.91,118.45a1,1,0,0,0,1.11,1.19c36.41-5.73,39.33,17.62,41.84,16.06,3.8-2.35-10.25-29.21-41.68-20.15C145.36,115.79,145,117.28,144.91,118.45Z"/>
    <path class="cls-13" d="M106.06,118.66a1,1,0,0,1-1.11,1.15c-36.19-4.49-39.22,17.78-41.71,16.36-3.77-2.14,10.36-28,41.57-20.23C105.63,116.14,106,117.55,106.06,118.66Z"/>
    <path class="cls-13" d="M197.5,125c-6.4,63.91,22.12,163.22,22.12,163.22-4.27-47.52,8.41-92.8,8.41-92.8,10.66,8.2,16.35,26.22,16.35,26.22,2.18-43.64-26.11-100.59-26.11-100.59a49.09,49.09,0,0,1,26.16,22.59C233.8,83.18,210.84,70.56,211,70.87c2.84-18.85-4.11-39.56-4.11-39.56-21.33-1.64-41.44,4.32-41.44,4.32C142.71,23.34,137.37,7,137.37,7c-18.48,9.83-28.78,28.63-28.78,28.63C83,38.91,70,27.26,70,27.26,61.49,35.46,53.84,61,53.84,61,21.1,82.37,9.05,140.52,9.05,140.52c13.51-18.85,24.89-22.12,24.89-22.12C13.3,166.66,5.5,228.2,5.5,228.2c12.09-24.58,25.59-32,25.59-32C36.7,236.35,28.19,302,28.19,302,62.93,239.6,57.5,124,57.5,124c59.56-25.93,90-49,90-49C158.48,99.16,197.5,125,197.5,125Z"/>
  </g>
</svg>
